G04*
G04 #@! TF.GenerationSoftware,Altium Limited,Altium NEXUS,3.1.12 (69)*
G04*
G04 Layer_Physical_Order=3*
G04 Layer_Color=128*
%FSLAX25Y25*%
%MOIN*%
G70*
G04*
G04 #@! TF.SameCoordinates,C12BC461-16F2-471F-B13C-3D38B02939EA*
G04*
G04*
G04 #@! TF.FilePolarity,Negative*
G04*
G01*
G75*
%ADD16C,0.00000*%
%ADD59C,0.02000*%
%ADD62C,0.01000*%
%ADD72C,0.04000*%
G04:AMPARAMS|DCode=73|XSize=95.433mil|YSize=95.433mil|CornerRadius=0mil|HoleSize=0mil|Usage=FLASHONLY|Rotation=0.000|XOffset=0mil|YOffset=0mil|HoleType=Round|Shape=Relief|Width=10mil|Gap=10mil|Entries=4|*
%AMTHD73*
7,0,0,0.09543,0.07543,0.01000,45*
%
%ADD73THD73*%
%ADD74C,0.05512*%
%ADD75C,0.06299*%
%ADD77C,0.04134*%
%ADD78C,0.02559*%
%ADD79C,0.03150*%
%ADD80C,0.03937*%
%ADD81C,0.02350*%
%ADD82C,0.02350*%
D16*
X-12Y-2D02*
Y214839D01*
Y-2D02*
X238718D01*
Y214839D01*
X-12D02*
X238718D01*
D59*
X150608Y110213D02*
X167927D01*
X154292Y65232D02*
X170477D01*
Y107663D01*
X131323Y72368D02*
X133417D01*
X142731Y63054D01*
X131170Y51576D02*
X135809Y56215D01*
X131325Y40013D02*
X155731D01*
X167927Y110213D02*
X170477Y107663D01*
X178347Y49110D02*
X184959Y55722D01*
X155431Y39692D02*
X155792Y40053D01*
X155431Y104D02*
Y39692D01*
X142731Y58985D02*
Y63054D01*
X139961Y56215D02*
X142731Y58985D01*
X135809Y56215D02*
X139961D01*
X155763Y39981D02*
X159763Y43982D01*
X152187Y51558D02*
Y63127D01*
X154292Y65232D01*
X154703Y49042D02*
X164823D01*
X152187Y51558D02*
X154703Y49042D01*
X159763Y43982D02*
X164823Y49042D01*
X155763Y39981D02*
X164891Y49110D01*
X178347D01*
X162771Y47053D02*
Y48854D01*
D62*
X179967Y164452D02*
X184913D01*
X148804Y112017D02*
X150608Y110213D01*
X148804Y112017D02*
Y129429D01*
X147424Y172202D02*
X154289D01*
X146404Y171182D02*
X147424Y172202D01*
X146404Y164710D02*
Y171182D01*
X131181Y181202D02*
X131820Y180563D01*
X131181Y181202D02*
Y183094D01*
X131820Y180563D02*
X139963D01*
X141619Y178907D01*
Y169764D02*
Y178907D01*
X129994Y163608D02*
X131424Y165038D01*
X136893D01*
X141619Y169764D01*
X157802Y163122D02*
X159148Y164468D01*
X154289Y163122D02*
X157802D01*
X154289D02*
Y172202D01*
X179967Y164452D02*
X179983Y164468D01*
X150998Y153669D02*
X167095D01*
X148055Y150726D02*
X150998Y153669D01*
X142640Y153294D02*
X145208Y150726D01*
X142640Y153294D02*
Y160946D01*
X145208Y150726D02*
X148055D01*
X142640Y160946D02*
X146404Y164710D01*
X167095Y147720D02*
Y153669D01*
X159148Y164468D02*
X179983D01*
X148804Y129429D02*
X167095Y147720D01*
D72*
X0Y214868D02*
X238664Y214868D01*
X238664Y0D01*
X0Y0D02*
X238664Y0D01*
X0Y0D02*
X0Y214868D01*
D73*
X225598Y19188D02*
D03*
Y9188D02*
D03*
X19561Y104604D02*
D03*
D74*
X215598Y19188D02*
D03*
Y9188D02*
D03*
X29561Y104604D02*
D03*
X9561D02*
D03*
X19792Y136658D02*
D03*
X9792D02*
D03*
D75*
X39360Y205952D02*
D03*
Y195952D02*
D03*
X29360Y205952D02*
D03*
Y195952D02*
D03*
X9360D02*
D03*
Y205952D02*
D03*
X19360Y195952D02*
D03*
Y205952D02*
D03*
X49360Y195952D02*
D03*
Y205952D02*
D03*
X59360Y195952D02*
D03*
X69360D02*
D03*
X59360Y205952D02*
D03*
X69360D02*
D03*
X216871Y181990D02*
D03*
X226871D02*
D03*
X216871Y171990D02*
D03*
X226871D02*
D03*
X216871Y141990D02*
D03*
X226871D02*
D03*
X216871Y131990D02*
D03*
X226871D02*
D03*
Y151990D02*
D03*
X216871D02*
D03*
X226871Y161990D02*
D03*
X216871D02*
D03*
X226871Y191990D02*
D03*
Y201990D02*
D03*
X216871Y191990D02*
D03*
Y201990D02*
D03*
X217066Y89635D02*
D03*
X227066D02*
D03*
X217066Y79635D02*
D03*
X227066D02*
D03*
X217066Y49635D02*
D03*
X227066D02*
D03*
X217066Y39635D02*
D03*
X227066D02*
D03*
Y59635D02*
D03*
X217066D02*
D03*
X227066Y69635D02*
D03*
X217066D02*
D03*
X227066Y99635D02*
D03*
Y109635D02*
D03*
X217066Y99635D02*
D03*
Y109635D02*
D03*
X41991Y8576D02*
D03*
Y18576D02*
D03*
X51991Y8576D02*
D03*
Y18576D02*
D03*
X71991D02*
D03*
Y8576D02*
D03*
X61991Y18576D02*
D03*
Y8576D02*
D03*
X31991Y18576D02*
D03*
Y8576D02*
D03*
X21991Y18576D02*
D03*
X11991D02*
D03*
X21991Y8576D02*
D03*
X11991D02*
D03*
D77*
X161342Y135106D02*
D03*
D78*
X162174Y183453D02*
D03*
X155874Y183445D02*
D03*
X149575Y177146D02*
D03*
X82960Y163924D02*
D03*
X149575Y170764D02*
D03*
X146425Y183468D02*
D03*
X149575D02*
D03*
X152726D02*
D03*
X149575Y180296D02*
D03*
X162230Y164548D02*
D03*
X159024Y170813D02*
D03*
X152725Y173996D02*
D03*
X149581D02*
D03*
X127591Y94433D02*
D03*
X45060Y90205D02*
D03*
X70147Y99185D02*
D03*
X36942Y155098D02*
D03*
X95323Y168037D02*
D03*
X91906Y179450D02*
D03*
X87386Y88162D02*
D03*
X101271Y95296D02*
D03*
X76356Y195757D02*
D03*
X59376Y166091D02*
D03*
X105772Y149355D02*
D03*
X103840Y179706D02*
D03*
X95826Y175837D02*
D03*
X109209Y168255D02*
D03*
X146425Y167697D02*
D03*
X143467Y151664D02*
D03*
X128774Y196394D02*
D03*
X127761Y202189D02*
D03*
X127714Y205647D02*
D03*
X130184Y167960D02*
D03*
X80649Y9662D02*
D03*
X133851Y15067D02*
D03*
X45055Y123525D02*
D03*
X22723Y119264D02*
D03*
X18164Y122711D02*
D03*
X169769Y145129D02*
D03*
X162178Y180300D02*
D03*
X162174Y177146D02*
D03*
X162176Y170844D02*
D03*
X162158Y167713D02*
D03*
X155874Y177146D02*
D03*
Y180296D02*
D03*
X149575Y186595D02*
D03*
X159024Y183445D02*
D03*
X165323Y167697D02*
D03*
X165324Y170846D02*
D03*
X165325Y173994D02*
D03*
X165323Y177146D02*
D03*
Y180296D02*
D03*
X165326Y183448D02*
D03*
D79*
X175875Y141824D02*
D03*
X198805Y57787D02*
D03*
X78740Y177454D02*
D03*
X122009Y160363D02*
D03*
X117974Y210827D02*
D03*
X38932Y49775D02*
D03*
X126692Y173862D02*
D03*
X126644Y115437D02*
D03*
X127018Y105148D02*
D03*
X152249Y101779D02*
D03*
X116906Y134268D02*
D03*
X76213Y109285D02*
D03*
X84775Y130369D02*
D03*
X81274Y118848D02*
D03*
X193107Y114586D02*
D03*
Y107654D02*
D03*
Y100723D02*
D03*
Y93791D02*
D03*
X193175Y84213D02*
D03*
Y77281D02*
D03*
Y70349D02*
D03*
X180973Y54146D02*
D03*
X136927Y63861D02*
D03*
X130252Y61107D02*
D03*
X142273Y48694D02*
D03*
X135805Y47617D02*
D03*
X140325Y38163D02*
D03*
X144165Y79987D02*
D03*
X146100Y82228D02*
D03*
X124568Y80564D02*
D03*
X124900Y76099D02*
D03*
X121814Y72791D02*
D03*
X54648Y143555D02*
D03*
X109857Y72421D02*
D03*
Y58914D02*
D03*
Y81392D02*
D03*
Y85878D02*
D03*
Y63454D02*
D03*
Y90363D02*
D03*
X182928Y47296D02*
D03*
X169031Y75513D02*
D03*
X172476Y72290D02*
D03*
X175366Y70920D02*
D03*
X165933Y84034D02*
D03*
X86453Y15488D02*
D03*
X89840Y23833D02*
D03*
X106225Y26759D02*
D03*
X111125Y11446D02*
D03*
X178185Y29722D02*
D03*
X168617Y41574D02*
D03*
X135052Y59680D02*
D03*
X144504Y74090D02*
D03*
X162316Y78171D02*
D03*
X166513Y72426D02*
D03*
X177380Y118751D02*
D03*
X172913Y119426D02*
D03*
X154672Y94640D02*
D03*
X154168Y81629D02*
D03*
X162394Y94268D02*
D03*
X167497Y133050D02*
D03*
X165922Y45669D02*
D03*
X149747Y23060D02*
D03*
X146126Y102090D02*
D03*
X174291Y133593D02*
D03*
D80*
X84148Y147055D02*
D03*
X26213Y87516D02*
D03*
D81*
X131181Y183094D02*
Y214488D01*
X129994Y109294D02*
Y163608D01*
X131181Y72647D02*
Y108107D01*
X129994Y109294D02*
X131181Y108107D01*
X109940Y29630D02*
X121795D01*
X65418Y74152D02*
X109940Y29630D01*
X463Y145441D02*
Y153518D01*
X280Y172745D02*
X43928D01*
X65418Y151255D01*
Y74152D02*
Y151255D01*
X839Y32838D02*
X23136D01*
X37628Y47330D01*
Y146551D01*
X30661Y153518D02*
X37628Y146551D01*
X463Y153518D02*
X30661D01*
X131170Y38734D02*
Y51576D01*
X120786Y28350D02*
X131170Y38734D01*
X120786Y210D02*
X131170D01*
X120786D02*
Y28350D01*
X434Y72911D02*
Y77911D01*
X72278Y99D02*
X131397D01*
X184942Y210D02*
Y269D01*
X184941Y-207D02*
Y215161D01*
D82*
X131170Y210D02*
X161572D01*
X184942D01*
M02*
