G04*
G04 #@! TF.GenerationSoftware,Altium Limited,Altium NEXUS,3.1.12 (69)*
G04*
G04 Layer_Physical_Order=2*
G04 Layer_Color=32768*
%FSLAX25Y25*%
%MOIN*%
G70*
G04*
G04 #@! TF.SameCoordinates,C12BC461-16F2-471F-B13C-3D38B02939EA*
G04*
G04*
G04 #@! TF.FilePolarity,Negative*
G04*
G01*
G75*
%ADD16C,0.00000*%
%ADD57C,0.00750*%
%ADD72C,0.04000*%
G04:AMPARAMS|DCode=73|XSize=95.433mil|YSize=95.433mil|CornerRadius=0mil|HoleSize=0mil|Usage=FLASHONLY|Rotation=0.000|XOffset=0mil|YOffset=0mil|HoleType=Round|Shape=Relief|Width=10mil|Gap=10mil|Entries=4|*
%AMTHD73*
7,0,0,0.09543,0.07543,0.01000,45*
%
%ADD73THD73*%
%ADD74C,0.05512*%
%ADD75C,0.06299*%
G04:AMPARAMS|DCode=76|XSize=103.307mil|YSize=103.307mil|CornerRadius=0mil|HoleSize=0mil|Usage=FLASHONLY|Rotation=0.000|XOffset=0mil|YOffset=0mil|HoleType=Round|Shape=Relief|Width=10mil|Gap=10mil|Entries=4|*
%AMTHD76*
7,0,0,0.10331,0.08331,0.01000,45*
%
%ADD76THD76*%
%ADD77C,0.04134*%
%ADD78C,0.02559*%
%ADD79C,0.03150*%
%ADD80C,0.03937*%
D16*
X-12Y-2D02*
Y214839D01*
Y-2D02*
X238718D01*
Y214839D01*
X-12D02*
X238718D01*
D57*
X140184Y152470D02*
Y152834D01*
D72*
X0Y214868D02*
X238664Y214868D01*
X238664Y0D01*
X0Y0D02*
X238664Y0D01*
X0Y0D02*
X0Y214868D01*
D73*
X225598Y19188D02*
D03*
Y9188D02*
D03*
X19792Y136658D02*
D03*
D74*
X215598Y19188D02*
D03*
Y9188D02*
D03*
X29561Y104604D02*
D03*
X19561D02*
D03*
X9561D02*
D03*
X9792Y136658D02*
D03*
D75*
X39360Y205952D02*
D03*
Y195952D02*
D03*
X29360Y205952D02*
D03*
Y195952D02*
D03*
X9360D02*
D03*
Y205952D02*
D03*
X19360Y195952D02*
D03*
Y205952D02*
D03*
X49360Y195952D02*
D03*
Y205952D02*
D03*
X59360Y195952D02*
D03*
X69360D02*
D03*
X59360Y205952D02*
D03*
X216871Y181990D02*
D03*
X226871D02*
D03*
X216871Y171990D02*
D03*
X226871D02*
D03*
X216871Y141990D02*
D03*
X226871D02*
D03*
X216871Y131990D02*
D03*
X226871D02*
D03*
Y151990D02*
D03*
X216871D02*
D03*
X226871Y161990D02*
D03*
X216871D02*
D03*
X226871Y191990D02*
D03*
Y201990D02*
D03*
X216871Y191990D02*
D03*
Y201990D02*
D03*
X217066Y89635D02*
D03*
X227066D02*
D03*
X217066Y79635D02*
D03*
X227066D02*
D03*
X217066Y49635D02*
D03*
X227066D02*
D03*
X217066Y39635D02*
D03*
X227066D02*
D03*
Y59635D02*
D03*
X217066D02*
D03*
X227066Y69635D02*
D03*
X217066D02*
D03*
X227066Y99635D02*
D03*
Y109635D02*
D03*
X217066Y99635D02*
D03*
Y109635D02*
D03*
X41991Y8576D02*
D03*
Y18576D02*
D03*
X51991Y8576D02*
D03*
Y18576D02*
D03*
X71991D02*
D03*
Y8576D02*
D03*
X61991Y18576D02*
D03*
Y8576D02*
D03*
X31991Y18576D02*
D03*
Y8576D02*
D03*
X21991Y18576D02*
D03*
X11991D02*
D03*
X21991Y8576D02*
D03*
D76*
X69360Y205952D02*
D03*
X11991Y8576D02*
D03*
D77*
X161342Y135106D02*
D03*
D78*
X162174Y183453D02*
D03*
X155874Y183445D02*
D03*
X149575Y177146D02*
D03*
X82960Y163924D02*
D03*
X146425Y183468D02*
D03*
X149575D02*
D03*
X152726D02*
D03*
X149575Y180296D02*
D03*
X162230Y164548D02*
D03*
X140184Y152834D02*
D03*
X159024Y170813D02*
D03*
X152725Y173996D02*
D03*
X127591Y94433D02*
D03*
X86996Y207231D02*
D03*
X95323Y168037D02*
D03*
X87270Y189168D02*
D03*
X101271Y95296D02*
D03*
X76356Y195757D02*
D03*
X59376Y166091D02*
D03*
X105772Y149355D02*
D03*
X86738Y195085D02*
D03*
X95826Y175837D02*
D03*
X109209Y168255D02*
D03*
X146425Y167697D02*
D03*
X143467Y151664D02*
D03*
X128774Y196394D02*
D03*
X127761Y202189D02*
D03*
X127714Y205647D02*
D03*
X137654Y171803D02*
D03*
X140189Y14599D02*
D03*
X126467Y16535D02*
D03*
X49430Y115492D02*
D03*
X29203Y130656D02*
D03*
X152725Y164547D02*
D03*
X159024Y173996D02*
D03*
X162178Y180300D02*
D03*
X133437Y158906D02*
D03*
X162174Y177146D02*
D03*
X164925Y151610D02*
D03*
X162176Y170844D02*
D03*
X162158Y167713D02*
D03*
X141646Y195363D02*
D03*
X155874Y177146D02*
D03*
Y180296D02*
D03*
X159024Y183445D02*
D03*
X165323Y167697D02*
D03*
X165324Y170846D02*
D03*
X165325Y173994D02*
D03*
X165323Y177146D02*
D03*
Y180296D02*
D03*
X165326Y183448D02*
D03*
X155867Y167690D02*
D03*
X159024Y186595D02*
D03*
X162099Y202044D02*
D03*
X155874Y164548D02*
D03*
X165226Y155723D02*
D03*
X156028Y155707D02*
D03*
X150649Y150565D02*
D03*
X146554Y152678D02*
D03*
D79*
X175875Y141824D02*
D03*
X45333Y69281D02*
D03*
X159160Y207249D02*
D03*
X198805Y57787D02*
D03*
X67798Y177303D02*
D03*
X113625Y156571D02*
D03*
X174345Y5039D02*
D03*
X164480Y24140D02*
D03*
X169078Y121828D02*
D03*
X136684Y120077D02*
D03*
X193107Y114586D02*
D03*
Y107654D02*
D03*
Y100723D02*
D03*
Y93791D02*
D03*
X193175Y84213D02*
D03*
Y77281D02*
D03*
Y70349D02*
D03*
X174002Y58798D02*
D03*
X178150Y60769D02*
D03*
X158440Y73702D02*
D03*
X161843Y102918D02*
D03*
X164176Y125148D02*
D03*
X157969Y103011D02*
D03*
X133663Y67913D02*
D03*
X140028Y59922D02*
D03*
X135805Y47617D02*
D03*
X144165Y79987D02*
D03*
X146100Y82228D02*
D03*
X124568Y80564D02*
D03*
X120675Y77224D02*
D03*
X124900Y76099D02*
D03*
X121814Y72791D02*
D03*
X173720Y54280D02*
D03*
X75648Y154555D02*
D03*
X109857Y72421D02*
D03*
Y58914D02*
D03*
Y81392D02*
D03*
Y85878D02*
D03*
Y63454D02*
D03*
Y90363D02*
D03*
X143770Y134525D02*
D03*
X137115Y134485D02*
D03*
X97483Y90486D02*
D03*
X169031Y75513D02*
D03*
X172476Y72290D02*
D03*
X175366Y70920D02*
D03*
X79639Y25825D02*
D03*
X86453Y15488D02*
D03*
X170306Y18090D02*
D03*
X168617Y41574D02*
D03*
X160176Y54767D02*
D03*
X148761Y53942D02*
D03*
X162316Y78171D02*
D03*
X166513Y72426D02*
D03*
X177380Y118751D02*
D03*
X172913Y119426D02*
D03*
X165918Y117009D02*
D03*
X165790Y102474D02*
D03*
X155640Y52457D02*
D03*
X152300Y44651D02*
D03*
X165668Y87651D02*
D03*
X150539Y136518D02*
D03*
X146126Y102090D02*
D03*
X88456Y122081D02*
D03*
D80*
X49148Y151555D02*
D03*
M02*
