G04*
G04 #@! TF.GenerationSoftware,Altium Limited,Altium NEXUS,3.1.12 (69)*
G04*
G04 Layer_Color=16711935*
%FSLAX25Y25*%
%MOIN*%
G70*
G04*
G04 #@! TF.SameCoordinates,C12BC461-16F2-471F-B13C-3D38B02939EA*
G04*
G04*
G04 #@! TF.FilePolarity,Negative*
G04*
G01*
G75*
%ADD16C,0.00000*%
%ADD33R,0.03732X0.03732*%
%ADD34R,0.02551X0.02551*%
%ADD35R,0.02551X0.02551*%
%ADD39R,0.03732X0.03732*%
%ADD47C,0.06488*%
%ADD48R,0.06488X0.06488*%
%ADD49C,0.07079*%
%ADD50R,0.07079X0.07079*%
%ADD51R,0.07079X0.07079*%
%ADD52C,0.04126*%
%ADD86R,0.01685X0.01764*%
%ADD87R,0.08661X0.09449*%
%ADD88R,0.04717X0.02945*%
D16*
X-12Y-2D02*
Y214839D01*
Y-2D02*
X238718D01*
Y214839D01*
X-12D02*
X238718D01*
D33*
X141716Y52158D02*
D03*
X135810D02*
D03*
D34*
X145205Y195363D02*
D03*
X149142D02*
D03*
X79202Y190945D02*
D03*
X83139D02*
D03*
X141714Y147404D02*
D03*
X145651D02*
D03*
X106315Y134250D02*
D03*
X110252D02*
D03*
X118177Y90421D02*
D03*
X114240D02*
D03*
X118177Y85839D02*
D03*
X114240D02*
D03*
X114241Y81585D02*
D03*
X118178D02*
D03*
Y72558D02*
D03*
X114241D02*
D03*
D35*
X116218Y37499D02*
D03*
Y41436D02*
D03*
X119875Y37499D02*
D03*
Y41436D02*
D03*
X123523Y37533D02*
D03*
Y41470D02*
D03*
X112583Y37533D02*
D03*
Y41470D02*
D03*
X153567Y145196D02*
D03*
Y149133D02*
D03*
X156601Y145204D02*
D03*
Y149141D02*
D03*
X159678Y145169D02*
D03*
Y149106D02*
D03*
X162842Y145022D02*
D03*
Y148959D02*
D03*
X162120Y198431D02*
D03*
Y194494D02*
D03*
X89609Y185914D02*
D03*
Y181977D02*
D03*
X83395Y203918D02*
D03*
Y199981D02*
D03*
X86876Y199956D02*
D03*
Y203893D02*
D03*
X122026Y156465D02*
D03*
Y152528D02*
D03*
X118465Y152585D02*
D03*
Y156522D02*
D03*
X45175Y119472D02*
D03*
Y115535D02*
D03*
X18233Y119377D02*
D03*
Y115440D02*
D03*
X89838Y15502D02*
D03*
Y19439D02*
D03*
X146212Y115892D02*
D03*
Y119829D02*
D03*
X175885Y84034D02*
D03*
Y80097D02*
D03*
X164516Y50421D02*
D03*
Y54358D02*
D03*
X165792Y80216D02*
D03*
Y76279D02*
D03*
X172468Y80216D02*
D03*
Y76279D02*
D03*
X168286Y50391D02*
D03*
Y54328D02*
D03*
X169105Y84107D02*
D03*
Y80170D02*
D03*
X165961Y98378D02*
D03*
Y94441D02*
D03*
X166362Y111665D02*
D03*
Y107728D02*
D03*
X158191Y98600D02*
D03*
Y94663D02*
D03*
X158040Y77692D02*
D03*
Y81629D02*
D03*
X88456Y117516D02*
D03*
Y113579D02*
D03*
Y109344D02*
D03*
Y105407D02*
D03*
D39*
X173912Y47490D02*
D03*
Y41584D02*
D03*
X79617Y15290D02*
D03*
Y21196D02*
D03*
D47*
X225598Y19188D02*
D03*
Y9188D02*
D03*
X215598Y19188D02*
D03*
X19561Y104604D02*
D03*
X9561D02*
D03*
X9792Y136658D02*
D03*
D48*
X215598Y9188D02*
D03*
X29561Y104604D02*
D03*
X19792Y136658D02*
D03*
D49*
X39360Y205952D02*
D03*
Y195952D02*
D03*
X29360Y205952D02*
D03*
Y195952D02*
D03*
X9360Y205952D02*
D03*
X19360Y195952D02*
D03*
Y205952D02*
D03*
X49360Y195952D02*
D03*
Y205952D02*
D03*
X59360Y195952D02*
D03*
X69360D02*
D03*
X59360Y205952D02*
D03*
X69360D02*
D03*
X216871Y181990D02*
D03*
X226871D02*
D03*
X216871Y171990D02*
D03*
X226871D02*
D03*
X216871Y141990D02*
D03*
X226871D02*
D03*
X216871Y131990D02*
D03*
X226871Y151990D02*
D03*
X216871D02*
D03*
X226871Y161990D02*
D03*
X216871D02*
D03*
X226871Y191990D02*
D03*
Y201990D02*
D03*
X216871Y191990D02*
D03*
Y201990D02*
D03*
X217066Y89635D02*
D03*
X227066D02*
D03*
X217066Y79635D02*
D03*
X227066D02*
D03*
X217066Y49635D02*
D03*
X227066D02*
D03*
X217066Y39635D02*
D03*
X227066Y59635D02*
D03*
X217066D02*
D03*
X227066Y69635D02*
D03*
X217066D02*
D03*
X227066Y99635D02*
D03*
Y109635D02*
D03*
X217066Y99635D02*
D03*
Y109635D02*
D03*
X41991Y8576D02*
D03*
Y18576D02*
D03*
X51991Y8576D02*
D03*
Y18576D02*
D03*
X71991Y8576D02*
D03*
X61991Y18576D02*
D03*
Y8576D02*
D03*
X31991Y18576D02*
D03*
Y8576D02*
D03*
X21991Y18576D02*
D03*
X11991D02*
D03*
X21991Y8576D02*
D03*
X11991D02*
D03*
D50*
X9360Y195952D02*
D03*
X71991Y18576D02*
D03*
D51*
X226871Y131990D02*
D03*
X227066Y39635D02*
D03*
D52*
X161342Y135106D02*
D03*
D86*
X154530Y161081D02*
D03*
X152680D02*
D03*
D87*
X117964Y186814D02*
D03*
X97964D02*
D03*
X117964Y203414D02*
D03*
X97964Y203349D02*
D03*
X116891Y109291D02*
D03*
X96891D02*
D03*
X116891Y125891D02*
D03*
X96891Y125827D02*
D03*
D88*
X37104Y115487D02*
D03*
Y122967D02*
D03*
X27655D02*
D03*
Y119227D02*
D03*
Y115487D02*
D03*
M02*
