G04*
G04 #@! TF.GenerationSoftware,Altium Limited,Altium NEXUS,3.1.12 (69)*
G04*
G04 Layer_Color=32896*
%FSLAX25Y25*%
%MOIN*%
G70*
G04*
G04 #@! TF.SameCoordinates,C12BC461-16F2-471F-B13C-3D38B02939EA*
G04*
G04*
G04 #@! TF.FilePolarity,Positive*
G04*
G01*
G75*
%ADD10C,0.00984*%
%ADD13C,0.00787*%
%ADD14C,0.00394*%
%ADD15C,0.00500*%
%ADD16C,0.00000*%
%ADD89C,0.03937*%
D10*
X27971Y112527D02*
G03*
X27971Y112527I-492J0D01*
G01*
D13*
X102964Y207514D02*
X112764D01*
X121764Y192114D02*
Y198014D01*
X102798Y182814D02*
X112964D01*
X94064Y192114D02*
Y197914D01*
X33560Y113125D02*
Y125329D01*
X31198Y113125D02*
Y125329D01*
X33560D01*
X31198Y113125D02*
X33560D01*
X101891Y129991D02*
X111691D01*
X120691Y114591D02*
Y120491D01*
X101725Y105291D02*
X111891D01*
X92991Y114591D02*
Y120391D01*
D14*
X115217Y39318D02*
Y39613D01*
X117218Y39318D02*
Y39613D01*
X118875Y39318D02*
Y39613D01*
X120875Y39318D02*
Y39613D01*
X122523Y39352D02*
Y39647D01*
X124523Y39352D02*
Y39647D01*
X111583Y39352D02*
Y39647D01*
X113583Y39352D02*
Y39647D01*
X154567Y147054D02*
Y147275D01*
X152551Y147062D02*
Y147283D01*
X157601Y147062D02*
Y147283D01*
X155585Y147070D02*
Y147291D01*
X160678Y147027D02*
Y147248D01*
X158662Y147035D02*
Y147256D01*
X163842Y146880D02*
Y147101D01*
X161826Y146888D02*
Y147109D01*
X147063Y194363D02*
X147284D01*
X147071Y196379D02*
X147292D01*
X161120Y196352D02*
Y196573D01*
X163136Y196344D02*
Y196565D01*
X88609Y183835D02*
Y184056D01*
X90625Y183827D02*
Y184048D01*
X81025Y191945D02*
X81320D01*
X81025Y189945D02*
X81320D01*
X82395Y201839D02*
Y202060D01*
X84411Y201831D02*
Y202052D01*
X85876Y201779D02*
Y202074D01*
X87876Y201779D02*
Y202074D01*
X121026Y154386D02*
Y154607D01*
X123042Y154378D02*
Y154599D01*
X119465Y154443D02*
Y154664D01*
X117449Y154451D02*
Y154672D01*
X44175Y117393D02*
Y117614D01*
X46191Y117385D02*
Y117606D01*
X17233Y117298D02*
Y117519D01*
X19249Y117290D02*
Y117511D01*
X143572Y146404D02*
X143792D01*
X143580Y148420D02*
X143800D01*
X133141Y49658D02*
Y54658D01*
X144472Y49658D02*
Y54658D01*
X133141Y49658D02*
X144472D01*
X133141Y54658D02*
X144472D01*
X108173Y133250D02*
X108394D01*
X108181Y135266D02*
X108402D01*
X90838Y17360D02*
Y17581D01*
X88822Y17368D02*
Y17589D01*
X171412Y38915D02*
X176412D01*
X171412Y50246D02*
X176412D01*
Y38915D02*
Y50246D01*
X171412Y38915D02*
Y50246D01*
X116059Y89421D02*
X116354D01*
X116059Y91421D02*
X116354D01*
X147212Y117750D02*
Y117971D01*
X145196Y117758D02*
Y117979D01*
X116059Y84839D02*
X116354D01*
X116059Y86839D02*
X116354D01*
X116064Y82585D02*
X116359D01*
X116064Y80585D02*
X116359D01*
X174885Y81955D02*
Y82176D01*
X176901Y81947D02*
Y82168D01*
X165516Y52279D02*
Y52500D01*
X163500Y52287D02*
Y52508D01*
X116060Y71558D02*
X116355D01*
X116060Y73558D02*
X116355D01*
X164792Y78137D02*
Y78358D01*
X166808Y78129D02*
Y78350D01*
X171468Y78137D02*
Y78358D01*
X173484Y78129D02*
Y78350D01*
X169286Y52249D02*
Y52470D01*
X167270Y52257D02*
Y52478D01*
X168105Y82028D02*
Y82249D01*
X170121Y82020D02*
Y82241D01*
X164961Y96299D02*
Y96520D01*
X166977Y96291D02*
Y96512D01*
X165346Y109594D02*
Y109815D01*
X167362Y109586D02*
Y109807D01*
X157175Y96529D02*
Y96750D01*
X159191Y96521D02*
Y96742D01*
X159056Y79542D02*
Y79763D01*
X157040Y79550D02*
Y79771D01*
X89456Y115402D02*
Y115697D01*
X87456Y115402D02*
Y115697D01*
X87440Y107273D02*
Y107494D01*
X89456Y107265D02*
Y107486D01*
X117934Y25159D02*
X122934D01*
X117934Y13828D02*
X122934D01*
X117934D02*
Y25159D01*
X122934Y13828D02*
Y25159D01*
D15*
X88361Y179470D02*
X88695Y179803D01*
X89361D01*
X89694Y179470D01*
Y178137D01*
X89361Y177804D01*
X88695D01*
X88361Y178137D01*
X87695Y177804D02*
X87028D01*
X87362D01*
Y179803D01*
X87695Y179470D01*
X85029Y177804D02*
Y179803D01*
X86029Y178804D01*
X84696D01*
X111551Y44035D02*
X113550D01*
Y45035D01*
X113217Y45368D01*
X112551D01*
X112217Y45035D01*
Y44035D01*
Y44701D02*
X111551Y45368D01*
Y46034D02*
Y46701D01*
Y46368D01*
X113550D01*
X113217Y46034D01*
X113550Y49033D02*
Y47701D01*
X112551D01*
X112884Y48367D01*
Y48700D01*
X112551Y49033D01*
X111884D01*
X111551Y48700D01*
Y48034D01*
X111884Y47701D01*
X115338Y43843D02*
X117337D01*
Y44843D01*
X117004Y45176D01*
X116338D01*
X116004Y44843D01*
Y43843D01*
Y44509D02*
X115338Y45176D01*
Y45842D02*
Y46509D01*
Y46176D01*
X117337D01*
X117004Y45842D01*
X117337Y48841D02*
X117004Y48175D01*
X116338Y47508D01*
X115671D01*
X115338Y47842D01*
Y48508D01*
X115671Y48841D01*
X116004D01*
X116338Y48508D01*
Y47508D01*
X118804Y43843D02*
X120803D01*
Y44843D01*
X120470Y45176D01*
X119804D01*
X119471Y44843D01*
Y43843D01*
Y44509D02*
X118804Y45176D01*
Y45842D02*
Y46509D01*
Y46176D01*
X120803D01*
X120470Y45842D01*
Y47508D02*
X120803Y47842D01*
Y48508D01*
X120470Y48841D01*
X120137D01*
X119804Y48508D01*
X119471Y48841D01*
X119137D01*
X118804Y48508D01*
Y47842D01*
X119137Y47508D01*
X119471D01*
X119804Y47842D01*
X120137Y47508D01*
X120470D01*
X119804Y47842D02*
Y48508D01*
X122655Y43843D02*
X124654D01*
Y44843D01*
X124321Y45176D01*
X123655D01*
X123321Y44843D01*
Y43843D01*
Y44509D02*
X122655Y45176D01*
Y45842D02*
Y46509D01*
Y46176D01*
X124654D01*
X124321Y45842D01*
X122988Y47508D02*
X122655Y47842D01*
Y48508D01*
X122988Y48841D01*
X124321D01*
X124654Y48508D01*
Y47842D01*
X124321Y47508D01*
X123988D01*
X123655Y47842D01*
Y48841D01*
X36955Y129458D02*
Y127792D01*
X36622Y127459D01*
X35956D01*
X35622Y127792D01*
Y129458D01*
X34956Y129125D02*
X34623Y129458D01*
X33956D01*
X33623Y129125D01*
Y128792D01*
X33956Y128459D01*
X34289D01*
X33956D01*
X33623Y128126D01*
Y127792D01*
X33956Y127459D01*
X34623D01*
X34956Y127792D01*
X14511Y119999D02*
X14844Y120332D01*
X15511D01*
X15844Y119999D01*
Y118666D01*
X15511Y118333D01*
X14844D01*
X14511Y118666D01*
X12845Y118333D02*
Y120332D01*
X13845Y119333D01*
X12512D01*
X10513Y118333D02*
X11846D01*
X10513Y119666D01*
Y119999D01*
X10846Y120332D01*
X11512D01*
X11846Y119999D01*
X51375Y120356D02*
X51709Y120689D01*
X52375D01*
X52708Y120356D01*
Y119023D01*
X52375Y118690D01*
X51709D01*
X51375Y119023D01*
X49709Y118690D02*
Y120689D01*
X50709Y119690D01*
X49376D01*
X48709Y120356D02*
X48376Y120689D01*
X47710D01*
X47377Y120356D01*
Y119023D01*
X47710Y118690D01*
X48376D01*
X48709Y119023D01*
Y120356D01*
X146418Y151131D02*
Y153131D01*
X145419D01*
X145085Y152797D01*
Y152131D01*
X145419Y151798D01*
X146418D01*
X145752D02*
X145085Y151131D01*
X144419D02*
X143752D01*
X144086D01*
Y153131D01*
X144419Y152797D01*
X142753Y151131D02*
X142086D01*
X142420D01*
Y153131D01*
X142753Y152797D01*
X149708Y162017D02*
X150041Y162350D01*
X150708D01*
X151041Y162017D01*
Y160684D01*
X150708Y160351D01*
X150041D01*
X149708Y160684D01*
X149042D02*
X148709Y160351D01*
X148042D01*
X147709Y160684D01*
Y162017D01*
X148042Y162350D01*
X148709D01*
X149042Y162017D01*
Y161684D01*
X148709Y161351D01*
X147709D01*
X128059Y211959D02*
Y210293D01*
X127726Y209960D01*
X127059D01*
X126726Y210293D01*
Y211959D01*
X124727Y209960D02*
X126060D01*
X124727Y211293D01*
Y211626D01*
X125060Y211959D01*
X125727D01*
X126060Y211626D01*
X80891Y186793D02*
Y188792D01*
X79892D01*
X79558Y188459D01*
Y187793D01*
X79892Y187460D01*
X80891D01*
X80225D02*
X79558Y186793D01*
X78892Y188459D02*
X78559Y188792D01*
X77892D01*
X77559Y188459D01*
Y188126D01*
X77892Y187793D01*
X78225D01*
X77892D01*
X77559Y187460D01*
Y187126D01*
X77892Y186793D01*
X78559D01*
X78892Y187126D01*
X119627Y150282D02*
X117628D01*
Y149282D01*
X117961Y148949D01*
X118628D01*
X118961Y149282D01*
Y150282D01*
Y149616D02*
X119627Y148949D01*
Y147283D02*
X117628D01*
X118628Y148283D01*
Y146950D01*
X123148Y150375D02*
X121149D01*
Y149375D01*
X121482Y149042D01*
X122149D01*
X122482Y149375D01*
Y150375D01*
Y149709D02*
X123148Y149042D01*
X121482Y148376D02*
X121149Y148043D01*
Y147376D01*
X121482Y147043D01*
X121815D01*
X122149Y147376D01*
X122482Y147043D01*
X122815D01*
X123148Y147376D01*
Y148043D01*
X122815Y148376D01*
X122482D01*
X122149Y148043D01*
X121815Y148376D01*
X121482D01*
X122149Y148043D02*
Y147376D01*
X87368Y208409D02*
Y210408D01*
X86369D01*
X86035Y210075D01*
Y209409D01*
X86369Y209075D01*
X87368D01*
X86702D02*
X86035Y208409D01*
X84036D02*
X85369D01*
X84036Y209742D01*
Y210075D01*
X84369Y210408D01*
X85036D01*
X85369Y210075D01*
X83369Y208742D02*
X83036Y208409D01*
X82370D01*
X82037Y208742D01*
Y210075D01*
X82370Y210408D01*
X83036D01*
X83369Y210075D01*
Y209742D01*
X83036Y209409D01*
X82037D01*
X81540Y205883D02*
Y207882D01*
X80541D01*
X80207Y207549D01*
Y206883D01*
X80541Y206550D01*
X81540D01*
X80874D02*
X80207Y205883D01*
X79541Y207549D02*
X79208Y207882D01*
X78541D01*
X78208Y207549D01*
Y207216D01*
X78541Y206883D01*
X78874D01*
X78541D01*
X78208Y206550D01*
Y206216D01*
X78541Y205883D01*
X79208D01*
X79541Y206216D01*
X77542Y205883D02*
X76875D01*
X77208D01*
Y207882D01*
X77542Y207549D01*
X143350Y196987D02*
Y198986D01*
X142350D01*
X142017Y198653D01*
Y197987D01*
X142350Y197653D01*
X143350D01*
X142684D02*
X142017Y196987D01*
X141351Y198653D02*
X141018Y198986D01*
X140351D01*
X140018Y198653D01*
Y198320D01*
X140351Y197987D01*
X140684D01*
X140351D01*
X140018Y197653D01*
Y197320D01*
X140351Y196987D01*
X141018D01*
X141351Y197320D01*
X139351Y198653D02*
X139018Y198986D01*
X138352D01*
X138019Y198653D01*
Y198320D01*
X138352Y197987D01*
X138685D01*
X138352D01*
X138019Y197653D01*
Y197320D01*
X138352Y196987D01*
X139018D01*
X139351Y197320D01*
X167130Y202730D02*
X167464Y203063D01*
X168130D01*
X168463Y202730D01*
Y201397D01*
X168130Y201064D01*
X167464D01*
X167130Y201397D01*
X166464Y201064D02*
X165797D01*
X166131D01*
Y203063D01*
X166464Y202730D01*
X163465Y203063D02*
X164798D01*
Y202064D01*
X164131Y202397D01*
X163798D01*
X163465Y202064D01*
Y201397D01*
X163798Y201064D01*
X164464D01*
X164798Y201397D01*
X164099Y142764D02*
X162100D01*
Y141764D01*
X162433Y141431D01*
X163100D01*
X163433Y141764D01*
Y142764D01*
Y142098D02*
X164099Y141431D01*
Y140765D02*
Y140098D01*
Y140431D01*
X162100D01*
X162433Y140765D01*
X157694Y142695D02*
X155695D01*
Y141695D01*
X156028Y141362D01*
X156694D01*
X157028Y141695D01*
Y142695D01*
Y142029D02*
X157694Y141362D01*
X155695Y140696D02*
Y139363D01*
X156028D01*
X157361Y140696D01*
X157694D01*
X154282Y142625D02*
X152283D01*
Y141625D01*
X152616Y141292D01*
X153282D01*
X153616Y141625D01*
Y142625D01*
Y141959D02*
X154282Y141292D01*
Y139293D02*
Y140626D01*
X152949Y139293D01*
X152616D01*
X152283Y139626D01*
Y140293D01*
X152616Y140626D01*
X161036Y142904D02*
X159037D01*
Y141904D01*
X159370Y141571D01*
X160037D01*
X160370Y141904D01*
Y142904D01*
Y142238D02*
X161036Y141571D01*
X159037Y139572D02*
X159370Y140238D01*
X160037Y140905D01*
X160703D01*
X161036Y140571D01*
Y139905D01*
X160703Y139572D01*
X160370D01*
X160037Y139905D01*
Y140905D01*
X141287Y55782D02*
Y57781D01*
X142620D01*
X144286D02*
Y55782D01*
X143287Y56781D01*
X144619D01*
X107152Y137032D02*
X106819Y136699D01*
X106152D01*
X105819Y137032D01*
Y138365D01*
X106152Y138698D01*
X106819D01*
X107152Y138365D01*
X107818Y137032D02*
X108152Y136699D01*
X108818D01*
X109151Y137032D01*
Y137365D01*
X108818Y137698D01*
X108485D01*
X108818D01*
X109151Y138032D01*
Y138365D01*
X108818Y138698D01*
X108152D01*
X107818Y138365D01*
X111151Y138698D02*
X109818D01*
X111151Y137365D01*
Y137032D01*
X110818Y136699D01*
X110151D01*
X109818Y137032D01*
X90758Y9285D02*
X91092Y8952D01*
Y8285D01*
X90758Y7952D01*
X89425D01*
X89092Y8285D01*
Y8952D01*
X89425Y9285D01*
X89092Y9951D02*
Y10618D01*
Y10285D01*
X91092D01*
X90758Y9951D01*
X89425Y11618D02*
X89092Y11951D01*
Y12617D01*
X89425Y12950D01*
X90758D01*
X91092Y12617D01*
Y11951D01*
X90758Y11618D01*
X90425D01*
X90092Y11951D01*
Y12950D01*
X172527Y35645D02*
Y37644D01*
X173860D01*
X174527Y35978D02*
X174860Y35645D01*
X175526D01*
X175859Y35978D01*
Y36311D01*
X175526Y36644D01*
X175193D01*
X175526D01*
X175859Y36978D01*
Y37311D01*
X175526Y37644D01*
X174860D01*
X174527Y37311D01*
X80118Y28531D02*
Y26531D01*
X78785D01*
X78119D02*
X77452D01*
X77786D01*
Y28531D01*
X78119Y28197D01*
X120740Y91421D02*
Y89422D01*
X121740D01*
X122073Y89755D01*
Y90421D01*
X121740Y90755D01*
X120740D01*
X121407D02*
X122073Y91421D01*
X122740Y89755D02*
X123073Y89422D01*
X123739D01*
X124073Y89755D01*
Y90088D01*
X123739Y90421D01*
X124073Y90755D01*
Y91088D01*
X123739Y91421D01*
X123073D01*
X122740Y91088D01*
Y90755D01*
X123073Y90421D01*
X122740Y90088D01*
Y89755D01*
X123073Y90421D02*
X123739D01*
X124739Y89755D02*
X125072Y89422D01*
X125739D01*
X126072Y89755D01*
Y90088D01*
X125739Y90421D01*
X125405D01*
X125739D01*
X126072Y90755D01*
Y91088D01*
X125739Y91421D01*
X125072D01*
X124739Y91088D01*
X145326Y121943D02*
X147326D01*
Y122943D01*
X146992Y123276D01*
X146326D01*
X145993Y122943D01*
Y121943D01*
Y122609D02*
X145326Y123276D01*
X146992Y123942D02*
X147326Y124276D01*
Y124942D01*
X146992Y125275D01*
X146659D01*
X146326Y124942D01*
X145993Y125275D01*
X145659D01*
X145326Y124942D01*
Y124276D01*
X145659Y123942D01*
X145993D01*
X146326Y124276D01*
X146659Y123942D01*
X146992D01*
X146326Y124276D02*
Y124942D01*
X147326Y127275D02*
X146992Y126608D01*
X146326Y125942D01*
X145659D01*
X145326Y126275D01*
Y126941D01*
X145659Y127275D01*
X145993D01*
X146326Y126941D01*
Y125942D01*
X120416Y86869D02*
Y84870D01*
X121416D01*
X121749Y85203D01*
Y85869D01*
X121416Y86203D01*
X120416D01*
X121083D02*
X121749Y86869D01*
X122415Y85203D02*
X122749Y84870D01*
X123415D01*
X123748Y85203D01*
Y85536D01*
X123415Y85869D01*
X123748Y86203D01*
Y86536D01*
X123415Y86869D01*
X122749D01*
X122415Y86536D01*
Y86203D01*
X122749Y85869D01*
X122415Y85536D01*
Y85203D01*
X122749Y85869D02*
X123415D01*
X125748Y86869D02*
X124415D01*
X125748Y85536D01*
Y85203D01*
X125415Y84870D01*
X124748D01*
X124415Y85203D01*
X127632Y82807D02*
Y80808D01*
X128632D01*
X128965Y81141D01*
Y81807D01*
X128632Y82141D01*
X127632D01*
X128299D02*
X128965Y82807D01*
X129631Y81141D02*
X129965Y80808D01*
X130631D01*
X130964Y81141D01*
Y81474D01*
X130631Y81807D01*
X130964Y82141D01*
Y82474D01*
X130631Y82807D01*
X129965D01*
X129631Y82474D01*
Y82141D01*
X129965Y81807D01*
X129631Y81474D01*
Y81141D01*
X129965Y81807D02*
X130631D01*
X131631Y82807D02*
X132297D01*
X131964D01*
Y80808D01*
X131631Y81141D01*
X180241Y80695D02*
X180575Y80362D01*
Y79695D01*
X180241Y79362D01*
X178908D01*
X178575Y79695D01*
Y80362D01*
X178908Y80695D01*
X180575Y81361D02*
Y82694D01*
X180241D01*
X178908Y81361D01*
X178575D01*
X180575Y84694D02*
X180241Y84027D01*
X179575Y83361D01*
X178908D01*
X178575Y83694D01*
Y84360D01*
X178908Y84694D01*
X179242D01*
X179575Y84360D01*
Y83361D01*
X163596Y60324D02*
X163263Y60657D01*
Y61324D01*
X163596Y61657D01*
X164929D01*
X165262Y61324D01*
Y60657D01*
X164929Y60324D01*
X163263Y59658D02*
Y58325D01*
X163596D01*
X164929Y59658D01*
X165262D01*
Y57658D02*
Y56992D01*
Y57325D01*
X163263D01*
X163596Y57658D01*
X113741Y70558D02*
Y68559D01*
X114741D01*
X115074Y68892D01*
Y69558D01*
X114741Y69892D01*
X113741D01*
X114408D02*
X115074Y70558D01*
X115741Y68559D02*
X117073D01*
Y68892D01*
X115741Y70225D01*
Y70558D01*
X117740Y70225D02*
X118073Y70558D01*
X118740D01*
X119073Y70225D01*
Y68892D01*
X118740Y68559D01*
X118073D01*
X117740Y68892D01*
Y69225D01*
X118073Y69558D01*
X119073D01*
X166384Y73747D02*
X164385D01*
Y72747D01*
X164718Y72414D01*
X165384D01*
X165718Y72747D01*
Y73747D01*
Y73081D02*
X166384Y72414D01*
X164385Y71748D02*
Y70415D01*
X164718D01*
X166051Y71748D01*
X166384D01*
X164385Y69748D02*
Y68415D01*
X164718D01*
X166051Y69748D01*
X166384D01*
X171529Y82158D02*
X173528D01*
Y83158D01*
X173195Y83491D01*
X172529D01*
X172195Y83158D01*
Y82158D01*
Y82824D02*
X171529Y83491D01*
X173528Y84157D02*
Y85490D01*
X173195D01*
X171862Y84157D01*
X171529D01*
X173528Y87490D02*
X173195Y86823D01*
X172529Y86157D01*
X171862D01*
X171529Y86490D01*
Y87156D01*
X171862Y87490D01*
X172195D01*
X172529Y87156D01*
Y86157D01*
X169197Y62270D02*
X167198D01*
Y61270D01*
X167531Y60937D01*
X168198D01*
X168531Y61270D01*
Y62270D01*
Y61604D02*
X169197Y60937D01*
X167198Y60271D02*
Y58938D01*
X167531D01*
X168864Y60271D01*
X169197D01*
X167198Y56938D02*
Y58271D01*
X168198D01*
X167864Y57605D01*
Y57272D01*
X168198Y56938D01*
X168864D01*
X169197Y57272D01*
Y57938D01*
X168864Y58271D01*
X168194Y86154D02*
X170194D01*
Y87154D01*
X169860Y87487D01*
X169194D01*
X168861Y87154D01*
Y86154D01*
Y86821D02*
X168194Y87487D01*
X170194Y88153D02*
Y89486D01*
X169860D01*
X168527Y88153D01*
X168194D01*
Y91152D02*
X170194D01*
X169194Y90153D01*
Y91486D01*
X170004Y95283D02*
X170337Y94950D01*
Y94283D01*
X170004Y93950D01*
X168671D01*
X168338Y94283D01*
Y94950D01*
X168671Y95283D01*
X170337Y95949D02*
Y97282D01*
X170004D01*
X168671Y95949D01*
X168338D01*
X170337Y99282D02*
Y97949D01*
X169338D01*
X169671Y98615D01*
Y98948D01*
X169338Y99282D01*
X168671D01*
X168338Y98948D01*
Y98282D01*
X168671Y97949D01*
X169337Y111589D02*
X169004Y111922D01*
Y112589D01*
X169337Y112922D01*
X170670D01*
X171003Y112589D01*
Y111922D01*
X170670Y111589D01*
X171003Y110923D02*
Y110256D01*
Y110590D01*
X169004D01*
X169337Y110923D01*
X171003Y109257D02*
Y108590D01*
Y108923D01*
X169004D01*
X169337Y109257D01*
X171003Y106257D02*
Y107590D01*
X169670Y106257D01*
X169337D01*
X169004Y106591D01*
Y107257D01*
X169337Y107590D01*
X154103Y98631D02*
X153770Y98964D01*
Y99631D01*
X154103Y99964D01*
X155436D01*
X155769Y99631D01*
Y98964D01*
X155436Y98631D01*
X155769Y97965D02*
Y97298D01*
Y97632D01*
X153770D01*
X154103Y97965D01*
X155769Y96299D02*
Y95632D01*
Y95965D01*
X153770D01*
X154103Y96299D01*
Y94632D02*
X153770Y94299D01*
Y93633D01*
X154103Y93300D01*
X154436D01*
X154770Y93633D01*
Y93966D01*
Y93633D01*
X155103Y93300D01*
X155436D01*
X155769Y93633D01*
Y94299D01*
X155436Y94632D01*
X153623Y81556D02*
X153290Y81889D01*
Y82556D01*
X153623Y82889D01*
X154956D01*
X155289Y82556D01*
Y81889D01*
X154956Y81556D01*
X155289Y80890D02*
Y80223D01*
Y80556D01*
X153290D01*
X153623Y80890D01*
X155289Y79224D02*
Y78557D01*
Y78890D01*
X153290D01*
X153623Y79224D01*
X155289Y76558D02*
X153290D01*
X154289Y77557D01*
Y76224D01*
X126206Y130226D02*
Y128560D01*
X125873Y128227D01*
X125206D01*
X124873Y128560D01*
Y130226D01*
X124207Y128560D02*
X123874Y128227D01*
X123207D01*
X122874Y128560D01*
Y129893D01*
X123207Y130226D01*
X123874D01*
X124207Y129893D01*
Y129560D01*
X123874Y129227D01*
X122874D01*
X85614Y120800D02*
X83615D01*
Y119800D01*
X83948Y119467D01*
X84614D01*
X84948Y119800D01*
Y120800D01*
Y120134D02*
X85614Y119467D01*
Y118801D02*
Y118134D01*
Y118467D01*
X83615D01*
X83948Y118801D01*
Y117135D02*
X83615Y116801D01*
Y116135D01*
X83948Y115802D01*
X85281D01*
X85614Y116135D01*
Y116801D01*
X85281Y117135D01*
X83948D01*
Y115135D02*
X83615Y114802D01*
Y114136D01*
X83948Y113802D01*
X85281D01*
X85614Y114136D01*
Y114802D01*
X85281Y115135D01*
X83948D01*
X85614Y111803D02*
Y113136D01*
X84281Y111803D01*
X83948D01*
X83615Y112136D01*
Y112803D01*
X83948Y113136D01*
X85433Y109398D02*
X83434D01*
Y108398D01*
X83767Y108065D01*
X84434D01*
X84767Y108398D01*
Y109398D01*
Y108732D02*
X85433Y108065D01*
Y107399D02*
Y106732D01*
Y107065D01*
X83434D01*
X83767Y107399D01*
Y105733D02*
X83434Y105399D01*
Y104733D01*
X83767Y104400D01*
X85100D01*
X85433Y104733D01*
Y105399D01*
X85100Y105733D01*
X83767D01*
Y103733D02*
X83434Y103400D01*
Y102734D01*
X83767Y102400D01*
X85100D01*
X85433Y102734D01*
Y103400D01*
X85100Y103733D01*
X83767D01*
Y101734D02*
X83434Y101401D01*
Y100734D01*
X83767Y100401D01*
X84100D01*
X84434Y100734D01*
Y101067D01*
Y100734D01*
X84767Y100401D01*
X85100D01*
X85433Y100734D01*
Y101401D01*
X85100Y101734D01*
D16*
X-12Y-2D02*
Y214839D01*
Y-2D02*
X238718D01*
Y214839D01*
X-12D02*
X238718D01*
D89*
X90460Y204956D02*
D03*
X89387Y127433D02*
D03*
M02*
