G04*
G04 #@! TF.GenerationSoftware,Altium Limited,Altium NEXUS,3.1.12 (69)*
G04*
G04 Layer_Color=65535*
%FSLAX25Y25*%
%MOIN*%
G70*
G04*
G04 #@! TF.SameCoordinates,C12BC461-16F2-471F-B13C-3D38B02939EA*
G04*
G04*
G04 #@! TF.FilePolarity,Positive*
G04*
G01*
G75*
%ADD10C,0.00984*%
%ADD11C,0.02362*%
%ADD12C,0.01575*%
%ADD13C,0.00787*%
%ADD14C,0.00394*%
%ADD15C,0.00500*%
%ADD16C,0.00000*%
G36*
X169260Y159823D02*
X173197Y163760D01*
Y159823D01*
X169260D01*
D02*
G37*
D10*
X176248Y160414D02*
G03*
X176248Y160414I-492J0D01*
G01*
X172123Y24778D02*
G03*
X172123Y24778I-492J0D01*
G01*
X96851Y20999D02*
G03*
X96851Y20999I-492J0D01*
G01*
X133841Y24561D02*
G03*
X133841Y24561I-492J0D01*
G01*
X181363Y69973D02*
G03*
X181363Y69973I-492J0D01*
G01*
X60340Y152923D02*
G03*
X60340Y152923I-492J0D01*
G01*
D11*
X173095Y74501D02*
G03*
X173095Y74501I-1181J0D01*
G01*
D12*
X22381Y79111D02*
D03*
D13*
X210598Y24188D02*
X230598D01*
X210598Y4188D02*
Y24188D01*
X230598Y4188D02*
Y24188D01*
X210598Y4188D02*
X230598D01*
X4561Y109604D02*
X34561D01*
X4561Y99604D02*
Y109604D01*
Y99604D02*
X34561D01*
Y109604D01*
X4792Y131658D02*
Y141658D01*
X24792D01*
Y131658D02*
Y141658D01*
X4792Y131658D02*
X24792D01*
X74951Y190657D02*
Y211247D01*
X3770D02*
X74951D01*
X3770Y190657D02*
X74951D01*
X3770D02*
Y211247D01*
X141701Y191319D02*
X173197D01*
X141701Y159823D02*
X173197D01*
X141701D02*
Y191319D01*
X173197Y159823D02*
Y191319D01*
X169260Y159823D02*
X173197Y163760D01*
X211576Y126400D02*
X232166D01*
Y207581D01*
X211576Y126400D02*
Y207581D01*
X232166D01*
X211771Y34045D02*
X232362D01*
Y115226D01*
X211771Y34045D02*
Y115226D01*
X232362D01*
X6401Y3281D02*
Y23871D01*
Y3281D02*
X77582D01*
X6401Y23871D02*
X77582D01*
Y3281D02*
Y23871D01*
X172229Y30859D02*
X184433D01*
X172229Y28497D02*
X184433D01*
Y30859D01*
X172229Y28497D02*
Y30859D01*
X102643Y8494D02*
Y20304D01*
X100675Y8494D02*
Y20304D01*
Y8494D02*
X102643D01*
X100675Y20304D02*
X102643D01*
X133947Y30642D02*
X146151D01*
X133947Y28280D02*
X146151D01*
Y30642D01*
X133947Y28280D02*
Y30642D01*
X175851Y70564D02*
Y104422D01*
X141993Y70564D02*
Y104422D01*
Y70564D02*
X175851D01*
X141993Y104422D02*
X175851D01*
X66132Y140417D02*
Y152228D01*
X64164Y140417D02*
Y152228D01*
Y140417D02*
X66132D01*
X64164Y152228D02*
X66132D01*
X-3209Y85750D02*
X2460D01*
X-3209Y53072D02*
Y85750D01*
Y53072D02*
X2460D01*
X12303Y85750D02*
X12499D01*
X12224Y53112D02*
X12539D01*
D14*
X56187Y106983D02*
X67518D01*
X56187Y101983D02*
X67518D01*
X56187D02*
Y106983D01*
X67518Y101983D02*
Y106983D01*
X42839Y102048D02*
X54170D01*
X42839Y107048D02*
X54170D01*
Y102048D02*
Y107048D01*
X42839Y102048D02*
Y107048D01*
X42482Y79590D02*
X53813D01*
X42482Y84590D02*
X53813D01*
Y79590D02*
Y84590D01*
X42482Y79590D02*
Y84590D01*
X42669Y72879D02*
X54000D01*
X42669Y77879D02*
X54000D01*
Y72879D02*
Y77879D01*
X42669Y72879D02*
Y77879D01*
X77117Y23865D02*
X82117D01*
X77117Y12534D02*
X82117D01*
Y23865D01*
X77117Y12534D02*
Y23865D01*
X6903Y154781D02*
X18234D01*
X6903Y159781D02*
X18234D01*
Y154781D02*
Y159781D01*
X6903Y154781D02*
Y159781D01*
X20310Y159746D02*
X31640D01*
X20310Y154746D02*
X31640D01*
X20310D02*
Y159746D01*
X31640Y154746D02*
Y159746D01*
X109601Y179468D02*
X109822D01*
X109594Y181484D02*
X109814D01*
X141980Y155421D02*
X142201D01*
X141973Y157437D02*
X142193D01*
X44175Y117393D02*
Y117614D01*
X46191Y117401D02*
Y117622D01*
X74355Y179297D02*
Y179518D01*
X76371Y179305D02*
Y179526D01*
X72691Y179193D02*
Y179414D01*
X70675Y179185D02*
Y179406D01*
X81026Y194738D02*
X81321D01*
X81026Y196738D02*
X81321D01*
X109129Y206579D02*
Y206874D01*
X107129Y206579D02*
Y206874D01*
X103100Y202713D02*
Y203008D01*
X105100Y202713D02*
Y203008D01*
X102956Y173531D02*
Y173826D01*
X104956Y173531D02*
Y173826D01*
X98135Y173531D02*
Y173826D01*
X100135Y173531D02*
Y173826D01*
X98257Y165958D02*
Y166253D01*
X100257Y165958D02*
Y166253D01*
X101826Y165714D02*
Y166009D01*
X103826Y165714D02*
Y166009D01*
X143572Y148404D02*
X143792D01*
X143580Y146388D02*
X143800D01*
X135307Y162510D02*
X135528D01*
X135315Y160494D02*
X135536D01*
X135323Y165440D02*
X135544D01*
X135331Y163424D02*
X135552D01*
X135137Y168949D02*
X135358D01*
X135145Y166933D02*
X135366D01*
X135601Y175544D02*
X135822D01*
X135609Y173528D02*
X135830D01*
X146967Y203270D02*
X147262D01*
X146967Y201270D02*
X147262D01*
X147037Y199690D02*
X147258D01*
X147045Y197674D02*
X147266D01*
X147063Y196363D02*
X147284D01*
X147071Y194347D02*
X147292D01*
X169589Y196343D02*
Y196564D01*
X167573Y196335D02*
Y196556D01*
X166478Y196448D02*
Y196669D01*
X164462Y196440D02*
Y196661D01*
X163099Y196371D02*
Y196592D01*
X161083Y196363D02*
Y196584D01*
X160103Y202010D02*
Y202231D01*
X158087Y202002D02*
Y202223D01*
X151314Y58357D02*
X151535D01*
X151322Y56341D02*
X151543D01*
X175588Y45047D02*
X175809D01*
X175596Y43031D02*
X175817D01*
X150630Y30800D02*
Y31021D01*
X148614Y30792D02*
Y31013D01*
X137592Y53030D02*
X137813D01*
X137600Y51014D02*
X137821D01*
X147249Y47846D02*
X147470D01*
X147242Y49862D02*
X147462D01*
X183079Y44967D02*
X183300D01*
X183087Y42951D02*
X183308D01*
X176151Y19122D02*
X176372D01*
X176159Y17106D02*
X176380D01*
X114663Y14216D02*
Y14437D01*
X112647Y14209D02*
Y14429D01*
X80553Y18437D02*
Y18658D01*
X78537Y18429D02*
Y18650D01*
X88838Y17360D02*
Y17581D01*
X90854Y17368D02*
Y17589D01*
X110572Y24680D02*
Y24901D01*
X112588Y24688D02*
Y24909D01*
X88710Y92344D02*
Y92565D01*
X90726Y92352D02*
Y92573D01*
X162171Y128467D02*
Y128688D01*
X160155Y128459D02*
Y128680D01*
X141442Y129047D02*
Y129268D01*
X139427Y129039D02*
Y129260D01*
X148098Y129012D02*
Y129307D01*
X146098Y129012D02*
Y129307D01*
X142125Y12637D02*
X142346D01*
X142133Y10621D02*
X142354D01*
X144805Y127388D02*
Y127609D01*
X142789Y127380D02*
Y127601D01*
X154703Y46207D02*
Y46428D01*
X156719Y46215D02*
Y46436D01*
X158188Y46193D02*
Y46414D01*
X160204Y46201D02*
Y46422D01*
X138055Y127391D02*
Y127612D01*
X136039Y127383D02*
Y127604D01*
X151539Y128481D02*
Y128702D01*
X149523Y128473D02*
Y128694D01*
X158572Y128542D02*
Y128763D01*
X156556Y128534D02*
Y128755D01*
X155056Y128488D02*
Y128709D01*
X153040Y128480D02*
Y128701D01*
X135568Y114615D02*
X135789D01*
X135561Y116631D02*
X135781D01*
X129252Y66140D02*
Y66361D01*
X131268Y66148D02*
Y66369D01*
X137910Y57405D02*
X138131D01*
X137918Y55389D02*
X138139D01*
X33066Y53012D02*
Y54665D01*
Y53012D02*
X34838D01*
X38263Y57776D02*
X39759D01*
Y56122D02*
Y57776D01*
X32548Y81015D02*
Y82668D01*
Y81015D02*
X34320D01*
X37745Y85779D02*
X39241D01*
Y84125D02*
Y85779D01*
X94992Y92344D02*
Y92565D01*
X92976Y92336D02*
Y92557D01*
X36302Y61224D02*
X36523D01*
X36295Y63240D02*
X36515D01*
X179861Y12308D02*
X180082D01*
X179854Y14324D02*
X180074D01*
X171193Y128275D02*
Y128496D01*
X169177Y128267D02*
Y128488D01*
X165512Y52236D02*
Y52457D01*
X163496Y52228D02*
Y52449D01*
X168254Y56305D02*
Y56526D01*
X170270Y56313D02*
Y56534D01*
X162115Y122307D02*
X162335D01*
X162122Y120291D02*
X162343D01*
X138095Y16422D02*
X138316D01*
X138088Y18438D02*
X138308D01*
X137663Y44408D02*
X137884D01*
X137671Y42392D02*
X137892D01*
X175588Y51882D02*
X175809D01*
X175596Y49866D02*
X175817D01*
X175588Y48719D02*
X175809D01*
X175596Y46703D02*
X175817D01*
X99813Y24580D02*
Y24801D01*
X101829Y24588D02*
Y24809D01*
X101566Y5817D02*
X101786D01*
X101573Y3801D02*
X101794D01*
X53648Y149445D02*
Y149665D01*
X55664Y149453D02*
Y149673D01*
X74648Y148945D02*
Y149165D01*
X76664Y148953D02*
Y149173D01*
X81148Y148945D02*
Y149165D01*
X79132Y148937D02*
Y149158D01*
X78038Y140055D02*
X78258D01*
X78030Y142071D02*
X78251D01*
X173275Y128267D02*
Y128488D01*
X175291Y128275D02*
Y128496D01*
D15*
X191698Y107907D02*
X191365Y108240D01*
X190698D01*
X190365Y107907D01*
Y106574D01*
X190698Y106241D01*
X191365D01*
X191698Y106574D01*
X192364Y108240D02*
Y106241D01*
Y107241D01*
X193697D01*
Y108240D01*
Y106241D01*
X194364D02*
X195030D01*
X194697D01*
Y108240D01*
X194364Y107907D01*
X196030Y107241D02*
X197363D01*
X196696Y107907D02*
Y106574D01*
X203361Y107907D02*
X203028Y108240D01*
X202361D01*
X202028Y107907D01*
Y106574D01*
X202361Y106241D01*
X203028D01*
X203361Y106574D01*
X204027Y108240D02*
Y106241D01*
Y107241D01*
X205360D01*
Y108240D01*
Y106241D01*
X208026D02*
X208692D01*
X208359D01*
Y108240D01*
X208026Y107907D01*
X209692Y107241D02*
X211025D01*
X190703Y38600D02*
X190370Y38933D01*
X189703D01*
X189370Y38600D01*
Y37267D01*
X189703Y36934D01*
X190370D01*
X190703Y37267D01*
X191369Y38933D02*
Y36934D01*
Y37934D01*
X192702D01*
Y38933D01*
Y36934D01*
X193369Y38600D02*
X193702Y38933D01*
X194368D01*
X194702Y38600D01*
Y38267D01*
X194368Y37934D01*
X194702Y37600D01*
Y37267D01*
X194368Y36934D01*
X193702D01*
X193369Y37267D01*
Y37600D01*
X193702Y37934D01*
X193369Y38267D01*
Y38600D01*
X193702Y37934D02*
X194368D01*
X195368D02*
X196701D01*
X196035Y38600D02*
Y37267D01*
X202699Y38600D02*
X202366Y38933D01*
X201699D01*
X201366Y38600D01*
Y37267D01*
X201699Y36934D01*
X202366D01*
X202699Y37267D01*
X203365Y38933D02*
Y36934D01*
Y37934D01*
X204698D01*
Y38933D01*
Y36934D01*
X207364Y38600D02*
X207697Y38933D01*
X208364D01*
X208697Y38600D01*
Y38267D01*
X208364Y37934D01*
X208697Y37600D01*
Y37267D01*
X208364Y36934D01*
X207697D01*
X207364Y37267D01*
Y37600D01*
X207697Y37934D01*
X207364Y38267D01*
Y38600D01*
X207697Y37934D02*
X208364D01*
X209364D02*
X210696D01*
X187991Y202746D02*
X187658Y203079D01*
X186991D01*
X186658Y202746D01*
Y201413D01*
X186991Y201080D01*
X187658D01*
X187991Y201413D01*
X188657Y203079D02*
Y201080D01*
Y202080D01*
X189990D01*
Y203079D01*
Y201080D01*
X190657D02*
X191323D01*
X190990D01*
Y203079D01*
X190657Y202746D01*
X192323Y202080D02*
X193656D01*
X192989Y202746D02*
Y201413D01*
X199654Y202746D02*
X199321Y203079D01*
X198654D01*
X198321Y202746D01*
Y201413D01*
X198654Y201080D01*
X199321D01*
X199654Y201413D01*
X200320Y203079D02*
Y201080D01*
Y202080D01*
X201653D01*
Y203079D01*
Y201080D01*
X204319D02*
X204985D01*
X204652D01*
Y203079D01*
X204319Y202746D01*
X205985Y202080D02*
X207318D01*
X33176Y30031D02*
Y32030D01*
X32677Y32530D01*
X31677D01*
X31177Y32030D01*
Y30031D01*
X31677Y29531D01*
X32677D01*
X32177Y30531D02*
X33176Y29531D01*
X32677D02*
X33176Y30031D01*
X36175Y32530D02*
X34176D01*
Y31030D01*
X35176D01*
X34176D01*
Y29531D01*
X37175D02*
Y32530D01*
X38675D01*
X39174Y32030D01*
Y31030D01*
X38675Y30531D01*
X37175D01*
X45173Y32030D02*
X44673Y32530D01*
X43673D01*
X43173Y32030D01*
Y30031D01*
X43673Y29531D01*
X44673D01*
X45173Y30031D01*
X47672Y32530D02*
X46672D01*
X46172Y32030D01*
Y30031D01*
X46672Y29531D01*
X47672D01*
X48171Y30031D01*
Y32030D01*
X47672Y32530D01*
X49171Y29531D02*
Y32530D01*
X51170Y29531D01*
Y32530D01*
X52170D02*
X54170D01*
X53170D01*
Y29531D01*
X55169D02*
Y32530D01*
X56669D01*
X57169Y32030D01*
Y31030D01*
X56669Y30531D01*
X55169D01*
X56169D02*
X57169Y29531D01*
X59668Y32530D02*
X58668D01*
X58168Y32030D01*
Y30031D01*
X58668Y29531D01*
X59668D01*
X60168Y30031D01*
Y32030D01*
X59668Y32530D01*
X61167D02*
Y29531D01*
X63167D01*
X16197Y184871D02*
Y181872D01*
X17696D01*
X18196Y182372D01*
Y182872D01*
X17696Y183371D01*
X16197D01*
X17696D01*
X18196Y183871D01*
Y184371D01*
X17696Y184871D01*
X16197D01*
X21195Y184371D02*
X20696Y184871D01*
X19696D01*
X19196Y184371D01*
Y182372D01*
X19696Y181872D01*
X20696D01*
X21195Y182372D01*
Y183371D01*
X20196D01*
X22195Y181872D02*
Y183871D01*
X23195Y184871D01*
X24194Y183871D01*
Y181872D01*
Y183371D01*
X22195D01*
X30193Y184371D02*
X29693Y184871D01*
X28693D01*
X28193Y184371D01*
Y182372D01*
X28693Y181872D01*
X29693D01*
X30193Y182372D01*
X32692Y184871D02*
X31692D01*
X31192Y184371D01*
Y182372D01*
X31692Y181872D01*
X32692D01*
X33191Y182372D01*
Y184371D01*
X32692Y184871D01*
X34191Y181872D02*
Y184871D01*
X36191Y181872D01*
Y184871D01*
X37190D02*
X39190D01*
X38190D01*
Y181872D01*
X40189D02*
Y184871D01*
X41689D01*
X42189Y184371D01*
Y183371D01*
X41689Y182872D01*
X40189D01*
X41189D02*
X42189Y181872D01*
X44688Y184871D02*
X43688D01*
X43188Y184371D01*
Y182372D01*
X43688Y181872D01*
X44688D01*
X45188Y182372D01*
Y184371D01*
X44688Y184871D01*
X46187D02*
Y181872D01*
X48187D01*
X29069Y137167D02*
X28569Y137667D01*
X27570D01*
X27070Y137167D01*
Y135168D01*
X27570Y134668D01*
X28569D01*
X29069Y135168D01*
Y136168D01*
X28070D01*
X30069Y134668D02*
Y137667D01*
X32068Y134668D01*
Y137667D01*
X33068D02*
Y134668D01*
X34568D01*
X35067Y135168D01*
Y137167D01*
X34568Y137667D01*
X33068D01*
X8303Y98195D02*
X6304D01*
Y95196D01*
X8303D01*
X6304Y96696D02*
X7304D01*
X9303Y98195D02*
X11302Y95196D01*
Y98195D02*
X9303Y95196D01*
X12302Y98195D02*
X14301D01*
X13302D01*
Y95196D01*
X23574Y98105D02*
Y95606D01*
X24074Y95106D01*
X25074D01*
X25573Y95606D01*
Y98105D01*
X28572Y97605D02*
X28073Y98105D01*
X27073D01*
X26573Y97605D01*
Y97105D01*
X27073Y96605D01*
X28073D01*
X28572Y96106D01*
Y95606D01*
X28073Y95106D01*
X27073D01*
X26573Y95606D01*
X29572Y98105D02*
Y95106D01*
X31072D01*
X31571Y95606D01*
Y96106D01*
X31072Y96605D01*
X29572D01*
X31072D01*
X31571Y97105D01*
Y97605D01*
X31072Y98105D01*
X29572D01*
X207598Y7188D02*
X208265D01*
X207931D01*
Y9187D01*
X207598Y8854D01*
X209013Y18799D02*
X207680D01*
X209013Y20132D01*
Y20465D01*
X208680Y20798D01*
X208013D01*
X207680Y20465D01*
X232598Y17188D02*
Y19187D01*
X231598Y18188D01*
X232931D01*
X231598Y8854D02*
X231931Y9187D01*
X232598D01*
X232931Y8854D01*
Y8521D01*
X232598Y8188D01*
X232265D01*
X232598D01*
X232931Y7854D01*
Y7521D01*
X232598Y7188D01*
X231931D01*
X231598Y7521D01*
X77367Y209830D02*
X78034D01*
X77700D01*
Y211829D01*
X77367Y211496D01*
X80033Y209830D02*
Y211829D01*
X79033Y210830D01*
X80366D01*
X76997Y198729D02*
X77664D01*
X77330D01*
Y200728D01*
X76997Y200395D01*
X78663D02*
X78996Y200728D01*
X79663D01*
X79996Y200395D01*
Y200062D01*
X79663Y199729D01*
X79330D01*
X79663D01*
X79996Y199396D01*
Y199062D01*
X79663Y198729D01*
X78996D01*
X78663Y199062D01*
X8272Y186025D02*
X6939D01*
X8272Y187358D01*
Y187691D01*
X7939Y188024D01*
X7272D01*
X6939Y187691D01*
X7556Y180968D02*
X8223D01*
X7889D01*
Y182967D01*
X7556Y182634D01*
X215470Y209344D02*
X216137D01*
X215803D01*
Y211343D01*
X215470Y211010D01*
X218469Y211343D02*
X217803Y211010D01*
X217136Y210344D01*
Y209677D01*
X217470Y209344D01*
X218136D01*
X218469Y209677D01*
Y210011D01*
X218136Y210344D01*
X217136D01*
X228604Y209792D02*
X229271D01*
X228937D01*
Y211791D01*
X228604Y211458D01*
X231603Y211791D02*
X230270D01*
Y210792D01*
X230937Y211125D01*
X231270D01*
X231603Y210792D01*
Y210125D01*
X231270Y209792D01*
X230604D01*
X230270Y210125D01*
X228007Y122633D02*
X228674D01*
X228340D01*
Y124632D01*
X228007Y124299D01*
X216057Y122633D02*
X214724D01*
X216057Y123966D01*
Y124299D01*
X215724Y124632D01*
X215057D01*
X214724Y124299D01*
X214725Y117410D02*
X215392D01*
X215058D01*
Y119409D01*
X214725Y119076D01*
X217724Y119409D02*
X217058Y119076D01*
X216391Y118410D01*
Y117743D01*
X216724Y117410D01*
X217391D01*
X217724Y117743D01*
Y118077D01*
X217391Y118410D01*
X216391D01*
X226664Y116813D02*
X227331D01*
X226997D01*
Y118812D01*
X226664Y118479D01*
X229663Y118812D02*
X228330D01*
Y117813D01*
X228997Y118146D01*
X229330D01*
X229663Y117813D01*
Y117146D01*
X229330Y116813D01*
X228663D01*
X228330Y117146D01*
X227709Y30550D02*
X228376D01*
X228042D01*
Y32549D01*
X227709Y32216D01*
X218778Y31005D02*
X217445D01*
X218778Y32338D01*
Y32671D01*
X218445Y33004D01*
X217778D01*
X217445Y32671D01*
X1710Y6317D02*
X2377D01*
X2043D01*
Y8316D01*
X1710Y7983D01*
X4376Y6317D02*
Y8316D01*
X3376Y7317D01*
X4709D01*
X1557Y18954D02*
X2224D01*
X1890D01*
Y20953D01*
X1557Y20620D01*
X3223D02*
X3557Y20953D01*
X4223D01*
X4556Y20620D01*
Y20287D01*
X4223Y19954D01*
X3890D01*
X4223D01*
X4556Y19621D01*
Y19287D01*
X4223Y18954D01*
X3557D01*
X3223Y19287D01*
X72903Y28147D02*
X71570D01*
X72903Y29480D01*
Y29813D01*
X72570Y30146D01*
X71903D01*
X71570Y29813D01*
X71693Y33080D02*
X72360D01*
X72026D01*
Y35079D01*
X71693Y34746D01*
X20618Y162431D02*
Y164431D01*
X21618D01*
X21951Y164097D01*
Y163431D01*
X21618Y163098D01*
X20618D01*
X21285D02*
X21951Y162431D01*
X23950D02*
X22618D01*
X23950Y163764D01*
Y164097D01*
X23617Y164431D01*
X22951D01*
X22618Y164097D01*
X24617Y164431D02*
X25950D01*
Y164097D01*
X24617Y162764D01*
Y162431D01*
X61475Y108676D02*
Y110675D01*
X62475D01*
X62808Y110342D01*
Y109676D01*
X62475Y109343D01*
X61475D01*
X62142D02*
X62808Y108676D01*
X64807D02*
X63475D01*
X64807Y110009D01*
Y110342D01*
X64474Y110675D01*
X63808D01*
X63475Y110342D01*
X66807Y108676D02*
X65474D01*
X66807Y110009D01*
Y110342D01*
X66474Y110675D01*
X65807D01*
X65474Y110342D01*
X55582Y81381D02*
Y83380D01*
X56582D01*
X56915Y83047D01*
Y82381D01*
X56582Y82047D01*
X55582D01*
X56249D02*
X56915Y81381D01*
X58914D02*
X57582D01*
X58914Y82714D01*
Y83047D01*
X58581Y83380D01*
X57915D01*
X57582Y83047D01*
X59581D02*
X59914Y83380D01*
X60581D01*
X60914Y83047D01*
Y81714D01*
X60581Y81381D01*
X59914D01*
X59581Y81714D01*
Y83047D01*
X200581Y6485D02*
Y8484D01*
X201581D01*
X201914Y8151D01*
Y7485D01*
X201581Y7152D01*
X200581D01*
X202580Y8484D02*
X203913D01*
Y8151D01*
X202580Y6818D01*
Y6485D01*
X7218Y164431D02*
Y162431D01*
X8218D01*
X8551Y162764D01*
Y164097D01*
X8218Y164431D01*
X7218D01*
X9218Y164097D02*
X9551Y164431D01*
X10217D01*
X10550Y164097D01*
Y163764D01*
X10217Y163431D01*
X9884D01*
X10217D01*
X10550Y163098D01*
Y162764D01*
X10217Y162431D01*
X9551D01*
X9218Y162764D01*
X44105Y100284D02*
Y98285D01*
X45105D01*
X45438Y98618D01*
Y99951D01*
X45105Y100284D01*
X44105D01*
X47437Y98285D02*
X46104D01*
X47437Y99618D01*
Y99951D01*
X47104Y100284D01*
X46438D01*
X46104Y99951D01*
X37902Y74229D02*
Y72230D01*
X38902D01*
X39235Y72563D01*
Y73896D01*
X38902Y74229D01*
X37902D01*
X39902Y72230D02*
X40568D01*
X40235D01*
Y74229D01*
X39902Y73896D01*
X26768Y138861D02*
Y140860D01*
X27768D01*
X28101Y140527D01*
Y139861D01*
X27768Y139527D01*
X26768D01*
X30100Y140860D02*
X29434Y140527D01*
X28767Y139861D01*
Y139194D01*
X29101Y138861D01*
X29767D01*
X30100Y139194D01*
Y139527D01*
X29767Y139861D01*
X28767D01*
X37450Y100812D02*
Y102811D01*
X38450D01*
X38783Y102478D01*
Y101812D01*
X38450Y101479D01*
X37450D01*
X40782Y102811D02*
X39450D01*
Y101812D01*
X40116Y102145D01*
X40449D01*
X40782Y101812D01*
Y101145D01*
X40449Y100812D01*
X39783D01*
X39450Y101145D01*
X49106Y119222D02*
X48773Y119555D01*
X48106D01*
X47773Y119222D01*
Y117889D01*
X48106Y117556D01*
X48773D01*
X49106Y117889D01*
X50772Y117556D02*
Y119555D01*
X49773Y118556D01*
X51105D01*
X51772Y117556D02*
X52438D01*
X52105D01*
Y119555D01*
X51772Y119222D01*
X20599Y29575D02*
Y31574D01*
X21599D01*
X21932Y31241D01*
Y30575D01*
X21599Y30242D01*
X20599D01*
X23931Y29575D02*
X22599D01*
X23931Y30908D01*
Y31241D01*
X23598Y31574D01*
X22932D01*
X22599Y31241D01*
X41831Y186032D02*
Y188031D01*
X42831D01*
X43164Y187698D01*
Y187032D01*
X42831Y186698D01*
X41831D01*
X43830Y187698D02*
X44164Y188031D01*
X44830D01*
X45163Y187698D01*
Y187365D01*
X44830Y187032D01*
X44497D01*
X44830D01*
X45163Y186698D01*
Y186365D01*
X44830Y186032D01*
X44164D01*
X43830Y186365D01*
X210819Y29959D02*
Y31958D01*
X211819D01*
X212152Y31625D01*
Y30959D01*
X211819Y30626D01*
X210819D01*
X212818Y29959D02*
X213485D01*
X213152D01*
Y31958D01*
X212818Y31625D01*
X203979Y126961D02*
Y128960D01*
X204979D01*
X205312Y128627D01*
Y127961D01*
X204979Y127628D01*
X203979D01*
X206978Y126961D02*
Y128960D01*
X205978Y127961D01*
X207311D01*
X131150Y145569D02*
Y147568D01*
X132150D01*
X132483Y147235D01*
Y146569D01*
X132150Y146236D01*
X131150D01*
X131817D02*
X132483Y145569D01*
X133150D02*
X133816D01*
X133483D01*
Y147568D01*
X133150Y147235D01*
X134816D02*
X135149Y147568D01*
X135815D01*
X136149Y147235D01*
Y145902D01*
X135815Y145569D01*
X135149D01*
X134816Y145902D01*
Y147235D01*
X153637Y151934D02*
X153304Y152267D01*
X152637D01*
X152304Y151934D01*
Y150601D01*
X152637Y150268D01*
X153304D01*
X153637Y150601D01*
X154303Y151934D02*
X154637Y152267D01*
X155303D01*
X155636Y151934D01*
Y151601D01*
X155303Y151268D01*
X155636Y150934D01*
Y150601D01*
X155303Y150268D01*
X154637D01*
X154303Y150601D01*
Y150934D01*
X154637Y151268D01*
X154303Y151601D01*
Y151934D01*
X154637Y151268D02*
X155303D01*
X168790Y154936D02*
X168457Y155269D01*
X167790D01*
X167457Y154936D01*
Y153603D01*
X167790Y153270D01*
X168457D01*
X168790Y153603D01*
X169456Y155269D02*
X170789D01*
Y154936D01*
X169456Y153603D01*
Y153270D01*
X150445Y148360D02*
X150112Y148693D01*
X149445D01*
X149112Y148360D01*
Y147027D01*
X149445Y146694D01*
X150112D01*
X150445Y147027D01*
X152444Y146694D02*
X151111D01*
X152444Y148027D01*
Y148360D01*
X152111Y148693D01*
X151445D01*
X151111Y148360D01*
X131781Y156374D02*
X131448Y156707D01*
X130781D01*
X130448Y156374D01*
Y155041D01*
X130781Y154708D01*
X131448D01*
X131781Y155041D01*
X132448Y154708D02*
X133114D01*
X132781D01*
Y156707D01*
X132448Y156374D01*
X134114D02*
X134447Y156707D01*
X135113D01*
X135447Y156374D01*
Y155041D01*
X135113Y154708D01*
X134447D01*
X134114Y155041D01*
Y156374D01*
X158402Y151648D02*
X158069Y151981D01*
X157402D01*
X157069Y151648D01*
Y150315D01*
X157402Y149982D01*
X158069D01*
X158402Y150315D01*
X159068Y149982D02*
X159735D01*
X159402D01*
Y151981D01*
X159068Y151648D01*
X79094Y191205D02*
Y193204D01*
X80094D01*
X80427Y192871D01*
Y192205D01*
X80094Y191872D01*
X79094D01*
X79761D02*
X80427Y191205D01*
X81094D02*
X81760D01*
X81427D01*
Y193204D01*
X81094Y192871D01*
X84093Y191205D02*
X82760D01*
X84093Y192538D01*
Y192871D01*
X83759Y193204D01*
X83093D01*
X82760Y192871D01*
X69377Y175169D02*
X71377D01*
Y174169D01*
X71043Y173836D01*
X70377D01*
X70044Y174169D01*
Y175169D01*
Y174503D02*
X69377Y173836D01*
X71377Y171837D02*
Y173170D01*
X70377D01*
X70710Y172503D01*
Y172170D01*
X70377Y171837D01*
X69710D01*
X69377Y172170D01*
Y172836D01*
X69710Y173170D01*
X74718Y174989D02*
X76718D01*
Y173989D01*
X76384Y173656D01*
X75718D01*
X75385Y173989D01*
Y174989D01*
Y174323D02*
X74718Y173656D01*
X75051Y172990D02*
X74718Y172657D01*
Y171990D01*
X75051Y171657D01*
X76384D01*
X76718Y171990D01*
Y172657D01*
X76384Y172990D01*
X76051D01*
X75718Y172657D01*
Y171657D01*
X87715Y172346D02*
Y174345D01*
X88715D01*
X89048Y174012D01*
Y173346D01*
X88715Y173012D01*
X87715D01*
X88382D02*
X89048Y172346D01*
X91047D02*
X89714D01*
X91047Y173679D01*
Y174012D01*
X90714Y174345D01*
X90048D01*
X89714Y174012D01*
X91714D02*
X92047Y174345D01*
X92713D01*
X93047Y174012D01*
Y173679D01*
X92713Y173346D01*
X92380D01*
X92713D01*
X93047Y173012D01*
Y172679D01*
X92713Y172346D01*
X92047D01*
X91714Y172679D01*
X96692Y161934D02*
X98691D01*
Y160934D01*
X98358Y160601D01*
X97692D01*
X97359Y160934D01*
Y161934D01*
Y161268D02*
X96692Y160601D01*
Y158602D02*
Y159935D01*
X98025Y158602D01*
X98358D01*
X98691Y158935D01*
Y159601D01*
X98358Y159935D01*
X96692Y156936D02*
X98691D01*
X97692Y157935D01*
Y156602D01*
X106278Y172692D02*
Y174691D01*
X107278D01*
X107611Y174358D01*
Y173692D01*
X107278Y173359D01*
X106278D01*
X106945D02*
X107611Y172692D01*
X109610D02*
X108277D01*
X109610Y174025D01*
Y174358D01*
X109277Y174691D01*
X108611D01*
X108277Y174358D01*
X111610Y174691D02*
X110277D01*
Y173692D01*
X110943Y174025D01*
X111276D01*
X111610Y173692D01*
Y173025D01*
X111276Y172692D01*
X110610D01*
X110277Y173025D01*
X102430Y161606D02*
X104429D01*
Y160606D01*
X104096Y160273D01*
X103430D01*
X103097Y160606D01*
Y161606D01*
Y160940D02*
X102430Y160273D01*
Y158274D02*
Y159607D01*
X103763Y158274D01*
X104096D01*
X104429Y158607D01*
Y159274D01*
X104096Y159607D01*
X104429Y156274D02*
X104096Y156941D01*
X103430Y157607D01*
X102763D01*
X102430Y157274D01*
Y156608D01*
X102763Y156274D01*
X103097D01*
X103430Y156608D01*
Y157607D01*
X180883Y201189D02*
X178884D01*
Y202189D01*
X179217Y202522D01*
X179884D01*
X180217Y202189D01*
Y201189D01*
Y201855D02*
X180883Y202522D01*
X179217Y203188D02*
X178884Y203522D01*
Y204188D01*
X179217Y204521D01*
X179550D01*
X179884Y204188D01*
Y203855D01*
Y204188D01*
X180217Y204521D01*
X180550D01*
X180883Y204188D01*
Y203522D01*
X180550Y203188D01*
X179217Y205188D02*
X178884Y205521D01*
Y206187D01*
X179217Y206521D01*
X180550D01*
X180883Y206187D01*
Y205521D01*
X180550Y205188D01*
X179217D01*
X106918Y184231D02*
Y186231D01*
X107918D01*
X108251Y185897D01*
Y185231D01*
X107918Y184898D01*
X106918D01*
X107585D02*
X108251Y184231D01*
X108918Y185897D02*
X109251Y186231D01*
X109917D01*
X110250Y185897D01*
Y185564D01*
X109917Y185231D01*
X109584D01*
X109917D01*
X110250Y184898D01*
Y184564D01*
X109917Y184231D01*
X109251D01*
X108918Y184564D01*
X112250Y184231D02*
X110917D01*
X112250Y185564D01*
Y185897D01*
X111917Y186231D01*
X111250D01*
X110917Y185897D01*
X142749Y205670D02*
Y207669D01*
X143749D01*
X144082Y207336D01*
Y206670D01*
X143749Y206336D01*
X142749D01*
X143416D02*
X144082Y205670D01*
X144748Y207336D02*
X145082Y207669D01*
X145748D01*
X146081Y207336D01*
Y207003D01*
X145748Y206670D01*
X145415D01*
X145748D01*
X146081Y206336D01*
Y206003D01*
X145748Y205670D01*
X145082D01*
X144748Y206003D01*
X147748Y205670D02*
Y207669D01*
X146748Y206670D01*
X148081D01*
X99519Y195829D02*
Y197828D01*
X100519D01*
X100852Y197495D01*
Y196829D01*
X100519Y196495D01*
X99519D01*
X100186D02*
X100852Y195829D01*
X101518D02*
X102185D01*
X101852D01*
Y197828D01*
X101518Y197495D01*
X103185D02*
X103518Y197828D01*
X104184D01*
X104518Y197495D01*
Y197162D01*
X104184Y196829D01*
X103851D01*
X104184D01*
X104518Y196495D01*
Y196162D01*
X104184Y195829D01*
X103518D01*
X103185Y196162D01*
X110590Y204879D02*
Y206878D01*
X111590D01*
X111923Y206545D01*
Y205879D01*
X111590Y205545D01*
X110590D01*
X111257D02*
X111923Y204879D01*
X112590D02*
X113256D01*
X112923D01*
Y206878D01*
X112590Y206545D01*
X115255Y204879D02*
Y206878D01*
X114256Y205879D01*
X115589D01*
X170255Y202610D02*
X169922Y202277D01*
Y201610D01*
X170255Y201277D01*
X171588D01*
X171921Y201610D01*
Y202277D01*
X171588Y202610D01*
X170255Y203276D02*
X169922Y203610D01*
Y204276D01*
X170255Y204609D01*
X170588D01*
X170922Y204276D01*
Y203943D01*
Y204276D01*
X171255Y204609D01*
X171588D01*
X171921Y204276D01*
Y203610D01*
X171588Y203276D01*
X169922Y206609D02*
Y205276D01*
X170922D01*
X170588Y205942D01*
Y206275D01*
X170922Y206609D01*
X171588D01*
X171921Y206275D01*
Y205609D01*
X171588Y205276D01*
X174648Y202522D02*
X174315Y202189D01*
Y201522D01*
X174648Y201189D01*
X175981D01*
X176314Y201522D01*
Y202189D01*
X175981Y202522D01*
X174648Y203188D02*
X174315Y203522D01*
Y204188D01*
X174648Y204521D01*
X174981D01*
X175314Y204188D01*
Y203855D01*
Y204188D01*
X175648Y204521D01*
X175981D01*
X176314Y204188D01*
Y203522D01*
X175981Y203188D01*
X174315Y206521D02*
X174648Y205854D01*
X175314Y205188D01*
X175981D01*
X176314Y205521D01*
Y206187D01*
X175981Y206521D01*
X175648D01*
X175314Y206187D01*
Y205188D01*
X124136Y160327D02*
X123803Y160660D01*
X123136D01*
X122803Y160327D01*
Y158994D01*
X123136Y158661D01*
X123803D01*
X124136Y158994D01*
X124802Y160327D02*
X125136Y160660D01*
X125802D01*
X126135Y160327D01*
Y159994D01*
X125802Y159661D01*
X125469D01*
X125802D01*
X126135Y159327D01*
Y158994D01*
X125802Y158661D01*
X125136D01*
X124802Y158994D01*
X126802Y160660D02*
X128135D01*
Y160327D01*
X126802Y158994D01*
Y158661D01*
X132396Y196089D02*
X132063Y196422D01*
X131396D01*
X131063Y196089D01*
Y194756D01*
X131396Y194423D01*
X132063D01*
X132396Y194756D01*
X133063Y196089D02*
X133396Y196422D01*
X134062D01*
X134395Y196089D01*
Y195756D01*
X134062Y195423D01*
X133729D01*
X134062D01*
X134395Y195089D01*
Y194756D01*
X134062Y194423D01*
X133396D01*
X133063Y194756D01*
X136062Y194423D02*
Y196422D01*
X135062Y195423D01*
X136395D01*
X123961Y164809D02*
X123628Y165142D01*
X122961D01*
X122628Y164809D01*
Y163476D01*
X122961Y163143D01*
X123628D01*
X123961Y163476D01*
X124627Y164809D02*
X124961Y165142D01*
X125627D01*
X125960Y164809D01*
Y164476D01*
X125627Y164143D01*
X125294D01*
X125627D01*
X125960Y163810D01*
Y163476D01*
X125627Y163143D01*
X124961D01*
X124627Y163476D01*
X126627Y164809D02*
X126960Y165142D01*
X127627D01*
X127960Y164809D01*
Y164476D01*
X127627Y164143D01*
X127960Y163810D01*
Y163476D01*
X127627Y163143D01*
X126960D01*
X126627Y163476D01*
Y163810D01*
X126960Y164143D01*
X126627Y164476D01*
Y164809D01*
X126960Y164143D02*
X127627D01*
X133538Y200395D02*
X133205Y200728D01*
X132538D01*
X132205Y200395D01*
Y199062D01*
X132538Y198729D01*
X133205D01*
X133538Y199062D01*
X134204Y200395D02*
X134538Y200728D01*
X135204D01*
X135537Y200395D01*
Y200062D01*
X135204Y199729D01*
X134871D01*
X135204D01*
X135537Y199396D01*
Y199062D01*
X135204Y198729D01*
X134538D01*
X134204Y199062D01*
X136204D02*
X136537Y198729D01*
X137204D01*
X137537Y199062D01*
Y200395D01*
X137204Y200728D01*
X136537D01*
X136204Y200395D01*
Y200062D01*
X136537Y199729D01*
X137537D01*
X155053Y200237D02*
X154720Y199904D01*
Y199237D01*
X155053Y198904D01*
X156386D01*
X156719Y199237D01*
Y199904D01*
X156386Y200237D01*
X156719Y200903D02*
Y201570D01*
Y201237D01*
X154720D01*
X155053Y200903D01*
X156719Y202570D02*
Y203236D01*
Y202903D01*
X154720D01*
X155053Y202570D01*
X124224Y170696D02*
X123891Y171029D01*
X123224D01*
X122891Y170696D01*
Y169363D01*
X123224Y169030D01*
X123891D01*
X124224Y169363D01*
X124890Y169030D02*
X125557D01*
X125224D01*
Y171029D01*
X124890Y170696D01*
X126557D02*
X126890Y171029D01*
X127556D01*
X127890Y170696D01*
Y170363D01*
X127556Y170030D01*
X127223D01*
X127556D01*
X127890Y169696D01*
Y169363D01*
X127556Y169030D01*
X126890D01*
X126557Y169363D01*
X124224Y177813D02*
X123891Y178146D01*
X123224D01*
X122891Y177813D01*
Y176480D01*
X123224Y176147D01*
X123891D01*
X124224Y176480D01*
X124890Y176147D02*
X125557D01*
X125224D01*
Y178146D01*
X124890Y177813D01*
X127890Y176147D02*
X126557D01*
X127890Y177480D01*
Y177813D01*
X127556Y178146D01*
X126890D01*
X126557Y177813D01*
X125791Y190535D02*
Y188869D01*
X126124Y188536D01*
X126791D01*
X127124Y188869D01*
Y190535D01*
X127790Y188536D02*
X128457D01*
X128124D01*
Y190535D01*
X127790Y190202D01*
X129457D02*
X129790Y190535D01*
X130456D01*
X130790Y190202D01*
Y188869D01*
X130456Y188536D01*
X129790D01*
X129457Y188869D01*
Y190202D01*
X131456D02*
X131789Y190535D01*
X132456D01*
X132789Y190202D01*
Y188869D01*
X132456Y188536D01*
X131789D01*
X131456Y188869D01*
Y190202D01*
X133455D02*
X133789Y190535D01*
X134455D01*
X134788Y190202D01*
Y188869D01*
X134455Y188536D01*
X133789D01*
X133455Y188869D01*
Y190202D01*
X156787Y57713D02*
X156454Y58046D01*
X155787D01*
X155454Y57713D01*
Y56380D01*
X155787Y56047D01*
X156454D01*
X156787Y56380D01*
X158786Y58046D02*
X158120Y57713D01*
X157454Y57047D01*
Y56380D01*
X157787Y56047D01*
X158453D01*
X158786Y56380D01*
Y56713D01*
X158453Y57047D01*
X157454D01*
X159453Y57713D02*
X159786Y58046D01*
X160452D01*
X160786Y57713D01*
Y57380D01*
X160452Y57047D01*
X160786Y56713D01*
Y56380D01*
X160452Y56047D01*
X159786D01*
X159453Y56380D01*
Y56713D01*
X159786Y57047D01*
X159453Y57380D01*
Y57713D01*
X159786Y57047D02*
X160452D01*
X186745Y25038D02*
Y23372D01*
X187078Y23039D01*
X187745D01*
X188078Y23372D01*
Y25038D01*
X188744D02*
X190077D01*
Y24705D01*
X188744Y23372D01*
Y23039D01*
X109423Y7262D02*
Y5596D01*
X109756Y5263D01*
X110423D01*
X110756Y5596D01*
Y7262D01*
X112755D02*
X112089Y6929D01*
X111423Y6263D01*
Y5596D01*
X111756Y5263D01*
X112422D01*
X112755Y5596D01*
Y5929D01*
X112422Y6263D01*
X111423D01*
X174413Y41605D02*
X174080Y41938D01*
X173413D01*
X173080Y41605D01*
Y40272D01*
X173413Y39939D01*
X174080D01*
X174413Y40272D01*
X176412Y39939D02*
X175080D01*
X176412Y41272D01*
Y41605D01*
X176079Y41938D01*
X175413D01*
X175080Y41605D01*
X177079D02*
X177412Y41938D01*
X178078D01*
X178412Y41605D01*
Y41272D01*
X178078Y40939D01*
X177745D01*
X178078D01*
X178412Y40606D01*
Y40272D01*
X178078Y39939D01*
X177412D01*
X177079Y40272D01*
X153222Y29854D02*
X152889Y30187D01*
X152222D01*
X151889Y29854D01*
Y28521D01*
X152222Y28188D01*
X152889D01*
X153222Y28521D01*
X153888Y29854D02*
X154222Y30187D01*
X154888D01*
X155221Y29854D01*
Y29521D01*
X154888Y29188D01*
X154555D01*
X154888D01*
X155221Y28855D01*
Y28521D01*
X154888Y28188D01*
X154222D01*
X153888Y28521D01*
X155888Y29854D02*
X156221Y30187D01*
X156888D01*
X157221Y29854D01*
Y29521D01*
X156888Y29188D01*
X156554D01*
X156888D01*
X157221Y28855D01*
Y28521D01*
X156888Y28188D01*
X156221D01*
X155888Y28521D01*
X128383Y52366D02*
X128050Y52699D01*
X127383D01*
X127050Y52366D01*
Y51033D01*
X127383Y50700D01*
X128050D01*
X128383Y51033D01*
X130382Y50700D02*
X129050D01*
X130382Y52033D01*
Y52366D01*
X130049Y52699D01*
X129383D01*
X129050Y52366D01*
X131049Y51033D02*
X131382Y50700D01*
X132049D01*
X132382Y51033D01*
Y52366D01*
X132049Y52699D01*
X131382D01*
X131049Y52366D01*
Y52033D01*
X131382Y51700D01*
X132382D01*
X145960Y46358D02*
X145627Y46691D01*
X144960D01*
X144627Y46358D01*
Y45025D01*
X144960Y44692D01*
X145627D01*
X145960Y45025D01*
X147959Y44692D02*
X146626D01*
X147959Y46025D01*
Y46358D01*
X147626Y46691D01*
X146960D01*
X146626Y46358D01*
X148626D02*
X148959Y46691D01*
X149626D01*
X149959Y46358D01*
Y46025D01*
X149626Y45692D01*
X149959Y45358D01*
Y45025D01*
X149626Y44692D01*
X148959D01*
X148626Y45025D01*
Y45358D01*
X148959Y45692D01*
X148626Y46025D01*
Y46358D01*
X148959Y45692D02*
X149626D01*
X188617Y44684D02*
X188284Y45017D01*
X187617D01*
X187284Y44684D01*
Y43351D01*
X187617Y43018D01*
X188284D01*
X188617Y43351D01*
X190616Y43018D02*
X189284D01*
X190616Y44351D01*
Y44684D01*
X190283Y45017D01*
X189617D01*
X189284Y44684D01*
X191283Y45017D02*
X192616D01*
Y44684D01*
X191283Y43351D01*
Y43018D01*
X164181Y18896D02*
X163848Y19229D01*
X163181D01*
X162848Y18896D01*
Y17563D01*
X163181Y17230D01*
X163848D01*
X164181Y17563D01*
X166180Y17230D02*
X164848D01*
X166180Y18563D01*
Y18896D01*
X165847Y19229D01*
X165181D01*
X164848Y18896D01*
X168180Y19229D02*
X167513Y18896D01*
X166847Y18230D01*
Y17563D01*
X167180Y17230D01*
X167847D01*
X168180Y17563D01*
Y17897D01*
X167847Y18230D01*
X166847D01*
X116252Y10108D02*
X115919Y10441D01*
X115252D01*
X114919Y10108D01*
Y8775D01*
X115252Y8442D01*
X115919D01*
X116252Y8775D01*
X118251Y8442D02*
X116919D01*
X118251Y9775D01*
Y10108D01*
X117918Y10441D01*
X117252D01*
X116919Y10108D01*
X120251Y8442D02*
X118918D01*
X120251Y9775D01*
Y10108D01*
X119918Y10441D01*
X119251D01*
X118918Y10108D01*
X78858Y31306D02*
X78525Y31639D01*
X77858D01*
X77525Y31306D01*
Y29973D01*
X77858Y29640D01*
X78525D01*
X78858Y29973D01*
X79524Y29640D02*
X80191D01*
X79858D01*
Y31639D01*
X79524Y31306D01*
X81191Y31639D02*
X82524D01*
Y31306D01*
X81191Y29973D01*
Y29640D01*
X90481Y11519D02*
X90815Y11852D01*
Y12519D01*
X90481Y12852D01*
X89148D01*
X88815Y12519D01*
Y11852D01*
X89148Y11519D01*
X88815Y10853D02*
Y10186D01*
Y10520D01*
X90815D01*
X90481Y10853D01*
Y9187D02*
X90815Y8853D01*
Y8187D01*
X90481Y7854D01*
X90148D01*
X89815Y8187D01*
X89482Y7854D01*
X89148D01*
X88815Y8187D01*
Y8853D01*
X89148Y9187D01*
X89482D01*
X89815Y8853D01*
X90148Y9187D01*
X90481D01*
X89815Y8853D02*
Y8187D01*
X110793Y30640D02*
X110460Y30307D01*
Y29640D01*
X110793Y29307D01*
X112126D01*
X112459Y29640D01*
Y30307D01*
X112126Y30640D01*
X112459Y32639D02*
Y31306D01*
X111126Y32639D01*
X110793D01*
X110460Y32306D01*
Y31640D01*
X110793Y31306D01*
X112459Y33306D02*
Y33972D01*
Y33639D01*
X110460D01*
X110793Y33306D01*
X128514Y29228D02*
Y27562D01*
X128847Y27229D01*
X129514D01*
X129847Y27562D01*
Y29228D01*
X130514Y28895D02*
X130847Y29228D01*
X131513D01*
X131846Y28895D01*
Y28562D01*
X131513Y28229D01*
X131846Y27896D01*
Y27562D01*
X131513Y27229D01*
X130847D01*
X130514Y27562D01*
Y27896D01*
X130847Y28229D01*
X130514Y28562D01*
Y28895D01*
X130847Y28229D02*
X131513D01*
X164027Y136447D02*
Y137780D01*
Y137113D01*
X166026D01*
Y138446D02*
X164027D01*
Y139446D01*
X164360Y139779D01*
X165026D01*
X165360Y139446D01*
Y138446D01*
X166026Y140446D02*
Y141112D01*
Y140779D01*
X164027D01*
X164360Y140446D01*
X166026Y143112D02*
X164027D01*
X165026Y142112D01*
Y143445D01*
X123105Y13248D02*
Y11249D01*
X124438D01*
X126437D02*
X125104D01*
X126437Y12582D01*
Y12915D01*
X126104Y13248D01*
X125438D01*
X125104Y12915D01*
X88899Y88159D02*
X90899D01*
Y87159D01*
X90565Y86826D01*
X89899D01*
X89566Y87159D01*
Y88159D01*
Y87493D02*
X88899Y86826D01*
X90565Y86160D02*
X90899Y85826D01*
Y85160D01*
X90565Y84827D01*
X90232D01*
X89899Y85160D01*
X89566Y84827D01*
X89232D01*
X88899Y85160D01*
Y85826D01*
X89232Y86160D01*
X89566D01*
X89899Y85826D01*
X90232Y86160D01*
X90565D01*
X89899Y85826D02*
Y85160D01*
X90565Y84160D02*
X90899Y83827D01*
Y83161D01*
X90565Y82827D01*
X89232D01*
X88899Y83161D01*
Y83827D01*
X89232Y84160D01*
X90565D01*
X162090Y138006D02*
X160091D01*
Y139006D01*
X160424Y139339D01*
X161091D01*
X161424Y139006D01*
Y138006D01*
Y138672D02*
X162090Y139339D01*
X160424Y140005D02*
X160091Y140339D01*
Y141005D01*
X160424Y141338D01*
X160757D01*
X161091Y141005D01*
X161424Y141338D01*
X161757D01*
X162090Y141005D01*
Y140339D01*
X161757Y140005D01*
X161424D01*
X161091Y140339D01*
X160757Y140005D01*
X160424D01*
X161091Y140339D02*
Y141005D01*
X162090Y143004D02*
X160091D01*
X161091Y142005D01*
Y143338D01*
X141177Y133529D02*
X139178D01*
Y134529D01*
X139511Y134862D01*
X140178D01*
X140511Y134529D01*
Y133529D01*
Y134195D02*
X141177Y134862D01*
X139511Y135528D02*
X139178Y135862D01*
Y136528D01*
X139511Y136861D01*
X139844D01*
X140178Y136528D01*
X140511Y136861D01*
X140844D01*
X141177Y136528D01*
Y135862D01*
X140844Y135528D01*
X140511D01*
X140178Y135862D01*
X139844Y135528D01*
X139511D01*
X140178Y135862D02*
Y136528D01*
X139178Y138861D02*
Y137528D01*
X140178D01*
X139844Y138194D01*
Y138527D01*
X140178Y138861D01*
X140844D01*
X141177Y138527D01*
Y137861D01*
X140844Y137528D01*
X147860Y134643D02*
X145861D01*
Y135643D01*
X146194Y135976D01*
X146861D01*
X147194Y135643D01*
Y134643D01*
Y135310D02*
X147860Y135976D01*
X146194Y136642D02*
X145861Y136976D01*
Y137642D01*
X146194Y137975D01*
X146527D01*
X146861Y137642D01*
X147194Y137975D01*
X147527D01*
X147860Y137642D01*
Y136976D01*
X147527Y136642D01*
X147194D01*
X146861Y136976D01*
X146527Y136642D01*
X146194D01*
X146861Y136976D02*
Y137642D01*
X145861Y138642D02*
Y139975D01*
X146194D01*
X147527Y138642D01*
X147860D01*
X146794Y10551D02*
Y12550D01*
X147794D01*
X148127Y12217D01*
Y11551D01*
X147794Y11218D01*
X146794D01*
X147461D02*
X148127Y10551D01*
X150126D02*
X148793D01*
X150126Y11884D01*
Y12217D01*
X149793Y12550D01*
X149127D01*
X148793Y12217D01*
X150793Y10551D02*
X151459D01*
X151126D01*
Y12550D01*
X150793Y12217D01*
X144625Y121725D02*
X144958Y122058D01*
Y122725D01*
X144625Y123058D01*
X143292D01*
X142959Y122725D01*
Y122058D01*
X143292Y121725D01*
X144625Y121059D02*
X144958Y120726D01*
Y120059D01*
X144625Y119726D01*
X144292D01*
X143959Y120059D01*
X143626Y119726D01*
X143292D01*
X142959Y120059D01*
Y120726D01*
X143292Y121059D01*
X143626D01*
X143959Y120726D01*
X144292Y121059D01*
X144625D01*
X143959Y120726D02*
Y120059D01*
X144625Y119059D02*
X144958Y118726D01*
Y118060D01*
X144625Y117726D01*
X144292D01*
X143959Y118060D01*
Y118393D01*
Y118060D01*
X143626Y117726D01*
X143292D01*
X142959Y118060D01*
Y118726D01*
X143292Y119059D01*
X154905Y38225D02*
X154572Y37892D01*
Y37225D01*
X154905Y36892D01*
X156238D01*
X156571Y37225D01*
Y37892D01*
X156238Y38225D01*
X154905Y38891D02*
X154572Y39225D01*
Y39891D01*
X154905Y40224D01*
X155238D01*
X155571Y39891D01*
X155905Y40224D01*
X156238D01*
X156571Y39891D01*
Y39225D01*
X156238Y38891D01*
X155905D01*
X155571Y39225D01*
X155238Y38891D01*
X154905D01*
X155571Y39225D02*
Y39891D01*
X156571Y42224D02*
Y40891D01*
X155238Y42224D01*
X154905D01*
X154572Y41890D01*
Y41224D01*
X154905Y40891D01*
X158607Y38433D02*
X158274Y38100D01*
Y37433D01*
X158607Y37100D01*
X159940D01*
X160273Y37433D01*
Y38100D01*
X159940Y38433D01*
X158607Y39099D02*
X158274Y39433D01*
Y40099D01*
X158607Y40432D01*
X158940D01*
X159274Y40099D01*
X159607Y40432D01*
X159940D01*
X160273Y40099D01*
Y39433D01*
X159940Y39099D01*
X159607D01*
X159274Y39433D01*
X158940Y39099D01*
X158607D01*
X159274Y39433D02*
Y40099D01*
X160273Y41099D02*
Y41765D01*
Y41432D01*
X158274D01*
X158607Y41099D01*
X132976Y126471D02*
X132643Y126138D01*
Y125471D01*
X132976Y125138D01*
X134309D01*
X134642Y125471D01*
Y126138D01*
X134309Y126471D01*
X132976Y127137D02*
X132643Y127471D01*
Y128137D01*
X132976Y128470D01*
X133309D01*
X133642Y128137D01*
X133976Y128470D01*
X134309D01*
X134642Y128137D01*
Y127471D01*
X134309Y127137D01*
X133976D01*
X133642Y127471D01*
X133309Y127137D01*
X132976D01*
X133642Y127471D02*
Y128137D01*
X132976Y129137D02*
X132643Y129470D01*
Y130136D01*
X132976Y130470D01*
X134309D01*
X134642Y130136D01*
Y129470D01*
X134309Y129137D01*
X132976D01*
X149759Y120381D02*
X149426Y120048D01*
Y119381D01*
X149759Y119048D01*
X151092D01*
X151425Y119381D01*
Y120048D01*
X151092Y120381D01*
X149426Y121047D02*
Y122380D01*
X149759D01*
X151092Y121047D01*
X151425D01*
X151092Y123047D02*
X151425Y123380D01*
Y124046D01*
X151092Y124380D01*
X149759D01*
X149426Y124046D01*
Y123380D01*
X149759Y123047D01*
X150092D01*
X150426Y123380D01*
Y124380D01*
X157709Y137477D02*
X158043Y137810D01*
Y138477D01*
X157709Y138810D01*
X156376D01*
X156043Y138477D01*
Y137810D01*
X156376Y137477D01*
X158043Y136811D02*
Y135478D01*
X157709D01*
X156376Y136811D01*
X156043D01*
X157709Y134811D02*
X158043Y134478D01*
Y133812D01*
X157709Y133478D01*
X157376D01*
X157043Y133812D01*
X156710Y133478D01*
X156376D01*
X156043Y133812D01*
Y134478D01*
X156376Y134811D01*
X156710D01*
X157043Y134478D01*
X157376Y134811D01*
X157709D01*
X157043Y134478D02*
Y133812D01*
X154541Y137029D02*
X154875Y137362D01*
Y138029D01*
X154541Y138362D01*
X153208D01*
X152875Y138029D01*
Y137362D01*
X153208Y137029D01*
X154875Y136363D02*
Y135030D01*
X154541D01*
X153208Y136363D01*
X152875D01*
X154875Y134363D02*
Y133030D01*
X154541D01*
X153208Y134363D01*
X152875D01*
X134785Y112771D02*
X134452Y113104D01*
X133785D01*
X133452Y112771D01*
Y111438D01*
X133785Y111105D01*
X134452D01*
X134785Y111438D01*
X135451Y113104D02*
X136784D01*
Y112771D01*
X135451Y111438D01*
Y111105D01*
X138451D02*
Y113104D01*
X137451Y112105D01*
X138784D01*
X127436Y67783D02*
X127769Y68116D01*
Y68783D01*
X127436Y69116D01*
X126103D01*
X125770Y68783D01*
Y68116D01*
X126103Y67783D01*
X127769Y67117D02*
Y65784D01*
X127436D01*
X126103Y67117D01*
X125770D01*
X127436Y65117D02*
X127769Y64784D01*
Y64118D01*
X127436Y63784D01*
X127103D01*
X126770Y64118D01*
Y64451D01*
Y64118D01*
X126437Y63784D01*
X126103D01*
X125770Y64118D01*
Y64784D01*
X126103Y65117D01*
X128862Y56920D02*
X128529Y57253D01*
X127862D01*
X127529Y56920D01*
Y55587D01*
X127862Y55254D01*
X128529D01*
X128862Y55587D01*
X129528Y57253D02*
X130861D01*
Y56920D01*
X129528Y55587D01*
Y55254D01*
X132861D02*
X131528D01*
X132861Y56587D01*
Y56920D01*
X132527Y57253D01*
X131861D01*
X131528Y56920D01*
X31042Y51434D02*
Y49768D01*
X31375Y49435D01*
X32042D01*
X32375Y49768D01*
Y51434D01*
X33042Y49435D02*
X33708D01*
X33375D01*
Y51434D01*
X33042Y51101D01*
X36041Y49435D02*
X34708D01*
X36041Y50768D01*
Y51101D01*
X35707Y51434D01*
X35041D01*
X34708Y51101D01*
X180305Y119088D02*
Y117422D01*
X180638Y117089D01*
X181305D01*
X181638Y117422D01*
Y119088D01*
X182305Y117089D02*
X182971D01*
X182638D01*
Y119088D01*
X182305Y118755D01*
X183971D02*
X184304Y119088D01*
X184970D01*
X185303Y118755D01*
Y118422D01*
X184970Y118089D01*
X185303Y117755D01*
Y117422D01*
X184970Y117089D01*
X184304D01*
X183971Y117422D01*
Y117755D01*
X184304Y118089D01*
X183971Y118422D01*
Y118755D01*
X184304Y118089D02*
X184970D01*
X33653Y89587D02*
Y87921D01*
X33986Y87588D01*
X34653D01*
X34986Y87921D01*
Y89587D01*
X35653Y87588D02*
X36319D01*
X35986D01*
Y89587D01*
X35653Y89254D01*
X37319D02*
X37652Y89587D01*
X38318D01*
X38651Y89254D01*
Y87921D01*
X38318Y87588D01*
X37652D01*
X37319Y87921D01*
Y89254D01*
X62648Y156054D02*
Y154388D01*
X62981Y154055D01*
X63648D01*
X63981Y154388D01*
Y156054D01*
X64648Y154055D02*
X65314D01*
X64981D01*
Y156054D01*
X64648Y155721D01*
X93078Y88089D02*
X95078D01*
Y87089D01*
X94744Y86756D01*
X94078D01*
X93745Y87089D01*
Y88089D01*
Y87423D02*
X93078Y86756D01*
X95078Y86090D02*
Y84757D01*
X94744D01*
X93411Y86090D01*
X93078D01*
X94744Y84090D02*
X95078Y83757D01*
Y83091D01*
X94744Y82757D01*
X94411D01*
X94078Y83091D01*
X93745Y82757D01*
X93411D01*
X93078Y83091D01*
Y83757D01*
X93411Y84090D01*
X93745D01*
X94078Y83757D01*
X94411Y84090D01*
X94744D01*
X94078Y83757D02*
Y83091D01*
X33953Y64752D02*
Y66751D01*
X34953D01*
X35286Y66418D01*
Y65752D01*
X34953Y65418D01*
X33953D01*
X34620D02*
X35286Y64752D01*
X37285D02*
X35952D01*
X37285Y66085D01*
Y66418D01*
X36952Y66751D01*
X36286D01*
X35952Y66418D01*
X37952D02*
X38285Y66751D01*
X38952D01*
X39285Y66418D01*
Y66085D01*
X38952Y65752D01*
X39285Y65418D01*
Y65085D01*
X38952Y64752D01*
X38285D01*
X37952Y65085D01*
Y65418D01*
X38285Y65752D01*
X37952Y66085D01*
Y66418D01*
X38285Y65752D02*
X38952D01*
X169713Y11619D02*
Y13618D01*
X170713D01*
X171046Y13285D01*
Y12619D01*
X170713Y12286D01*
X169713D01*
X170380D02*
X171046Y11619D01*
X171713D02*
X172379D01*
X172046D01*
Y13618D01*
X171713Y13285D01*
X173379Y13618D02*
X174712D01*
Y13285D01*
X173379Y11952D01*
Y11619D01*
X169467Y133701D02*
X169134Y133368D01*
Y132701D01*
X169467Y132368D01*
X170800D01*
X171133Y132701D01*
Y133368D01*
X170800Y133701D01*
X169134Y134367D02*
Y135700D01*
X169467D01*
X170800Y134367D01*
X171133D01*
X169467Y136367D02*
X169134Y136700D01*
Y137366D01*
X169467Y137700D01*
X170800D01*
X171133Y137366D01*
Y136700D01*
X170800Y136367D01*
X169467D01*
X162477Y44518D02*
X162144Y44185D01*
Y43518D01*
X162477Y43185D01*
X163810D01*
X164143Y43518D01*
Y44185D01*
X163810Y44518D01*
X162144Y46517D02*
X162477Y45851D01*
X163144Y45184D01*
X163810D01*
X164143Y45518D01*
Y46184D01*
X163810Y46517D01*
X163477D01*
X163144Y46184D01*
Y45184D01*
X163810Y47184D02*
X164143Y47517D01*
Y48183D01*
X163810Y48517D01*
X162477D01*
X162144Y48183D01*
Y47517D01*
X162477Y47184D01*
X162810D01*
X163144Y47517D01*
Y48517D01*
X172895Y57515D02*
X172562Y57848D01*
X171895D01*
X171562Y57515D01*
Y56182D01*
X171895Y55849D01*
X172562D01*
X172895Y56182D01*
X174894Y57848D02*
X174228Y57515D01*
X173562Y56849D01*
Y56182D01*
X173895Y55849D01*
X174561D01*
X174894Y56182D01*
Y56516D01*
X174561Y56849D01*
X173562D01*
X175561Y57848D02*
X176894D01*
Y57515D01*
X175561Y56182D01*
Y55849D01*
X159488Y118508D02*
X159155Y118841D01*
X158488D01*
X158155Y118508D01*
Y117175D01*
X158488Y116842D01*
X159155D01*
X159488Y117175D01*
X161487Y118841D02*
X160821Y118508D01*
X160154Y117842D01*
Y117175D01*
X160488Y116842D01*
X161154D01*
X161487Y117175D01*
Y117508D01*
X161154Y117842D01*
X160154D01*
X163487Y118841D02*
X162820Y118508D01*
X162154Y117842D01*
Y117175D01*
X162487Y116842D01*
X163154D01*
X163487Y117175D01*
Y117508D01*
X163154Y117842D01*
X162154D01*
X130434Y20019D02*
X130101Y20352D01*
X129434D01*
X129101Y20019D01*
Y18686D01*
X129434Y18353D01*
X130101D01*
X130434Y18686D01*
X131100Y20019D02*
X131434Y20352D01*
X132100D01*
X132433Y20019D01*
Y19686D01*
X132100Y19353D01*
X131767D01*
X132100D01*
X132433Y19019D01*
Y18686D01*
X132100Y18353D01*
X131434D01*
X131100Y18686D01*
X133100Y18353D02*
X133766D01*
X133433D01*
Y20352D01*
X133100Y20019D01*
X129463Y44084D02*
X129130Y44417D01*
X128463D01*
X128130Y44084D01*
Y42751D01*
X128463Y42418D01*
X129130D01*
X129463Y42751D01*
X130130Y44084D02*
X130463Y44417D01*
X131129D01*
X131462Y44084D01*
Y43751D01*
X131129Y43418D01*
X130796D01*
X131129D01*
X131462Y43084D01*
Y42751D01*
X131129Y42418D01*
X130463D01*
X130130Y42751D01*
X132129Y44084D02*
X132462Y44417D01*
X133128D01*
X133462Y44084D01*
Y42751D01*
X133128Y42418D01*
X132462D01*
X132129Y42751D01*
Y44084D01*
X181872Y51309D02*
X181539Y51642D01*
X180872D01*
X180539Y51309D01*
Y49976D01*
X180872Y49643D01*
X181539D01*
X181872Y49976D01*
X183871Y49643D02*
X182538D01*
X183871Y50976D01*
Y51309D01*
X183538Y51642D01*
X182872D01*
X182538Y51309D01*
X185871Y51642D02*
X184538D01*
Y50643D01*
X185204Y50976D01*
X185538D01*
X185871Y50643D01*
Y49976D01*
X185538Y49643D01*
X184871D01*
X184538Y49976D01*
X167317Y48000D02*
X166984Y48333D01*
X166317D01*
X165984Y48000D01*
Y46667D01*
X166317Y46334D01*
X166984D01*
X167317Y46667D01*
X169316Y46334D02*
X167983D01*
X169316Y47667D01*
Y48000D01*
X168983Y48333D01*
X168317D01*
X167983Y48000D01*
X170983Y46334D02*
Y48333D01*
X169983Y47334D01*
X171316D01*
X99769Y30240D02*
X99436Y29907D01*
Y29240D01*
X99769Y28907D01*
X101102D01*
X101435Y29240D01*
Y29907D01*
X101102Y30240D01*
X101435Y32239D02*
Y30906D01*
X100102Y32239D01*
X99769D01*
X99436Y31906D01*
Y31240D01*
X99769Y30906D01*
Y32906D02*
X99436Y33239D01*
Y33905D01*
X99769Y34239D01*
X101102D01*
X101435Y33905D01*
Y33239D01*
X101102Y32906D01*
X99769D01*
X92944Y5332D02*
X92611Y5665D01*
X91944D01*
X91611Y5332D01*
Y3999D01*
X91944Y3666D01*
X92611D01*
X92944Y3999D01*
X93611Y3666D02*
X94277D01*
X93944D01*
Y5665D01*
X93611Y5332D01*
X96610Y5665D02*
X95943Y5332D01*
X95277Y4666D01*
Y3999D01*
X95610Y3666D01*
X96276D01*
X96610Y3999D01*
Y4332D01*
X96276Y4666D01*
X95277D01*
X53168Y156115D02*
X52835Y156448D01*
X52168D01*
X51835Y156115D01*
Y154782D01*
X52168Y154449D01*
X52835D01*
X53168Y154782D01*
X55167Y156448D02*
X54501Y156115D01*
X53834Y155449D01*
Y154782D01*
X54168Y154449D01*
X54834D01*
X55167Y154782D01*
Y155115D01*
X54834Y155449D01*
X53834D01*
X74838Y159483D02*
X74505Y159150D01*
Y158483D01*
X74838Y158150D01*
X76171D01*
X76504Y158483D01*
Y159150D01*
X76171Y159483D01*
X74505Y161482D02*
Y160149D01*
X75504D01*
X75171Y160816D01*
Y161149D01*
X75504Y161482D01*
X76171D01*
X76504Y161149D01*
Y160483D01*
X76171Y160149D01*
X79525Y155166D02*
X79192Y154833D01*
Y154166D01*
X79525Y153833D01*
X80858D01*
X81191Y154166D01*
Y154833D01*
X80858Y155166D01*
X81191Y156832D02*
X79192D01*
X80191Y155832D01*
Y157165D01*
X84497Y141808D02*
X84164Y142141D01*
X83497D01*
X83164Y141808D01*
Y140475D01*
X83497Y140142D01*
X84164D01*
X84497Y140475D01*
X85163Y141808D02*
X85497Y142141D01*
X86163D01*
X86496Y141808D01*
Y141475D01*
X86163Y141142D01*
X85830D01*
X86163D01*
X86496Y140808D01*
Y140475D01*
X86163Y140142D01*
X85497D01*
X85163Y140475D01*
X22939Y93929D02*
X22273D01*
X22606D01*
Y92263D01*
X22273Y91930D01*
X21939D01*
X21606Y92263D01*
X23606Y91930D02*
X24272D01*
X23939D01*
Y93929D01*
X23606Y93596D01*
X177334Y125798D02*
X177001Y125465D01*
Y124798D01*
X177334Y124465D01*
X178667D01*
X179000Y124798D01*
Y125465D01*
X178667Y125798D01*
X179000Y126464D02*
Y127131D01*
Y126798D01*
X177001D01*
X177334Y126464D01*
Y128130D02*
X177001Y128464D01*
Y129130D01*
X177334Y129463D01*
X178667D01*
X179000Y129130D01*
Y128464D01*
X178667Y128130D01*
X177334D01*
Y130130D02*
X177001Y130463D01*
Y131130D01*
X177334Y131463D01*
X178667D01*
X179000Y131130D01*
Y130463D01*
X178667Y130130D01*
X177334D01*
X179000Y132129D02*
Y132796D01*
Y132462D01*
X177001D01*
X177334Y132129D01*
D16*
X-12Y-2D02*
Y214839D01*
Y-2D02*
X238718D01*
Y214839D01*
X-12D02*
X238718D01*
M02*
