G04*
G04 #@! TF.GenerationSoftware,Altium Limited,Altium NEXUS,3.1.12 (69)*
G04*
G04 Layer_Physical_Order=1*
G04 Layer_Color=255*
%FSLAX25Y25*%
%MOIN*%
G70*
G04*
G04 #@! TF.SameCoordinates,C12BC461-16F2-471F-B13C-3D38B02939EA*
G04*
G04*
G04 #@! TF.FilePolarity,Positive*
G04*
G01*
G75*
%ADD13C,0.00787*%
%ADD16C,0.00000*%
%ADD17R,0.01181X0.01102*%
%ADD18R,0.03150X0.03150*%
%ADD21C,0.01378*%
%ADD22R,0.02362X0.04134*%
%ADD23R,0.04331X0.02362*%
%ADD24R,0.03150X0.03150*%
%ADD25R,0.01024X0.02165*%
%ADD26R,0.06890X0.01181*%
%ADD27R,0.01181X0.06890*%
%ADD28R,0.05315X0.01575*%
%ADD29R,0.06299X0.08268*%
%ADD30R,0.07480X0.07480*%
%ADD31R,0.07087X0.07087*%
%ADD53R,0.01968X0.01968*%
%ADD54R,0.01968X0.01968*%
%ADD55C,0.00591*%
%ADD56C,0.01200*%
%ADD57C,0.00750*%
%ADD58C,0.00800*%
%ADD59C,0.02000*%
%ADD60C,0.00600*%
%ADD61C,0.01500*%
%ADD62C,0.01000*%
%ADD63C,0.01600*%
%ADD64C,0.05906*%
%ADD65R,0.05906X0.05906*%
%ADD66C,0.06496*%
%ADD67R,0.06496X0.06496*%
%ADD68R,0.06496X0.06496*%
%ADD69C,0.03543*%
%ADD70C,0.02362*%
%ADD71C,0.03150*%
G36*
X46622Y193214D02*
X47424Y192599D01*
X48358Y192212D01*
X49360Y192080D01*
X50362Y192212D01*
X50476Y192260D01*
X62103Y180633D01*
X62396Y180438D01*
X62741Y180369D01*
X70116D01*
Y179697D01*
X72984D01*
X73321Y179459D01*
X73339Y179380D01*
X73070Y178910D01*
X70116D01*
Y178345D01*
X69233D01*
X69076Y178580D01*
X68489Y178972D01*
X67798Y179109D01*
X67107Y178972D01*
X66521Y178580D01*
X66129Y177994D01*
X65992Y177303D01*
X66129Y176612D01*
X66521Y176026D01*
X67107Y175634D01*
X67798Y175497D01*
X68489Y175634D01*
X69076Y176026D01*
X69275Y176325D01*
X70116D01*
Y175760D01*
X72997Y175760D01*
X73371Y175455D01*
X73640Y175455D01*
X74855D01*
Y177439D01*
X75355D01*
Y177939D01*
X77339D01*
Y179423D01*
X77225D01*
X76930Y179801D01*
X76930Y179923D01*
Y181830D01*
X78158Y183058D01*
X88982D01*
X89173Y182596D01*
X87511Y180934D01*
X87334Y180669D01*
X81178Y174513D01*
X62688D01*
X45619Y191582D01*
Y193700D01*
X46119Y193870D01*
X46622Y193214D01*
D02*
G37*
G36*
X138187Y212861D02*
X138687Y212861D01*
X138687Y195876D01*
X138687Y194976D01*
X138687Y194439D01*
Y187348D01*
X61757D01*
X55476Y193629D01*
X55510Y193909D01*
X55933Y194000D01*
X56024Y193994D01*
X56622Y193214D01*
X57424Y192599D01*
X58358Y192212D01*
X59360Y192080D01*
X60362Y192212D01*
X61296Y192599D01*
X62098Y193214D01*
X62713Y194016D01*
X63100Y194950D01*
X63232Y195952D01*
X63100Y196954D01*
X62713Y197888D01*
X62652Y197967D01*
X64676Y199991D01*
X67773D01*
X67873Y199491D01*
X67424Y199305D01*
X66623Y198690D01*
X66007Y197888D01*
X65620Y196954D01*
X65488Y195952D01*
X65620Y194950D01*
X66007Y194016D01*
X66623Y193214D01*
X67424Y192599D01*
X68358Y192212D01*
X69360Y192080D01*
X70362Y192212D01*
X71296Y192599D01*
X72098Y193214D01*
X72713Y194016D01*
X73100Y194950D01*
X73232Y195952D01*
X73100Y196954D01*
X72713Y197888D01*
X72098Y198690D01*
X71296Y199305D01*
X70847Y199491D01*
X70947Y199991D01*
X102525D01*
Y199323D01*
X102525Y199319D01*
X102516Y198823D01*
X81385D01*
X81040Y198755D01*
X80747Y198559D01*
X80747Y198559D01*
X79501Y197313D01*
X77628D01*
Y197001D01*
X77601Y196976D01*
X77128Y196780D01*
X76855Y196962D01*
X76356Y197062D01*
X75857Y196962D01*
X75434Y196679D01*
X75151Y196256D01*
X75052Y195757D01*
X75151Y195258D01*
X75434Y194835D01*
X75857Y194552D01*
X76356Y194452D01*
X76855Y194552D01*
X77128Y194734D01*
X77601Y194538D01*
X77628Y194513D01*
Y194163D01*
X80778D01*
Y196033D01*
X81129Y196322D01*
X81565Y196136D01*
Y194163D01*
X84715D01*
Y194835D01*
X85483D01*
X85533Y194586D01*
X85816Y194163D01*
X86239Y193880D01*
X86738Y193780D01*
X87237Y193880D01*
X87661Y194163D01*
X87943Y194586D01*
X88043Y195085D01*
X87943Y195584D01*
X87661Y196008D01*
X87237Y196290D01*
X86824Y196373D01*
X86820Y196377D01*
X86610Y196517D01*
X86648Y196897D01*
X86693Y197017D01*
X126874D01*
X127474Y196417D01*
X127470Y196394D01*
X127569Y195895D01*
X127852Y195472D01*
X128275Y195189D01*
X128774Y195089D01*
X129273Y195189D01*
X129697Y195472D01*
X129979Y195895D01*
X130079Y196394D01*
X129979Y196893D01*
X129697Y197317D01*
X129273Y197599D01*
X128774Y197699D01*
X128751Y197694D01*
X127887Y198559D01*
X127594Y198755D01*
X127248Y198823D01*
X105685D01*
X105675Y199319D01*
X105675Y199323D01*
Y199991D01*
X126466D01*
X126812Y200060D01*
X127105Y200255D01*
X127738Y200889D01*
X127761Y200884D01*
X128260Y200984D01*
X128684Y201267D01*
X128966Y201690D01*
X129066Y202189D01*
X128966Y202688D01*
X128684Y203112D01*
X128260Y203394D01*
X127761Y203494D01*
X127262Y203394D01*
X126839Y203112D01*
X126556Y202688D01*
X126457Y202189D01*
X126461Y202166D01*
X126092Y201797D01*
X105675D01*
Y202469D01*
X102525D01*
Y201797D01*
X71712D01*
X71605Y202024D01*
X71575Y202297D01*
X72390Y202922D01*
X73071Y203810D01*
X73499Y204843D01*
X73579Y205452D01*
X65141D01*
X65222Y204843D01*
X65649Y203810D01*
X66330Y202922D01*
X67145Y202297D01*
X67115Y202024D01*
X67009Y201797D01*
X64302D01*
X63956Y201729D01*
X63664Y201533D01*
X61375Y199244D01*
X61296Y199305D01*
X60362Y199692D01*
X59360Y199824D01*
X58358Y199692D01*
X57424Y199305D01*
X56622Y198690D01*
X56007Y197888D01*
X55927Y197695D01*
X55427Y197795D01*
Y200788D01*
X55359Y201134D01*
X55163Y201427D01*
X52652Y203937D01*
X52713Y204016D01*
X53100Y204950D01*
X53232Y205952D01*
X53100Y206954D01*
X52713Y207888D01*
X52098Y208690D01*
X51296Y209305D01*
X50362Y209692D01*
X49360Y209824D01*
X48358Y209692D01*
X47424Y209305D01*
X46622Y208690D01*
X46007Y207888D01*
X45620Y206954D01*
X45489Y205952D01*
X45620Y204950D01*
X46007Y204016D01*
X46622Y203214D01*
X47424Y202599D01*
X48358Y202212D01*
X49360Y202080D01*
X50362Y202212D01*
X51296Y202599D01*
X51375Y202660D01*
X53621Y200414D01*
Y196827D01*
X53121Y196794D01*
X53100Y196954D01*
X52713Y197888D01*
X52098Y198690D01*
X51296Y199305D01*
X50362Y199692D01*
X49360Y199824D01*
X48358Y199692D01*
X47424Y199305D01*
X46622Y198690D01*
X46119Y198034D01*
X45619Y198204D01*
Y201334D01*
X45551Y201680D01*
X45355Y201973D01*
X42888Y204439D01*
X43100Y204950D01*
X43232Y205952D01*
X43100Y206954D01*
X42713Y207888D01*
X42098Y208690D01*
X41296Y209305D01*
X40362Y209692D01*
X39360Y209824D01*
X38358Y209692D01*
X37424Y209305D01*
X36623Y208690D01*
X36007Y207888D01*
X35620Y206954D01*
X35489Y205952D01*
X35620Y204950D01*
X36007Y204016D01*
X36623Y203214D01*
X37424Y202599D01*
X38358Y202212D01*
X39360Y202080D01*
X40362Y202212D01*
X41296Y202599D01*
X41793Y202980D01*
X43813Y200960D01*
Y191208D01*
X43882Y190862D01*
X44078Y190569D01*
X61676Y172971D01*
X61968Y172776D01*
X62314Y172707D01*
X81535D01*
X81559Y172702D01*
X81907Y172771D01*
X82201Y172968D01*
X88839Y179606D01*
X89036Y179901D01*
X89037Y179905D01*
X90724Y181593D01*
X105759D01*
Y180968D01*
X107743D01*
Y179968D01*
X105759D01*
Y178660D01*
X89540D01*
X89195Y178591D01*
X88902Y178396D01*
X80787Y170281D01*
X59479D01*
X40263Y189497D01*
Y192199D01*
X40362Y192212D01*
X41296Y192599D01*
X42098Y193214D01*
X42713Y194016D01*
X43100Y194950D01*
X43232Y195952D01*
X43100Y196954D01*
X42713Y197888D01*
X42098Y198690D01*
X41296Y199305D01*
X40362Y199692D01*
X39360Y199824D01*
X38358Y199692D01*
X37424Y199305D01*
X36623Y198690D01*
X36007Y197888D01*
X35620Y196954D01*
X35489Y195952D01*
X35620Y194950D01*
X36007Y194016D01*
X36623Y193214D01*
X37424Y192599D01*
X38358Y192212D01*
X38457Y192199D01*
Y189123D01*
X38526Y188777D01*
X38721Y188484D01*
X58467Y168739D01*
X58759Y168544D01*
X59105Y168475D01*
X59105Y168475D01*
X81161D01*
X81507Y168544D01*
X81800Y168739D01*
X89914Y176854D01*
X94365D01*
X94633Y176354D01*
X94621Y176336D01*
X94522Y175837D01*
X94621Y175338D01*
X94904Y174915D01*
X95327Y174632D01*
X95826Y174532D01*
X96325Y174632D01*
X96749Y174915D01*
X96762Y174934D01*
X97560D01*
Y174074D01*
X100710D01*
Y176854D01*
X102381D01*
Y174074D01*
X105531D01*
Y174746D01*
X109601D01*
X109947Y174815D01*
X110240Y175010D01*
X110886Y175657D01*
X131759D01*
Y175044D01*
X133743D01*
Y174544D01*
X134243D01*
Y172560D01*
X135727D01*
Y172560D01*
X136153Y172684D01*
X136224Y172592D01*
X136424Y172177D01*
X136350Y171803D01*
X136449Y171304D01*
X136732Y170881D01*
X136751Y170868D01*
Y169524D01*
X135763D01*
X135641Y169524D01*
X135263Y169818D01*
Y169933D01*
X133779D01*
Y167949D01*
X133279D01*
Y167449D01*
X131295D01*
Y165965D01*
X131890D01*
Y163085D01*
X131874D01*
Y159935D01*
X131985D01*
X132252Y159435D01*
X132232Y159405D01*
X132133Y158906D01*
X132232Y158407D01*
X132515Y157984D01*
X132938Y157701D01*
X133437Y157601D01*
X133936Y157701D01*
X134360Y157984D01*
X134643Y158407D01*
X134742Y158906D01*
X134643Y159405D01*
X134622Y159435D01*
X134890Y159935D01*
X135024D01*
Y162865D01*
X135040D01*
Y165796D01*
X135284Y165964D01*
X135752Y165938D01*
X135827Y165885D01*
Y163085D01*
X135811D01*
Y159935D01*
X138687D01*
Y157996D01*
X138547D01*
Y154846D01*
X138687D01*
Y151825D01*
X139389Y151826D01*
X139685Y151629D01*
X140184Y151530D01*
X140683Y151629D01*
X140984Y151830D01*
X141650Y151832D01*
X141858Y151332D01*
X141075Y150549D01*
X140879Y150256D01*
X140811Y149911D01*
Y148979D01*
X140139D01*
Y148307D01*
X107212D01*
X106945Y148807D01*
X106977Y148856D01*
X107077Y149355D01*
X106977Y149854D01*
X106695Y150277D01*
X106271Y150560D01*
X105772Y150660D01*
X105749Y150655D01*
X93578Y162827D01*
X93285Y163022D01*
X92939Y163091D01*
X84498D01*
X84199Y163591D01*
X84265Y163924D01*
X84165Y164423D01*
X83883Y164847D01*
X83459Y165129D01*
X82960Y165229D01*
X82461Y165129D01*
X82038Y164847D01*
X82025Y164827D01*
X60626D01*
X60614Y164840D01*
X60405Y165327D01*
X60581Y165592D01*
X60681Y166091D01*
X60581Y166590D01*
X60299Y167014D01*
X59875Y167296D01*
X59376Y167396D01*
X58877Y167296D01*
X58454Y167014D01*
X58441Y166994D01*
X38640D01*
X30263Y175371D01*
Y192199D01*
X30362Y192212D01*
X31296Y192599D01*
X32098Y193214D01*
X32713Y194016D01*
X33100Y194950D01*
X33232Y195952D01*
X33100Y196954D01*
X32713Y197888D01*
X32098Y198690D01*
X31296Y199305D01*
X30362Y199692D01*
X29360Y199824D01*
X28358Y199692D01*
X27424Y199305D01*
X26623Y198690D01*
X26007Y197888D01*
X25620Y196954D01*
X25488Y195952D01*
X25620Y194950D01*
X26007Y194016D01*
X26623Y193214D01*
X27424Y192599D01*
X28358Y192212D01*
X28457Y192199D01*
Y175422D01*
X27957Y175215D01*
X20263Y182908D01*
Y192199D01*
X20362Y192212D01*
X21296Y192599D01*
X22098Y193214D01*
X22713Y194016D01*
X23100Y194950D01*
X23232Y195952D01*
X23100Y196954D01*
X22713Y197888D01*
X22098Y198690D01*
X21296Y199305D01*
X20362Y199692D01*
X19360Y199824D01*
X18358Y199692D01*
X17424Y199305D01*
X16623Y198690D01*
X16007Y197888D01*
X15984Y197833D01*
X15484Y197932D01*
Y200731D01*
X15416Y201077D01*
X15220Y201370D01*
X12652Y203937D01*
X12713Y204016D01*
X13100Y204950D01*
X13232Y205952D01*
X13100Y206954D01*
X12713Y207888D01*
X12098Y208690D01*
X11296Y209305D01*
X10362Y209692D01*
X9360Y209824D01*
X8358Y209692D01*
X7424Y209305D01*
X6622Y208690D01*
X6007Y207888D01*
X5620Y206954D01*
X5488Y205952D01*
X5620Y204950D01*
X6007Y204016D01*
X6622Y203214D01*
X7424Y202599D01*
X8358Y202212D01*
X9360Y202080D01*
X10362Y202212D01*
X11296Y202599D01*
X11375Y202660D01*
X13678Y200357D01*
Y199841D01*
X13199Y199791D01*
Y199791D01*
X5522D01*
Y192113D01*
X9404D01*
Y183799D01*
X9473Y183453D01*
X9668Y183160D01*
X32682Y160147D01*
X32682Y160147D01*
X32975Y159951D01*
X33321Y159882D01*
X84766D01*
X97882Y146765D01*
X98176Y146570D01*
X98521Y146501D01*
X140139D01*
Y145829D01*
X143289D01*
Y148979D01*
X142617D01*
Y149537D01*
X143444Y150364D01*
X143467Y150359D01*
X143966Y150459D01*
X144390Y150742D01*
X144673Y151165D01*
X144764Y151628D01*
X144861Y151665D01*
X145264Y151667D01*
X145640Y151290D01*
Y148979D01*
X144076D01*
Y145829D01*
X147225D01*
Y147723D01*
X147378Y147951D01*
X147446Y148296D01*
Y151735D01*
X147477Y151756D01*
X147537Y151845D01*
X149297Y151849D01*
X149593Y151554D01*
X149635Y151350D01*
X149444Y151064D01*
X149345Y150565D01*
X149444Y150066D01*
X149727Y149643D01*
X150150Y149360D01*
X150649Y149260D01*
X151148Y149360D01*
X151572Y149643D01*
X151854Y150066D01*
X151954Y150565D01*
X151854Y151064D01*
X151660Y151355D01*
X151794Y151855D01*
X163246Y151881D01*
X163621Y151610D01*
X163720Y151111D01*
X164003Y150688D01*
X164426Y150405D01*
X164925Y150305D01*
X165424Y150405D01*
X165848Y150688D01*
X166130Y151111D01*
X166230Y151610D01*
X166458Y151889D01*
X174995Y151908D01*
X174968Y152962D01*
X175427Y153159D01*
X203397Y125190D01*
X203691Y124993D01*
X204039Y124924D01*
X220713D01*
X221061Y124993D01*
X221355Y125190D01*
X224317Y128152D01*
X230710D01*
Y135829D01*
X223033D01*
Y129436D01*
X220337Y126740D01*
X204415D01*
X174882Y156273D01*
X174720Y162505D01*
X175179Y162702D01*
X206533Y131348D01*
X206828Y131151D01*
X207175Y131082D01*
X213119D01*
X213131Y130988D01*
X213518Y130054D01*
X214134Y129252D01*
X214935Y128637D01*
X215869Y128250D01*
X216871Y128118D01*
X217873Y128250D01*
X218807Y128637D01*
X219609Y129252D01*
X220224Y130054D01*
X220611Y130988D01*
X220743Y131990D01*
X220611Y132992D01*
X220224Y133926D01*
X219609Y134728D01*
X218807Y135343D01*
X217873Y135730D01*
X216871Y135862D01*
X215869Y135730D01*
X214935Y135343D01*
X214134Y134728D01*
X213518Y133926D01*
X213131Y132992D01*
X213119Y132898D01*
X207551D01*
X175260Y165190D01*
X174965Y165386D01*
X174643Y165450D01*
X174618Y166431D01*
X174967Y166789D01*
X190788D01*
X213576Y144001D01*
X213518Y143926D01*
X213131Y142992D01*
X213000Y141990D01*
X213131Y140988D01*
X213518Y140054D01*
X214134Y139252D01*
X214935Y138637D01*
X215869Y138250D01*
X216871Y138118D01*
X217873Y138250D01*
X218807Y138637D01*
X219609Y139252D01*
X220224Y140054D01*
X220611Y140988D01*
X220743Y141990D01*
X220611Y142992D01*
X220224Y143926D01*
X219609Y144728D01*
X218807Y145343D01*
X217873Y145730D01*
X216871Y145862D01*
X215869Y145730D01*
X214935Y145343D01*
X214860Y145285D01*
X191806Y168339D01*
X191512Y168536D01*
X191164Y168605D01*
X174561D01*
X174536Y169580D01*
X174885Y169939D01*
X197638D01*
X213576Y154001D01*
X213518Y153926D01*
X213131Y152992D01*
X213000Y151990D01*
X213131Y150988D01*
X213518Y150054D01*
X214134Y149252D01*
X214935Y148637D01*
X215869Y148250D01*
X216871Y148118D01*
X217873Y148250D01*
X218807Y148637D01*
X219609Y149252D01*
X220224Y150054D01*
X220611Y150988D01*
X220743Y151990D01*
X220611Y152992D01*
X220224Y153926D01*
X219609Y154728D01*
X218807Y155343D01*
X217873Y155730D01*
X216871Y155862D01*
X215869Y155730D01*
X214935Y155343D01*
X214860Y155285D01*
X198657Y171489D01*
X198362Y171686D01*
X198015Y171755D01*
X174479D01*
X174454Y172730D01*
X174803Y173088D01*
X204489D01*
X213576Y164001D01*
X213518Y163926D01*
X213131Y162992D01*
X213000Y161990D01*
X213131Y160988D01*
X213518Y160054D01*
X214134Y159252D01*
X214935Y158637D01*
X215869Y158250D01*
X216871Y158118D01*
X217873Y158250D01*
X218807Y158637D01*
X219609Y159252D01*
X220224Y160054D01*
X220611Y160988D01*
X220743Y161990D01*
X220611Y162992D01*
X220224Y163926D01*
X219609Y164728D01*
X218807Y165343D01*
X217873Y165730D01*
X216871Y165862D01*
X215869Y165730D01*
X214935Y165343D01*
X214860Y165285D01*
X205507Y174638D01*
X205212Y174835D01*
X204865Y174904D01*
X174398D01*
X174372Y175880D01*
X174721Y176238D01*
X211339D01*
X213576Y174001D01*
X213518Y173926D01*
X213131Y172992D01*
X213000Y171990D01*
X213131Y170988D01*
X213518Y170054D01*
X214134Y169252D01*
X214935Y168637D01*
X215869Y168250D01*
X216871Y168118D01*
X217873Y168250D01*
X218807Y168637D01*
X219609Y169252D01*
X220224Y170054D01*
X220611Y170988D01*
X220743Y171990D01*
X220611Y172992D01*
X220224Y173926D01*
X219609Y174728D01*
X218807Y175343D01*
X217873Y175730D01*
X216871Y175862D01*
X215869Y175730D01*
X214935Y175343D01*
X214860Y175285D01*
X212357Y177788D01*
X212063Y177985D01*
X211715Y178054D01*
X174316D01*
X174245Y180771D01*
X174594Y181129D01*
X213113D01*
X213131Y180988D01*
X213518Y180054D01*
X214134Y179252D01*
X214935Y178637D01*
X215869Y178250D01*
X216871Y178118D01*
X217873Y178250D01*
X218807Y178637D01*
X219609Y179252D01*
X220224Y180054D01*
X220611Y180988D01*
X220743Y181990D01*
X220611Y182992D01*
X220224Y183926D01*
X219609Y184728D01*
X218807Y185343D01*
X217873Y185730D01*
X216871Y185862D01*
X215869Y185730D01*
X214935Y185343D01*
X214134Y184728D01*
X213518Y183926D01*
X213131Y182992D01*
X213125Y182945D01*
X174188D01*
X174094Y186585D01*
X174443Y186943D01*
X222733D01*
X223080Y187013D01*
X223375Y187209D01*
X224860Y188695D01*
X224935Y188637D01*
X225869Y188250D01*
X226871Y188118D01*
X227873Y188250D01*
X228807Y188637D01*
X229609Y189252D01*
X230224Y190054D01*
X230611Y190988D01*
X230743Y191990D01*
X230611Y192992D01*
X230224Y193926D01*
X229609Y194728D01*
X228807Y195343D01*
X227873Y195730D01*
X226871Y195862D01*
X225869Y195730D01*
X224935Y195343D01*
X224133Y194728D01*
X223518Y193926D01*
X223131Y192992D01*
X223000Y191990D01*
X223131Y190988D01*
X223518Y190054D01*
X223576Y189979D01*
X222357Y188760D01*
X219744D01*
X219639Y189070D01*
X219614Y189260D01*
X220224Y190054D01*
X220611Y190988D01*
X220743Y191990D01*
X220611Y192992D01*
X220224Y193926D01*
X219609Y194728D01*
X218807Y195343D01*
X217873Y195730D01*
X216871Y195862D01*
X215869Y195730D01*
X214935Y195343D01*
X214134Y194728D01*
X213518Y193926D01*
X213131Y192992D01*
X213000Y191990D01*
X213131Y190988D01*
X213518Y190054D01*
X214128Y189260D01*
X214104Y189070D01*
X213998Y188760D01*
X174037D01*
X173984Y190822D01*
X180106Y196943D01*
X222733D01*
X223080Y197013D01*
X223375Y197209D01*
X224860Y198695D01*
X224935Y198637D01*
X225869Y198250D01*
X226871Y198118D01*
X227873Y198250D01*
X228807Y198637D01*
X229609Y199252D01*
X230224Y200054D01*
X230611Y200988D01*
X230743Y201990D01*
X230611Y202992D01*
X230224Y203926D01*
X229609Y204728D01*
X228807Y205343D01*
X227873Y205730D01*
X226871Y205862D01*
X225869Y205730D01*
X224935Y205343D01*
X224133Y204728D01*
X223518Y203926D01*
X223131Y202992D01*
X223000Y201990D01*
X223131Y200988D01*
X223518Y200054D01*
X223576Y199979D01*
X222357Y198759D01*
X219744D01*
X219639Y199070D01*
X219614Y199259D01*
X220224Y200054D01*
X220611Y200988D01*
X220743Y201990D01*
X220611Y202992D01*
X220224Y203926D01*
X219609Y204728D01*
X218807Y205343D01*
X217873Y205730D01*
X216871Y205862D01*
X215869Y205730D01*
X214935Y205343D01*
X214134Y204728D01*
X213518Y203926D01*
X213131Y202992D01*
X213119Y202898D01*
X180719D01*
X180371Y202829D01*
X180077Y202632D01*
X172320Y194876D01*
X170164Y194876D01*
Y196060D01*
X167053D01*
Y196165D01*
X164142D01*
X163903Y196165D01*
Y196165D01*
X163674Y196088D01*
X163674Y196088D01*
X160524D01*
Y194876D01*
X160006D01*
Y198577D01*
X160524D01*
Y196875D01*
X163435D01*
X163674Y196875D01*
Y196875D01*
X163903Y196952D01*
X163903Y196952D01*
X167014D01*
Y196847D01*
X170164D01*
Y199997D01*
X167053D01*
Y200102D01*
X164142D01*
X163903Y200102D01*
Y200102D01*
X163711Y200037D01*
X163679Y200037D01*
X163211Y200260D01*
Y201405D01*
X163304Y201545D01*
X163404Y202044D01*
X163304Y202543D01*
X163022Y202966D01*
X162598Y203249D01*
X162099Y203349D01*
X161600Y203249D01*
X161177Y202966D01*
X160678Y203120D01*
Y205664D01*
X160678Y205664D01*
X160566Y206164D01*
X160829Y206558D01*
X160967Y207249D01*
X160829Y207940D01*
X160438Y208526D01*
X159851Y208918D01*
X159160Y209055D01*
X158469Y208918D01*
X157883Y208526D01*
X157491Y207940D01*
X157354Y207249D01*
X157491Y206558D01*
X157755Y206164D01*
X157528Y205664D01*
X157528D01*
Y202514D01*
X159989D01*
X160424Y202033D01*
X160397Y201762D01*
X160348Y201727D01*
X157528D01*
Y198577D01*
X158200D01*
Y195013D01*
X157700Y194932D01*
X150660Y201973D01*
Y203845D01*
X147510D01*
Y200752D01*
X147510Y200695D01*
X147510D01*
X147541Y200265D01*
X147541D01*
Y197427D01*
X147541Y197115D01*
X147541Y197115D01*
X147567Y196938D01*
X147567D01*
Y194876D01*
X146780D01*
Y196626D01*
X146780Y196938D01*
X146780Y196938D01*
X146754Y197115D01*
X146754D01*
Y200208D01*
X146754Y200265D01*
X146754D01*
X146723Y200695D01*
X146723D01*
Y203845D01*
X143573D01*
Y200752D01*
X143573Y200695D01*
X143573D01*
X143604Y200265D01*
X143604D01*
Y197427D01*
X143604Y197115D01*
X143604D01*
X143625Y196975D01*
X143612Y196845D01*
X143541Y196475D01*
X142285D01*
X142145Y196568D01*
X141646Y196668D01*
X141147Y196568D01*
X140724Y196285D01*
X140441Y195862D01*
X140342Y195363D01*
X140362Y195262D01*
X140044Y194876D01*
X139187Y194876D01*
X139159Y194876D01*
X138687Y194944D01*
Y195431D01*
Y212861D01*
X236657Y212861D01*
X236657Y69684D01*
X230931D01*
X230806Y70637D01*
X230419Y71571D01*
X229804Y72373D01*
X229002Y72988D01*
X228068Y73375D01*
X227066Y73507D01*
X226064Y73375D01*
X225132Y72989D01*
X222889Y75232D01*
X222563Y75449D01*
X222179Y75526D01*
X218482D01*
X218383Y76026D01*
X219002Y76282D01*
X219804Y76897D01*
X220419Y77699D01*
X220806Y78633D01*
X220938Y79635D01*
X220806Y80637D01*
X220419Y81571D01*
X219804Y82373D01*
X219695Y82456D01*
X219856Y82929D01*
X222353D01*
X223713Y81569D01*
X223326Y80637D01*
X223195Y79635D01*
X223326Y78633D01*
X223713Y77699D01*
X224328Y76897D01*
X225130Y76282D01*
X226064Y75895D01*
X227066Y75763D01*
X228068Y75895D01*
X229002Y76282D01*
X229804Y76897D01*
X230419Y77699D01*
X230806Y78633D01*
X230938Y79635D01*
X230806Y80637D01*
X230419Y81571D01*
X229804Y82373D01*
X229002Y82988D01*
X228068Y83375D01*
X227066Y83507D01*
X226064Y83375D01*
X225132Y82989D01*
X223478Y84643D01*
X223152Y84860D01*
X222768Y84937D01*
X199915D01*
X195665Y89187D01*
X195339Y89404D01*
X194955Y89481D01*
X190923D01*
X190716Y89981D01*
X192784Y92049D01*
X193107Y91985D01*
X193798Y92122D01*
X194384Y92514D01*
X194776Y93100D01*
X194913Y93791D01*
X194776Y94482D01*
X194384Y95069D01*
X193945Y95362D01*
X194097Y95862D01*
X204429D01*
X206617Y93674D01*
X206945Y93455D01*
X207331Y93378D01*
X214817D01*
X214987Y92878D01*
X214329Y92373D01*
X213713Y91571D01*
X213326Y90637D01*
X213194Y89635D01*
X213326Y88633D01*
X213713Y87699D01*
X214329Y86897D01*
X215130Y86282D01*
X216064Y85895D01*
X217066Y85763D01*
X218068Y85895D01*
X219002Y86282D01*
X219804Y86897D01*
X220419Y87699D01*
X220806Y88633D01*
X220938Y89635D01*
X220806Y90637D01*
X220419Y91571D01*
X219804Y92373D01*
X219145Y92878D01*
X219315Y93378D01*
X221895D01*
X223710Y91563D01*
X223326Y90637D01*
X223195Y89635D01*
X223326Y88633D01*
X223713Y87699D01*
X224328Y86897D01*
X225130Y86282D01*
X226064Y85895D01*
X227066Y85763D01*
X228068Y85895D01*
X229002Y86282D01*
X229804Y86897D01*
X230419Y87699D01*
X230806Y88633D01*
X230938Y89635D01*
X230806Y90637D01*
X230419Y91571D01*
X229804Y92373D01*
X229002Y92988D01*
X228068Y93375D01*
X227066Y93507D01*
X226064Y93375D01*
X225138Y92991D01*
X223027Y95102D01*
X222700Y95321D01*
X222313Y95398D01*
X218122D01*
X218068Y95895D01*
X219002Y96282D01*
X219804Y96897D01*
X220419Y97699D01*
X220806Y98633D01*
X220938Y99635D01*
X220806Y100637D01*
X220419Y101571D01*
X219804Y102373D01*
X219405Y102679D01*
X219575Y103179D01*
X222094D01*
X223710Y101563D01*
X223326Y100637D01*
X223195Y99635D01*
X223326Y98633D01*
X223713Y97699D01*
X224328Y96897D01*
X225130Y96282D01*
X226064Y95895D01*
X227066Y95763D01*
X228068Y95895D01*
X229002Y96282D01*
X229804Y96897D01*
X230419Y97699D01*
X230806Y98633D01*
X230938Y99635D01*
X230806Y100637D01*
X230419Y101571D01*
X229804Y102373D01*
X229002Y102988D01*
X228068Y103375D01*
X227066Y103507D01*
X226064Y103375D01*
X225138Y102991D01*
X223227Y104903D01*
X222899Y105122D01*
X222513Y105199D01*
X193107D01*
X192720Y105122D01*
X192688Y105100D01*
X192369Y105488D01*
X192792Y105911D01*
X193107Y105848D01*
X193798Y105986D01*
X194384Y106377D01*
X194776Y106963D01*
X194913Y107654D01*
X194776Y108346D01*
X194384Y108932D01*
X193798Y109323D01*
X193784Y109326D01*
X193594Y109871D01*
X193784Y110110D01*
X196400D01*
X196787Y110187D01*
X197115Y110406D01*
X200672Y113963D01*
X216702D01*
X216735Y113463D01*
X216064Y113375D01*
X215130Y112988D01*
X214329Y112373D01*
X213713Y111571D01*
X213326Y110637D01*
X213194Y109635D01*
X213326Y108633D01*
X213713Y107699D01*
X214329Y106897D01*
X215130Y106282D01*
X216064Y105895D01*
X217066Y105763D01*
X218068Y105895D01*
X219002Y106282D01*
X219804Y106897D01*
X220419Y107699D01*
X220806Y108633D01*
X220938Y109635D01*
X220806Y110637D01*
X220419Y111571D01*
X219804Y112373D01*
X219002Y112988D01*
X218068Y113375D01*
X217398Y113463D01*
X217431Y113963D01*
X221310D01*
X223710Y111563D01*
X223326Y110637D01*
X223195Y109635D01*
X223326Y108633D01*
X223713Y107699D01*
X224328Y106897D01*
X225130Y106282D01*
X226064Y105895D01*
X227066Y105763D01*
X228068Y105895D01*
X229002Y106282D01*
X229804Y106897D01*
X230419Y107699D01*
X230806Y108633D01*
X230938Y109635D01*
X230806Y110637D01*
X230419Y111571D01*
X229804Y112373D01*
X229002Y112988D01*
X228068Y113375D01*
X227066Y113507D01*
X226064Y113375D01*
X225138Y112991D01*
X222442Y115687D01*
X222115Y115906D01*
X221728Y115983D01*
X200253D01*
X199867Y115906D01*
X199539Y115687D01*
X195982Y112130D01*
X193107D01*
X192720Y112053D01*
X192660Y112013D01*
X192342Y112402D01*
X192784Y112844D01*
X193107Y112780D01*
X193798Y112917D01*
X194384Y113309D01*
X194776Y113895D01*
X194913Y114586D01*
X194776Y115277D01*
X194384Y115863D01*
X193798Y116255D01*
X193107Y116392D01*
X192416Y116255D01*
X191830Y115863D01*
X191438Y115277D01*
X191301Y114586D01*
X191365Y114263D01*
X184878Y107776D01*
X174867Y107776D01*
Y113477D01*
X174689D01*
Y114641D01*
X177057Y117009D01*
X177380Y116945D01*
X178071Y117082D01*
X178657Y117474D01*
X179049Y118060D01*
X179186Y118751D01*
X179049Y119442D01*
X178657Y120028D01*
X178071Y120420D01*
X177380Y120557D01*
X176689Y120420D01*
X176103Y120028D01*
X175711Y119442D01*
X175574Y118751D01*
X175638Y118428D01*
X173221Y116011D01*
X172721Y116218D01*
Y117462D01*
X172913Y117620D01*
X173604Y117757D01*
X174190Y118149D01*
X174582Y118735D01*
X174720Y119426D01*
X174582Y120117D01*
X174190Y120703D01*
X173604Y121095D01*
X173080Y121199D01*
X172887Y121650D01*
X172883Y121709D01*
X175001Y123827D01*
X175218Y124153D01*
X175295Y124537D01*
Y124842D01*
X175866D01*
Y127870D01*
X175866Y127992D01*
X176161Y128370D01*
X176275D01*
Y129854D01*
X174291D01*
Y130354D01*
X173791D01*
Y132338D01*
X172677D01*
X172307Y132338D01*
X171807Y132338D01*
X170693D01*
Y130354D01*
X170193D01*
Y129854D01*
X168209D01*
Y128370D01*
X168324D01*
X168618Y127992D01*
X168618Y127920D01*
X168496Y127420D01*
X165445D01*
X165061Y127344D01*
X164735Y127127D01*
X164499Y126890D01*
X164176Y126954D01*
X163485Y126817D01*
X163246Y126657D01*
X162746Y126925D01*
Y128184D01*
X159596D01*
Y128184D01*
X159147Y128259D01*
X159147Y128259D01*
X159127Y128259D01*
X156109D01*
X155997Y128259D01*
X155997Y128259D01*
X155631Y128205D01*
Y128205D01*
X152611D01*
X152481Y128205D01*
Y128205D01*
X152114Y128198D01*
Y128198D01*
X149238D01*
X148894Y128668D01*
X148982Y128932D01*
X149081Y128985D01*
X151984D01*
X152114Y128985D01*
Y128985D01*
X152481Y128992D01*
Y128992D01*
X155520D01*
X155631Y128992D01*
X155631Y128992D01*
X155997Y129046D01*
Y129046D01*
X159096D01*
X159127Y129046D01*
X159596Y128971D01*
X159616Y128971D01*
X162746D01*
Y132121D01*
X162175D01*
Y132863D01*
X162264Y132881D01*
X163045Y133403D01*
X163567Y134184D01*
X163751Y135106D01*
X163567Y136028D01*
X163045Y136809D01*
X162264Y137331D01*
X161342Y137514D01*
X160421Y137331D01*
X159639Y136809D01*
X159117Y136028D01*
X158934Y135106D01*
X159117Y134184D01*
X159639Y133403D01*
X160168Y133050D01*
Y132121D01*
X159647D01*
X159616Y132121D01*
X159147Y132196D01*
X159127Y132196D01*
X156109D01*
X155997Y132196D01*
X155997Y132196D01*
X155631Y132142D01*
Y132142D01*
X152611D01*
X152481Y132142D01*
Y132142D01*
X152114Y132135D01*
Y132135D01*
X151549D01*
Y135062D01*
X151816Y135241D01*
X152208Y135827D01*
X152346Y136518D01*
X152208Y137209D01*
X151816Y137795D01*
X151231Y138187D01*
X150539Y138324D01*
X149848Y138187D01*
X149262Y137795D01*
X149083Y137528D01*
X148064D01*
X147678Y137451D01*
X147350Y137232D01*
X146384Y136266D01*
X146165Y135938D01*
X146088Y135552D01*
Y132701D01*
X145523D01*
Y131483D01*
X145488Y131377D01*
X144921Y131248D01*
X144773Y131395D01*
Y133065D01*
X145047Y133248D01*
X145439Y133834D01*
X145576Y134525D01*
X145439Y135216D01*
X145047Y135802D01*
X144461Y136194D01*
X143770Y136332D01*
X143079Y136194D01*
X142493Y135802D01*
X142101Y135216D01*
X141964Y134525D01*
X142101Y133834D01*
X142493Y133248D01*
X142766Y133065D01*
Y131395D01*
X142664Y131292D01*
X142054Y131382D01*
X142017Y131454D01*
Y132701D01*
X141452D01*
Y133056D01*
X141376Y133442D01*
X141156Y133770D01*
X139727Y135200D01*
X139399Y135418D01*
X139013Y135495D01*
X138571D01*
X138392Y135763D01*
X137806Y136154D01*
X137115Y136292D01*
X136424Y136154D01*
X135837Y135763D01*
X135446Y135177D01*
X135308Y134485D01*
X135446Y133794D01*
X135837Y133208D01*
X136111Y133025D01*
Y131045D01*
X135480D01*
Y127895D01*
X138602Y127895D01*
X138831Y127502D01*
X138602Y127108D01*
X137223D01*
X137175Y127118D01*
X137126Y127108D01*
X135480D01*
Y123958D01*
X136636D01*
X146617Y113977D01*
X146410Y113477D01*
X145168D01*
Y114260D01*
X145091Y114647D01*
X144872Y114974D01*
X143517Y116329D01*
X143190Y116548D01*
X142803Y116625D01*
X139222D01*
Y117190D01*
X138657D01*
Y119114D01*
X138580Y119501D01*
X138423Y119736D01*
X138490Y120077D01*
X138353Y120768D01*
X137961Y121354D01*
X137375Y121746D01*
X136684Y121883D01*
X135993Y121746D01*
X135407Y121354D01*
X135015Y120768D01*
X134878Y120077D01*
X135015Y119386D01*
X135407Y118800D01*
X135993Y118408D01*
X136637Y118280D01*
Y117543D01*
X136284Y117190D01*
X136072D01*
X135694Y117484D01*
Y117599D01*
X134210D01*
Y115615D01*
Y113631D01*
X135694D01*
Y113745D01*
X136072Y114040D01*
X136194Y114040D01*
X139222D01*
Y114605D01*
X142385D01*
X143013Y113977D01*
X142977Y113477D01*
X142977D01*
Y107776D01*
X129181Y107776D01*
X128740Y107776D01*
X128681Y107837D01*
X128681Y101292D01*
X83709D01*
X83325Y101215D01*
X83000Y100998D01*
X44367Y62365D01*
X44149Y62039D01*
X44073Y61655D01*
Y44618D01*
X28782Y29327D01*
X21738D01*
X21354Y29250D01*
X21029Y29033D01*
X13926Y21930D01*
X12993Y22316D01*
X11991Y22448D01*
X10989Y22316D01*
X10055Y21929D01*
X9253Y21314D01*
X8638Y20512D01*
X8251Y19578D01*
X8119Y18576D01*
X8251Y17574D01*
X8638Y16640D01*
X9253Y15838D01*
X10055Y15223D01*
X10989Y14836D01*
X11991Y14704D01*
X12993Y14836D01*
X13927Y15223D01*
X14729Y15838D01*
X15344Y16640D01*
X15731Y17574D01*
X15863Y18576D01*
X15731Y19578D01*
X15345Y20510D01*
X22154Y27319D01*
X29197D01*
X29581Y27396D01*
X29907Y27613D01*
X45786Y43492D01*
X46003Y43818D01*
X46080Y44202D01*
Y61239D01*
X84125Y99285D01*
X116653D01*
X116860Y98785D01*
X110180Y92105D01*
X109857Y92169D01*
X109166Y92032D01*
X108580Y91640D01*
X108188Y91054D01*
X108051Y90363D01*
X108115Y90040D01*
X46235Y28160D01*
X46017Y27834D01*
X45941Y27450D01*
Y20378D01*
X45441Y20279D01*
X45344Y20512D01*
X44729Y21314D01*
X43927Y21929D01*
X42993Y22316D01*
X41991Y22448D01*
X40989Y22316D01*
X40055Y21929D01*
X39254Y21314D01*
X38638Y20512D01*
X38251Y19578D01*
X38120Y18576D01*
X38251Y17574D01*
X38638Y16640D01*
X39254Y15838D01*
X40055Y15223D01*
X40989Y14836D01*
X41991Y14704D01*
X42993Y14836D01*
X43927Y15223D01*
X44729Y15838D01*
X45344Y16640D01*
X45441Y16873D01*
X45941Y16774D01*
Y13945D01*
X43926Y11930D01*
X42993Y12316D01*
X41991Y12448D01*
X40989Y12316D01*
X40055Y11929D01*
X39254Y11314D01*
X38638Y10512D01*
X38251Y9578D01*
X38120Y8576D01*
X38251Y7574D01*
X38638Y6640D01*
X39254Y5838D01*
X40055Y5223D01*
X40989Y4836D01*
X41991Y4704D01*
X42993Y4836D01*
X43927Y5223D01*
X44729Y5838D01*
X45344Y6640D01*
X45731Y7574D01*
X45863Y8576D01*
X45731Y9578D01*
X45345Y10510D01*
X47654Y12819D01*
X47871Y13145D01*
X47948Y13529D01*
Y17001D01*
X48448Y17100D01*
X48638Y16640D01*
X49253Y15838D01*
X50055Y15223D01*
X50989Y14836D01*
X51991Y14704D01*
X52993Y14836D01*
X53927Y15223D01*
X54729Y15838D01*
X55344Y16640D01*
X55731Y17574D01*
X56210Y17479D01*
Y14214D01*
X53926Y11930D01*
X52993Y12316D01*
X51991Y12448D01*
X50989Y12316D01*
X50055Y11929D01*
X49253Y11314D01*
X48638Y10512D01*
X48251Y9578D01*
X48120Y8576D01*
X48251Y7574D01*
X48638Y6640D01*
X49253Y5838D01*
X50055Y5223D01*
X50989Y4836D01*
X51991Y4704D01*
X52993Y4836D01*
X53927Y5223D01*
X54729Y5838D01*
X55344Y6640D01*
X55731Y7574D01*
X55863Y8576D01*
X55731Y9578D01*
X55345Y10510D01*
X57923Y13088D01*
X58140Y13414D01*
X58217Y13798D01*
Y16408D01*
X58277Y16442D01*
X58717Y16538D01*
X59254Y15838D01*
X60055Y15223D01*
X60989Y14836D01*
X61991Y14704D01*
X62993Y14836D01*
X63927Y15223D01*
X64729Y15838D01*
X64846Y15991D01*
X65346Y15821D01*
Y13350D01*
X63926Y11930D01*
X62993Y12316D01*
X61991Y12448D01*
X60989Y12316D01*
X60055Y11929D01*
X59254Y11314D01*
X58638Y10512D01*
X58251Y9578D01*
X58119Y8576D01*
X58251Y7574D01*
X58638Y6640D01*
X59254Y5838D01*
X60055Y5223D01*
X60989Y4836D01*
X61991Y4704D01*
X62993Y4836D01*
X63927Y5223D01*
X64729Y5838D01*
X65344Y6640D01*
X65731Y7574D01*
X65863Y8576D01*
X65731Y9578D01*
X65345Y10510D01*
X67059Y12224D01*
X67276Y12550D01*
X67353Y12934D01*
Y32484D01*
X101802Y66934D01*
X109205D01*
X109590Y67010D01*
X109915Y67228D01*
X114901Y72213D01*
X115401Y72006D01*
Y70416D01*
X110180Y65196D01*
X109857Y65260D01*
X109166Y65122D01*
X108580Y64731D01*
X108188Y64145D01*
X108051Y63454D01*
X108188Y62762D01*
X108580Y62176D01*
X109166Y61785D01*
X109857Y61647D01*
X110548Y61785D01*
X110708Y61891D01*
X111027Y61503D01*
X110180Y60656D01*
X109857Y60721D01*
X109166Y60583D01*
X108580Y60192D01*
X108188Y59606D01*
X108051Y58914D01*
X108188Y58223D01*
X108580Y57637D01*
X109166Y57245D01*
X109857Y57108D01*
X110131Y57162D01*
X110377Y56702D01*
X109054Y55379D01*
X92011D01*
X91627Y55302D01*
X91302Y55085D01*
X71282Y35065D01*
X71064Y34739D01*
X70988Y34355D01*
Y22415D01*
X68153D01*
Y14738D01*
X75830D01*
Y22415D01*
X72995D01*
Y33939D01*
X92427Y53372D01*
X109470D01*
X109854Y53448D01*
X110179Y53665D01*
X128219Y71705D01*
X128681Y71513D01*
Y69794D01*
X128677D01*
Y66766D01*
X128677Y66644D01*
X128383Y66266D01*
X128268D01*
Y64782D01*
X130252D01*
X132236D01*
Y66134D01*
X132659Y66453D01*
X132972Y66244D01*
X133663Y66107D01*
X134354Y66244D01*
X134941Y66636D01*
X135332Y67222D01*
X135469Y67913D01*
X135332Y68604D01*
X134941Y69190D01*
X135101Y69684D01*
X142568D01*
Y66044D01*
X144158D01*
Y65044D01*
X142568D01*
Y61099D01*
X142137Y60932D01*
X141484D01*
X141305Y61199D01*
X140719Y61591D01*
X140028Y61728D01*
X139337Y61591D01*
X138751Y61199D01*
X138359Y60613D01*
X138222Y59922D01*
X138359Y59231D01*
X138598Y58874D01*
X138497Y58354D01*
X138036Y58389D01*
Y58389D01*
X136552D01*
Y56405D01*
Y54421D01*
X137461D01*
X137687Y54014D01*
X137687Y53900D01*
X137309Y53605D01*
X137187Y53605D01*
X134159D01*
Y50455D01*
X134387D01*
Y48684D01*
X134136Y48308D01*
X133999Y47617D01*
X134136Y46926D01*
X134387Y46550D01*
Y44983D01*
X134230D01*
Y43292D01*
X134220Y43241D01*
Y40714D01*
X134328Y40172D01*
X134636Y39711D01*
X134891Y39456D01*
Y36843D01*
X134537D01*
Y31528D01*
X138081D01*
Y36843D01*
X137727D01*
Y40043D01*
X137619Y40586D01*
X137311Y41046D01*
X137405Y41526D01*
X137758Y41424D01*
Y41424D01*
X139242D01*
Y43408D01*
Y45392D01*
X137758D01*
Y45392D01*
X137287Y45463D01*
X137223Y45494D01*
Y46550D01*
X137474Y46926D01*
X137612Y47617D01*
X137474Y48308D01*
X137223Y48684D01*
Y49959D01*
X137687Y50046D01*
X137723Y50046D01*
X139171D01*
Y52030D01*
Y54014D01*
X138262D01*
X138036Y54421D01*
X138036Y54536D01*
X138414Y54830D01*
X138536Y54830D01*
X141564D01*
Y57980D01*
X141504D01*
Y58912D01*
X144890D01*
X145277Y58989D01*
X145604Y59208D01*
X146841Y60444D01*
X147060Y60772D01*
X147125Y61099D01*
X147595D01*
Y65544D01*
X148595D01*
Y61099D01*
X149686D01*
Y61509D01*
X150167D01*
X150359Y61047D01*
X148742Y59430D01*
X148523Y59103D01*
X148489Y58932D01*
X147881D01*
Y57787D01*
X147759Y57665D01*
X147451Y57205D01*
X147344Y56662D01*
Y55009D01*
X147092Y54633D01*
X146955Y53942D01*
X147092Y53251D01*
X147484Y52665D01*
X147910Y52380D01*
Y50932D01*
X147846Y50901D01*
X147376Y50830D01*
Y50830D01*
X145891D01*
Y48846D01*
Y46862D01*
X147376D01*
Y46977D01*
X147753Y47271D01*
X147875Y47271D01*
X150903D01*
Y50421D01*
X150746D01*
Y53375D01*
X150638Y53918D01*
X150545Y54058D01*
X150430Y54633D01*
X150179Y55009D01*
Y55782D01*
X151031D01*
Y58863D01*
X152497Y60329D01*
X152997Y60122D01*
Y58932D01*
X151818D01*
Y55782D01*
X152997D01*
Y54097D01*
X153073Y53713D01*
X153291Y53387D01*
X153898Y52780D01*
X153834Y52457D01*
X153971Y51766D01*
X154363Y51180D01*
X154949Y50788D01*
X155640Y50651D01*
X156331Y50788D01*
X156918Y51180D01*
X157309Y51766D01*
X157325Y51846D01*
X157803Y51991D01*
X158171Y51623D01*
Y49847D01*
X157614D01*
Y49847D01*
X157278Y49861D01*
Y49861D01*
X157119Y49861D01*
X154128D01*
Y46711D01*
X157278D01*
Y46711D01*
X157614Y46697D01*
Y46697D01*
X157772Y46697D01*
X160763D01*
Y49847D01*
X160178D01*
Y52039D01*
X160154Y52157D01*
X160456Y52656D01*
X160518Y52696D01*
X160747Y52724D01*
X162937Y50534D01*
Y48803D01*
X166087D01*
Y51953D01*
X164359D01*
X164070Y52303D01*
X164256Y52740D01*
X166087D01*
Y53872D01*
X166587Y54140D01*
X166639Y54105D01*
X167025Y54028D01*
X167679D01*
Y52872D01*
X170829D01*
Y56022D01*
X168795D01*
X168663Y56048D01*
X167444D01*
X166599Y56893D01*
X166624Y57042D01*
X166818Y57380D01*
X167679D01*
Y56809D01*
X170829D01*
Y57380D01*
X172935D01*
X173311Y57129D01*
X174002Y56992D01*
X174693Y57129D01*
X175279Y57521D01*
X175671Y58107D01*
X175809Y58798D01*
X175671Y59489D01*
X175279Y60075D01*
X174693Y60467D01*
X174002Y60604D01*
X173311Y60467D01*
X172725Y60075D01*
X172333Y59489D01*
X172313Y59387D01*
X170829D01*
Y59959D01*
X167679D01*
Y59387D01*
X167098D01*
X165439Y61047D01*
X165630Y61509D01*
X174867D01*
Y68740D01*
X175316Y69124D01*
X175366Y69114D01*
X176057Y69251D01*
X176644Y69643D01*
X176671Y69684D01*
X185133D01*
Y66991D01*
X185209Y66607D01*
X185427Y66281D01*
X208128Y43579D01*
X208454Y43362D01*
X208838Y43286D01*
X214697D01*
X214866Y42786D01*
X214329Y42373D01*
X213713Y41571D01*
X213326Y40637D01*
X213194Y39635D01*
X213326Y38633D01*
X213713Y37699D01*
X214329Y36897D01*
X215130Y36282D01*
X216064Y35895D01*
X217066Y35763D01*
X218068Y35895D01*
X219002Y36282D01*
X219804Y36897D01*
X220419Y37699D01*
X220806Y38633D01*
X220938Y39635D01*
X220806Y40637D01*
X220419Y41571D01*
X219804Y42373D01*
X219266Y42786D01*
X219436Y43286D01*
X221996D01*
X223228Y42054D01*
Y35796D01*
X230905D01*
Y43474D01*
X224647D01*
X223122Y44999D01*
X222796Y45216D01*
X222412Y45293D01*
X217321D01*
X217288Y45793D01*
X218068Y45895D01*
X219002Y46282D01*
X219804Y46897D01*
X220419Y47699D01*
X220806Y48633D01*
X220938Y49635D01*
X220806Y50637D01*
X220419Y51571D01*
X219804Y52373D01*
X219128Y52891D01*
X219281Y53391D01*
X221890D01*
X223713Y51569D01*
X223326Y50637D01*
X223195Y49635D01*
X223326Y48633D01*
X223713Y47699D01*
X224328Y46897D01*
X225130Y46282D01*
X226064Y45895D01*
X227066Y45763D01*
X228068Y45895D01*
X229002Y46282D01*
X229804Y46897D01*
X230419Y47699D01*
X230806Y48633D01*
X230938Y49635D01*
X230806Y50637D01*
X230419Y51571D01*
X229804Y52373D01*
X229002Y52988D01*
X228068Y53375D01*
X227066Y53507D01*
X226064Y53375D01*
X225132Y52989D01*
X223016Y55105D01*
X222690Y55322D01*
X222306Y55399D01*
X218126D01*
X218068Y55895D01*
X219002Y56282D01*
X219804Y56897D01*
X220419Y57699D01*
X220806Y58633D01*
X220938Y59635D01*
X220806Y60637D01*
X220419Y61571D01*
X219804Y62373D01*
X219002Y62988D01*
X218767Y63086D01*
X218866Y63586D01*
X221696D01*
X223713Y61569D01*
X223326Y60637D01*
X223195Y59635D01*
X223326Y58633D01*
X223713Y57699D01*
X224328Y56897D01*
X225130Y56282D01*
X226064Y55895D01*
X227066Y55763D01*
X228068Y55895D01*
X229002Y56282D01*
X229804Y56897D01*
X230419Y57699D01*
X230806Y58633D01*
X230938Y59635D01*
X230806Y60637D01*
X230419Y61571D01*
X229804Y62373D01*
X229002Y62988D01*
X228068Y63375D01*
X227066Y63507D01*
X226064Y63375D01*
X225132Y62989D01*
X222822Y65299D01*
X222496Y65516D01*
X222382Y65539D01*
X222431Y66039D01*
X225717D01*
X226064Y65895D01*
X227066Y65763D01*
X228068Y65895D01*
X228415Y66039D01*
X236657Y66039D01*
Y2007D01*
X2007Y2007D01*
X2007Y212861D01*
X138187Y212861D01*
D02*
G37*
G36*
X176229Y104774D02*
X176247Y104766D01*
Y73018D01*
X175747Y72651D01*
X175366Y72726D01*
X174731Y72600D01*
X174553Y72613D01*
X174188Y72764D01*
X174145Y72981D01*
X173753Y73567D01*
X173167Y73959D01*
X172476Y74096D01*
X171785Y73959D01*
X171252Y73603D01*
X171012Y73664D01*
X170752Y73799D01*
Y74796D01*
X170723Y74940D01*
X170837Y75513D01*
X170700Y76204D01*
X170308Y76790D01*
X169722Y77182D01*
X169031Y77319D01*
X168340Y77182D01*
X167754Y76790D01*
X167362Y76204D01*
X167225Y75513D01*
X167362Y74822D01*
X167641Y74404D01*
X167281Y74044D01*
X167204Y74095D01*
X166513Y74232D01*
X165822Y74095D01*
X165236Y73703D01*
X164844Y73117D01*
X164812Y72955D01*
X164270Y72791D01*
X163320Y73741D01*
Y76711D01*
X163593Y76894D01*
X163985Y77480D01*
X164122Y78171D01*
X163985Y78862D01*
X163593Y79448D01*
X163007Y79840D01*
X162316Y79977D01*
X161625Y79840D01*
X161039Y79448D01*
X160647Y78862D01*
X160510Y78171D01*
X160647Y77480D01*
X161039Y76894D01*
X161313Y76711D01*
Y73325D01*
X161389Y72941D01*
X161607Y72615D01*
X162940Y71282D01*
X162749Y70820D01*
X160916D01*
Y72236D01*
X160839Y72623D01*
X160620Y72950D01*
X160184Y73387D01*
X160247Y73702D01*
X160109Y74393D01*
X159718Y74979D01*
X159131Y75371D01*
X158440Y75508D01*
X157749Y75371D01*
X157163Y74979D01*
X156771Y74393D01*
X156634Y73702D01*
X156771Y73011D01*
X157163Y72425D01*
X157749Y72033D01*
X158440Y71896D01*
X158896Y71497D01*
Y70820D01*
X151067D01*
Y74089D01*
X150991Y74473D01*
X150773Y74798D01*
X145907Y79664D01*
X145962Y79939D01*
X146100Y80422D01*
X146791Y80559D01*
X147378Y80951D01*
X147769Y81537D01*
X147906Y82228D01*
X147769Y82919D01*
X147378Y83505D01*
X146791Y83897D01*
X146100Y84034D01*
X145777Y83970D01*
X144498Y85250D01*
X144172Y85467D01*
X143788Y85544D01*
X141930D01*
Y104774D01*
X145123D01*
Y103551D01*
X144849Y103368D01*
X144458Y102782D01*
X144320Y102090D01*
X144458Y101399D01*
X144849Y100813D01*
X145435Y100422D01*
X146126Y100284D01*
X146818Y100422D01*
X147404Y100813D01*
X147795Y101399D01*
X147933Y102090D01*
X147795Y102782D01*
X147404Y103368D01*
X147130Y103551D01*
Y104774D01*
X156518D01*
X156665Y104363D01*
X156682Y104274D01*
X156300Y103702D01*
X156163Y103011D01*
X156300Y102320D01*
X156692Y101734D01*
X157278Y101342D01*
X157969Y101205D01*
X158660Y101342D01*
X159247Y101734D01*
X159638Y102320D01*
X159642Y102340D01*
X160152D01*
X160174Y102227D01*
X160566Y101641D01*
X161152Y101249D01*
X161843Y101112D01*
X162534Y101249D01*
X163120Y101641D01*
X163512Y102227D01*
X163518Y102255D01*
X164027D01*
X164121Y101783D01*
X164513Y101197D01*
X165099Y100805D01*
X165790Y100668D01*
X166481Y100805D01*
X167068Y101197D01*
X167459Y101783D01*
X167596Y102474D01*
X167534Y102789D01*
X168494Y103750D01*
X168713Y104077D01*
X168790Y104464D01*
Y104774D01*
X176229D01*
D02*
G37*
G36*
X142496Y79296D02*
X142888Y78710D01*
X143474Y78318D01*
X144165Y78181D01*
X144488Y78245D01*
X149060Y73673D01*
Y71670D01*
X148560Y71463D01*
X145218Y74804D01*
X144891Y75023D01*
X144504Y75100D01*
X144118Y75023D01*
X143790Y74804D01*
X143571Y74476D01*
X143494Y74090D01*
X143571Y73703D01*
X143790Y73376D01*
X145884Y71282D01*
X145693Y70820D01*
X141930D01*
X141930Y70821D01*
Y79580D01*
X142430Y79629D01*
X142496Y79296D01*
D02*
G37*
%LPC*%
G36*
X77339Y176939D02*
X75855D01*
Y175455D01*
X77339D01*
Y176939D01*
D02*
G37*
G36*
X105689Y212036D02*
X64541D01*
X64196Y211967D01*
X63902Y211772D01*
X61375Y209244D01*
X61296Y209305D01*
X60362Y209692D01*
X59360Y209824D01*
X58358Y209692D01*
X57424Y209305D01*
X56622Y208690D01*
X56007Y207888D01*
X55620Y206954D01*
X55489Y205952D01*
X55620Y204950D01*
X56007Y204016D01*
X56622Y203214D01*
X57424Y202599D01*
X58358Y202212D01*
X59360Y202080D01*
X60362Y202212D01*
X61296Y202599D01*
X62098Y203214D01*
X62713Y204016D01*
X63100Y204950D01*
X63232Y205952D01*
X63100Y206954D01*
X62713Y207888D01*
X62652Y207967D01*
X64915Y210230D01*
X67281D01*
X67380Y209730D01*
X67218Y209663D01*
X66330Y208982D01*
X65649Y208094D01*
X65222Y207061D01*
X65141Y206452D01*
X73579D01*
X73499Y207061D01*
X73071Y208094D01*
X72390Y208982D01*
X71503Y209663D01*
X71340Y209730D01*
X71440Y210230D01*
X105315D01*
X106554Y208991D01*
Y207118D01*
X109704D01*
Y207790D01*
X124294D01*
X126414Y205670D01*
X126410Y205647D01*
X126509Y205148D01*
X126792Y204725D01*
X127215Y204442D01*
X127714Y204343D01*
X128213Y204442D01*
X128637Y204725D01*
X128919Y205148D01*
X129019Y205647D01*
X128919Y206146D01*
X128637Y206570D01*
X128213Y206852D01*
X127714Y206952D01*
X127691Y206947D01*
X125307Y209332D01*
X125014Y209527D01*
X124668Y209596D01*
X109704D01*
Y210268D01*
X107832D01*
X106328Y211772D01*
X106035Y211967D01*
X105689Y212036D01*
D02*
G37*
G36*
X86996Y208536D02*
X86497Y208436D01*
X86074Y208154D01*
X85791Y207730D01*
X85692Y207231D01*
X85791Y206732D01*
X86074Y206309D01*
X86497Y206026D01*
X86996Y205926D01*
X87019Y205931D01*
X88832Y204117D01*
X89126Y203922D01*
X89471Y203853D01*
X102525D01*
Y203256D01*
X105675D01*
Y203853D01*
X106554D01*
Y203181D01*
X109704D01*
Y206331D01*
X106554D01*
Y205659D01*
X105675D01*
Y206406D01*
X102525D01*
Y205659D01*
X89845D01*
X88296Y207208D01*
X88301Y207231D01*
X88201Y207730D01*
X87919Y208154D01*
X87495Y208436D01*
X86996Y208536D01*
D02*
G37*
G36*
X29360Y209824D02*
X28358Y209692D01*
X27424Y209305D01*
X26623Y208690D01*
X26007Y207888D01*
X25620Y206954D01*
X25488Y205952D01*
X25620Y204950D01*
X26007Y204016D01*
X26623Y203214D01*
X27424Y202599D01*
X28358Y202212D01*
X29360Y202080D01*
X30362Y202212D01*
X31296Y202599D01*
X32098Y203214D01*
X32713Y204016D01*
X33100Y204950D01*
X33232Y205952D01*
X33100Y206954D01*
X32713Y207888D01*
X32098Y208690D01*
X31296Y209305D01*
X30362Y209692D01*
X29360Y209824D01*
D02*
G37*
G36*
X19360D02*
X18358Y209692D01*
X17424Y209305D01*
X16623Y208690D01*
X16007Y207888D01*
X15620Y206954D01*
X15488Y205952D01*
X15620Y204950D01*
X16007Y204016D01*
X16623Y203214D01*
X17424Y202599D01*
X18358Y202212D01*
X19360Y202080D01*
X20362Y202212D01*
X21296Y202599D01*
X22098Y203214D01*
X22713Y204016D01*
X23100Y204950D01*
X23232Y205952D01*
X23100Y206954D01*
X22713Y207888D01*
X22098Y208690D01*
X21296Y209305D01*
X20362Y209692D01*
X19360Y209824D01*
D02*
G37*
G36*
X87270Y190473D02*
X86771Y190373D01*
X86348Y190091D01*
X86065Y189667D01*
X85966Y189168D01*
X86065Y188669D01*
X86348Y188246D01*
X86771Y187963D01*
X87270Y187863D01*
X87769Y187963D01*
X88193Y188246D01*
X88476Y188669D01*
X88575Y189168D01*
X88476Y189667D01*
X88193Y190091D01*
X87769Y190373D01*
X87270Y190473D01*
D02*
G37*
G36*
X226871Y185862D02*
X225869Y185730D01*
X224935Y185343D01*
X224133Y184728D01*
X223518Y183926D01*
X223131Y182992D01*
X223000Y181990D01*
X223131Y180988D01*
X223518Y180054D01*
X224133Y179252D01*
X224935Y178637D01*
X225869Y178250D01*
X226871Y178118D01*
X227873Y178250D01*
X228807Y178637D01*
X229609Y179252D01*
X230224Y180054D01*
X230611Y180988D01*
X230743Y181990D01*
X230611Y182992D01*
X230224Y183926D01*
X229609Y184728D01*
X228807Y185343D01*
X227873Y185730D01*
X226871Y185862D01*
D02*
G37*
G36*
X133243Y174044D02*
X131759D01*
Y172560D01*
X133243D01*
Y174044D01*
D02*
G37*
G36*
X105531Y173287D02*
X102381D01*
Y170137D01*
X105531D01*
Y173287D01*
D02*
G37*
G36*
X100710D02*
X97560D01*
Y170137D01*
X97650D01*
X97682Y169651D01*
X97682Y169637D01*
Y169095D01*
X97182Y168827D01*
X97117Y168871D01*
X96771Y168940D01*
X96259D01*
X96246Y168959D01*
X95822Y169242D01*
X95323Y169342D01*
X94824Y169242D01*
X94401Y168959D01*
X94118Y168536D01*
X94019Y168037D01*
X94118Y167538D01*
X94401Y167115D01*
X94824Y166832D01*
X95323Y166732D01*
X95822Y166832D01*
X96246Y167115D01*
X96674Y166856D01*
X96850Y166680D01*
X96850Y166680D01*
X97143Y166485D01*
X97489Y166416D01*
X97489Y166416D01*
X98500D01*
X98846Y166485D01*
X98871Y166501D01*
X100751D01*
X100832Y166501D01*
X101251Y166307D01*
Y166257D01*
X104401D01*
Y166929D01*
X108786D01*
X109052Y166982D01*
X109209Y166951D01*
X109708Y167050D01*
X110132Y167333D01*
X110415Y167756D01*
X110514Y168255D01*
X110415Y168754D01*
X110132Y169177D01*
X109708Y169460D01*
X109209Y169560D01*
X108710Y169460D01*
X108287Y169177D01*
X108004Y168754D01*
X108000Y168735D01*
X104401D01*
Y169407D01*
X101332D01*
X101251Y169407D01*
X100832Y169601D01*
Y169651D01*
X100743D01*
X100710Y170137D01*
X100710Y170151D01*
Y173287D01*
D02*
G37*
G36*
X132779Y169933D02*
X131295D01*
Y168449D01*
X132779D01*
Y169933D01*
D02*
G37*
G36*
X226871Y175862D02*
X225869Y175730D01*
X224935Y175343D01*
X224133Y174728D01*
X223518Y173926D01*
X223131Y172992D01*
X223000Y171990D01*
X223131Y170988D01*
X223518Y170054D01*
X224133Y169252D01*
X224935Y168637D01*
X225869Y168250D01*
X226871Y168118D01*
X227873Y168250D01*
X228807Y168637D01*
X229609Y169252D01*
X230224Y170054D01*
X230611Y170988D01*
X230743Y171990D01*
X230611Y172992D01*
X230224Y173926D01*
X229609Y174728D01*
X228807Y175343D01*
X227873Y175730D01*
X226871Y175862D01*
D02*
G37*
G36*
X100832Y165714D02*
X97682D01*
Y162564D01*
X100751D01*
X100832Y162564D01*
X101251Y162370D01*
Y162320D01*
X104401D01*
Y165470D01*
X101332D01*
X101251Y165470D01*
X100832Y165664D01*
Y165714D01*
D02*
G37*
G36*
X226871Y165862D02*
X225869Y165730D01*
X224935Y165343D01*
X224133Y164728D01*
X223518Y163926D01*
X223131Y162992D01*
X223000Y161990D01*
X223131Y160988D01*
X223518Y160054D01*
X224133Y159252D01*
X224935Y158637D01*
X225869Y158250D01*
X226871Y158118D01*
X227873Y158250D01*
X228807Y158637D01*
X229609Y159252D01*
X230224Y160054D01*
X230611Y160988D01*
X230743Y161990D01*
X230611Y162992D01*
X230224Y163926D01*
X229609Y164728D01*
X228807Y165343D01*
X227873Y165730D01*
X226871Y165862D01*
D02*
G37*
G36*
X31546Y159821D02*
X29471D01*
Y157746D01*
X31546D01*
Y159821D01*
D02*
G37*
G36*
X28471D02*
X26396D01*
Y157746D01*
X28471D01*
Y159821D01*
D02*
G37*
G36*
X17643Y159446D02*
X13313D01*
Y155116D01*
X17643D01*
Y155659D01*
X20900D01*
Y155081D01*
X25231D01*
Y159411D01*
X20900D01*
Y158903D01*
X17643D01*
Y159446D01*
D02*
G37*
G36*
X113625Y158377D02*
X112934Y158240D01*
X112348Y157848D01*
X111956Y157262D01*
X111819Y156571D01*
X111956Y155880D01*
X112348Y155294D01*
X112934Y154902D01*
X113625Y154765D01*
X114316Y154902D01*
X114902Y155294D01*
X115294Y155880D01*
X115431Y156571D01*
X115294Y157262D01*
X114902Y157848D01*
X114316Y158240D01*
X113625Y158377D01*
D02*
G37*
G36*
X31546Y156746D02*
X29471D01*
Y154671D01*
X31546D01*
Y156746D01*
D02*
G37*
G36*
X28471D02*
X26396D01*
Y154671D01*
X28471D01*
Y156746D01*
D02*
G37*
G36*
X75648Y156362D02*
X74957Y156224D01*
X74371Y155833D01*
X73979Y155246D01*
X73842Y154555D01*
X73979Y153864D01*
X74371Y153278D01*
X74569Y153145D01*
X74553Y152645D01*
X73617D01*
X72996Y152522D01*
X72470Y152170D01*
X72134Y151835D01*
X67117D01*
Y150047D01*
X67034Y149989D01*
X66355Y150112D01*
X66295Y150202D01*
X65295Y151202D01*
X64769Y151553D01*
X64148Y151677D01*
X63180D01*
Y151835D01*
X59162D01*
X58326Y152670D01*
X57800Y153022D01*
X57180Y153145D01*
X50666D01*
X49993Y153595D01*
X49148Y153763D01*
X48303Y153595D01*
X47587Y153116D01*
X47109Y152400D01*
X46940Y151555D01*
X47109Y150710D01*
X47587Y149994D01*
X48303Y149515D01*
X49148Y149347D01*
X49993Y149515D01*
X50571Y149902D01*
X52301D01*
X52664Y149571D01*
X52664Y149402D01*
Y148087D01*
X54648D01*
X56633D01*
Y148888D01*
X57122Y149094D01*
X57367Y148866D01*
X57258Y148504D01*
X57258Y148504D01*
X57258Y148504D01*
Y146823D01*
X60424D01*
Y145823D01*
X57258D01*
Y144142D01*
X57668D01*
Y140811D01*
X63180D01*
Y140961D01*
X64176D01*
X64796Y141085D01*
X65323Y141436D01*
X66295Y142409D01*
X66355Y142498D01*
X67034Y142622D01*
X67117Y142563D01*
Y140811D01*
X72628D01*
X72628Y140811D01*
Y140811D01*
X73096Y140689D01*
X73439Y140346D01*
X73764Y140128D01*
X74148Y140052D01*
X74605D01*
Y139480D01*
X77632D01*
X77754Y139480D01*
X78132Y139186D01*
Y139071D01*
X79617D01*
Y141055D01*
Y143040D01*
X78132D01*
Y142925D01*
X77754Y142630D01*
X77632Y142630D01*
X74605D01*
Y142630D01*
X74105Y142518D01*
X73330Y143292D01*
X73005Y143510D01*
X72628Y143585D01*
Y144354D01*
X67270D01*
X67117Y144354D01*
X66770Y144711D01*
Y147935D01*
X67117Y148291D01*
X67270Y148291D01*
X72628D01*
Y148441D01*
X72656D01*
X73164Y148542D01*
X73664Y148268D01*
Y147587D01*
X75648D01*
X77632D01*
Y148636D01*
X77872Y148779D01*
X78164Y148606D01*
Y147587D01*
X80148D01*
X82133D01*
Y149071D01*
X82018D01*
X81723Y149449D01*
X81723Y149571D01*
Y150788D01*
X81770Y151024D01*
X81723Y151259D01*
Y152598D01*
X80384D01*
X80148Y152645D01*
X76744D01*
X76727Y153145D01*
X76925Y153278D01*
X77317Y153864D01*
X77455Y154555D01*
X77317Y155246D01*
X76925Y155833D01*
X76340Y156224D01*
X75648Y156362D01*
D02*
G37*
G36*
X226871Y155862D02*
X225869Y155730D01*
X224935Y155343D01*
X224133Y154728D01*
X223518Y153926D01*
X223131Y152992D01*
X223000Y151990D01*
X223131Y150988D01*
X223518Y150054D01*
X224133Y149252D01*
X224935Y148637D01*
X225869Y148250D01*
X226871Y148118D01*
X227873Y148250D01*
X228807Y148637D01*
X229609Y149252D01*
X230224Y150054D01*
X230611Y150988D01*
X230743Y151990D01*
X230611Y152992D01*
X230224Y153926D01*
X229609Y154728D01*
X228807Y155343D01*
X227873Y155730D01*
X226871Y155862D01*
D02*
G37*
G36*
X56633Y147087D02*
X55148D01*
Y145602D01*
X56633D01*
Y147087D01*
D02*
G37*
G36*
X54148D02*
X52664D01*
Y145602D01*
X54148D01*
Y147087D01*
D02*
G37*
G36*
X82133Y146587D02*
X80648D01*
Y145102D01*
X82133D01*
Y146587D01*
D02*
G37*
G36*
X79648D02*
X78164D01*
Y145102D01*
X79648D01*
Y146587D01*
D02*
G37*
G36*
X77632D02*
X76148D01*
Y145102D01*
X77632D01*
Y146587D01*
D02*
G37*
G36*
X75148D02*
X73664D01*
Y145102D01*
X75148D01*
Y146587D01*
D02*
G37*
G36*
X82101Y143040D02*
X80617D01*
Y141555D01*
X82101D01*
Y143040D01*
D02*
G37*
G36*
X175875Y143630D02*
X175184Y143493D01*
X174598Y143101D01*
X174206Y142515D01*
X174069Y141824D01*
X174206Y141133D01*
X174598Y140547D01*
X175184Y140155D01*
X175875Y140018D01*
X176566Y140155D01*
X177152Y140547D01*
X177544Y141133D01*
X177681Y141824D01*
X177544Y142515D01*
X177152Y143101D01*
X176566Y143493D01*
X175875Y143630D01*
D02*
G37*
G36*
X82101Y140555D02*
X80617D01*
Y139071D01*
X82101D01*
Y140555D01*
D02*
G37*
G36*
X226871Y145862D02*
X225869Y145730D01*
X224935Y145343D01*
X224133Y144728D01*
X223518Y143926D01*
X223131Y142992D01*
X223000Y141990D01*
X223131Y140988D01*
X223518Y140054D01*
X224133Y139252D01*
X224935Y138637D01*
X225869Y138250D01*
X226871Y138118D01*
X227873Y138250D01*
X228807Y138637D01*
X229609Y139252D01*
X230224Y140054D01*
X230611Y140988D01*
X230743Y141990D01*
X230611Y142992D01*
X230224Y143926D01*
X229609Y144728D01*
X228807Y145343D01*
X227873Y145730D01*
X226871Y145862D01*
D02*
G37*
G36*
X23745Y140611D02*
X20292D01*
Y137158D01*
X23745D01*
Y140611D01*
D02*
G37*
G36*
X19292D02*
X15839D01*
Y137158D01*
X19292D01*
Y140611D01*
D02*
G37*
G36*
X23745Y136158D02*
X20292D01*
Y132705D01*
X23745D01*
Y136158D01*
D02*
G37*
G36*
X19292D02*
X15839D01*
Y132705D01*
X19292D01*
Y136158D01*
D02*
G37*
G36*
X169693Y132338D02*
X168209D01*
Y130854D01*
X169693D01*
Y132338D01*
D02*
G37*
G36*
X174791D02*
Y130854D01*
X176275D01*
Y132338D01*
X174791D01*
D02*
G37*
G36*
X29203Y131961D02*
X28704Y131861D01*
X28281Y131579D01*
X27998Y131155D01*
X27899Y130656D01*
X27998Y130157D01*
X28281Y129734D01*
X28704Y129451D01*
X29203Y129351D01*
X29702Y129451D01*
X30126Y129734D01*
X30408Y130157D01*
X30508Y130656D01*
X30408Y131155D01*
X30126Y131579D01*
X29702Y131861D01*
X29203Y131961D01*
D02*
G37*
G36*
X88456Y123887D02*
X87765Y123750D01*
X87179Y123358D01*
X86787Y122772D01*
X86650Y122081D01*
X86787Y121390D01*
X87179Y120804D01*
X87765Y120412D01*
X88456Y120275D01*
X89147Y120412D01*
X89733Y120804D01*
X90125Y121390D01*
X90263Y122081D01*
X90125Y122772D01*
X89733Y123358D01*
X89147Y123750D01*
X88456Y123887D01*
D02*
G37*
G36*
X47159Y121456D02*
X45675D01*
Y119972D01*
X47159D01*
Y121456D01*
D02*
G37*
G36*
X44675D02*
X43191D01*
Y119972D01*
X44675D01*
Y121456D01*
D02*
G37*
G36*
X133210Y117599D02*
X131726D01*
Y116115D01*
X133210D01*
Y117599D01*
D02*
G37*
G36*
X47159Y118972D02*
X45175D01*
X43191D01*
Y117488D01*
X43306D01*
X43600Y117110D01*
X43600Y116988D01*
Y115771D01*
X43554Y115535D01*
X43600Y115299D01*
Y113960D01*
X44766D01*
X45218Y113870D01*
X49430D01*
X50051Y113994D01*
X50577Y114345D01*
X50928Y114871D01*
X51052Y115492D01*
X50928Y116113D01*
X50577Y116639D01*
X50051Y116990D01*
X49430Y117114D01*
X47464D01*
X47159Y117488D01*
X47159Y117614D01*
Y118972D01*
D02*
G37*
G36*
X133210Y115115D02*
X131726D01*
Y113631D01*
X133210D01*
Y115115D01*
D02*
G37*
G36*
X67424Y107058D02*
X65349D01*
Y104983D01*
X67424D01*
Y107058D01*
D02*
G37*
G36*
X64349D02*
X62274D01*
Y104983D01*
X64349D01*
Y107058D01*
D02*
G37*
G36*
X33105Y108147D02*
X26018D01*
Y101061D01*
X30811D01*
X36169Y95703D01*
Y82704D01*
X36210Y82496D01*
Y81704D01*
X36546D01*
X36643Y81557D01*
X37170Y81206D01*
X37790Y81082D01*
X38411Y81206D01*
X38937Y81557D01*
X39288Y82083D01*
X39412Y82704D01*
Y96375D01*
X39288Y96996D01*
X38937Y97522D01*
X33938Y102520D01*
X34130Y102982D01*
X43343D01*
Y102383D01*
X47674D01*
Y106713D01*
X43343D01*
Y106226D01*
X33105D01*
Y108147D01*
D02*
G37*
G36*
X53579Y106713D02*
X49249D01*
Y102383D01*
X53579D01*
Y102926D01*
X56778D01*
Y102318D01*
X61109D01*
Y106648D01*
X56778D01*
Y106170D01*
X53579D01*
Y106713D01*
D02*
G37*
G36*
X67424Y103983D02*
X65349D01*
Y101908D01*
X67424D01*
Y103983D01*
D02*
G37*
G36*
X64349D02*
X62274D01*
Y101908D01*
X64349D01*
Y103983D01*
D02*
G37*
G36*
X19561Y108178D02*
X18636Y108056D01*
X17774Y107699D01*
X17034Y107131D01*
X16466Y106391D01*
X16109Y105529D01*
X15987Y104604D01*
X16109Y103679D01*
X16466Y102817D01*
X17034Y102077D01*
X17774Y101509D01*
X18636Y101152D01*
X19561Y101030D01*
X20486Y101152D01*
X21348Y101509D01*
X22088Y102077D01*
X22656Y102817D01*
X23013Y103679D01*
X23135Y104604D01*
X23013Y105529D01*
X22656Y106391D01*
X22088Y107131D01*
X21348Y107699D01*
X20486Y108056D01*
X19561Y108178D01*
D02*
G37*
G36*
X11738Y159446D02*
X7407D01*
Y155116D01*
X8170D01*
Y139822D01*
X8005Y139753D01*
X7265Y139185D01*
X6697Y138445D01*
X6340Y137583D01*
X6218Y136658D01*
X6340Y135733D01*
X6697Y134871D01*
X7265Y134131D01*
X7940Y133613D01*
Y107767D01*
X7774Y107699D01*
X7034Y107131D01*
X6466Y106391D01*
X6109Y105529D01*
X5987Y104604D01*
X6109Y103679D01*
X6466Y102817D01*
X7034Y102077D01*
X7774Y101509D01*
X8636Y101152D01*
X9561Y101030D01*
X10486Y101152D01*
X11348Y101509D01*
X12088Y102077D01*
X12656Y102817D01*
X13013Y103679D01*
X13135Y104604D01*
X13013Y105529D01*
X12656Y106391D01*
X12088Y107131D01*
X11348Y107699D01*
X11183Y107767D01*
Y133399D01*
X11579Y133563D01*
X12319Y134131D01*
X12887Y134871D01*
X13244Y135733D01*
X13366Y136658D01*
X13244Y137583D01*
X12887Y138445D01*
X12319Y139185D01*
X11579Y139753D01*
X11414Y139822D01*
Y155116D01*
X11738D01*
Y159446D01*
D02*
G37*
G36*
X101271Y96601D02*
X100772Y96501D01*
X100349Y96219D01*
X100066Y95795D01*
X100023Y95578D01*
X95567D01*
Y95998D01*
X92417D01*
Y95578D01*
X91285D01*
Y95998D01*
X88135D01*
Y95578D01*
X84393D01*
X84009Y95501D01*
X83684Y95284D01*
X50701Y62301D01*
X50483Y61975D01*
X50407Y61591D01*
Y47390D01*
X31282Y28265D01*
X31064Y27939D01*
X30988Y27555D01*
Y22315D01*
X30055Y21929D01*
X29254Y21314D01*
X28638Y20512D01*
X28251Y19578D01*
X28120Y18576D01*
X28251Y17574D01*
X28638Y16640D01*
X29254Y15838D01*
X30055Y15223D01*
X30989Y14836D01*
X31991Y14704D01*
X32993Y14836D01*
X33927Y15223D01*
X34729Y15838D01*
X35344Y16640D01*
X35731Y17574D01*
X35863Y18576D01*
X35731Y19578D01*
X35344Y20512D01*
X34729Y21314D01*
X33927Y21929D01*
X32995Y22315D01*
Y27139D01*
X52120Y46264D01*
X52337Y46590D01*
X52414Y46974D01*
Y61175D01*
X84809Y93571D01*
X88135D01*
Y92970D01*
X88135Y92848D01*
X87841Y92470D01*
X87726D01*
Y90986D01*
X89710D01*
X91694D01*
Y92470D01*
X91580D01*
X91285Y92848D01*
X91285Y92919D01*
X91408Y93419D01*
X92417D01*
Y92848D01*
X95567D01*
Y93571D01*
X100549D01*
X100933Y93647D01*
X101259Y93864D01*
X101414Y94020D01*
X101770Y94091D01*
X102194Y94374D01*
X102476Y94797D01*
X102576Y95296D01*
X102476Y95795D01*
X102194Y96219D01*
X101770Y96501D01*
X101271Y96601D01*
D02*
G37*
G36*
X97483Y92292D02*
X96792Y92155D01*
X96206Y91763D01*
X95649Y91824D01*
X95567Y91905D01*
Y92061D01*
X92417D01*
Y88911D01*
X95567D01*
Y89067D01*
X95649Y89148D01*
X96206Y89209D01*
X96792Y88817D01*
X97483Y88680D01*
X98175Y88817D01*
X98760Y89209D01*
X99152Y89795D01*
X99290Y90486D01*
X99152Y91177D01*
X98760Y91763D01*
X98175Y92155D01*
X97483Y92292D01*
D02*
G37*
G36*
X91694Y89986D02*
X90210D01*
Y88502D01*
X91694D01*
Y89986D01*
D02*
G37*
G36*
X89210D02*
X87726D01*
Y88502D01*
X89210D01*
Y89986D01*
D02*
G37*
G36*
X11925Y89702D02*
X7881D01*
Y85659D01*
X11925D01*
Y89702D01*
D02*
G37*
G36*
X6881D02*
X2838D01*
Y85659D01*
X6881D01*
Y89702D01*
D02*
G37*
G36*
X47726Y84665D02*
X45651D01*
Y82590D01*
X47726D01*
Y84665D01*
D02*
G37*
G36*
X44651D02*
X42577D01*
Y82590D01*
X44651D01*
Y84665D01*
D02*
G37*
G36*
X21098Y86750D02*
X17448D01*
Y82116D01*
X21098D01*
Y86750D01*
D02*
G37*
G36*
X16448D02*
X12799D01*
Y82116D01*
X16448D01*
Y86750D01*
D02*
G37*
G36*
X35501Y85050D02*
X33296D01*
Y84744D01*
X31417D01*
X30894Y84640D01*
X30451Y84343D01*
X22003Y75896D01*
X21062D01*
Y75907D01*
X14566D01*
Y73151D01*
Y70592D01*
Y68033D01*
Y65474D01*
Y62915D01*
X21062D01*
Y62926D01*
X21933D01*
X30415Y54444D01*
X30858Y54148D01*
X31381Y54044D01*
X33814D01*
Y53701D01*
X35818D01*
X36019Y53701D01*
X36318Y53325D01*
Y53291D01*
X37330D01*
Y55374D01*
Y57457D01*
X36318D01*
Y57423D01*
X36019Y57047D01*
X35818Y57047D01*
X33814D01*
Y56778D01*
X31947D01*
X23466Y65259D01*
X23333Y65348D01*
X23484Y65848D01*
X24338D01*
X28088Y62098D01*
X28413Y61881D01*
X28797Y61804D01*
X32869D01*
Y60649D01*
X35897D01*
X36019Y60649D01*
X36397Y60355D01*
Y60240D01*
X37881D01*
Y62224D01*
Y64208D01*
X36397D01*
Y64094D01*
X36019Y63799D01*
X35897Y63799D01*
X33580D01*
X33516Y63812D01*
X29213D01*
X25463Y67562D01*
X25137Y67779D01*
X24753Y67856D01*
X21062D01*
Y70592D01*
Y73162D01*
X22569D01*
X23092Y73266D01*
X23536Y73563D01*
X31983Y82010D01*
X33296D01*
Y81704D01*
X35501D01*
Y85050D01*
D02*
G37*
G36*
X11925Y84659D02*
X7881D01*
Y80616D01*
X11925D01*
Y84659D01*
D02*
G37*
G36*
X6881D02*
X2838D01*
Y80616D01*
X6881D01*
Y84659D01*
D02*
G37*
G36*
X47726Y81590D02*
X45651D01*
Y79515D01*
X47726D01*
Y81590D01*
D02*
G37*
G36*
X44651D02*
X42577D01*
Y79515D01*
X44651D01*
Y81590D01*
D02*
G37*
G36*
X21098Y81116D02*
X17448D01*
Y76482D01*
X21098D01*
Y81116D01*
D02*
G37*
G36*
X16448D02*
X12799D01*
Y76482D01*
X16448D01*
Y81116D01*
D02*
G37*
G36*
X12122Y78875D02*
X7881D01*
Y74635D01*
X12122D01*
Y78875D01*
D02*
G37*
G36*
X6881D02*
X2641D01*
Y74635D01*
X6881D01*
Y78875D01*
D02*
G37*
G36*
X53222Y84255D02*
X48892D01*
Y79925D01*
X49622D01*
Y77544D01*
X49079D01*
Y73214D01*
X53409D01*
Y77544D01*
X52866D01*
Y79925D01*
X53222D01*
Y84255D01*
D02*
G37*
G36*
X47504Y77544D02*
X43173D01*
Y73214D01*
X43717D01*
Y70051D01*
X43664Y69972D01*
X43527Y69281D01*
X43664Y68590D01*
X44056Y68004D01*
X44642Y67612D01*
X45333Y67475D01*
X46024Y67612D01*
X46611Y68004D01*
X47002Y68590D01*
X47139Y69281D01*
X47002Y69972D01*
X46960Y70035D01*
Y73214D01*
X47504D01*
Y77544D01*
D02*
G37*
G36*
X12122Y73635D02*
X7381D01*
X2641D01*
Y69395D01*
Y65187D01*
X7381D01*
X12122D01*
Y69395D01*
Y73635D01*
D02*
G37*
G36*
X40365Y64208D02*
X38881D01*
Y62724D01*
X40365D01*
Y64208D01*
D02*
G37*
G36*
X132236Y63782D02*
X130752D01*
Y62298D01*
X132236D01*
Y63782D01*
D02*
G37*
G36*
X129752D02*
X128268D01*
Y62298D01*
X129752D01*
Y63782D01*
D02*
G37*
G36*
X40365Y61724D02*
X38881D01*
Y60240D01*
X40365D01*
Y61724D01*
D02*
G37*
G36*
X12122Y64187D02*
X7881D01*
Y59946D01*
X12122D01*
Y64187D01*
D02*
G37*
G36*
X6881D02*
X2641D01*
Y59946D01*
X6881D01*
Y64187D01*
D02*
G37*
G36*
X178150Y62575D02*
X177459Y62438D01*
X176873Y62046D01*
X176481Y61460D01*
X176344Y60769D01*
X176481Y60078D01*
X176873Y59492D01*
X177459Y59100D01*
X178150Y58963D01*
X178841Y59100D01*
X179428Y59492D01*
X179819Y60078D01*
X179956Y60769D01*
X179819Y61460D01*
X179428Y62046D01*
X178841Y62438D01*
X178150Y62575D01*
D02*
G37*
G36*
X21098Y62340D02*
X17448D01*
Y57706D01*
X21098D01*
Y62340D01*
D02*
G37*
G36*
X16448D02*
X12799D01*
Y57706D01*
X16448D01*
Y62340D01*
D02*
G37*
G36*
X135552Y58389D02*
X134068D01*
Y56905D01*
X135552D01*
Y58389D01*
D02*
G37*
G36*
X39342Y57457D02*
X38330D01*
Y55874D01*
X39342D01*
Y57457D01*
D02*
G37*
G36*
X135552Y55905D02*
X134068D01*
Y54421D01*
X135552D01*
Y55905D01*
D02*
G37*
G36*
X11925Y58206D02*
X7881D01*
Y54163D01*
X11925D01*
Y58206D01*
D02*
G37*
G36*
X6881D02*
X2838D01*
Y54163D01*
X6881D01*
Y58206D01*
D02*
G37*
G36*
X39342Y54874D02*
X38330D01*
Y53291D01*
X39342D01*
Y54874D01*
D02*
G37*
G36*
X141656Y54014D02*
X140171D01*
Y52530D01*
X141656D01*
Y54014D01*
D02*
G37*
G36*
X21098Y56706D02*
X17448D01*
Y52073D01*
X21098D01*
Y56706D01*
D02*
G37*
G36*
X16448D02*
X12799D01*
Y52073D01*
X16448D01*
Y56706D01*
D02*
G37*
G36*
X178167Y52866D02*
Y51382D01*
X179651D01*
Y52866D01*
X178167D01*
D02*
G37*
G36*
X141656Y51530D02*
X140171D01*
Y50046D01*
X141656D01*
Y51530D01*
D02*
G37*
G36*
X144891Y50830D02*
X143407D01*
Y49346D01*
X144891D01*
Y50830D01*
D02*
G37*
G36*
X11925Y53163D02*
X7881D01*
Y49120D01*
X11925D01*
Y53163D01*
D02*
G37*
G36*
X6881D02*
X2838D01*
Y49120D01*
X6881D01*
Y53163D01*
D02*
G37*
G36*
X144891Y48346D02*
X143407D01*
Y46862D01*
X144891D01*
Y48346D01*
D02*
G37*
G36*
X173720Y56086D02*
X173029Y55949D01*
X172443Y55557D01*
X172051Y54971D01*
X171914Y54280D01*
X172051Y53589D01*
X172108Y53503D01*
Y50882D01*
X172155Y50646D01*
Y49794D01*
X172155Y49307D01*
X172155D01*
Y49294D01*
X172155D01*
Y46144D01*
X172312D01*
Y45622D01*
X172155D01*
Y45261D01*
X171090D01*
X171090Y45261D01*
X170626Y45169D01*
X170232Y44905D01*
X168692Y43365D01*
X168617Y43380D01*
X167926Y43243D01*
X167340Y42851D01*
X166948Y42265D01*
X166811Y41574D01*
X166948Y40883D01*
X167340Y40297D01*
X167926Y39905D01*
X168617Y39768D01*
X169308Y39905D01*
X169895Y40297D01*
X170286Y40883D01*
X170423Y41574D01*
X170409Y41649D01*
X171593Y42833D01*
X172155D01*
Y42472D01*
X172516D01*
Y40330D01*
Y35263D01*
X172516Y35263D01*
X172609Y34799D01*
X172819Y34484D01*
Y31745D01*
X176363D01*
Y37060D01*
X174944D01*
Y42119D01*
X175031Y42206D01*
X175225Y42280D01*
X175683Y42063D01*
Y42063D01*
X177167D01*
Y44047D01*
X178167D01*
Y42063D01*
X179651D01*
Y42392D01*
X180216D01*
Y38072D01*
X180292Y37688D01*
X180378Y37560D01*
X180299Y37060D01*
X180299D01*
X180299Y37060D01*
Y31745D01*
X183843D01*
Y37060D01*
X183075D01*
Y37220D01*
X182998Y37604D01*
X182781Y37930D01*
X182223Y38488D01*
Y42039D01*
X182576Y42392D01*
X182796D01*
X183174Y42097D01*
Y41983D01*
X184658D01*
Y43967D01*
Y45951D01*
X183174D01*
Y45836D01*
X182796Y45542D01*
X182674Y45542D01*
X179651D01*
Y47219D01*
X177667D01*
Y48219D01*
X179651D01*
Y48898D01*
Y50382D01*
X177667D01*
Y50882D01*
X177167D01*
Y52866D01*
X175852D01*
X175683Y52866D01*
X175352Y53229D01*
Y53533D01*
X175389Y53589D01*
X175526Y54280D01*
X175389Y54971D01*
X174997Y55557D01*
X174411Y55949D01*
X173720Y56086D01*
D02*
G37*
G36*
X187143Y45951D02*
X185658D01*
Y44467D01*
X187143D01*
Y45951D01*
D02*
G37*
G36*
X141727Y45392D02*
X140242D01*
Y43908D01*
X141727D01*
Y45392D01*
D02*
G37*
G36*
X152300Y46457D02*
X151609Y46320D01*
X151023Y45928D01*
X150631Y45342D01*
X150494Y44651D01*
X150631Y43960D01*
X151023Y43374D01*
X151609Y42982D01*
X152300Y42845D01*
X152991Y42982D01*
X153526Y43339D01*
X154128D01*
Y42774D01*
X157278D01*
Y42774D01*
X157614Y42760D01*
Y42760D01*
X157772Y42760D01*
X160763D01*
Y45910D01*
X157614D01*
Y45910D01*
X157278Y45924D01*
Y45924D01*
X157119Y45924D01*
X154128D01*
Y45924D01*
X153628Y45852D01*
X153577Y45928D01*
X152991Y46320D01*
X152300Y46457D01*
D02*
G37*
G36*
X187143Y43467D02*
X185658D01*
Y41983D01*
X187143D01*
Y43467D01*
D02*
G37*
G36*
X141727Y42908D02*
X140242D01*
Y41424D01*
X141727D01*
Y42908D01*
D02*
G37*
G36*
X145561Y36843D02*
X142018D01*
Y31528D01*
X145561D01*
Y31876D01*
X147702D01*
X148055Y31522D01*
Y31304D01*
X147761Y30926D01*
X147646D01*
Y29442D01*
X149630D01*
Y28942D01*
D01*
Y29442D01*
X151614D01*
Y30926D01*
X151500D01*
X151205Y31304D01*
X151205Y31426D01*
Y34454D01*
X148055D01*
Y33882D01*
X145561D01*
Y36843D01*
D02*
G37*
G36*
X113557Y28743D02*
X112072D01*
Y27259D01*
X113557D01*
Y28743D01*
D02*
G37*
G36*
X111072D02*
X109588D01*
Y27259D01*
X111072D01*
Y28743D01*
D02*
G37*
G36*
X102797Y28643D02*
X101313D01*
Y27159D01*
X102797D01*
Y28643D01*
D02*
G37*
G36*
X100313D02*
X98829D01*
Y27159D01*
X100313D01*
Y28643D01*
D02*
G37*
G36*
X151614Y28442D02*
X150130D01*
Y26958D01*
X151614D01*
Y28442D01*
D02*
G37*
G36*
X149130D02*
X147646D01*
Y26958D01*
X149130D01*
Y28442D01*
D02*
G37*
G36*
X135809Y27804D02*
X134128D01*
Y25237D01*
X135809D01*
Y27804D01*
D02*
G37*
G36*
X180512Y28021D02*
X178831D01*
Y24954D01*
X177831D01*
Y28021D01*
X176150D01*
Y27611D01*
X172819D01*
Y22296D01*
X173377D01*
Y19701D01*
X173358Y19697D01*
X172718D01*
Y19525D01*
X172387Y19304D01*
X171626D01*
X171583Y19367D01*
X170997Y19759D01*
X170306Y19896D01*
X169615Y19759D01*
X169029Y19367D01*
X168637Y18781D01*
X168500Y18090D01*
X168637Y17399D01*
X169029Y16813D01*
X169615Y16421D01*
X170306Y16284D01*
X170997Y16421D01*
X171583Y16813D01*
X171626Y16876D01*
X172387D01*
X172718Y16655D01*
Y16547D01*
X173037D01*
X173047Y16545D01*
Y15033D01*
X173047Y15033D01*
X173140Y14569D01*
X173403Y14175D01*
X175128Y12450D01*
X175128Y12450D01*
X175522Y12187D01*
X175986Y12094D01*
X176381Y11803D01*
Y9369D01*
X173737Y6724D01*
X173654Y6708D01*
X173068Y6316D01*
X172676Y5730D01*
X172539Y5039D01*
X172676Y4348D01*
X173068Y3762D01*
X173654Y3370D01*
X174345Y3233D01*
X175036Y3370D01*
X175622Y3762D01*
X176014Y4348D01*
X176031Y4431D01*
X179150Y7550D01*
X179501Y8076D01*
X179625Y8697D01*
Y13308D01*
X179578Y13544D01*
Y14883D01*
X178239D01*
X178003Y14930D01*
X177767Y14883D01*
X176428D01*
X176428Y14883D01*
Y14883D01*
X175978Y15033D01*
X175475Y15536D01*
Y16194D01*
X175637Y16355D01*
X175812Y16411D01*
X176246Y16138D01*
Y16138D01*
X177730D01*
Y18122D01*
X178730D01*
Y16138D01*
X180214D01*
X180420Y15723D01*
Y14883D01*
X180365D01*
Y11733D01*
X181805D01*
X182041Y11686D01*
X182277Y11733D01*
X183515D01*
Y12651D01*
X183539Y12687D01*
X183663Y13308D01*
Y22296D01*
X183843D01*
Y27611D01*
X180512D01*
Y28021D01*
D02*
G37*
G36*
X113557Y26259D02*
X111572D01*
X109588D01*
Y24944D01*
X109588Y24775D01*
X109225Y24444D01*
X103202D01*
X102797Y24675D01*
X102797Y24944D01*
Y26159D01*
X100813D01*
X98829D01*
Y24675D01*
X98944D01*
X99238Y24297D01*
X99238Y24175D01*
Y23441D01*
X95788Y19990D01*
X95735Y19911D01*
X94179D01*
Y16671D01*
X94179Y16368D01*
X94179Y15967D01*
X93825Y15613D01*
X91900D01*
X91413Y16100D01*
Y16955D01*
X91413Y17077D01*
X91708Y17455D01*
X91822D01*
Y18939D01*
X89838D01*
X87854D01*
Y17455D01*
X87854D01*
X88050Y17041D01*
X87554Y16883D01*
X87144Y17157D01*
X86453Y17294D01*
X85762Y17157D01*
X85176Y16765D01*
X84784Y16179D01*
X84647Y15488D01*
X84784Y14797D01*
X85176Y14211D01*
X85762Y13819D01*
X86453Y13682D01*
X87144Y13819D01*
X87730Y14211D01*
X87782Y14288D01*
X88263D01*
Y13927D01*
X89696D01*
X90083Y13541D01*
X90083Y13541D01*
X90477Y13278D01*
X90941Y13185D01*
X90941Y13185D01*
X93825D01*
X94179Y12832D01*
Y12627D01*
X94179Y12127D01*
Y8887D01*
X98445D01*
X98704Y8628D01*
Y6392D01*
X98132D01*
Y3242D01*
X101282D01*
Y4959D01*
X101739Y5158D01*
X102069Y4894D01*
Y3242D01*
X105219D01*
Y6392D01*
X103489D01*
X103095Y6786D01*
Y8029D01*
X103218Y8478D01*
X103595Y8478D01*
X105884D01*
Y10659D01*
Y12840D01*
X103218Y12840D01*
X103095Y13289D01*
Y14913D01*
X104458Y16276D01*
X105524D01*
X105908Y16353D01*
X105930Y16368D01*
X109140D01*
Y19911D01*
X103628D01*
Y18187D01*
X103333Y17990D01*
X101382Y16039D01*
X101164Y15713D01*
X101088Y15329D01*
Y9581D01*
X100873Y9509D01*
X100588Y9498D01*
X100417Y9754D01*
X99691Y10480D01*
Y12127D01*
X99691Y12431D01*
X99691Y12931D01*
Y15868D01*
X99691Y16171D01*
X99691Y16671D01*
Y19306D01*
X101532Y21147D01*
X102388D01*
Y21200D01*
X118269D01*
Y20324D01*
X122599D01*
Y24655D01*
X118269D01*
Y24444D01*
X113919D01*
X113557Y24775D01*
X113557Y24944D01*
Y26259D01*
D02*
G37*
G36*
X164480Y25946D02*
X163789Y25809D01*
X163203Y25417D01*
X162811Y24831D01*
X162674Y24140D01*
X162811Y23449D01*
X163203Y22863D01*
X163789Y22471D01*
X164480Y22334D01*
X165171Y22471D01*
X165758Y22863D01*
X166149Y23449D01*
X166287Y24140D01*
X166149Y24831D01*
X165758Y25417D01*
X165171Y25809D01*
X164480Y25946D01*
D02*
G37*
G36*
X135809Y24237D02*
X134128D01*
Y21670D01*
X135809D01*
Y24237D01*
D02*
G37*
G36*
X91822Y21423D02*
X90338D01*
Y19939D01*
X91822D01*
Y21423D01*
D02*
G37*
G36*
X89338D02*
X87854D01*
Y19939D01*
X89338D01*
Y21423D01*
D02*
G37*
G36*
X226098Y23109D02*
Y19688D01*
X229519D01*
X229449Y20220D01*
X229051Y21181D01*
X228417Y22007D01*
X227592Y22641D01*
X226630Y23039D01*
X226098Y23109D01*
D02*
G37*
G36*
X225098D02*
X224566Y23039D01*
X223605Y22641D01*
X222779Y22007D01*
X222145Y21181D01*
X221747Y20220D01*
X221677Y19688D01*
X225098D01*
Y23109D01*
D02*
G37*
G36*
X135737Y19406D02*
X134253D01*
Y17922D01*
X135737D01*
Y19406D01*
D02*
G37*
G36*
X79639Y27631D02*
X78948Y27494D01*
X78362Y27102D01*
X77970Y26516D01*
X77833Y25825D01*
X77931Y25329D01*
Y20516D01*
X77978Y20280D01*
Y19063D01*
X77978Y18941D01*
X77684Y18563D01*
X77569D01*
Y17079D01*
X79553D01*
X81537D01*
Y18563D01*
X81423D01*
X81128Y18941D01*
X81128Y19063D01*
Y20280D01*
X81175Y20516D01*
Y24934D01*
X81308Y25134D01*
X81445Y25825D01*
X81308Y26516D01*
X80917Y27102D01*
X80330Y27494D01*
X79639Y27631D01*
D02*
G37*
G36*
X215598Y22762D02*
X214673Y22640D01*
X213811Y22283D01*
X213071Y21715D01*
X212503Y20975D01*
X212146Y20113D01*
X212024Y19188D01*
X212146Y18263D01*
X212503Y17401D01*
X213071Y16661D01*
X213811Y16093D01*
X214673Y15736D01*
X215598Y15614D01*
X216523Y15736D01*
X217385Y16093D01*
X218125Y16661D01*
X218693Y17401D01*
X219050Y18263D01*
X219172Y19188D01*
X219050Y20113D01*
X218693Y20975D01*
X218125Y21715D01*
X217385Y22283D01*
X216523Y22640D01*
X215598Y22762D01*
D02*
G37*
G36*
X135737Y16922D02*
X134253D01*
Y15438D01*
X135737D01*
Y16922D01*
D02*
G37*
G36*
X229519Y18688D02*
X226098D01*
Y15267D01*
X226630Y15337D01*
X227592Y15735D01*
X228417Y16369D01*
X229051Y17195D01*
X229449Y18156D01*
X229519Y18688D01*
D02*
G37*
G36*
X225098D02*
X221677D01*
X221747Y18156D01*
X222145Y17195D01*
X222779Y16369D01*
X223605Y15735D01*
X224566Y15337D01*
X225098Y15267D01*
Y18688D01*
D02*
G37*
G36*
X122599Y18750D02*
X118269D01*
Y17917D01*
X113663D01*
X113427Y17870D01*
X112088D01*
Y16531D01*
X112041Y16295D01*
X112088Y16059D01*
Y14842D01*
X112088Y14720D01*
X111794Y14342D01*
X111679D01*
Y12858D01*
X113663D01*
X115647D01*
Y14173D01*
X115647Y14342D01*
X116010Y14673D01*
X118269D01*
Y14419D01*
X122599D01*
Y14963D01*
X126220D01*
X126467Y14913D01*
X127088Y15037D01*
X127614Y15388D01*
X127965Y15914D01*
X128089Y16535D01*
X127965Y17156D01*
X127614Y17682D01*
X127565Y17731D01*
X127039Y18082D01*
X126418Y18206D01*
X122599D01*
Y18750D01*
D02*
G37*
G36*
X21991Y22448D02*
X20989Y22316D01*
X20055Y21929D01*
X19253Y21314D01*
X18638Y20512D01*
X18251Y19578D01*
X18120Y18576D01*
X18251Y17574D01*
X18638Y16640D01*
X19253Y15838D01*
X20055Y15223D01*
X20989Y14836D01*
X21991Y14704D01*
X22993Y14836D01*
X23927Y15223D01*
X24729Y15838D01*
X25344Y16640D01*
X25731Y17574D01*
X25863Y18576D01*
X25731Y19578D01*
X25344Y20512D01*
X24729Y21314D01*
X23927Y21929D01*
X22993Y22316D01*
X21991Y22448D01*
D02*
G37*
G36*
X81537Y16079D02*
X80053D01*
Y14595D01*
X81537D01*
Y16079D01*
D02*
G37*
G36*
X79053D02*
X77569D01*
Y14595D01*
X79053D01*
Y16079D01*
D02*
G37*
G36*
X106884Y12840D02*
Y11159D01*
X109549D01*
Y12840D01*
X106884D01*
D02*
G37*
G36*
X115647Y11858D02*
X114163D01*
Y10374D01*
X115647D01*
Y11858D01*
D02*
G37*
G36*
X113163D02*
X111679D01*
Y10374D01*
X113163D01*
Y11858D01*
D02*
G37*
G36*
X138490Y27804D02*
X136809D01*
Y24737D01*
Y21670D01*
X138427D01*
Y19821D01*
X138221Y19406D01*
X137927Y19406D01*
X136737D01*
Y17422D01*
Y15438D01*
X138221D01*
X138427Y15023D01*
Y14739D01*
X138551Y14118D01*
X138567Y14094D01*
Y11715D01*
X138691Y11094D01*
X138692Y11092D01*
Y10062D01*
X140031D01*
X140267Y10015D01*
X140503Y10062D01*
X141842D01*
Y11401D01*
X141889Y11637D01*
X141842Y11873D01*
Y13212D01*
X141811D01*
Y14599D01*
X141796Y14674D01*
Y17422D01*
X141749Y17658D01*
Y18997D01*
X141671D01*
Y21723D01*
X142018Y22079D01*
X142321Y22079D01*
X143256D01*
Y13212D01*
X142629D01*
Y10062D01*
X145779D01*
Y13212D01*
X145276D01*
Y22079D01*
X145561D01*
Y27394D01*
X142321D01*
X142018Y27394D01*
X141518Y27394D01*
X138490D01*
Y27804D01*
D02*
G37*
G36*
X226098Y13109D02*
Y9688D01*
X229519D01*
X229449Y10220D01*
X229051Y11181D01*
X228417Y12007D01*
X227592Y12641D01*
X226630Y13039D01*
X226098Y13109D01*
D02*
G37*
G36*
X225098D02*
X224566Y13039D01*
X223605Y12641D01*
X222779Y12007D01*
X222145Y11181D01*
X221747Y10220D01*
X221677Y9688D01*
X225098D01*
Y13109D01*
D02*
G37*
G36*
X12491Y12795D02*
Y9076D01*
X16210D01*
X16130Y9685D01*
X15702Y10718D01*
X15021Y11606D01*
X14133Y12287D01*
X13100Y12715D01*
X12491Y12795D01*
D02*
G37*
G36*
X11491Y12795D02*
X10882Y12715D01*
X9849Y12287D01*
X8961Y11606D01*
X8281Y10718D01*
X7852Y9685D01*
X7772Y9076D01*
X11491D01*
Y12795D01*
D02*
G37*
G36*
X109549Y10159D02*
X106884D01*
Y8478D01*
X109549D01*
Y10159D01*
D02*
G37*
G36*
X219142Y12731D02*
X212055D01*
Y5645D01*
X219142D01*
Y12731D01*
D02*
G37*
G36*
X229519Y8688D02*
X226098D01*
Y5267D01*
X226630Y5337D01*
X227592Y5735D01*
X228417Y6369D01*
X229051Y7195D01*
X229449Y8156D01*
X229519Y8688D01*
D02*
G37*
G36*
X225098D02*
X221677D01*
X221747Y8156D01*
X222145Y7195D01*
X222779Y6369D01*
X223605Y5735D01*
X224566Y5337D01*
X225098Y5267D01*
Y8688D01*
D02*
G37*
G36*
X71991Y12448D02*
X70989Y12316D01*
X70055Y11929D01*
X69253Y11314D01*
X68638Y10512D01*
X68251Y9578D01*
X68120Y8576D01*
X68251Y7574D01*
X68638Y6640D01*
X69253Y5838D01*
X70055Y5223D01*
X70989Y4836D01*
X71991Y4704D01*
X72993Y4836D01*
X73927Y5223D01*
X74729Y5838D01*
X75344Y6640D01*
X75731Y7574D01*
X75863Y8576D01*
X75731Y9578D01*
X75344Y10512D01*
X74729Y11314D01*
X73927Y11929D01*
X72993Y12316D01*
X71991Y12448D01*
D02*
G37*
G36*
X31991D02*
X30989Y12316D01*
X30055Y11929D01*
X29254Y11314D01*
X28638Y10512D01*
X28251Y9578D01*
X28120Y8576D01*
X28251Y7574D01*
X28638Y6640D01*
X29254Y5838D01*
X30055Y5223D01*
X30989Y4836D01*
X31991Y4704D01*
X32993Y4836D01*
X33927Y5223D01*
X34729Y5838D01*
X35344Y6640D01*
X35731Y7574D01*
X35863Y8576D01*
X35731Y9578D01*
X35344Y10512D01*
X34729Y11314D01*
X33927Y11929D01*
X32993Y12316D01*
X31991Y12448D01*
D02*
G37*
G36*
X21991D02*
X20989Y12316D01*
X20055Y11929D01*
X19253Y11314D01*
X18638Y10512D01*
X18251Y9578D01*
X18120Y8576D01*
X18251Y7574D01*
X18638Y6640D01*
X19253Y5838D01*
X20055Y5223D01*
X20989Y4836D01*
X21991Y4704D01*
X22993Y4836D01*
X23927Y5223D01*
X24729Y5838D01*
X25344Y6640D01*
X25731Y7574D01*
X25863Y8576D01*
X25731Y9578D01*
X25344Y10512D01*
X24729Y11314D01*
X23927Y11929D01*
X22993Y12316D01*
X21991Y12448D01*
D02*
G37*
G36*
X11491Y8076D02*
X7772D01*
X7852Y7467D01*
X8281Y6434D01*
X8961Y5546D01*
X9849Y4865D01*
X10882Y4437D01*
X11491Y4357D01*
Y8076D01*
D02*
G37*
G36*
X16210D02*
X12491D01*
Y4357D01*
X13100Y4437D01*
X14133Y4865D01*
X15021Y5546D01*
X15702Y6434D01*
X16130Y7467D01*
X16210Y8076D01*
D02*
G37*
G36*
X165668Y89457D02*
X164977Y89320D01*
X164391Y88928D01*
X163999Y88342D01*
X163862Y87651D01*
X163999Y86960D01*
X164391Y86374D01*
X164977Y85982D01*
X165668Y85845D01*
X166359Y85982D01*
X166946Y86374D01*
X167337Y86960D01*
X167474Y87651D01*
X167337Y88342D01*
X166946Y88928D01*
X166359Y89320D01*
X165668Y89457D01*
D02*
G37*
G36*
X165933Y85038D02*
X165770D01*
X165386Y84961D01*
X165061Y84744D01*
X164843Y84418D01*
X164767Y84034D01*
X164843Y83650D01*
X165061Y83324D01*
X165386Y83107D01*
X165770Y83030D01*
X165933D01*
X166317Y83107D01*
X166643Y83324D01*
X166860Y83650D01*
X166937Y84034D01*
X166860Y84418D01*
X166643Y84744D01*
X166317Y84961D01*
X165933Y85038D01*
D02*
G37*
%LPD*%
D13*
X185527Y103373D02*
Y107006D01*
X184411Y102257D02*
X185527Y103373D01*
X180871Y102257D02*
X184411D01*
X127591Y94383D02*
X136973D01*
X127591D02*
Y94433D01*
X118471Y67528D02*
Y78082D01*
X109857Y58914D02*
X118471Y67528D01*
X116404Y70001D02*
Y80519D01*
X109857Y63454D02*
X116404Y70001D01*
X114505Y73237D02*
Y81508D01*
X109205Y67937D02*
X114505Y73237D01*
X101386Y67937D02*
X109205D01*
X112640Y75204D02*
Y81997D01*
X109857Y72421D02*
X112640Y75204D01*
X66349Y32900D02*
X101386Y67937D01*
X66349Y12934D02*
Y32900D01*
X51410Y46974D02*
Y61591D01*
X31991Y27555D02*
X51410Y46974D01*
Y61591D02*
X84393Y94574D01*
X45076Y44202D02*
Y61655D01*
X29197Y28323D02*
X45076Y44202D01*
Y61655D02*
X83709Y100288D01*
X21738Y28323D02*
X29197D01*
X11991Y18576D02*
X21738Y28323D01*
X117814Y98320D02*
X137343D01*
X109857Y90363D02*
X117814Y98320D01*
X180871Y88477D02*
X194955D01*
X199499Y83933D01*
X222768D02*
X227066Y79635D01*
X199499Y83933D02*
X222768D01*
X189382Y84540D02*
X199400Y74522D01*
X222179D02*
X227066Y69635D01*
X199400Y74522D02*
X222179D01*
X191536Y75553D02*
X202500Y64589D01*
X186387Y80603D02*
X191437Y75553D01*
X222112Y64589D02*
X227066Y59635D01*
X202500Y64589D02*
X222112D01*
X191437Y75553D02*
X191536D01*
X188980Y71078D02*
X205664Y54395D01*
X222306D02*
X227066Y49635D01*
X205664Y54395D02*
X222306D01*
X187558Y69035D02*
X198805Y57787D01*
X186136Y66991D02*
X208838Y44289D01*
X222412D02*
X227066Y39635D01*
X208838Y44289D02*
X222412D01*
X136973Y100288D02*
X137343D01*
X83709D02*
X136973D01*
X84393Y94574D02*
X100549D01*
X31991Y18576D02*
Y27555D01*
X100549Y94574D02*
X101271Y95296D01*
X41991Y8576D02*
X46944Y13529D01*
Y27450D01*
X109857Y90363D01*
Y81392D02*
X120697Y92232D01*
X57213Y28748D02*
X109857Y81392D01*
X51991Y8576D02*
X57213Y13798D01*
Y28748D01*
X71991Y18576D02*
Y34355D01*
X92011Y54375D01*
X109470D02*
X129793Y74698D01*
X92011Y54375D02*
X109470D01*
X61991Y8576D02*
X66349Y12934D01*
X33516Y62808D02*
X34413Y61911D01*
X28797Y62808D02*
X33516D01*
X24753Y66852D02*
X28797Y62808D01*
X34302Y55374D02*
X34917D01*
X148095Y109442D02*
Y113918D01*
X137175Y124838D02*
X148095Y113918D01*
X137175Y124838D02*
Y126114D01*
X140442Y124102D02*
X150064Y114481D01*
X140442Y124102D02*
Y127189D01*
X143770Y123238D02*
X152032Y114976D01*
X143770Y123238D02*
Y124538D01*
X169078Y115330D02*
Y121828D01*
Y115330D02*
X169749Y114660D01*
X154000Y54097D02*
Y65544D01*
X173588Y58384D02*
X174002Y58798D01*
X169254Y58384D02*
X173588D01*
X166682D02*
X169254D01*
X136959Y94397D02*
X136973Y94383D01*
X120542Y96562D02*
X137132D01*
X109857Y85878D02*
X120542Y96562D01*
X137132D02*
X137343Y96351D01*
X120697Y92232D02*
X137161D01*
X137343Y92414D01*
X121089Y90446D02*
X137343D01*
X112640Y81997D02*
X121089Y90446D01*
X157830Y63070D02*
Y65437D01*
X152032Y109442D02*
Y114976D01*
X150064Y109442D02*
Y114481D01*
X157642Y117574D02*
Y126332D01*
Y117574D02*
X159906Y115310D01*
X155844Y109567D02*
Y119325D01*
Y109567D02*
X155969Y109442D01*
X150425Y124744D02*
X155844Y119325D01*
X154000Y109442D02*
Y118455D01*
X147098Y125358D02*
X154000Y118455D01*
X147098Y125358D02*
Y127189D01*
X150425Y124744D02*
Y127189D01*
X159906Y109442D02*
Y115310D01*
X157938Y109442D02*
X157969Y109410D01*
Y103011D02*
Y109410D01*
X163843Y61223D02*
X166682Y58384D01*
X163843Y61223D02*
Y65544D01*
X157830Y65437D02*
X157938Y65544D01*
X143789Y34185D02*
X143819Y34215D01*
X149630Y32879D02*
X149662Y32847D01*
X149674D01*
X145096Y32879D02*
X149630D01*
X143789Y34185D02*
X145096Y32879D01*
X154000Y65544D02*
X154182Y65726D01*
X143788Y84540D02*
X146100Y82228D01*
X136973Y84540D02*
X143788D01*
X124568Y80564D02*
X136934D01*
X136973Y80603D01*
X123118Y82729D02*
X137186D01*
X118471Y78082D02*
X123118Y82729D01*
X137186D02*
X137343Y82572D01*
X127436Y78635D02*
X136973D01*
X124900Y76099D02*
X127436Y78635D01*
X125148Y72791D02*
X128854Y76497D01*
X136803D01*
X121814Y72791D02*
X125148D01*
X136803Y76497D02*
X136973Y76666D01*
X122394Y86509D02*
X137343D01*
X121474Y88477D02*
X137343D01*
X129793Y74698D02*
X137343D01*
X17814Y66852D02*
X24753D01*
X74148Y141055D02*
X76180D01*
X72621Y142583D02*
X74148Y141055D01*
X69873Y142583D02*
X72621D01*
X114505Y81508D02*
X121474Y88477D01*
X116404Y80519D02*
X122394Y86509D01*
X182071Y34402D02*
Y37220D01*
X181219Y38072D02*
X182071Y37220D01*
X181219Y38072D02*
Y40256D01*
Y43965D01*
X181221Y43967D01*
X143770Y129574D02*
Y134525D01*
X137115Y129518D02*
Y134485D01*
X89710Y94423D02*
X93992D01*
X171717Y65544D02*
Y71531D01*
X172476Y72290D01*
X173686Y65544D02*
Y69239D01*
X175366Y70920D01*
X165770Y84034D02*
X165933D01*
X99707Y4817D02*
Y9044D01*
X98021Y10730D02*
X99707Y9044D01*
X97006Y10730D02*
X98021D01*
X105524Y17280D02*
X106384Y18139D01*
X104042Y17280D02*
X105524D01*
X102091Y15329D02*
X104042Y17280D01*
X102091Y6370D02*
Y15329D01*
Y6370D02*
X103644Y4817D01*
X144165Y79987D02*
X150064Y74089D01*
Y65544D02*
Y74089D01*
X154000Y54097D02*
X155640Y52457D01*
X155969Y65544D02*
X156006Y65507D01*
X158095Y56795D02*
Y62705D01*
X169031Y75513D02*
X169749Y74796D01*
Y65544D02*
Y74796D01*
X167780Y65544D02*
Y70549D01*
X166513Y71816D02*
X167780Y70549D01*
X166513Y71816D02*
Y72426D01*
X162316Y73325D02*
Y78171D01*
Y73325D02*
X165812Y69830D01*
Y65544D02*
Y69830D01*
X163843Y109442D02*
Y120957D01*
X164193Y121307D01*
X173686Y109442D02*
Y115056D01*
X177380Y118751D01*
X171717Y109442D02*
Y118230D01*
X172913Y119426D01*
X165918Y109548D02*
Y117009D01*
X165812Y109442D02*
X165918Y109548D01*
X169749Y109442D02*
Y114660D01*
X158095Y56795D02*
X164512Y50378D01*
X165445Y126417D02*
X170193D01*
X164176Y125148D02*
X164193Y125165D01*
X165445Y126417D01*
X164193Y121307D02*
Y125165D01*
X156006Y55207D02*
Y65507D01*
Y55207D02*
X159174Y52039D01*
Y48286D02*
Y52039D01*
X180871Y90446D02*
X181088Y90663D01*
X154056Y126630D02*
X157518D01*
X161171Y130546D02*
Y134935D01*
X157572Y126684D02*
X161096D01*
X146126Y102090D02*
Y109442D01*
X155703Y48286D02*
X159174D01*
X169078Y121828D02*
X171582D01*
X174291Y124537D01*
Y126417D01*
X180871Y90446D02*
X189761D01*
X193107Y93791D01*
X180871Y86509D02*
X190879D01*
X193175Y84213D01*
X180871Y84540D02*
X189382D01*
X180871Y82572D02*
X187884D01*
X193175Y77281D01*
X180871Y80603D02*
X186387D01*
X180871Y78635D02*
X184890D01*
X193175Y70349D01*
X180871Y76666D02*
X184909D01*
X188980Y72596D01*
Y71078D02*
Y72596D01*
X180871Y74698D02*
X184929D01*
X187558Y72069D01*
Y69035D02*
Y72069D01*
X184803Y72729D02*
X186136Y71396D01*
X180871Y72729D02*
X184803D01*
X185527Y107006D02*
X193107Y114586D01*
X186136Y66991D02*
Y71396D01*
D16*
X-12Y-2D02*
Y214839D01*
Y-2D02*
X238718D01*
Y214839D01*
X-12D02*
X238718D01*
D17*
X150635Y153839D02*
D03*
Y155689D02*
D03*
X153444Y153839D02*
D03*
Y155689D02*
D03*
X158628Y153839D02*
D03*
Y155689D02*
D03*
X162742Y153881D02*
D03*
Y155731D02*
D03*
D18*
X64849Y104483D02*
D03*
X58943D02*
D03*
X45508Y104548D02*
D03*
X51414D02*
D03*
X45151Y82090D02*
D03*
X51057D02*
D03*
X45338Y75379D02*
D03*
X51244D02*
D03*
X9572Y157281D02*
D03*
X15478D02*
D03*
X28971Y157246D02*
D03*
X23065D02*
D03*
D21*
X146425Y186595D02*
D03*
X149575D02*
D03*
X152725D02*
D03*
X155874D02*
D03*
X159024D02*
D03*
X162174D02*
D03*
X165323D02*
D03*
X168473D02*
D03*
X146425Y183445D02*
D03*
X149575D02*
D03*
X152725D02*
D03*
X155874D02*
D03*
X159024D02*
D03*
X162174D02*
D03*
X165323D02*
D03*
X168473D02*
D03*
X146425Y180296D02*
D03*
X149575D02*
D03*
X152725D02*
D03*
X155874D02*
D03*
X159024D02*
D03*
X162174D02*
D03*
X165323D02*
D03*
X168473D02*
D03*
X146425Y177146D02*
D03*
X149575D02*
D03*
X152725D02*
D03*
X155874D02*
D03*
X159024D02*
D03*
X162174D02*
D03*
X165323D02*
D03*
X168473D02*
D03*
X146425Y173996D02*
D03*
X149575D02*
D03*
X152725D02*
D03*
X155874D02*
D03*
X159024D02*
D03*
X162174D02*
D03*
X165323D02*
D03*
X168473D02*
D03*
X146425Y170847D02*
D03*
X149575D02*
D03*
X152725D02*
D03*
X155874D02*
D03*
X159024D02*
D03*
X162174D02*
D03*
X165323D02*
D03*
X168473D02*
D03*
X146425Y167697D02*
D03*
X149575D02*
D03*
X152725D02*
D03*
X155874D02*
D03*
X159024D02*
D03*
X162174D02*
D03*
X165323D02*
D03*
X168473D02*
D03*
X146425Y164547D02*
D03*
X149575D02*
D03*
X152725D02*
D03*
X155874D02*
D03*
X159024D02*
D03*
X162174D02*
D03*
X165323D02*
D03*
X168473D02*
D03*
X162174Y183453D02*
D03*
X155874Y183445D02*
D03*
X149575Y177146D02*
D03*
X82960Y163924D02*
D03*
X149575Y170764D02*
D03*
X146425Y183468D02*
D03*
X149575D02*
D03*
X152726D02*
D03*
X149575Y180296D02*
D03*
X162230Y164548D02*
D03*
X140184Y152834D02*
D03*
X159024Y170813D02*
D03*
X152725Y173996D02*
D03*
X149581D02*
D03*
X127591Y94433D02*
D03*
X45060Y90205D02*
D03*
X70147Y99185D02*
D03*
X36942Y155098D02*
D03*
X86996Y207231D02*
D03*
X95323Y168037D02*
D03*
X91906Y179450D02*
D03*
X87270Y189168D02*
D03*
X87386Y88162D02*
D03*
X101271Y95296D02*
D03*
X76356Y195757D02*
D03*
X59376Y166091D02*
D03*
X105772Y149355D02*
D03*
X103840Y179706D02*
D03*
X86738Y195085D02*
D03*
X95826Y175837D02*
D03*
X109209Y168255D02*
D03*
X146425Y167697D02*
D03*
X143467Y151664D02*
D03*
X128774Y196394D02*
D03*
X127761Y202189D02*
D03*
X127714Y205647D02*
D03*
X130184Y167960D02*
D03*
X137654Y171803D02*
D03*
X80649Y9662D02*
D03*
X133851Y15067D02*
D03*
X140189Y14599D02*
D03*
X126467Y16535D02*
D03*
X45055Y123525D02*
D03*
X49430Y115492D02*
D03*
X29203Y130656D02*
D03*
X22723Y119264D02*
D03*
X18164Y122711D02*
D03*
X169769Y145129D02*
D03*
X152725Y164547D02*
D03*
X159024Y173996D02*
D03*
X162178Y180300D02*
D03*
X133437Y158906D02*
D03*
X162174Y177146D02*
D03*
X164925Y151610D02*
D03*
X162176Y170844D02*
D03*
X162158Y167713D02*
D03*
X141646Y195363D02*
D03*
X155874Y177146D02*
D03*
Y180296D02*
D03*
X149575Y186595D02*
D03*
X159024Y183445D02*
D03*
X165323Y167697D02*
D03*
X165324Y170846D02*
D03*
X165325Y173994D02*
D03*
X165323Y177146D02*
D03*
Y180296D02*
D03*
X165326Y183448D02*
D03*
X155867Y167690D02*
D03*
X159024Y186595D02*
D03*
X162099Y202044D02*
D03*
X155874Y164548D02*
D03*
X165226Y155723D02*
D03*
X156028Y155707D02*
D03*
X150649Y150565D02*
D03*
X146554Y152678D02*
D03*
D22*
X174591Y34402D02*
D03*
X182071D02*
D03*
Y24954D02*
D03*
X178331D02*
D03*
X174591D02*
D03*
X136309Y34185D02*
D03*
X143789D02*
D03*
Y24737D02*
D03*
X140049D02*
D03*
X136309D02*
D03*
D23*
X106384Y18139D02*
D03*
Y10659D02*
D03*
X96935D02*
D03*
Y14399D02*
D03*
Y18139D02*
D03*
X69873Y150063D02*
D03*
Y142583D02*
D03*
X60424D02*
D03*
Y146323D02*
D03*
Y150063D02*
D03*
D24*
X120434Y16584D02*
D03*
Y22490D02*
D03*
D25*
X34917Y55374D02*
D03*
X37830D02*
D03*
X34399Y83377D02*
D03*
X37312D02*
D03*
D26*
X180871Y72729D02*
D03*
Y74698D02*
D03*
Y76666D02*
D03*
Y78635D02*
D03*
Y80603D02*
D03*
Y82572D02*
D03*
Y84540D02*
D03*
Y86509D02*
D03*
Y88477D02*
D03*
Y90446D02*
D03*
Y92414D02*
D03*
Y94383D02*
D03*
Y96351D02*
D03*
Y98320D02*
D03*
Y100288D02*
D03*
Y102257D02*
D03*
X136973D02*
D03*
Y100288D02*
D03*
Y98320D02*
D03*
Y96351D02*
D03*
Y94383D02*
D03*
Y92414D02*
D03*
Y90446D02*
D03*
Y88477D02*
D03*
Y86509D02*
D03*
Y84540D02*
D03*
Y82572D02*
D03*
Y80603D02*
D03*
Y78635D02*
D03*
Y76666D02*
D03*
Y74698D02*
D03*
Y72729D02*
D03*
D27*
X173686Y109442D02*
D03*
X171717D02*
D03*
X169749D02*
D03*
X167780D02*
D03*
X165812D02*
D03*
X163843D02*
D03*
X161874D02*
D03*
X159906D02*
D03*
X157938D02*
D03*
X155969D02*
D03*
X154000D02*
D03*
X152032D02*
D03*
X150064D02*
D03*
X148095D02*
D03*
X146126D02*
D03*
X144158D02*
D03*
Y65544D02*
D03*
X146126D02*
D03*
X148095D02*
D03*
X150064D02*
D03*
X152032D02*
D03*
X154000D02*
D03*
X155969D02*
D03*
X157938D02*
D03*
X159906D02*
D03*
X161874D02*
D03*
X163843D02*
D03*
X165812D02*
D03*
X167780D02*
D03*
X169749D02*
D03*
X171717D02*
D03*
X173686D02*
D03*
D28*
X17814Y74529D02*
D03*
Y66852D02*
D03*
Y64293D02*
D03*
Y69411D02*
D03*
Y71970D02*
D03*
D29*
X16948Y81616D02*
D03*
Y57206D02*
D03*
D30*
X7381Y74135D02*
D03*
Y64687D02*
D03*
D31*
Y85159D02*
D03*
Y53663D02*
D03*
D53*
X111680Y180468D02*
D03*
X107743D02*
D03*
X144059Y156421D02*
D03*
X140122D02*
D03*
X79203Y195738D02*
D03*
X83140D02*
D03*
X141714Y147404D02*
D03*
X145651D02*
D03*
X133449Y161510D02*
D03*
X137386D02*
D03*
X133465Y164440D02*
D03*
X137402D02*
D03*
X133279Y167949D02*
D03*
X137216D02*
D03*
X133743Y174544D02*
D03*
X137680D02*
D03*
X149085Y202270D02*
D03*
X145148D02*
D03*
X145179Y198690D02*
D03*
X149116D02*
D03*
X145205Y195363D02*
D03*
X149142D02*
D03*
X149456Y57357D02*
D03*
X153393D02*
D03*
X173730Y44047D02*
D03*
X177667D02*
D03*
X135734Y52030D02*
D03*
X139671D02*
D03*
X149328Y48846D02*
D03*
X145391D02*
D03*
X181221Y43967D02*
D03*
X185158D02*
D03*
X174293Y18122D02*
D03*
X178230D02*
D03*
X140267Y11637D02*
D03*
X144204D02*
D03*
X137647Y115615D02*
D03*
X133710D02*
D03*
X136052Y56405D02*
D03*
X139989D02*
D03*
X38381Y62224D02*
D03*
X34444D02*
D03*
X181940Y13308D02*
D03*
X178003D02*
D03*
X160256Y121307D02*
D03*
X164193D02*
D03*
X140174Y17422D02*
D03*
X136237D02*
D03*
X135805Y43408D02*
D03*
X139742D02*
D03*
X173730Y50882D02*
D03*
X177667D02*
D03*
X173730Y47719D02*
D03*
X177667D02*
D03*
X99707Y4817D02*
D03*
X103644D02*
D03*
X80117Y141055D02*
D03*
X76180D02*
D03*
D54*
X45175Y115535D02*
D03*
Y119472D02*
D03*
X75355Y177439D02*
D03*
Y181376D02*
D03*
X71691Y181272D02*
D03*
Y177335D02*
D03*
X108129Y204756D02*
D03*
Y208693D02*
D03*
X104100Y204831D02*
D03*
Y200894D02*
D03*
X103956Y175649D02*
D03*
Y171712D02*
D03*
X99135Y175649D02*
D03*
Y171712D02*
D03*
X99257Y168076D02*
D03*
Y164139D02*
D03*
X102826Y167832D02*
D03*
Y163895D02*
D03*
X168589Y198422D02*
D03*
Y194485D02*
D03*
X165478Y198527D02*
D03*
Y194590D02*
D03*
X162099Y198450D02*
D03*
Y194513D02*
D03*
X159103Y204089D02*
D03*
Y200152D02*
D03*
X149630Y32879D02*
D03*
Y28942D02*
D03*
X113663Y16295D02*
D03*
Y12358D02*
D03*
X79553Y20516D02*
D03*
Y16579D02*
D03*
X89838Y15502D02*
D03*
Y19439D02*
D03*
X111572Y22822D02*
D03*
Y26759D02*
D03*
X89710Y90486D02*
D03*
Y94423D02*
D03*
X161171Y130546D02*
D03*
Y126609D02*
D03*
X140442Y131126D02*
D03*
Y127189D02*
D03*
X147098D02*
D03*
Y131126D02*
D03*
X143805Y129467D02*
D03*
Y125530D02*
D03*
X155703Y44349D02*
D03*
Y48286D02*
D03*
X159188Y44335D02*
D03*
Y48272D02*
D03*
X137055Y129470D02*
D03*
Y125533D02*
D03*
X150539Y130560D02*
D03*
Y126623D02*
D03*
X157572Y130621D02*
D03*
Y126684D02*
D03*
X154056Y130567D02*
D03*
Y126630D02*
D03*
X130252Y64282D02*
D03*
Y68219D02*
D03*
X93992Y94423D02*
D03*
Y90486D02*
D03*
X170193Y130354D02*
D03*
Y126417D02*
D03*
X164512Y54315D02*
D03*
Y50378D02*
D03*
X169254Y54447D02*
D03*
Y58384D02*
D03*
X100813Y22722D02*
D03*
Y26659D02*
D03*
X54648Y147587D02*
D03*
Y151524D02*
D03*
X75648Y147087D02*
D03*
Y151024D02*
D03*
X80148D02*
D03*
Y147087D02*
D03*
X174291Y126417D02*
D03*
Y130354D02*
D03*
D55*
X162174Y183445D02*
X162174Y183445D01*
X160599Y175571D02*
X162174Y173996D01*
X159103Y192696D02*
X160599Y191200D01*
Y175571D02*
Y191200D01*
X162174Y183445D02*
Y183453D01*
X149085Y202270D02*
X157449Y193906D01*
Y181870D02*
X159024Y180296D01*
X157449Y181870D02*
Y193906D01*
X145767Y181876D02*
X145773Y181870D01*
X140516Y181876D02*
X145767D01*
X145773Y181870D02*
X151150D01*
X152725Y180296D01*
X138431Y183961D02*
X140516Y181876D01*
X112935Y179201D02*
X143883D01*
X144363Y178721D02*
X157449D01*
X143883Y179201D02*
X144363Y178721D01*
X142507Y177757D02*
X143118Y177146D01*
X89540Y177757D02*
X142507D01*
X157449Y178721D02*
X159024Y177146D01*
X112369Y179767D02*
Y179779D01*
Y179767D02*
X112935Y179201D01*
X146339Y180382D02*
X146425Y180296D01*
X136473Y182496D02*
X138587Y180382D01*
X146339D01*
X111760Y180388D02*
X112369Y179779D01*
X81161Y169378D02*
X89540Y177757D01*
X110512Y176560D02*
X141650D01*
X109601Y175649D02*
X110512Y176560D01*
X141650D02*
X142660Y175550D01*
X151150Y175571D02*
X152725Y177146D01*
X142660Y175550D02*
X145752D01*
X145773Y175571D02*
X151150D01*
X145752Y175550D02*
X145773Y175571D01*
X143118Y177146D02*
X146425D01*
X148000Y166122D02*
X149575Y167697D01*
X139084Y166122D02*
X148000D01*
X137402Y164440D02*
X139084Y166122D01*
X14581Y183419D02*
X35812Y162188D01*
X92939D02*
X105772Y149355D01*
X35812Y162188D02*
X92939D01*
X37970Y163924D02*
X82960D01*
X152725Y183445D02*
Y183466D01*
X152726Y183468D01*
X162174Y164548D02*
X162230D01*
X162174Y164547D02*
X162174Y164548D01*
X159024Y170813D02*
Y170847D01*
X19360Y182534D02*
X37970Y163924D01*
X97489Y167319D02*
X98500D01*
X96771Y168037D02*
X97489Y167319D01*
X95323Y168037D02*
X96771D01*
X103956Y175649D02*
X109601D01*
X75355Y181532D02*
X77784Y183961D01*
X75355Y181376D02*
Y181532D01*
X89471Y204756D02*
X108129D01*
X86996Y207231D02*
X89471Y204756D01*
X33321Y160785D02*
X85140D01*
X10307Y183799D02*
X33321Y160785D01*
X10307Y183799D02*
Y195005D01*
X14581Y183419D02*
Y200731D01*
X19360Y182534D02*
Y195952D01*
X76337Y195738D02*
X79203D01*
X76337D02*
X76356Y195757D01*
X29360Y174997D02*
Y195952D01*
Y174997D02*
X38266Y166091D01*
X59376D01*
X9360Y205952D02*
X14581Y200731D01*
X9360Y195952D02*
X10307Y195005D01*
X85140Y160785D02*
X98521Y147404D01*
X39360Y189123D02*
Y195952D01*
Y189123D02*
X59105Y169378D01*
X81161D01*
X39360Y205952D02*
X40098D01*
X44716Y201334D01*
Y191208D02*
Y201334D01*
Y191208D02*
X62314Y173610D01*
X81559D01*
X77784Y183961D02*
X138431D01*
X88150Y180296D02*
X90350Y182496D01*
X136473D01*
X88150Y180296D02*
X88197Y180248D01*
X75251Y181272D02*
X75355Y181376D01*
X71691Y181272D02*
X75251D01*
X83140Y195738D02*
X83148Y195730D01*
X61383Y186444D02*
X146275D01*
X54524Y193303D02*
X61383Y186444D01*
X86738Y195085D02*
Y195181D01*
X86181Y195738D02*
X86738Y195181D01*
X83140Y195738D02*
X86181D01*
X49360Y194653D02*
Y195952D01*
Y194653D02*
X62741Y181272D01*
X71691D01*
X49360Y205952D02*
X54524Y200788D01*
Y193303D02*
Y200788D01*
X104100Y200894D02*
X126466D01*
X105689Y211133D02*
X108129Y208693D01*
X64541Y211133D02*
X105689D01*
X59360Y195952D02*
X64302Y200894D01*
X104100D01*
X59360Y205952D02*
X64541Y211133D01*
X108129Y208693D02*
X124668D01*
X127714Y205647D01*
X98500Y167319D02*
X99257Y168076D01*
X95826Y175837D02*
X98980D01*
X99135Y175992D01*
X102826Y167832D02*
X108786D01*
X109209Y168255D01*
X141714Y149911D02*
X143467Y151664D01*
X141714Y147404D02*
Y149911D01*
X98521Y147404D02*
X141714D01*
X79203Y195738D02*
X81385Y197920D01*
X146543Y148296D02*
Y152667D01*
X145651Y147404D02*
X146543Y148296D01*
X81385Y197920D02*
X127248D01*
X128774Y196394D01*
X126466Y200894D02*
X127761Y202189D01*
X59360Y193993D02*
Y195952D01*
X137680Y173996D02*
Y174544D01*
Y171829D02*
Y173996D01*
X137216Y167949D02*
X137654Y168387D01*
Y171803D01*
X137680Y171829D01*
X151139Y166111D02*
X152725Y167697D01*
X151139Y161134D02*
Y166111D01*
X150635Y160630D02*
X151139Y161134D01*
X150635Y155689D02*
Y160630D01*
X154259Y162226D02*
Y169311D01*
X152724Y170846D02*
X154259Y169311D01*
X155867Y167690D02*
X155874Y167683D01*
Y164548D02*
Y167683D01*
X162174Y180296D02*
X162178Y180300D01*
X137386Y161510D02*
X137402Y161526D01*
Y164440D01*
X153444Y161411D02*
X154259Y162226D01*
X153444Y155689D02*
Y161411D01*
X159103Y192696D02*
Y200152D01*
X162174Y186595D02*
Y194513D01*
X162700Y155689D02*
X162742Y155731D01*
X158628Y155689D02*
X162700D01*
X162174Y170847D02*
X162176Y170844D01*
X162158Y167713D02*
X162174Y167697D01*
X149116Y198690D02*
X155874Y191932D01*
Y186595D02*
Y191932D01*
X152725Y186595D02*
Y191780D01*
X149142Y195363D02*
X152725Y191780D01*
X158628Y161497D02*
X159024Y161893D01*
X158628Y155689D02*
Y161497D01*
X159024Y161893D02*
Y164547D01*
X162742Y155731D02*
Y159441D01*
X160571Y161612D02*
X162742Y159441D01*
X160571Y161612D02*
Y166150D01*
X165429Y194485D02*
X168589D01*
X165401Y194513D02*
X165429Y194485D01*
X162099Y194513D02*
X165401D01*
X162099D02*
X162839Y193773D01*
X155874Y164548D02*
X155874Y164547D01*
X165217Y155731D02*
X165226Y155723D01*
X162742Y155731D02*
X165217D01*
X159024Y167697D02*
X160571Y166150D01*
X153444Y155689D02*
X156010D01*
X150635D02*
X153444D01*
X156010D02*
X156028Y155707D01*
D56*
X149575Y170764D02*
Y170847D01*
Y173996D02*
X149580Y173991D01*
X149575Y173996D02*
X149581D01*
X149580Y173991D02*
X149586D01*
X45151Y82090D02*
Y90296D01*
X45060Y90205D02*
X45151Y90296D01*
X64849Y104483D02*
X70147Y99185D01*
X36942Y155098D02*
Y155185D01*
X34881Y157246D02*
X36942Y155185D01*
X28971Y157246D02*
X34881D01*
X75355Y177439D02*
X78755D01*
X78740Y177454D02*
X78755Y177439D01*
X87386Y88162D02*
X89710Y90486D01*
X79553Y10758D02*
X80649Y9662D01*
X79553Y10758D02*
Y16579D01*
X133851Y15067D02*
X133882D01*
X136237Y17422D01*
X136309Y17494D01*
Y24737D01*
X126692Y173862D02*
X127401Y174571D01*
X134094D01*
X45175Y119472D02*
Y123525D01*
X45055D02*
X45175D01*
X175986Y13308D02*
X178003D01*
X174261Y15033D02*
X175986Y13308D01*
X174261Y15033D02*
Y18090D01*
X174293Y18122D02*
X174591Y18420D01*
X174261Y18090D02*
X174293Y18122D01*
X174591Y18420D02*
Y24954D01*
X177709Y50882D02*
X180973Y54146D01*
X177667Y50882D02*
X177709D01*
X86467Y15502D02*
X89838D01*
X86453Y15488D02*
X86467Y15502D01*
X90941Y14399D02*
X96935D01*
X89838Y15502D02*
X90941Y14399D01*
X96935Y18139D02*
Y18844D01*
X100813Y22722D02*
X100913Y22822D01*
X120102D02*
X120434Y22490D01*
X170306Y18090D02*
X173433D01*
X173730Y35263D02*
X174591Y34402D01*
X171090Y44047D02*
X173730D01*
X168617Y41574D02*
X171090Y44047D01*
X173730Y35263D02*
Y40330D01*
Y44047D01*
X136052Y56405D02*
Y58680D01*
X135052Y59680D02*
X136052Y58680D01*
X167497Y133050D02*
X170193Y130354D01*
D57*
X140184Y152834D02*
Y158306D01*
X146543Y152667D02*
Y153937D01*
X133465Y158934D02*
Y164440D01*
X133437Y158906D02*
X133465Y158934D01*
X140184Y158306D02*
X146425Y164547D01*
X144059Y156421D02*
Y159031D01*
X149575Y164547D01*
X144059Y156421D02*
X146543Y153937D01*
X164925Y151610D02*
Y151698D01*
X162742Y153881D02*
X164925Y151698D01*
X158628Y153839D02*
X158670Y153881D01*
X162742D01*
X150635Y153839D02*
X153444D01*
X150635Y150579D02*
X150649Y150565D01*
X150635Y150579D02*
Y153839D01*
D58*
X184637Y100288D02*
X186948Y102599D01*
X180871Y100288D02*
X184637D01*
X186948Y102599D02*
Y104961D01*
X185026Y98320D02*
X188371Y101665D01*
X185270Y96351D02*
X193107Y104189D01*
X222513D01*
X180871Y96351D02*
X185270D01*
X180871Y98320D02*
X185026D01*
X188371Y101665D02*
Y102919D01*
X222513Y104189D02*
X227066Y99635D01*
X142425Y48846D02*
X145391D01*
X142273Y48694D02*
X142425Y48846D01*
X140965Y48694D02*
X142273D01*
X139671Y49988D02*
X140965Y48694D01*
X139671Y49988D02*
Y52030D01*
X136927Y63861D02*
X138610Y65544D01*
X144158D01*
X130184Y167960D02*
X130195Y167949D01*
X133279D01*
X103840Y179706D02*
X106981D01*
X107743Y180468D01*
X182928Y46197D02*
X185158Y43967D01*
X182928Y46197D02*
Y47296D01*
X200253Y114973D02*
X221728D01*
X196400Y111120D02*
X200253Y114973D01*
X193107Y111120D02*
X196400D01*
X192789Y96872D02*
X204847D01*
X192756Y96906D02*
X192789Y96872D01*
X188264Y92414D02*
X192756Y96906D01*
X186767Y94383D02*
X193107Y100723D01*
X180871Y94383D02*
X186767D01*
X159103Y207192D02*
X159160Y207249D01*
X159103Y204089D02*
Y207192D01*
X221728Y114973D02*
X227066Y109635D01*
X222313Y94388D02*
X227066Y89635D01*
X207331Y94388D02*
X222313D01*
X204847Y96872D02*
X207331Y94388D01*
X67798Y177303D02*
X67830Y177335D01*
X71691D01*
X137680Y173996D02*
X146425D01*
X137456D02*
X137680D01*
X142466Y170625D02*
X146204D01*
X139790Y167949D02*
X142466Y170625D01*
X137216Y167949D02*
X139790D01*
X144204Y11637D02*
X144266Y11699D01*
X146204Y170625D02*
X146425Y170847D01*
X178230Y18122D02*
X178331Y18223D01*
X136684Y120077D02*
X137647Y119114D01*
Y115615D02*
Y119114D01*
X126644Y115437D02*
X133167D01*
X144158Y109442D02*
Y114260D01*
X142803Y115615D02*
X144158Y114260D01*
X137647Y115615D02*
X142803D01*
X129909Y102257D02*
X136973D01*
X127018Y105148D02*
X129909Y102257D01*
X148064Y136518D02*
X150539D01*
X147098Y135552D02*
X148064Y136518D01*
X147098Y131126D02*
Y135552D01*
X137115Y134485D02*
X139013D01*
X140442Y133056D01*
Y131126D02*
Y133056D01*
X159906Y58921D02*
X164512Y54315D01*
X159906Y58921D02*
Y65544D01*
X167025Y55038D02*
X168663D01*
X161874Y60189D02*
X167025Y55038D01*
X159906Y65544D02*
Y72236D01*
X158440Y73702D02*
X159906Y72236D01*
X161843Y102918D02*
X161874Y102949D01*
Y109442D01*
Y116329D01*
X160256Y117947D02*
X161874Y116329D01*
X160256Y117947D02*
Y121307D01*
X159906Y65544D02*
X161874D01*
Y60189D02*
Y65544D01*
X140028Y59922D02*
X144890D01*
X146126Y61158D01*
Y65544D01*
X133357Y68219D02*
X133663Y67913D01*
X130252Y68219D02*
X133357D01*
X132697Y72729D02*
X136973D01*
X130252Y70284D02*
X132697Y72729D01*
X130252Y68219D02*
Y70284D01*
Y61107D02*
Y64282D01*
X139742Y43408D02*
X140325Y42825D01*
Y38163D02*
Y42825D01*
X149692Y28848D02*
X149779Y28935D01*
X149692Y25827D02*
Y28848D01*
X149691Y25826D02*
X149692Y25827D01*
X144266Y11699D02*
Y24260D01*
X143789Y24737D02*
X144266Y24260D01*
X75648Y151024D02*
Y154555D01*
X54648Y143555D02*
Y147587D01*
X178331Y18223D02*
Y29576D01*
X178185Y29722D02*
X178331Y29576D01*
X177667Y44047D02*
Y47719D01*
X182585Y47639D02*
X182928Y47296D01*
X93992Y90486D02*
X97483D01*
X89838Y23831D02*
X89840Y23833D01*
X89838Y19439D02*
Y23831D01*
X177667Y47719D02*
Y50882D01*
X144504Y74090D02*
X148029Y70565D01*
Y65593D02*
Y70565D01*
X155703Y44349D02*
X159174D01*
X152032Y61292D02*
Y65544D01*
X149456Y58716D02*
X152032Y61292D01*
X149456Y57357D02*
Y58716D01*
X165790Y102474D02*
X167780Y104464D01*
Y109442D01*
X152300Y44651D02*
X152602Y44349D01*
X155703D01*
X149691Y23116D02*
X149747Y23060D01*
X149691Y23116D02*
Y25826D01*
X165622Y87651D02*
X165668D01*
X150539Y130560D02*
Y136518D01*
Y130560D02*
X157511D01*
X174291Y130354D02*
Y133593D01*
X180871Y92414D02*
X188264D01*
X188371Y102919D02*
X193107Y107654D01*
X186948Y104961D02*
X193107Y111120D01*
D59*
X13405Y85159D02*
X16948Y81616D01*
X7381Y85159D02*
X13405D01*
X51057Y82090D02*
X51244Y81903D01*
Y75379D02*
Y81903D01*
X45333Y69281D02*
X45338Y69286D01*
Y75379D01*
X58878Y104548D02*
X58943Y104483D01*
X51414Y104548D02*
X58878D01*
X45452Y104604D02*
X45508Y104548D01*
X29561Y104604D02*
X45452D01*
X23030Y157281D02*
X23065Y157246D01*
X15478Y157281D02*
X23030D01*
X9561Y104604D02*
Y136658D01*
X9572Y157281D02*
X9792Y157061D01*
Y136658D02*
Y157061D01*
X178003Y8697D02*
Y13308D01*
X174345Y5039D02*
X178003Y8697D01*
X140049Y14739D02*
Y24737D01*
Y14739D02*
X140174Y14614D01*
X140189Y11715D02*
X140267Y11637D01*
X140189Y11715D02*
Y14599D01*
X140174Y14614D02*
X140189Y14599D01*
X140174Y14614D02*
Y17422D01*
X126418Y16584D02*
X126467Y16535D01*
X120434Y16584D02*
X126418D01*
X79553Y25739D02*
X79639Y25825D01*
X79553Y20516D02*
Y25739D01*
X38932Y49775D02*
X38946Y49789D01*
Y62082D01*
X45175Y115535D02*
X45218Y115492D01*
X49430D01*
X29561Y104604D02*
X37790Y96375D01*
Y82704D02*
Y96375D01*
X173433Y18090D02*
X174261D01*
X16948Y81616D02*
X19440Y84108D01*
X49180Y151524D02*
X54648D01*
X49148Y151555D02*
X49180Y151524D01*
X7381Y74135D02*
Y85159D01*
Y64687D02*
Y74135D01*
Y53663D02*
Y64687D01*
X57880Y146323D02*
X60424D01*
X54648Y147587D02*
X56617D01*
X57880Y146323D01*
X80117Y141055D02*
Y147055D01*
X75648Y147087D02*
X80148D01*
X75648Y151024D02*
X80148D01*
X73617D02*
X75648D01*
X72656Y150063D02*
X73617Y151024D01*
X69873Y150063D02*
X72656D01*
X60424D02*
X60432Y150055D01*
X64148D01*
X65148Y149055D01*
Y143555D02*
Y149055D01*
X64176Y142583D02*
X65148Y143555D01*
X60424Y142583D02*
X64176D01*
X54648Y151524D02*
X57180D01*
X58640Y150063D01*
X60424D01*
X7381Y53663D02*
X9129Y55411D01*
X15153D01*
X16948Y57206D01*
X80117Y147055D02*
X84148D01*
X19440Y84108D02*
X22805D01*
X26213Y87516D01*
X100913Y26759D02*
X106225D01*
X111572D01*
X100913Y22822D02*
X111572D01*
X96935Y18844D02*
X100813Y22722D01*
X111572Y22822D02*
X120102D01*
X112037Y12358D02*
X113663D01*
X106384Y10659D02*
X110338D01*
X111125Y11446D01*
X112037Y12358D01*
X113663Y16295D02*
X120145D01*
X182041Y13308D02*
Y24924D01*
X173730Y50882D02*
Y54270D01*
X173720Y54280D02*
X173730Y54270D01*
D60*
X207175Y131990D02*
X216871D01*
X174618Y164547D02*
X207175Y131990D01*
X168473Y164547D02*
X174618D01*
X204039Y125832D02*
X220713D01*
X165323Y164547D02*
X204039Y125832D01*
X81559Y173610D02*
X88197Y180248D01*
X146275Y186444D02*
X146425Y186595D01*
X191164Y167697D02*
X216871Y141990D01*
X168473Y167697D02*
X191164D01*
X165323Y170847D02*
X165324Y170846D01*
X198015Y170847D02*
X216871Y151990D01*
X168473Y170847D02*
X198015D01*
X165323Y173996D02*
X165325Y173994D01*
X220713Y125832D02*
X226871Y131990D01*
X204865Y173996D02*
X216871Y161990D01*
X168473Y173996D02*
X204865D01*
X211715Y177146D02*
X216871Y171990D01*
X168473Y177146D02*
X211715D01*
X216824Y182037D02*
X216871Y181990D01*
X170214Y182037D02*
X216824D01*
X168473Y180296D02*
X170214Y182037D01*
X168473Y183445D02*
X172879Y187852D01*
X222733D02*
X226871Y191990D01*
X172879Y187852D02*
X222733D01*
X165323Y183445D02*
X165326Y183448D01*
X168473Y186595D02*
X179730Y197852D01*
X222733D02*
X226871Y201990D01*
X179730Y197852D02*
X222733D01*
X180719Y201990D02*
X216871D01*
X165323Y186595D02*
X180719Y201990D01*
D61*
X34265Y55411D02*
X34302Y55374D01*
X31381Y55411D02*
X34265D01*
X31417Y83377D02*
X33886D01*
X22569Y74529D02*
X31417Y83377D01*
X17814Y74529D02*
X22569D01*
X17814Y64293D02*
X22499D01*
X31381Y55411D01*
D62*
X155874Y170859D02*
X155881Y170853D01*
X155867Y167690D02*
X155874Y167697D01*
Y170847D01*
Y170859D02*
Y173996D01*
X145148Y195420D02*
Y202270D01*
Y195420D02*
X145205Y195363D01*
X141646D02*
X145205D01*
X155874Y173996D02*
X159024D01*
X155874Y170847D02*
X155881Y170853D01*
X165401Y198450D02*
X165478Y198527D01*
X162099Y198450D02*
X165401D01*
X162099D02*
Y202044D01*
D63*
X140086Y57434D02*
Y59864D01*
X140028Y59922D02*
X140086Y59864D01*
X135805Y47617D02*
Y51959D01*
Y43408D02*
Y47617D01*
X135734Y52030D02*
X135805Y51959D01*
X135638Y43241D02*
X135805Y43408D01*
X135638Y40714D02*
Y43241D01*
Y40714D02*
X136309Y40043D01*
Y34185D02*
Y40043D01*
X173730Y44047D02*
Y47719D01*
X148761Y53942D02*
Y56662D01*
X149456Y57357D01*
X149328Y48846D02*
Y53375D01*
X148761Y53942D02*
X149328Y53375D01*
D64*
X225598Y19188D02*
D03*
Y9188D02*
D03*
X215598Y19188D02*
D03*
X19561Y104604D02*
D03*
X9561D02*
D03*
X9792Y136658D02*
D03*
D65*
X215598Y9188D02*
D03*
X29561Y104604D02*
D03*
X19792Y136658D02*
D03*
D66*
X39360Y205952D02*
D03*
Y195952D02*
D03*
X29360Y205952D02*
D03*
Y195952D02*
D03*
X9360Y205952D02*
D03*
X19360Y195952D02*
D03*
Y205952D02*
D03*
X49360Y195952D02*
D03*
Y205952D02*
D03*
X59360Y195952D02*
D03*
X69360D02*
D03*
X59360Y205952D02*
D03*
X69360D02*
D03*
X216871Y181990D02*
D03*
X226871D02*
D03*
X216871Y171990D02*
D03*
X226871D02*
D03*
X216871Y141990D02*
D03*
X226871D02*
D03*
X216871Y131990D02*
D03*
X226871Y151990D02*
D03*
X216871D02*
D03*
X226871Y161990D02*
D03*
X216871D02*
D03*
X226871Y191990D02*
D03*
Y201990D02*
D03*
X216871Y191990D02*
D03*
Y201990D02*
D03*
X217066Y89635D02*
D03*
X227066D02*
D03*
X217066Y79635D02*
D03*
X227066D02*
D03*
X217066Y49635D02*
D03*
X227066D02*
D03*
X217066Y39635D02*
D03*
X227066Y59635D02*
D03*
X217066D02*
D03*
X227066Y69635D02*
D03*
X217066D02*
D03*
X227066Y99635D02*
D03*
Y109635D02*
D03*
X217066Y99635D02*
D03*
Y109635D02*
D03*
X41991Y8576D02*
D03*
Y18576D02*
D03*
X51991Y8576D02*
D03*
Y18576D02*
D03*
X71991Y8576D02*
D03*
X61991Y18576D02*
D03*
Y8576D02*
D03*
X31991Y18576D02*
D03*
Y8576D02*
D03*
X21991Y18576D02*
D03*
X11991D02*
D03*
X21991Y8576D02*
D03*
X11991D02*
D03*
D67*
X9360Y195952D02*
D03*
X71991Y18576D02*
D03*
D68*
X226871Y131990D02*
D03*
X227066Y39635D02*
D03*
D69*
X161342Y135106D02*
D03*
D70*
X200739Y121646D02*
D03*
X175875Y141824D02*
D03*
X190455Y128936D02*
D03*
X205035Y208996D02*
D03*
X189804Y208215D02*
D03*
X200609Y193765D02*
D03*
X196574Y185044D02*
D03*
X198917Y163173D02*
D03*
X193970Y149114D02*
D03*
X195662Y139090D02*
D03*
X203473Y110320D02*
D03*
X201260Y90403D02*
D03*
X45333Y69281D02*
D03*
X159160Y207249D02*
D03*
X198805Y57787D02*
D03*
X67798Y177303D02*
D03*
X78740Y177454D02*
D03*
X113625Y156571D02*
D03*
X122009Y160363D02*
D03*
X117974Y210827D02*
D03*
X174345Y5039D02*
D03*
X164480Y24140D02*
D03*
X38932Y49775D02*
D03*
X126692Y173862D02*
D03*
X169078Y121828D02*
D03*
X126644Y115437D02*
D03*
X136684Y120077D02*
D03*
X127018Y105148D02*
D03*
X152249Y101779D02*
D03*
X116906Y134268D02*
D03*
X76213Y109285D02*
D03*
X84775Y130369D02*
D03*
X81274Y118848D02*
D03*
X190628Y13811D02*
D03*
X194660Y24362D02*
D03*
X190628Y34286D02*
D03*
X193107Y114586D02*
D03*
Y107654D02*
D03*
Y100723D02*
D03*
Y93791D02*
D03*
X193175Y84213D02*
D03*
Y77281D02*
D03*
Y70349D02*
D03*
X174002Y58798D02*
D03*
X180973Y54146D02*
D03*
X178150Y60769D02*
D03*
X158440Y73702D02*
D03*
X161843Y102918D02*
D03*
X164176Y125148D02*
D03*
X157969Y103011D02*
D03*
X133663Y67913D02*
D03*
X136927Y63861D02*
D03*
X130252Y61107D02*
D03*
X140028Y59922D02*
D03*
X142273Y48694D02*
D03*
X135805Y47617D02*
D03*
X140325Y38163D02*
D03*
X144165Y79987D02*
D03*
X146100Y82228D02*
D03*
X124568Y80564D02*
D03*
X120675Y77224D02*
D03*
X124900Y76099D02*
D03*
X121814Y72791D02*
D03*
X173720Y54280D02*
D03*
X54648Y143555D02*
D03*
X75648Y154555D02*
D03*
X109857Y72421D02*
D03*
Y58914D02*
D03*
Y81392D02*
D03*
Y85878D02*
D03*
Y63454D02*
D03*
Y90363D02*
D03*
X182928Y47296D02*
D03*
X143770Y134525D02*
D03*
X137115Y134485D02*
D03*
X97483Y90486D02*
D03*
X169031Y75513D02*
D03*
X172476Y72290D02*
D03*
X175366Y70920D02*
D03*
X165933Y84034D02*
D03*
X79639Y25825D02*
D03*
X86453Y15488D02*
D03*
X89840Y23833D02*
D03*
X106225Y26759D02*
D03*
X111125Y11446D02*
D03*
X178185Y29722D02*
D03*
X170306Y18090D02*
D03*
X168617Y41574D02*
D03*
X135052Y59680D02*
D03*
X144504Y74090D02*
D03*
X160176Y54767D02*
D03*
X148761Y53942D02*
D03*
X162316Y78171D02*
D03*
X166513Y72426D02*
D03*
X177380Y118751D02*
D03*
X172913Y119426D02*
D03*
X165918Y117009D02*
D03*
X165790Y102474D02*
D03*
X154672Y94640D02*
D03*
X154168Y81629D02*
D03*
X162394Y94268D02*
D03*
X167497Y133050D02*
D03*
X165922Y45669D02*
D03*
X155640Y52457D02*
D03*
X152300Y44651D02*
D03*
X149747Y23060D02*
D03*
X165668Y87651D02*
D03*
X150539Y136518D02*
D03*
X146126Y102090D02*
D03*
X174291Y133593D02*
D03*
X88456Y122081D02*
D03*
X194751Y41976D02*
D03*
D71*
X49148Y151555D02*
D03*
X84148Y147055D02*
D03*
X26213Y87516D02*
D03*
M02*
