G04*
G04 #@! TF.GenerationSoftware,Altium Limited,Altium NEXUS,3.1.12 (69)*
G04*
G04 Layer_Physical_Order=4*
G04 Layer_Color=16711680*
%FSLAX25Y25*%
%MOIN*%
G70*
G04*
G04 #@! TF.SameCoordinates,C12BC461-16F2-471F-B13C-3D38B02939EA*
G04*
G04*
G04 #@! TF.FilePolarity,Positive*
G04*
G01*
G75*
%ADD13C,0.00787*%
%ADD16C,0.00000*%
%ADD18R,0.03150X0.03150*%
%ADD21C,0.01378*%
%ADD24R,0.03150X0.03150*%
%ADD53R,0.01968X0.01968*%
%ADD54R,0.01968X0.01968*%
%ADD55C,0.00591*%
%ADD56C,0.01200*%
%ADD58C,0.00800*%
%ADD59C,0.02000*%
%ADD60C,0.00600*%
%ADD62C,0.01000*%
%ADD63C,0.01600*%
%ADD64C,0.05906*%
%ADD65R,0.05906X0.05906*%
%ADD66C,0.06496*%
%ADD67R,0.06496X0.06496*%
%ADD68R,0.06496X0.06496*%
%ADD69C,0.03543*%
%ADD70C,0.02362*%
%ADD71C,0.03150*%
%ADD83R,0.01102X0.01181*%
%ADD84R,0.07087X0.07874*%
%ADD85R,0.04134X0.02362*%
G36*
X178687Y23936D02*
X180660Y21963D01*
Y4897D01*
Y4207D01*
X179379Y2926D01*
X92633Y2926D01*
X82195Y13364D01*
X82199Y13864D01*
X86453D01*
X86918Y13957D01*
X87312Y14220D01*
X87348Y14274D01*
X87854D01*
Y13518D01*
X89338D01*
Y15502D01*
X89838D01*
Y16002D01*
X91822D01*
Y17486D01*
X91707D01*
X91413Y17864D01*
X91413Y17986D01*
Y21014D01*
X90848D01*
Y22376D01*
X91118Y22556D01*
X91509Y23142D01*
X91646Y23833D01*
X91509Y24524D01*
X91118Y25110D01*
X90531Y25502D01*
X89840Y25639D01*
X89149Y25502D01*
X88563Y25110D01*
X88171Y24524D01*
X88034Y23833D01*
X88171Y23142D01*
X88563Y22556D01*
X88828Y22378D01*
Y21014D01*
X88263D01*
Y17986D01*
X88263Y17864D01*
X87969Y17486D01*
X87854D01*
Y16702D01*
X86453D01*
X85989Y16610D01*
X85595Y16346D01*
X85558Y16292D01*
X82192D01*
Y17865D01*
X81691D01*
Y19030D01*
X81783D01*
Y23361D01*
X81691D01*
Y27519D01*
X104060D01*
X104471Y27019D01*
X104419Y26759D01*
X104556Y26068D01*
X104948Y25482D01*
X105534Y25090D01*
X106225Y24953D01*
X106916Y25090D01*
X107502Y25482D01*
X107894Y26068D01*
X108031Y26759D01*
X107980Y27019D01*
X108390Y27519D01*
X175104Y27519D01*
X178687Y23936D01*
D02*
G37*
G36*
X233041Y212515D02*
X233163Y3897D01*
X232809Y3543D01*
X181553D01*
X181231Y4043D01*
X181299Y4207D01*
Y4897D01*
Y21963D01*
X181112Y22415D01*
X179139Y24388D01*
X175556Y27971D01*
X175104Y28158D01*
X108390Y28158D01*
X108359Y28146D01*
X108327Y28155D01*
X108137Y28054D01*
X107938Y27971D01*
X107925Y27940D01*
X107896Y27924D01*
X107486Y27424D01*
X107476Y27393D01*
X107448Y27374D01*
X107406Y27163D01*
X107344Y26956D01*
X107359Y26927D01*
X107353Y26894D01*
X107380Y26759D01*
X107292Y26317D01*
X107042Y25943D01*
X106667Y25692D01*
X106225Y25605D01*
X105783Y25692D01*
X105409Y25943D01*
X105158Y26317D01*
X105070Y26759D01*
X105097Y26894D01*
X105091Y26927D01*
X105107Y26956D01*
X105044Y27163D01*
X105002Y27374D01*
X104974Y27393D01*
X104965Y27424D01*
X104554Y27924D01*
X104525Y27940D01*
X104512Y27971D01*
X104313Y28054D01*
X104123Y28155D01*
X104091Y28146D01*
X104060Y28158D01*
X81691D01*
X81239Y27971D01*
X81082Y27593D01*
X80843Y27446D01*
X80552Y27346D01*
X80330Y27494D01*
X79639Y27631D01*
X78948Y27494D01*
X78362Y27102D01*
X77970Y26516D01*
X77833Y25825D01*
X77970Y25134D01*
X77996Y25096D01*
Y23361D01*
X77452D01*
Y19030D01*
X81052D01*
Y17865D01*
X80778Y17456D01*
X77452D01*
Y13125D01*
X81655D01*
X81739Y12916D01*
X81742Y12915D01*
X81743Y12912D01*
X90650Y4005D01*
X90459Y3543D01*
X2500D01*
X2472Y212161D01*
X2826Y212515D01*
X233041Y212515D01*
D02*
G37*
%LPC*%
G36*
X149747Y24866D02*
X149056Y24729D01*
X148470Y24337D01*
X148078Y23751D01*
X147941Y23060D01*
X148078Y22369D01*
X148470Y21783D01*
X149056Y21391D01*
X149747Y21254D01*
X150438Y21391D01*
X151024Y21783D01*
X151416Y22369D01*
X151553Y23060D01*
X151416Y23751D01*
X151024Y24337D01*
X150438Y24729D01*
X149747Y24866D01*
D02*
G37*
G36*
X170306Y19094D02*
X169922Y19017D01*
X169597Y18800D01*
X169379Y18474D01*
X169303Y18090D01*
X169379Y17706D01*
X169597Y17380D01*
X170074Y16903D01*
X170399Y16686D01*
X170783Y16610D01*
X171167Y16686D01*
X171493Y16903D01*
X171710Y17229D01*
X171787Y17613D01*
X171710Y17997D01*
X171493Y18323D01*
X171016Y18800D01*
X170690Y19017D01*
X170306Y19094D01*
D02*
G37*
G36*
X126467Y17840D02*
X125968Y17740D01*
X125545Y17458D01*
X125262Y17034D01*
X125163Y16535D01*
X125262Y16036D01*
X125545Y15613D01*
X125968Y15330D01*
X126467Y15230D01*
X126966Y15330D01*
X127390Y15613D01*
X127673Y16036D01*
X127772Y16535D01*
X127673Y17034D01*
X127390Y17458D01*
X126966Y17740D01*
X126467Y17840D01*
D02*
G37*
G36*
X133851Y16372D02*
X133352Y16272D01*
X132929Y15990D01*
X132646Y15566D01*
X132547Y15067D01*
X132646Y14568D01*
X132929Y14145D01*
X133352Y13862D01*
X133851Y13762D01*
X134350Y13862D01*
X134774Y14145D01*
X135056Y14568D01*
X135156Y15067D01*
X135056Y15566D01*
X134774Y15990D01*
X134350Y16272D01*
X133851Y16372D01*
D02*
G37*
G36*
X91822Y15002D02*
X90338D01*
Y13518D01*
X91822D01*
Y15002D01*
D02*
G37*
G36*
X140189Y15904D02*
X139690Y15804D01*
X139267Y15521D01*
X138984Y15098D01*
X138885Y14599D01*
X138984Y14100D01*
X139267Y13677D01*
X139690Y13394D01*
X140189Y13295D01*
X140688Y13394D01*
X141112Y13677D01*
X141394Y14100D01*
X141494Y14599D01*
X141394Y15098D01*
X141112Y15521D01*
X140688Y15804D01*
X140189Y15904D01*
D02*
G37*
G36*
X111125Y13252D02*
X110434Y13115D01*
X109848Y12723D01*
X109456Y12137D01*
X109319Y11446D01*
X109456Y10755D01*
X109848Y10169D01*
X110434Y9777D01*
X111125Y9640D01*
X111816Y9777D01*
X112402Y10169D01*
X112794Y10755D01*
X112932Y11446D01*
X112794Y12137D01*
X112402Y12723D01*
X111816Y13115D01*
X111125Y13252D01*
D02*
G37*
G36*
X69860Y210171D02*
Y206452D01*
X73579D01*
X73499Y207061D01*
X73071Y208094D01*
X72390Y208982D01*
X71503Y209663D01*
X70469Y210091D01*
X69860Y210171D01*
D02*
G37*
G36*
X68860D02*
X68251Y210091D01*
X67218Y209663D01*
X66330Y208982D01*
X65649Y208094D01*
X65222Y207061D01*
X65141Y206452D01*
X68860D01*
Y210171D01*
D02*
G37*
G36*
X159160Y209055D02*
X158469Y208918D01*
X157883Y208526D01*
X157491Y207940D01*
X157354Y207249D01*
X157491Y206558D01*
X157883Y205972D01*
X158469Y205580D01*
X159160Y205443D01*
X159851Y205580D01*
X160438Y205972D01*
X160829Y206558D01*
X160967Y207249D01*
X160829Y207940D01*
X160438Y208526D01*
X159851Y208918D01*
X159160Y209055D01*
D02*
G37*
G36*
X122508Y208351D02*
X118464D01*
Y203914D01*
X122508D01*
Y208351D01*
D02*
G37*
G36*
X117464D02*
X113421D01*
Y203914D01*
X117464D01*
Y208351D01*
D02*
G37*
G36*
X59360Y209824D02*
X58358Y209692D01*
X57424Y209305D01*
X56622Y208690D01*
X56007Y207888D01*
X55620Y206954D01*
X55489Y205952D01*
X55620Y204950D01*
X56007Y204016D01*
X56622Y203214D01*
X57424Y202599D01*
X58358Y202212D01*
X59360Y202080D01*
X60362Y202212D01*
X61296Y202599D01*
X62098Y203214D01*
X62713Y204016D01*
X63100Y204950D01*
X63232Y205952D01*
X63100Y206954D01*
X62713Y207888D01*
X62098Y208690D01*
X61296Y209305D01*
X60362Y209692D01*
X59360Y209824D01*
D02*
G37*
G36*
X49360D02*
X48358Y209692D01*
X47424Y209305D01*
X46622Y208690D01*
X46007Y207888D01*
X45620Y206954D01*
X45489Y205952D01*
X45620Y204950D01*
X46007Y204016D01*
X46622Y203214D01*
X47424Y202599D01*
X48358Y202212D01*
X49360Y202080D01*
X50362Y202212D01*
X51296Y202599D01*
X52098Y203214D01*
X52713Y204016D01*
X53100Y204950D01*
X53232Y205952D01*
X53100Y206954D01*
X52713Y207888D01*
X52098Y208690D01*
X51296Y209305D01*
X50362Y209692D01*
X49360Y209824D01*
D02*
G37*
G36*
X39360D02*
X38358Y209692D01*
X37424Y209305D01*
X36623Y208690D01*
X36007Y207888D01*
X35620Y206954D01*
X35489Y205952D01*
X35620Y204950D01*
X36007Y204016D01*
X36623Y203214D01*
X37424Y202599D01*
X38358Y202212D01*
X39360Y202080D01*
X40362Y202212D01*
X41296Y202599D01*
X42098Y203214D01*
X42713Y204016D01*
X43100Y204950D01*
X43232Y205952D01*
X43100Y206954D01*
X42713Y207888D01*
X42098Y208690D01*
X41296Y209305D01*
X40362Y209692D01*
X39360Y209824D01*
D02*
G37*
G36*
X9360D02*
X8358Y209692D01*
X7424Y209305D01*
X6622Y208690D01*
X6007Y207888D01*
X5620Y206954D01*
X5488Y205952D01*
X5620Y204950D01*
X6007Y204016D01*
X6622Y203214D01*
X7424Y202599D01*
X8358Y202212D01*
X9360Y202080D01*
X10362Y202212D01*
X11296Y202599D01*
X12098Y203214D01*
X12713Y204016D01*
X13100Y204950D01*
X13232Y205952D01*
X13100Y206954D01*
X12713Y207888D01*
X12098Y208690D01*
X11296Y209305D01*
X10362Y209692D01*
X9360Y209824D01*
D02*
G37*
G36*
X73579Y205452D02*
X69860D01*
Y201733D01*
X70469Y201813D01*
X71503Y202241D01*
X72390Y202922D01*
X73071Y203810D01*
X73499Y204843D01*
X73579Y205452D01*
D02*
G37*
G36*
X68860D02*
X65141D01*
X65222Y204843D01*
X65649Y203810D01*
X66330Y202922D01*
X67218Y202241D01*
X68251Y201813D01*
X68860Y201733D01*
Y205452D01*
D02*
G37*
G36*
X102098Y207877D02*
X93830D01*
Y200797D01*
X88618D01*
X88591Y200815D01*
X88451Y200843D01*
Y201531D01*
X85301D01*
Y201531D01*
X84970Y201556D01*
Y201556D01*
X84812Y201556D01*
X81820D01*
Y198406D01*
X84970D01*
Y198406D01*
X85301Y198381D01*
Y198381D01*
X85460Y198381D01*
X88451D01*
Y198991D01*
X93830D01*
Y198822D01*
X102098D01*
Y207877D01*
D02*
G37*
G36*
X122508Y202914D02*
X118464D01*
Y198477D01*
X122508D01*
Y202914D01*
D02*
G37*
G36*
X117464D02*
X113421D01*
Y198477D01*
X117464D01*
Y202914D01*
D02*
G37*
G36*
X226871Y205862D02*
X225869Y205730D01*
X224935Y205343D01*
X224133Y204728D01*
X223518Y203926D01*
X223131Y202992D01*
X223000Y201990D01*
X223131Y200988D01*
X223518Y200054D01*
X224133Y199252D01*
X224935Y198637D01*
X225869Y198250D01*
X226871Y198118D01*
X227873Y198250D01*
X228807Y198637D01*
X229609Y199252D01*
X230224Y200054D01*
X230611Y200988D01*
X230743Y201990D01*
X230611Y202992D01*
X230224Y203926D01*
X229609Y204728D01*
X228807Y205343D01*
X227873Y205730D01*
X226871Y205862D01*
D02*
G37*
G36*
X216871D02*
X215869Y205730D01*
X214935Y205343D01*
X214134Y204728D01*
X213518Y203926D01*
X213131Y202992D01*
X213000Y201990D01*
X213131Y200988D01*
X213518Y200054D01*
X214134Y199252D01*
X214935Y198637D01*
X215869Y198250D01*
X216871Y198118D01*
X217873Y198250D01*
X218807Y198637D01*
X219609Y199252D01*
X220224Y200054D01*
X220611Y200988D01*
X220743Y201990D01*
X220611Y202992D01*
X220224Y203926D01*
X219609Y204728D01*
X218807Y205343D01*
X217873Y205730D01*
X216871Y205862D01*
D02*
G37*
G36*
X29360Y209824D02*
X28358Y209692D01*
X27424Y209305D01*
X26623Y208690D01*
X26007Y207888D01*
X25620Y206954D01*
X25488Y205952D01*
X25620Y204950D01*
X26007Y204016D01*
X26623Y203214D01*
X27424Y202599D01*
X28358Y202212D01*
X29360Y202080D01*
X30362Y202212D01*
X31296Y202599D01*
X31375Y202660D01*
X33576Y200459D01*
Y197053D01*
X33100Y196954D01*
X32713Y197888D01*
X32098Y198690D01*
X31296Y199305D01*
X30362Y199692D01*
X29360Y199824D01*
X28358Y199692D01*
X27424Y199305D01*
X26623Y198690D01*
X26007Y197888D01*
X25620Y196954D01*
X25608Y196863D01*
X25108Y196895D01*
Y201107D01*
X25040Y201453D01*
X24844Y201746D01*
X24844Y201746D01*
X22652Y203937D01*
X22713Y204016D01*
X23100Y204950D01*
X23232Y205952D01*
X23100Y206954D01*
X22713Y207888D01*
X22098Y208690D01*
X21296Y209305D01*
X20362Y209692D01*
X19360Y209824D01*
X18358Y209692D01*
X17424Y209305D01*
X16623Y208690D01*
X16007Y207888D01*
X15620Y206954D01*
X15488Y205952D01*
X15620Y204950D01*
X16007Y204016D01*
X16623Y203214D01*
X17424Y202599D01*
X18358Y202212D01*
X19360Y202080D01*
X20362Y202212D01*
X21296Y202599D01*
X21375Y202660D01*
X23302Y200733D01*
Y197773D01*
X22802Y197673D01*
X22713Y197888D01*
X22098Y198690D01*
X21296Y199305D01*
X20362Y199692D01*
X19360Y199824D01*
X18358Y199692D01*
X17424Y199305D01*
X16623Y198690D01*
X16007Y197888D01*
X15620Y196954D01*
X15488Y195952D01*
X15620Y194950D01*
X16007Y194016D01*
X16623Y193214D01*
X17424Y192599D01*
X18358Y192212D01*
X19360Y192080D01*
X20362Y192212D01*
X21296Y192599D01*
X22098Y193214D01*
X22713Y194016D01*
X22802Y194231D01*
X23302Y194131D01*
Y189864D01*
X23371Y189518D01*
X23566Y189225D01*
X28286Y184506D01*
X28286Y184506D01*
X28578Y184311D01*
X28924Y184242D01*
X69924D01*
X70270Y184311D01*
X70563Y184506D01*
X76098Y190042D01*
X77627D01*
Y189370D01*
X78299D01*
Y188745D01*
X78368Y188399D01*
X78563Y188106D01*
X94365Y172305D01*
X94657Y172110D01*
X95003Y172041D01*
X97343D01*
X97550Y171541D01*
X95346Y169337D01*
X95323Y169342D01*
X94824Y169242D01*
X94401Y168959D01*
X94118Y168536D01*
X94019Y168037D01*
X94118Y167538D01*
X94147Y167494D01*
X93880Y166994D01*
X60312D01*
X60299Y167014D01*
X59875Y167296D01*
X59376Y167396D01*
X58877Y167296D01*
X58454Y167014D01*
X58171Y166590D01*
X58072Y166091D01*
X58171Y165592D01*
X58454Y165169D01*
X58877Y164886D01*
X59376Y164786D01*
X59875Y164886D01*
X60299Y165169D01*
X60312Y165188D01*
X81710D01*
X81723Y165175D01*
X81932Y164688D01*
X81755Y164423D01*
X81656Y163924D01*
X81755Y163425D01*
X82038Y163002D01*
X82461Y162719D01*
X82960Y162619D01*
X83459Y162719D01*
X83883Y163002D01*
X83896Y163021D01*
X86454D01*
X98269Y151206D01*
X98269Y151206D01*
X98562Y151011D01*
X98907Y150942D01*
X98907Y150942D01*
X104944D01*
X105096Y150442D01*
X104850Y150277D01*
X104567Y149854D01*
X104468Y149355D01*
X104567Y148856D01*
X104850Y148433D01*
X105273Y148150D01*
X105772Y148050D01*
X105865Y148069D01*
X107168Y146765D01*
X107462Y146570D01*
X107807Y146501D01*
X140139D01*
Y145829D01*
X143289D01*
Y148979D01*
X142739D01*
Y150056D01*
X143239Y150405D01*
X143467Y150359D01*
X143966Y150459D01*
X144247Y150647D01*
X144705Y150463D01*
X144747Y150425D01*
Y148979D01*
X144076D01*
Y145829D01*
X147225D01*
Y148979D01*
X146554D01*
Y151373D01*
X146554Y151374D01*
X147053Y151473D01*
X147477Y151756D01*
X147759Y152179D01*
X147859Y152678D01*
X147759Y153177D01*
X147477Y153601D01*
X147053Y153883D01*
X146554Y153983D01*
X146055Y153883D01*
X145632Y153601D01*
X145349Y153177D01*
X145250Y152678D01*
X144845Y152436D01*
X144840Y152435D01*
X144458Y152484D01*
X144390Y152586D01*
X144370Y152599D01*
Y157638D01*
X150972Y164239D01*
X151514Y164075D01*
X151520Y164048D01*
X151802Y163625D01*
X151822Y163612D01*
Y162262D01*
X151538D01*
Y159900D01*
X155298Y159900D01*
X155322D01*
D01*
X155369Y159900D01*
X155576Y159400D01*
X153641Y157466D01*
X153446Y157173D01*
X153377Y156827D01*
Y150708D01*
X152172Y150708D01*
X151855Y151064D01*
X151809Y151132D01*
X151572Y151488D01*
X151148Y151770D01*
X150649Y151870D01*
X150150Y151770D01*
X149727Y151488D01*
X149444Y151064D01*
X149345Y150565D01*
X149444Y150066D01*
X149727Y149643D01*
X150150Y149360D01*
X150649Y149260D01*
X151148Y149360D01*
X151492Y149590D01*
X151794Y149500D01*
X151992Y149372D01*
Y147680D01*
X151992Y147558D01*
X151698Y147180D01*
X151583D01*
Y145696D01*
X153567D01*
Y145196D01*
X154067D01*
Y143212D01*
X155551D01*
Y143220D01*
X156101D01*
Y145204D01*
X157101D01*
Y143220D01*
X157694D01*
Y143185D01*
X159178D01*
Y145169D01*
X160178D01*
Y143185D01*
X160858D01*
Y143038D01*
X162342D01*
Y145022D01*
X162842D01*
Y145522D01*
X164826D01*
Y147006D01*
X164712D01*
X164417Y147384D01*
X164417Y147506D01*
Y149897D01*
X164917Y150307D01*
X164925Y150305D01*
X165424Y150405D01*
X165848Y150688D01*
X166130Y151111D01*
X166230Y151610D01*
X166130Y152109D01*
X165848Y152532D01*
X165424Y152815D01*
X164925Y152915D01*
X164426Y152815D01*
X164003Y152532D01*
X163720Y152109D01*
X163621Y151610D01*
X163705Y151185D01*
X163537Y150934D01*
X163355Y150757D01*
X163092Y150823D01*
Y163585D01*
X163152Y163625D01*
X163435Y164048D01*
X163534Y164548D01*
X163435Y165047D01*
X163152Y165470D01*
X162729Y165753D01*
X162675Y165763D01*
X162538Y165895D01*
X162409Y166326D01*
X162524Y166481D01*
X162657Y166508D01*
X163080Y166791D01*
X163363Y167214D01*
X163462Y167713D01*
X163363Y168212D01*
X163080Y168635D01*
X162657Y168918D01*
X162484Y169463D01*
X162561Y169616D01*
X162675Y169639D01*
X163099Y169922D01*
X163381Y170345D01*
X163481Y170844D01*
X163381Y171343D01*
X163099Y171766D01*
X162675Y172049D01*
X162176Y172149D01*
X161677Y172049D01*
X161505Y171935D01*
X161461Y171905D01*
X161397Y171878D01*
X161162Y172164D01*
D01*
X161095Y172246D01*
X161119Y172289D01*
X162812Y173982D01*
X163008Y174275D01*
X163077Y174620D01*
X163077Y174620D01*
Y176210D01*
X163096Y176223D01*
X163379Y176647D01*
X163478Y177146D01*
X163379Y177645D01*
X163096Y178068D01*
X162673Y178351D01*
X162422Y178911D01*
X162485Y179057D01*
X162677Y179095D01*
X163101Y179378D01*
X163383Y179801D01*
X163483Y180300D01*
X163383Y180799D01*
X163101Y181222D01*
X162677Y181505D01*
X162178Y181605D01*
X161679Y181505D01*
X161256Y181222D01*
X160973Y180799D01*
X160874Y180300D01*
X160878Y180277D01*
X157666Y177065D01*
X157488Y177095D01*
X157156Y177262D01*
X157080Y177645D01*
X156797Y178068D01*
X156374Y178351D01*
X155874Y178450D01*
X155375Y178351D01*
X154952Y178068D01*
X154669Y177645D01*
X154570Y177146D01*
X154574Y177123D01*
X153926Y176474D01*
X151221D01*
X150846Y176974D01*
X150880Y177146D01*
X150780Y177645D01*
X150498Y178068D01*
X150074Y178351D01*
X149575Y178450D01*
X149076Y178351D01*
X148653Y178068D01*
X148640Y178049D01*
X142847D01*
X142647Y178249D01*
X142354Y178445D01*
X142009Y178513D01*
X135270D01*
X134924Y178445D01*
X134632Y178249D01*
X128410Y172027D01*
X123101D01*
X122894Y172527D01*
X129759Y179392D01*
X148640D01*
X148653Y179373D01*
X149076Y179090D01*
X149575Y178991D01*
X150074Y179090D01*
X150498Y179373D01*
X150780Y179796D01*
X150880Y180296D01*
X150841Y180490D01*
X151206Y180990D01*
X153903D01*
X154574Y180318D01*
X154570Y180296D01*
X154669Y179796D01*
X154952Y179373D01*
X155375Y179090D01*
X155874Y178991D01*
X156374Y179090D01*
X156797Y179373D01*
X157080Y179796D01*
X157179Y180296D01*
X157080Y180795D01*
X156797Y181218D01*
X156374Y181501D01*
X156190Y181537D01*
X156127Y181681D01*
X156374Y182240D01*
X156797Y182523D01*
X157080Y182946D01*
X157638Y183192D01*
X157782Y183130D01*
X157819Y182946D01*
X158101Y182523D01*
X158525Y182240D01*
X159024Y182141D01*
X159523Y182240D01*
X159947Y182523D01*
X160229Y182946D01*
X160329Y183445D01*
X160229Y183944D01*
X159947Y184368D01*
X159523Y184650D01*
X159339Y184687D01*
X159277Y184831D01*
X159523Y185389D01*
X159947Y185672D01*
X160229Y186095D01*
X160329Y186595D01*
X160229Y187094D01*
X159947Y187517D01*
X159523Y187800D01*
X159024Y187899D01*
X158525Y187800D01*
X158379Y187703D01*
X158268Y187680D01*
X158257Y187680D01*
X157802Y187884D01*
X157796Y187891D01*
X157604Y188178D01*
X157604Y188178D01*
X150717Y195065D01*
Y196938D01*
X147567D01*
Y193788D01*
X149440D01*
X149767Y193461D01*
X149575Y192999D01*
X142572D01*
X141960Y193611D01*
X142125Y194154D01*
X142145Y194158D01*
X142285Y194251D01*
X143630D01*
Y193788D01*
X146780D01*
Y196938D01*
X143630D01*
Y196475D01*
X142285D01*
X142145Y196568D01*
X141646Y196668D01*
X141147Y196568D01*
X140724Y196285D01*
X140441Y195862D01*
X140437Y195842D01*
X139894Y195677D01*
X129342Y206229D01*
X129049Y206425D01*
X128704Y206494D01*
X128687D01*
X128637Y206570D01*
X128213Y206852D01*
X127714Y206952D01*
X127215Y206852D01*
X126792Y206570D01*
X126509Y206146D01*
X126410Y205647D01*
X126509Y205148D01*
X126792Y204725D01*
X127215Y204442D01*
X127714Y204343D01*
X128213Y204442D01*
X128430Y204587D01*
X129425Y203592D01*
X129217Y203092D01*
X128697D01*
X128684Y203112D01*
X128260Y203394D01*
X127761Y203494D01*
X127262Y203394D01*
X126839Y203112D01*
X126556Y202688D01*
X126457Y202189D01*
X126556Y201690D01*
X126839Y201267D01*
X127262Y200984D01*
X127761Y200884D01*
X128260Y200984D01*
X128684Y201267D01*
X128697Y201286D01*
X129502D01*
X139783Y191005D01*
X139619Y190462D01*
X139541Y190447D01*
X133134Y196854D01*
X132841Y197049D01*
X132495Y197118D01*
X129829D01*
X129697Y197317D01*
X129273Y197599D01*
X128774Y197699D01*
X128275Y197599D01*
X127852Y197317D01*
X127569Y196893D01*
X127470Y196394D01*
X127569Y195895D01*
X127852Y195472D01*
X128275Y195189D01*
X128774Y195089D01*
X129273Y195189D01*
X129458Y195312D01*
X132121D01*
X138806Y188626D01*
X138806Y188626D01*
X139100Y188431D01*
X139445Y188362D01*
X143381D01*
X146487Y185256D01*
X146471Y185125D01*
X146290Y184746D01*
X145926Y184673D01*
X145503Y184390D01*
X145475Y184348D01*
X142934D01*
X139830Y187453D01*
X139537Y187648D01*
X139191Y187717D01*
X122098D01*
Y191342D01*
X113830D01*
Y182287D01*
X122098D01*
Y185911D01*
X138817D01*
X141432Y183296D01*
X141225Y182796D01*
X127996D01*
X127650Y182727D01*
X127357Y182532D01*
X120747Y175921D01*
X97114D01*
X97031Y176336D01*
X96749Y176760D01*
X96325Y177042D01*
X95826Y177142D01*
X95327Y177042D01*
X94904Y176760D01*
X94621Y176336D01*
X94522Y175837D01*
X94621Y175338D01*
X94675Y175256D01*
X94287Y174937D01*
X89694Y179531D01*
X89885Y179993D01*
X91593D01*
Y181477D01*
X89609D01*
Y182477D01*
X91593D01*
Y183961D01*
X91479D01*
X91184Y184339D01*
X91184Y184461D01*
Y185011D01*
X93830D01*
Y182287D01*
X102098D01*
Y191342D01*
X93830D01*
Y186817D01*
X91184D01*
Y187489D01*
X89312D01*
X88338Y188463D01*
X88476Y188669D01*
X88575Y189168D01*
X88476Y189667D01*
X88193Y190091D01*
X87769Y190373D01*
X87270Y190473D01*
X86771Y190373D01*
X86348Y190091D01*
X86065Y189667D01*
X85966Y189168D01*
X86065Y188669D01*
X86348Y188246D01*
X86452Y188176D01*
Y188168D01*
X86521Y187822D01*
X86717Y187529D01*
X88034Y186212D01*
Y184461D01*
X88034Y184339D01*
X87740Y183961D01*
X87625D01*
Y182253D01*
X87163Y182062D01*
X80354Y188870D01*
X80561Y189370D01*
X80777D01*
Y192520D01*
X77627D01*
Y191848D01*
X75724D01*
X75379Y191779D01*
X75086Y191584D01*
X69550Y186048D01*
X29298D01*
X25108Y190238D01*
Y195009D01*
X25608Y195042D01*
X25620Y194950D01*
X26007Y194016D01*
X26623Y193214D01*
X27424Y192599D01*
X28358Y192212D01*
X29360Y192080D01*
X30362Y192212D01*
X31296Y192599D01*
X32098Y193214D01*
X32713Y194016D01*
X33100Y194950D01*
X33576Y194851D01*
Y193536D01*
X33645Y193190D01*
X33841Y192897D01*
X39707Y187031D01*
X39999Y186836D01*
X40345Y186767D01*
X40345Y186767D01*
X68269D01*
X68615Y186836D01*
X68908Y187031D01*
X76333Y194457D01*
X76356Y194452D01*
X76855Y194552D01*
X77279Y194835D01*
X77561Y195258D01*
X77661Y195757D01*
X77561Y196256D01*
X77279Y196679D01*
X76855Y196962D01*
X76356Y197062D01*
X75857Y196962D01*
X75434Y196679D01*
X75151Y196256D01*
X75052Y195757D01*
X75056Y195734D01*
X73195Y193873D01*
X72771Y194157D01*
X73100Y194950D01*
X73232Y195952D01*
X73114Y196848D01*
X79280Y203015D01*
X81820D01*
Y202343D01*
X84812D01*
X85301Y202318D01*
X85460Y202318D01*
X88451D01*
Y205468D01*
X87899D01*
Y206296D01*
X87919Y206309D01*
X88201Y206732D01*
X88301Y207231D01*
X88201Y207730D01*
X87919Y208154D01*
X87495Y208436D01*
X86996Y208536D01*
X86497Y208436D01*
X86074Y208154D01*
X85791Y207730D01*
X85692Y207231D01*
X85791Y206732D01*
X86074Y206309D01*
X86093Y206296D01*
Y205821D01*
X85739Y205468D01*
X85459D01*
X84970Y205493D01*
X84812Y205493D01*
X81820D01*
Y204821D01*
X78906D01*
X78906Y204821D01*
X78561Y204752D01*
X78268Y204557D01*
X78267Y204557D01*
X72382Y198671D01*
X72098Y198690D01*
X71296Y199305D01*
X70362Y199692D01*
X69360Y199824D01*
X68358Y199692D01*
X67424Y199305D01*
X66623Y198690D01*
X66007Y197888D01*
X65620Y196954D01*
X65488Y195952D01*
X65620Y194950D01*
X66007Y194016D01*
X66623Y193214D01*
X67424Y192599D01*
X68358Y192212D01*
X69360Y192080D01*
X70362Y192212D01*
X71156Y192541D01*
X71439Y192117D01*
X67895Y188573D01*
X40719D01*
X36992Y192301D01*
X37322Y192677D01*
X37424Y192599D01*
X38358Y192212D01*
X39360Y192080D01*
X40362Y192212D01*
X41296Y192599D01*
X42098Y193214D01*
X42713Y194016D01*
X43100Y194950D01*
X43232Y195952D01*
X43100Y196954D01*
X42713Y197888D01*
X42098Y198690D01*
X41296Y199305D01*
X40362Y199692D01*
X39360Y199824D01*
X38358Y199692D01*
X37424Y199305D01*
X36623Y198690D01*
X36007Y197888D01*
X35882Y197587D01*
X35382Y197686D01*
Y200833D01*
X35314Y201179D01*
X35118Y201472D01*
X32652Y203937D01*
X32713Y204016D01*
X33100Y204950D01*
X33232Y205952D01*
X33100Y206954D01*
X32713Y207888D01*
X32098Y208690D01*
X31296Y209305D01*
X30362Y209692D01*
X29360Y209824D01*
D02*
G37*
G36*
X162099Y203349D02*
X161600Y203249D01*
X161177Y202966D01*
X160894Y202543D01*
X160795Y202044D01*
X160894Y201545D01*
X161008Y201374D01*
Y200006D01*
X160545D01*
Y196856D01*
X163695D01*
Y200006D01*
X163232D01*
Y201436D01*
X163304Y201545D01*
X163404Y202044D01*
X163304Y202543D01*
X163022Y202966D01*
X162598Y203249D01*
X162099Y203349D01*
D02*
G37*
G36*
X13199Y199791D02*
X5522D01*
Y192113D01*
X13199D01*
Y199791D01*
D02*
G37*
G36*
X59360Y199824D02*
X58358Y199692D01*
X57424Y199305D01*
X56622Y198690D01*
X56007Y197888D01*
X55620Y196954D01*
X55489Y195952D01*
X55620Y194950D01*
X56007Y194016D01*
X56622Y193214D01*
X57424Y192599D01*
X58358Y192212D01*
X59360Y192080D01*
X60362Y192212D01*
X61296Y192599D01*
X62098Y193214D01*
X62713Y194016D01*
X63100Y194950D01*
X63232Y195952D01*
X63100Y196954D01*
X62713Y197888D01*
X62098Y198690D01*
X61296Y199305D01*
X60362Y199692D01*
X59360Y199824D01*
D02*
G37*
G36*
X49360D02*
X48358Y199692D01*
X47424Y199305D01*
X46622Y198690D01*
X46007Y197888D01*
X45620Y196954D01*
X45489Y195952D01*
X45620Y194950D01*
X46007Y194016D01*
X46622Y193214D01*
X47424Y192599D01*
X48358Y192212D01*
X49360Y192080D01*
X50362Y192212D01*
X51296Y192599D01*
X52098Y193214D01*
X52713Y194016D01*
X53100Y194950D01*
X53232Y195952D01*
X53100Y196954D01*
X52713Y197888D01*
X52098Y198690D01*
X51296Y199305D01*
X50362Y199692D01*
X49360Y199824D01*
D02*
G37*
G36*
X86738Y196390D02*
X86239Y196290D01*
X85816Y196008D01*
X85533Y195584D01*
X85434Y195085D01*
X85528Y194611D01*
X83437Y192520D01*
X81564D01*
Y189370D01*
X84714D01*
Y191243D01*
X87377Y193905D01*
X87377Y193905D01*
X87458Y194027D01*
X87661Y194163D01*
X87943Y194586D01*
X88043Y195085D01*
X87943Y195584D01*
X87661Y196008D01*
X87237Y196290D01*
X86738Y196390D01*
D02*
G37*
G36*
X226871Y195862D02*
X225869Y195730D01*
X224935Y195343D01*
X224133Y194728D01*
X223518Y193926D01*
X223131Y192992D01*
X223000Y191990D01*
X223131Y190988D01*
X223518Y190054D01*
X224133Y189252D01*
X224935Y188637D01*
X225869Y188250D01*
X226871Y188118D01*
X227873Y188250D01*
X228807Y188637D01*
X229609Y189252D01*
X230224Y190054D01*
X230611Y190988D01*
X230743Y191990D01*
X230611Y192992D01*
X230224Y193926D01*
X229609Y194728D01*
X228807Y195343D01*
X227873Y195730D01*
X226871Y195862D01*
D02*
G37*
G36*
X216871D02*
X215869Y195730D01*
X214935Y195343D01*
X214134Y194728D01*
X213518Y193926D01*
X213131Y192992D01*
X213000Y191990D01*
X213131Y190988D01*
X213518Y190054D01*
X213576Y189979D01*
X212332Y188735D01*
X169705D01*
X169358Y188666D01*
X169063Y188469D01*
X165343Y184749D01*
X165326Y184753D01*
X164827Y184653D01*
X164404Y184371D01*
X164121Y183947D01*
X164022Y183448D01*
X164121Y182949D01*
X164404Y182526D01*
X164827Y182243D01*
X165326Y182143D01*
X165825Y182243D01*
X166249Y182526D01*
X166531Y182949D01*
X166631Y183448D01*
X166627Y183465D01*
X170081Y186919D01*
X212708D01*
X213056Y186988D01*
X213350Y187185D01*
X214860Y188695D01*
X214935Y188637D01*
X215869Y188250D01*
X216871Y188118D01*
X217873Y188250D01*
X218807Y188637D01*
X219609Y189252D01*
X220224Y190054D01*
X220611Y190988D01*
X220743Y191990D01*
X220611Y192992D01*
X220224Y193926D01*
X219609Y194728D01*
X218807Y195343D01*
X217873Y195730D01*
X216871Y195862D01*
D02*
G37*
G36*
X163695Y196069D02*
X160545D01*
Y192919D01*
X161262D01*
Y184383D01*
X161251Y184376D01*
X160968Y183952D01*
X160869Y183453D01*
X160968Y182954D01*
X161251Y182531D01*
X161674Y182248D01*
X162174Y182149D01*
X162673Y182248D01*
X163096Y182531D01*
X163379Y182954D01*
X163478Y183453D01*
X163379Y183952D01*
X163096Y184376D01*
X163069Y184394D01*
Y192919D01*
X163695D01*
Y196069D01*
D02*
G37*
G36*
X226871Y185862D02*
X225869Y185730D01*
X224935Y185343D01*
X224133Y184728D01*
X223518Y183926D01*
X223131Y182992D01*
X223000Y181990D01*
X223131Y180988D01*
X223518Y180054D01*
X223576Y179979D01*
X221651Y178054D01*
X218706D01*
X218607Y178554D01*
X218807Y178637D01*
X219609Y179252D01*
X220224Y180054D01*
X220611Y180988D01*
X220743Y181990D01*
X220611Y182992D01*
X220224Y183926D01*
X219609Y184728D01*
X218807Y185343D01*
X217873Y185730D01*
X216871Y185862D01*
X215869Y185730D01*
X214935Y185343D01*
X214134Y184728D01*
X213518Y183926D01*
X213131Y182992D01*
X213000Y181990D01*
X213131Y180988D01*
X213518Y180054D01*
X214134Y179252D01*
X214935Y178637D01*
X215136Y178554D01*
X215036Y178054D01*
X208828D01*
X205945Y180938D01*
X205650Y181134D01*
X205303Y181203D01*
X166255D01*
X166246Y181218D01*
X165822Y181501D01*
X165323Y181600D01*
X164824Y181501D01*
X164401Y181218D01*
X164118Y180795D01*
X164019Y180296D01*
X164118Y179796D01*
X164401Y179373D01*
X164824Y179090D01*
X165323Y178991D01*
X165822Y179090D01*
X166246Y179373D01*
X166255Y179387D01*
X204926D01*
X207810Y176504D01*
X208104Y176307D01*
X208452Y176238D01*
X215899D01*
X215932Y175738D01*
X215869Y175730D01*
X214935Y175343D01*
X214134Y174728D01*
X213518Y173926D01*
X213131Y172992D01*
X213000Y171990D01*
X213131Y170988D01*
X213518Y170054D01*
X214134Y169252D01*
X214935Y168637D01*
X215271Y168498D01*
X215172Y167998D01*
X208461D01*
X198634Y177825D01*
X198340Y178022D01*
X197992Y178091D01*
X197805Y178054D01*
X166255D01*
X166246Y178068D01*
X165822Y178351D01*
X165323Y178450D01*
X164824Y178351D01*
X164401Y178068D01*
X164118Y177645D01*
X164019Y177146D01*
X164118Y176647D01*
X164401Y176223D01*
X164824Y175941D01*
X165323Y175841D01*
X165822Y175941D01*
X166246Y176223D01*
X166255Y176238D01*
X197653D01*
X207443Y166448D01*
X207738Y166251D01*
X208085Y166182D01*
X215654D01*
X215754Y165682D01*
X214935Y165343D01*
X214134Y164728D01*
X213518Y163926D01*
X213131Y162992D01*
X213000Y161990D01*
X213131Y160988D01*
X213518Y160054D01*
X214134Y159252D01*
X214935Y158637D01*
X215452Y158423D01*
X215353Y157923D01*
X209391D01*
X192678Y174636D01*
X192383Y174833D01*
X192036Y174902D01*
X166257D01*
X166248Y174917D01*
X165824Y175199D01*
X165325Y175299D01*
X164826Y175199D01*
X164403Y174917D01*
X164120Y174494D01*
X164021Y173994D01*
X164120Y173495D01*
X164403Y173072D01*
X164826Y172789D01*
X165325Y172690D01*
X165824Y172789D01*
X166248Y173072D01*
X166257Y173086D01*
X191660D01*
X208373Y156373D01*
X208668Y156176D01*
X209015Y156107D01*
X215473D01*
X215573Y155607D01*
X214935Y155343D01*
X214134Y154728D01*
X213518Y153926D01*
X213131Y152992D01*
X213000Y151990D01*
X213131Y150988D01*
X213518Y150054D01*
X214134Y149252D01*
X214935Y148637D01*
X215609Y148358D01*
X215509Y147858D01*
X208629D01*
X184999Y171488D01*
X184705Y171685D01*
X184357Y171754D01*
X166256D01*
X166246Y171768D01*
X165823Y172051D01*
X165324Y172151D01*
X164824Y172051D01*
X164401Y171768D01*
X164119Y171345D01*
X164019Y170846D01*
X164119Y170347D01*
X164401Y169924D01*
X164824Y169641D01*
X165324Y169542D01*
X165823Y169641D01*
X166246Y169924D01*
X166256Y169938D01*
X183981D01*
X207611Y146308D01*
X207906Y146111D01*
X208253Y146042D01*
X215316D01*
X215416Y145542D01*
X214935Y145343D01*
X214134Y144728D01*
X213518Y143926D01*
X213131Y142992D01*
X213000Y141990D01*
X213131Y140988D01*
X213518Y140054D01*
X214134Y139252D01*
X214935Y138637D01*
X215020Y138602D01*
X214920Y138102D01*
X212407D01*
X182170Y168339D01*
X181876Y168536D01*
X181528Y168605D01*
X166255D01*
X166246Y168620D01*
X165822Y168902D01*
X165323Y169002D01*
X164824Y168902D01*
X164401Y168620D01*
X164118Y168196D01*
X164019Y167697D01*
X164118Y167198D01*
X164401Y166774D01*
X164824Y166492D01*
X165323Y166392D01*
X165822Y166492D01*
X166246Y166774D01*
X166255Y166789D01*
X181152D01*
X211389Y136552D01*
X211684Y136355D01*
X212031Y136286D01*
X216263D01*
X216296Y135786D01*
X215869Y135730D01*
X214935Y135343D01*
X214134Y134728D01*
X213518Y133926D01*
X213131Y132992D01*
X213000Y131990D01*
X213131Y130988D01*
X213518Y130054D01*
X214134Y129252D01*
X214935Y128637D01*
X215869Y128250D01*
X216871Y128118D01*
X217873Y128250D01*
X218807Y128637D01*
X219609Y129252D01*
X220224Y130054D01*
X220611Y130988D01*
X220743Y131990D01*
X220611Y132992D01*
X220224Y133926D01*
X219609Y134728D01*
X218807Y135343D01*
X217873Y135730D01*
X217446Y135786D01*
X217479Y136286D01*
X222075D01*
X222423Y136355D01*
X222717Y136552D01*
X224860Y138695D01*
X224935Y138637D01*
X225869Y138250D01*
X226871Y138118D01*
X227873Y138250D01*
X228807Y138637D01*
X229609Y139252D01*
X230224Y140054D01*
X230611Y140988D01*
X230743Y141990D01*
X230611Y142992D01*
X230224Y143926D01*
X229609Y144728D01*
X228807Y145343D01*
X227873Y145730D01*
X226871Y145862D01*
X225869Y145730D01*
X224935Y145343D01*
X224133Y144728D01*
X223518Y143926D01*
X223131Y142992D01*
X223000Y141990D01*
X223131Y140988D01*
X223518Y140054D01*
X223576Y139979D01*
X221699Y138102D01*
X218822D01*
X218723Y138602D01*
X218807Y138637D01*
X219609Y139252D01*
X220224Y140054D01*
X220611Y140988D01*
X220743Y141990D01*
X220611Y142992D01*
X220224Y143926D01*
X219609Y144728D01*
X218807Y145343D01*
X218327Y145542D01*
X218426Y146042D01*
X221831D01*
X222179Y146111D01*
X222473Y146308D01*
X224860Y148695D01*
X224935Y148637D01*
X225869Y148250D01*
X226871Y148118D01*
X227873Y148250D01*
X228807Y148637D01*
X229609Y149252D01*
X230224Y150054D01*
X230611Y150988D01*
X230743Y151990D01*
X230611Y152992D01*
X230224Y153926D01*
X229609Y154728D01*
X228807Y155343D01*
X227873Y155730D01*
X226871Y155862D01*
X225869Y155730D01*
X224935Y155343D01*
X224133Y154728D01*
X223518Y153926D01*
X223131Y152992D01*
X223000Y151990D01*
X223131Y150988D01*
X223518Y150054D01*
X223576Y149979D01*
X221455Y147858D01*
X218233D01*
X218133Y148358D01*
X218807Y148637D01*
X219609Y149252D01*
X220224Y150054D01*
X220611Y150988D01*
X220743Y151990D01*
X220611Y152992D01*
X220224Y153926D01*
X219609Y154728D01*
X218807Y155343D01*
X218170Y155607D01*
X218269Y156107D01*
X221896D01*
X222244Y156176D01*
X222538Y156373D01*
X224860Y158695D01*
X224935Y158637D01*
X225869Y158250D01*
X226871Y158118D01*
X227873Y158250D01*
X228807Y158637D01*
X229609Y159252D01*
X230224Y160054D01*
X230611Y160988D01*
X230743Y161990D01*
X230611Y162992D01*
X230224Y163926D01*
X229609Y164728D01*
X228807Y165343D01*
X227873Y165730D01*
X226871Y165862D01*
X225869Y165730D01*
X224935Y165343D01*
X224133Y164728D01*
X223518Y163926D01*
X223131Y162992D01*
X223000Y161990D01*
X223131Y160988D01*
X223518Y160054D01*
X223576Y159979D01*
X221520Y157923D01*
X218390D01*
X218290Y158423D01*
X218807Y158637D01*
X219609Y159252D01*
X220224Y160054D01*
X220611Y160988D01*
X220743Y161990D01*
X220611Y162992D01*
X220224Y163926D01*
X219609Y164728D01*
X218807Y165343D01*
X217989Y165682D01*
X218088Y166182D01*
X221971D01*
X222319Y166251D01*
X222613Y166448D01*
X224860Y168695D01*
X224935Y168637D01*
X225869Y168250D01*
X226871Y168118D01*
X227873Y168250D01*
X228807Y168637D01*
X229609Y169252D01*
X230224Y170054D01*
X230611Y170988D01*
X230743Y171990D01*
X230611Y172992D01*
X230224Y173926D01*
X229609Y174728D01*
X228807Y175343D01*
X227873Y175730D01*
X226871Y175862D01*
X225869Y175730D01*
X224935Y175343D01*
X224133Y174728D01*
X223518Y173926D01*
X223131Y172992D01*
X223000Y171990D01*
X223131Y170988D01*
X223518Y170054D01*
X223576Y169979D01*
X221595Y167998D01*
X218571D01*
X218471Y168498D01*
X218807Y168637D01*
X219609Y169252D01*
X220224Y170054D01*
X220611Y170988D01*
X220743Y171990D01*
X220611Y172992D01*
X220224Y173926D01*
X219609Y174728D01*
X218807Y175343D01*
X217873Y175730D01*
X217811Y175738D01*
X217844Y176238D01*
X222027D01*
X222375Y176307D01*
X222669Y176504D01*
X224860Y178695D01*
X224935Y178637D01*
X225869Y178250D01*
X226871Y178118D01*
X227873Y178250D01*
X228807Y178637D01*
X229609Y179252D01*
X230224Y180054D01*
X230611Y180988D01*
X230743Y181990D01*
X230611Y182992D01*
X230224Y183926D01*
X229609Y184728D01*
X228807Y185343D01*
X227873Y185730D01*
X226871Y185862D01*
D02*
G37*
G36*
X67798Y179109D02*
X67107Y178972D01*
X66521Y178580D01*
X66129Y177994D01*
X65992Y177303D01*
X66129Y176612D01*
X66521Y176026D01*
X67107Y175634D01*
X67798Y175497D01*
X68489Y175634D01*
X69076Y176026D01*
X69467Y176612D01*
X69604Y177303D01*
X69467Y177994D01*
X69076Y178580D01*
X68489Y178972D01*
X67798Y179109D01*
D02*
G37*
G36*
X165226Y157028D02*
X164726Y156928D01*
X164303Y156646D01*
X164020Y156222D01*
X163921Y155723D01*
X164020Y155224D01*
X164303Y154801D01*
X164726Y154518D01*
X165226Y154419D01*
X165725Y154518D01*
X166148Y154801D01*
X166431Y155224D01*
X166530Y155723D01*
X166431Y156222D01*
X166148Y156646D01*
X165725Y156928D01*
X165226Y157028D01*
D02*
G37*
G36*
X75648Y156362D02*
X74957Y156224D01*
X74371Y155833D01*
X73979Y155246D01*
X73842Y154555D01*
X73979Y153864D01*
X74371Y153278D01*
X74957Y152886D01*
X75648Y152749D01*
X76340Y152886D01*
X76925Y153278D01*
X77317Y153864D01*
X77455Y154555D01*
X77317Y155246D01*
X76925Y155833D01*
X76340Y156224D01*
X75648Y156362D01*
D02*
G37*
G36*
X49148Y153763D02*
X48303Y153595D01*
X47587Y153116D01*
X47109Y152400D01*
X46940Y151555D01*
X47109Y150710D01*
X47587Y149994D01*
X48303Y149515D01*
X49148Y149347D01*
X49993Y149515D01*
X50709Y149994D01*
X51188Y150710D01*
X51356Y151555D01*
X51188Y152400D01*
X50709Y153116D01*
X49993Y153595D01*
X49148Y153763D01*
D02*
G37*
G36*
X153067Y144696D02*
X151583D01*
Y143212D01*
X153067D01*
Y144696D01*
D02*
G37*
G36*
X164826Y144522D02*
X163342D01*
Y143038D01*
X164826D01*
Y144522D01*
D02*
G37*
G36*
X175875Y143630D02*
X175184Y143493D01*
X174598Y143101D01*
X174206Y142515D01*
X174069Y141824D01*
X174206Y141133D01*
X174598Y140547D01*
X175184Y140155D01*
X175875Y140018D01*
X176566Y140155D01*
X177152Y140547D01*
X177544Y141133D01*
X177681Y141824D01*
X177544Y142515D01*
X177152Y143101D01*
X176566Y143493D01*
X175875Y143630D01*
D02*
G37*
G36*
X23745Y140611D02*
X20292D01*
Y137158D01*
X23745D01*
Y140611D01*
D02*
G37*
G36*
X19292D02*
X15839D01*
Y137158D01*
X19292D01*
Y140611D01*
D02*
G37*
G36*
X112236Y136234D02*
X110752D01*
Y134750D01*
X112236D01*
Y136234D01*
D02*
G37*
G36*
X150539Y138324D02*
X149848Y138187D01*
X149262Y137795D01*
X148870Y137209D01*
X148733Y136518D01*
X148870Y135827D01*
X149262Y135241D01*
X149848Y134849D01*
X150539Y134712D01*
X151231Y134849D01*
X151816Y135241D01*
X152208Y135827D01*
X152346Y136518D01*
X152208Y137209D01*
X151816Y137795D01*
X151231Y138187D01*
X150539Y138324D01*
D02*
G37*
G36*
X9792Y140232D02*
X8867Y140110D01*
X8005Y139753D01*
X7265Y139185D01*
X6697Y138445D01*
X6340Y137583D01*
X6218Y136658D01*
X6340Y135733D01*
X6697Y134871D01*
X7265Y134131D01*
X8005Y133563D01*
X8867Y133206D01*
X9792Y133084D01*
X10717Y133206D01*
X11579Y133563D01*
X12319Y134131D01*
X12887Y134871D01*
X13244Y135733D01*
X13366Y136658D01*
X13244Y137583D01*
X12887Y138445D01*
X12319Y139185D01*
X11579Y139753D01*
X10717Y140110D01*
X9792Y140232D01*
D02*
G37*
G36*
X143770Y136332D02*
X143079Y136194D01*
X142493Y135802D01*
X142101Y135216D01*
X141964Y134525D01*
X142101Y133834D01*
X142493Y133248D01*
X143079Y132856D01*
X143770Y132719D01*
X144461Y132856D01*
X145047Y133248D01*
X145439Y133834D01*
X145576Y134525D01*
X145439Y135216D01*
X145047Y135802D01*
X144461Y136194D01*
X143770Y136332D01*
D02*
G37*
G36*
X23745Y136158D02*
X20292D01*
Y132705D01*
X23745D01*
Y136158D01*
D02*
G37*
G36*
X19292D02*
X15839D01*
Y132705D01*
X19292D01*
Y136158D01*
D02*
G37*
G36*
X161342Y137514D02*
X160421Y137331D01*
X159639Y136809D01*
X159117Y136028D01*
X158934Y135106D01*
X159117Y134184D01*
X159639Y133403D01*
X160421Y132881D01*
X161342Y132698D01*
X162264Y132881D01*
X163045Y133403D01*
X163567Y134184D01*
X163751Y135106D01*
X163567Y136028D01*
X163045Y136809D01*
X162264Y137331D01*
X161342Y137514D01*
D02*
G37*
G36*
X137115Y136292D02*
X136424Y136154D01*
X135837Y135763D01*
X135446Y135177D01*
X135308Y134485D01*
X135446Y133794D01*
X135837Y133208D01*
X136424Y132817D01*
X137115Y132679D01*
X137806Y132817D01*
X138392Y133208D01*
X138784Y133794D01*
X138921Y134485D01*
X138784Y135177D01*
X138392Y135763D01*
X137806Y136154D01*
X137115Y136292D01*
D02*
G37*
G36*
X112236Y133750D02*
X110752D01*
Y132266D01*
X112236D01*
Y133750D01*
D02*
G37*
G36*
X109752Y136234D02*
X108268D01*
Y136120D01*
X107890Y135825D01*
X107768Y135825D01*
X104740D01*
Y135260D01*
X99182D01*
X98796Y135183D01*
X98468Y134964D01*
X96177Y132673D01*
X95958Y132345D01*
X95881Y131959D01*
Y130354D01*
X92757D01*
Y121299D01*
X95881D01*
Y113819D01*
X92757D01*
Y110301D01*
X90031D01*
Y110919D01*
X89466D01*
Y112004D01*
X90031D01*
Y115154D01*
X86881D01*
Y112004D01*
X87446D01*
Y110919D01*
X86881D01*
Y107769D01*
X90031D01*
Y108281D01*
X92757D01*
Y104763D01*
X101025D01*
Y113819D01*
X97901D01*
Y121299D01*
X101025D01*
Y130354D01*
X97901D01*
Y131541D01*
X99601Y133240D01*
X104740D01*
Y132675D01*
X107768D01*
X107890Y132675D01*
X108268Y132381D01*
Y132266D01*
X109752D01*
Y134250D01*
Y136234D01*
D02*
G37*
G36*
X230710Y135829D02*
X223033D01*
Y128152D01*
X230710D01*
Y135829D01*
D02*
G37*
G36*
X121434Y130828D02*
X117391D01*
Y126391D01*
X121434D01*
Y130828D01*
D02*
G37*
G36*
X116391D02*
X112348D01*
Y126391D01*
X116391D01*
Y130828D01*
D02*
G37*
G36*
X164176Y126954D02*
X163485Y126817D01*
X162899Y126425D01*
X162507Y125839D01*
X162370Y125148D01*
X162507Y124457D01*
X162899Y123871D01*
X163485Y123479D01*
X164176Y123342D01*
X164867Y123479D01*
X165454Y123871D01*
X165845Y124457D01*
X165982Y125148D01*
X165845Y125839D01*
X165454Y126425D01*
X164867Y126817D01*
X164176Y126954D01*
D02*
G37*
G36*
X39761Y124739D02*
X34446D01*
Y121195D01*
X39761D01*
Y124739D01*
D02*
G37*
G36*
X121434Y125391D02*
X117391D01*
Y120954D01*
X121434D01*
Y125391D01*
D02*
G37*
G36*
X116391D02*
X112348D01*
Y120954D01*
X116391D01*
Y125391D01*
D02*
G37*
G36*
X148196Y121813D02*
X146712D01*
Y120329D01*
X148196D01*
Y121813D01*
D02*
G37*
G36*
X145712D02*
X144228D01*
Y120329D01*
X145712D01*
Y121813D01*
D02*
G37*
G36*
X169078Y123634D02*
X168387Y123497D01*
X167801Y123105D01*
X167409Y122519D01*
X167272Y121828D01*
X167409Y121137D01*
X167801Y120551D01*
X168387Y120159D01*
X169078Y120022D01*
X169769Y120159D01*
X170355Y120551D01*
X170747Y121137D01*
X170885Y121828D01*
X170747Y122519D01*
X170355Y123105D01*
X169769Y123497D01*
X169078Y123634D01*
D02*
G37*
G36*
X47159Y121456D02*
X45675D01*
Y119972D01*
X47159D01*
Y121456D01*
D02*
G37*
G36*
X44675D02*
X43191D01*
Y119972D01*
X44675D01*
Y121456D01*
D02*
G37*
G36*
X20217Y121361D02*
X18733D01*
Y119877D01*
X20217D01*
Y121361D01*
D02*
G37*
G36*
X17733D02*
X16249D01*
Y119877D01*
X17733D01*
Y121361D01*
D02*
G37*
G36*
X29203Y132278D02*
X28583Y132154D01*
X28056Y131803D01*
X27968Y131714D01*
X27877Y131578D01*
X26508Y130209D01*
X26156Y129683D01*
X26033Y129063D01*
Y124739D01*
X24997D01*
Y121408D01*
X24588D01*
Y119727D01*
X27655D01*
X30722D01*
Y121408D01*
X30312D01*
Y124739D01*
X29276D01*
Y128391D01*
X30261Y129375D01*
X30612Y129901D01*
X30613Y129903D01*
X30701Y130035D01*
X30825Y130656D01*
X30701Y131277D01*
X30350Y131803D01*
X29824Y132154D01*
X29203Y132278D01*
D02*
G37*
G36*
X136684Y121883D02*
X135993Y121746D01*
X135407Y121354D01*
X135015Y120768D01*
X134878Y120077D01*
X135015Y119386D01*
X135407Y118800D01*
X135993Y118408D01*
X136684Y118271D01*
X137375Y118408D01*
X137961Y118800D01*
X138353Y119386D01*
X138490Y120077D01*
X138353Y120768D01*
X137961Y121354D01*
X137375Y121746D01*
X136684Y121883D01*
D02*
G37*
G36*
X47159Y118972D02*
X45175D01*
X43191D01*
Y117609D01*
X43191Y117488D01*
X42899Y117109D01*
X39761D01*
Y117259D01*
X34446D01*
Y113715D01*
X39761D01*
Y113865D01*
X45127D01*
X45369Y113913D01*
X49214D01*
X49430Y113870D01*
X50051Y113994D01*
X50577Y114345D01*
X50620Y114388D01*
X50971Y114914D01*
X51095Y115535D01*
X50971Y116156D01*
X50620Y116682D01*
X50094Y117033D01*
X49473Y117157D01*
X47522D01*
X47159Y117488D01*
X47159Y117657D01*
Y118972D01*
D02*
G37*
G36*
X172913Y121232D02*
X172222Y121095D01*
X171636Y120703D01*
X171244Y120117D01*
X171107Y119426D01*
X171171Y119103D01*
X170943Y118875D01*
X170725Y118549D01*
X170649Y118165D01*
Y93785D01*
X169374Y92510D01*
X167946D01*
Y93941D01*
X165961D01*
X163977D01*
Y92510D01*
X160605D01*
X160175Y92679D01*
X160175Y93010D01*
Y94163D01*
X158191D01*
X156207D01*
Y92679D01*
X155777Y92510D01*
X126542D01*
X118402Y100650D01*
X118076Y100867D01*
X117692Y100944D01*
X93397D01*
X93013Y100867D01*
X92687Y100650D01*
X21282Y29244D01*
X21064Y28918D01*
X20988Y28534D01*
Y22315D01*
X20055Y21929D01*
X19253Y21314D01*
X19113Y21130D01*
X18613Y21300D01*
Y55128D01*
X68300Y104815D01*
X86881D01*
Y103832D01*
X90031D01*
Y106982D01*
X86881D01*
Y106823D01*
X67885D01*
X67501Y106746D01*
X67175Y106529D01*
X16900Y56253D01*
X16682Y55927D01*
X16606Y55543D01*
Y12958D01*
X16682Y12574D01*
X16900Y12248D01*
X18638Y10510D01*
X18251Y9578D01*
X18120Y8576D01*
X18251Y7574D01*
X18638Y6640D01*
X19253Y5838D01*
X20055Y5223D01*
X20989Y4836D01*
X21991Y4704D01*
X22993Y4836D01*
X23927Y5223D01*
X24729Y5838D01*
X25344Y6640D01*
X25731Y7574D01*
X25863Y8576D01*
X25731Y9578D01*
X25344Y10512D01*
X24729Y11314D01*
X23927Y11929D01*
X22993Y12316D01*
X21991Y12448D01*
X20989Y12316D01*
X20057Y11930D01*
X18613Y13374D01*
Y15852D01*
X19113Y16022D01*
X19253Y15838D01*
X20055Y15223D01*
X20989Y14836D01*
X21991Y14704D01*
X22993Y14836D01*
X23927Y15223D01*
X24729Y15838D01*
X25344Y16640D01*
X25731Y17574D01*
X25863Y18576D01*
X25731Y19578D01*
X25344Y20512D01*
X24729Y21314D01*
X23927Y21929D01*
X22995Y22315D01*
Y28119D01*
X93813Y98936D01*
X99549D01*
X99660Y98436D01*
X99443Y98292D01*
X36213Y35061D01*
X35995Y34736D01*
X35919Y34352D01*
Y20432D01*
X35419Y20332D01*
X35344Y20512D01*
X34729Y21314D01*
X33927Y21929D01*
X32993Y22316D01*
X31991Y22448D01*
X30989Y22316D01*
X30055Y21929D01*
X29254Y21314D01*
X28638Y20512D01*
X28251Y19578D01*
X28120Y18576D01*
X28251Y17574D01*
X28638Y16640D01*
X29254Y15838D01*
X30055Y15223D01*
X30989Y14836D01*
X31991Y14704D01*
X32993Y14836D01*
X33927Y15223D01*
X34729Y15838D01*
X35344Y16640D01*
X35419Y16820D01*
X35919Y16721D01*
Y13923D01*
X33926Y11930D01*
X32993Y12316D01*
X31991Y12448D01*
X30989Y12316D01*
X30055Y11929D01*
X29254Y11314D01*
X28638Y10512D01*
X28251Y9578D01*
X28120Y8576D01*
X28251Y7574D01*
X28638Y6640D01*
X29254Y5838D01*
X30055Y5223D01*
X30989Y4836D01*
X31991Y4704D01*
X32993Y4836D01*
X33927Y5223D01*
X34729Y5838D01*
X35344Y6640D01*
X35731Y7574D01*
X35863Y8576D01*
X35731Y9578D01*
X35345Y10510D01*
X37632Y12797D01*
X37849Y13123D01*
X37926Y13507D01*
Y17054D01*
X38426Y17153D01*
X38638Y16640D01*
X39254Y15838D01*
X40055Y15223D01*
X40989Y14836D01*
X41991Y14704D01*
X42993Y14836D01*
X43927Y15223D01*
X44729Y15838D01*
X45344Y16640D01*
X45731Y17574D01*
X45863Y18576D01*
X45731Y19578D01*
X45344Y20512D01*
X44729Y21314D01*
X43927Y21929D01*
X42995Y22315D01*
Y32678D01*
X95934Y85618D01*
X108103D01*
X108188Y85186D01*
X108580Y84600D01*
X109166Y84209D01*
X109857Y84071D01*
X110548Y84209D01*
X111135Y84600D01*
X111292Y84835D01*
X112665D01*
Y84264D01*
X115815D01*
Y87414D01*
X112665D01*
Y86843D01*
X111343D01*
X111135Y87155D01*
X110548Y87546D01*
X109857Y87684D01*
X109336Y87580D01*
X109114Y87625D01*
X95518D01*
X95134Y87548D01*
X94809Y87331D01*
X41282Y33804D01*
X41064Y33478D01*
X40988Y33094D01*
Y22315D01*
X40055Y21929D01*
X39254Y21314D01*
X38638Y20512D01*
X38426Y19999D01*
X37926Y20098D01*
Y33936D01*
X95387Y91397D01*
X95625Y91275D01*
X95799Y91103D01*
X95677Y90486D01*
X95814Y89795D01*
X96206Y89209D01*
X96792Y88817D01*
X97483Y88680D01*
X98175Y88817D01*
X98760Y89209D01*
X99152Y89795D01*
X99290Y90486D01*
X99152Y91177D01*
X98760Y91763D01*
X98175Y92155D01*
X97483Y92292D01*
X96867Y92170D01*
X96694Y92344D01*
X96572Y92582D01*
X99499Y95509D01*
X99877Y95337D01*
X99971Y95274D01*
X100066Y94797D01*
X100349Y94374D01*
X100772Y94091D01*
X101271Y93991D01*
X101770Y94091D01*
X102072Y94292D01*
X116724D01*
X118558Y92458D01*
X118367Y91996D01*
X116602D01*
Y88846D01*
X117167D01*
Y87414D01*
X116602D01*
Y84264D01*
X117167D01*
Y83160D01*
X116603D01*
Y80010D01*
X119637D01*
Y78661D01*
X119398Y78501D01*
X119006Y77915D01*
X118869Y77224D01*
X118931Y76909D01*
X117464Y75441D01*
X117245Y75113D01*
X117168Y74727D01*
Y74133D01*
X116603D01*
Y70983D01*
X119753D01*
Y71787D01*
X120253Y71939D01*
X120537Y71514D01*
X120811Y71331D01*
Y55613D01*
X111874Y46676D01*
X111656Y46350D01*
X111580Y45966D01*
Y43045D01*
X111008D01*
Y39895D01*
X114143D01*
X114157Y39895D01*
X114643Y39861D01*
X114644Y39861D01*
X117792D01*
Y43011D01*
X117221D01*
Y44535D01*
X125562Y52876D01*
X125761Y52849D01*
X126062Y52700D01*
Y51382D01*
X119165Y44485D01*
X118948Y44160D01*
X118871Y43776D01*
Y43011D01*
X118300D01*
Y39861D01*
X121450D01*
Y39892D01*
X121950Y39895D01*
X125098D01*
Y41626D01*
X127920Y44448D01*
X146137D01*
X146521Y44524D01*
X146847Y44742D01*
X151636Y49531D01*
X151854Y49857D01*
X151930Y50241D01*
Y77402D01*
X151854Y77786D01*
X151636Y78111D01*
X147842Y81905D01*
X147906Y82228D01*
X147769Y82919D01*
X147378Y83505D01*
X146791Y83897D01*
X146100Y84034D01*
X145409Y83897D01*
X144823Y83505D01*
X144431Y82919D01*
X144303Y82276D01*
X144165Y81793D01*
X143474Y81656D01*
X142888Y81264D01*
X142705Y80991D01*
X132864D01*
X125541Y88314D01*
X125748Y88814D01*
X163739D01*
X163995Y88401D01*
X163994Y88314D01*
X163862Y87651D01*
X163999Y86960D01*
X164391Y86374D01*
X164977Y85982D01*
X165668Y85845D01*
X166359Y85982D01*
X166658Y86182D01*
X167121Y85890D01*
X167121Y85688D01*
Y84607D01*
X169105D01*
Y83607D01*
X167121D01*
Y82200D01*
X166292D01*
Y80216D01*
X165792D01*
Y79716D01*
X163452D01*
X163308Y79639D01*
X163007Y79840D01*
X162316Y79977D01*
X161625Y79840D01*
X161039Y79448D01*
X160647Y78862D01*
X160510Y78171D01*
X160647Y77480D01*
X161039Y76894D01*
X161313Y76711D01*
Y60407D01*
X161389Y60023D01*
X161607Y59697D01*
X164909Y56395D01*
X164718Y55933D01*
X162942D01*
Y55361D01*
X161864D01*
X161845Y55458D01*
X161453Y56044D01*
X160867Y56436D01*
X160176Y56573D01*
X159485Y56436D01*
X158899Y56044D01*
X158507Y55458D01*
X158370Y54767D01*
X158507Y54076D01*
X158899Y53490D01*
X159485Y53098D01*
X160176Y52961D01*
X160867Y53098D01*
X161251Y53354D01*
X162588D01*
X162942Y53001D01*
Y52783D01*
X162647Y52405D01*
X162532D01*
Y50921D01*
X164516D01*
Y50421D01*
X165016D01*
Y48437D01*
X166302D01*
Y48407D01*
X167786D01*
Y50391D01*
X168286D01*
Y50891D01*
X170270D01*
Y52375D01*
X170156D01*
X169861Y52753D01*
X169861Y52875D01*
Y55903D01*
X169140D01*
X169047Y55965D01*
X168663Y56042D01*
X168101D01*
X163320Y60823D01*
Y76711D01*
X163593Y76894D01*
X163717Y77079D01*
X164217Y76928D01*
Y74704D01*
X164789D01*
Y73147D01*
X164819Y72992D01*
X164707Y72426D01*
X164844Y71735D01*
X165236Y71149D01*
X165822Y70757D01*
X166513Y70620D01*
X167204Y70757D01*
X167790Y71149D01*
X168182Y71735D01*
X168319Y72426D01*
X168182Y73117D01*
X167903Y73535D01*
X168264Y73895D01*
X168340Y73844D01*
X169031Y73707D01*
X169722Y73844D01*
X170308Y74236D01*
X170481Y74493D01*
X170893Y74704D01*
X171473D01*
Y73750D01*
X171199Y73567D01*
X170807Y72981D01*
X170670Y72290D01*
X170807Y71599D01*
X171199Y71013D01*
X171785Y70621D01*
X172476Y70484D01*
X173112Y70610D01*
X173289Y70597D01*
X173654Y70446D01*
X173697Y70229D01*
X174089Y69643D01*
X174675Y69251D01*
X175366Y69114D01*
X176057Y69251D01*
X176644Y69643D01*
X177035Y70229D01*
X177173Y70920D01*
X177035Y71611D01*
X176889Y71830D01*
Y78522D01*
X177460D01*
Y81672D01*
X174806D01*
X174700Y81778D01*
X174755Y82400D01*
X174797Y82428D01*
X174797D01*
X174797Y82428D01*
X174797Y82428D01*
X175266Y82459D01*
X177460D01*
Y85609D01*
X175739D01*
X172936Y88411D01*
X172609Y88630D01*
X172222Y88707D01*
X171046D01*
X170968Y88816D01*
X170858Y89207D01*
X174175Y92524D01*
X174392Y92849D01*
X174469Y93233D01*
Y114420D01*
X177057Y117009D01*
X177380Y116945D01*
X178071Y117082D01*
X178657Y117474D01*
X179049Y118060D01*
X179186Y118751D01*
X179049Y119442D01*
X178657Y120028D01*
X178071Y120420D01*
X177380Y120557D01*
X176689Y120420D01*
X176103Y120028D01*
X175711Y119442D01*
X175574Y118751D01*
X175638Y118428D01*
X173156Y115946D01*
X172656Y116153D01*
Y117408D01*
X172913Y117620D01*
X173604Y117757D01*
X174190Y118149D01*
X174582Y118735D01*
X174720Y119426D01*
X174582Y120117D01*
X174190Y120703D01*
X173604Y121095D01*
X172913Y121232D01*
D02*
G37*
G36*
X88456Y123887D02*
X87765Y123750D01*
X87179Y123358D01*
X86787Y122772D01*
X86650Y122081D01*
X86787Y121390D01*
X87179Y120804D01*
X87446Y120625D01*
Y119091D01*
X86881D01*
Y115941D01*
X90031D01*
Y119091D01*
X89466D01*
Y120625D01*
X89733Y120804D01*
X90125Y121390D01*
X90263Y122081D01*
X90125Y122772D01*
X89733Y123358D01*
X89147Y123750D01*
X88456Y123887D01*
D02*
G37*
G36*
X20217Y118877D02*
X18233D01*
X16249D01*
Y117393D01*
X16364D01*
X16658Y117015D01*
X16658Y116893D01*
Y115676D01*
X16612Y115440D01*
Y106580D01*
X16466Y106391D01*
X16109Y105529D01*
X15987Y104604D01*
X16109Y103679D01*
X16466Y102817D01*
X17034Y102077D01*
X17774Y101509D01*
X18636Y101152D01*
X19561Y101030D01*
X20486Y101152D01*
X21348Y101509D01*
X22088Y102077D01*
X22656Y102817D01*
X23013Y103679D01*
X23135Y104604D01*
X23013Y105529D01*
X22656Y106391D01*
X22088Y107131D01*
X21348Y107699D01*
X20486Y108056D01*
X19855Y108139D01*
Y113865D01*
X24997D01*
Y113715D01*
X30312D01*
Y117046D01*
X30722D01*
Y118727D01*
X27655D01*
X24588D01*
Y117109D01*
X20600D01*
X20217Y117393D01*
X20217Y117609D01*
Y118877D01*
D02*
G37*
G36*
X165918Y118815D02*
X165227Y118678D01*
X164641Y118286D01*
X164249Y117700D01*
X164112Y117009D01*
X164249Y116318D01*
X164641Y115732D01*
X165227Y115340D01*
X165359Y115314D01*
Y113240D01*
X164787D01*
Y110090D01*
X167937D01*
Y113240D01*
X167366D01*
Y115987D01*
X167587Y116318D01*
X167725Y117009D01*
X167587Y117700D01*
X167195Y118286D01*
X166609Y118678D01*
X165918Y118815D01*
D02*
G37*
G36*
X227066Y113507D02*
X226064Y113375D01*
X225130Y112988D01*
X224328Y112373D01*
X223713Y111571D01*
X223326Y110637D01*
X223195Y109635D01*
X223326Y108633D01*
X223713Y107699D01*
X224328Y106897D01*
X225130Y106282D01*
X226064Y105895D01*
X227066Y105763D01*
X228068Y105895D01*
X229002Y106282D01*
X229804Y106897D01*
X230419Y107699D01*
X230806Y108633D01*
X230938Y109635D01*
X230806Y110637D01*
X230419Y111571D01*
X229804Y112373D01*
X229002Y112988D01*
X228068Y113375D01*
X227066Y113507D01*
D02*
G37*
G36*
X193107Y116392D02*
X192416Y116255D01*
X191830Y115863D01*
X191438Y115277D01*
X191301Y114586D01*
X191438Y113895D01*
X191830Y113309D01*
X192416Y112917D01*
X193107Y112780D01*
X193798Y112917D01*
X194384Y113309D01*
X194567Y113583D01*
X211700D01*
X213713Y111569D01*
X213326Y110637D01*
X213194Y109635D01*
X213326Y108633D01*
X213713Y107699D01*
X214329Y106897D01*
X215130Y106282D01*
X216064Y105895D01*
X217066Y105763D01*
X218068Y105895D01*
X219002Y106282D01*
X219804Y106897D01*
X220419Y107699D01*
X220806Y108633D01*
X220938Y109635D01*
X220806Y110637D01*
X220419Y111571D01*
X219804Y112373D01*
X219002Y112988D01*
X218068Y113375D01*
X217066Y113507D01*
X216064Y113375D01*
X215132Y112989D01*
X212825Y115296D01*
X212499Y115513D01*
X212115Y115590D01*
X194567D01*
X194384Y115863D01*
X193798Y116255D01*
X193107Y116392D01*
D02*
G37*
G36*
X167937Y109303D02*
X164787D01*
Y106153D01*
X165352D01*
Y104193D01*
X165099Y104143D01*
X164513Y103751D01*
X164121Y103165D01*
X164116Y103137D01*
X163606D01*
X163512Y103609D01*
X163120Y104195D01*
X162534Y104587D01*
X161843Y104724D01*
X161152Y104587D01*
X160566Y104195D01*
X160174Y103609D01*
X160170Y103589D01*
X159660D01*
X159638Y103702D01*
X159247Y104288D01*
X158660Y104680D01*
X157969Y104817D01*
X157278Y104680D01*
X156692Y104288D01*
X156300Y103702D01*
X156163Y103011D01*
X156300Y102320D01*
X156692Y101734D01*
X156966Y101551D01*
Y100175D01*
X156616D01*
Y97147D01*
X156616Y97025D01*
X156322Y96647D01*
X156207D01*
Y95163D01*
X158191D01*
X160175D01*
Y96647D01*
X160061D01*
X159766Y97025D01*
X159766Y97147D01*
Y100175D01*
X158973D01*
Y101551D01*
X159247Y101734D01*
X159638Y102320D01*
X159642Y102340D01*
X160152D01*
X160174Y102227D01*
X160566Y101641D01*
X161152Y101249D01*
X161843Y101112D01*
X162534Y101249D01*
X163120Y101641D01*
X163512Y102227D01*
X163518Y102255D01*
X164027D01*
X164121Y101783D01*
X164513Y101197D01*
X164780Y101018D01*
Y99953D01*
X164386D01*
Y96925D01*
X164386Y96803D01*
X164092Y96425D01*
X163977D01*
Y94941D01*
X165961D01*
X167946D01*
Y96425D01*
X167831D01*
X167536Y96803D01*
X167536Y96925D01*
Y99953D01*
X166800D01*
Y101018D01*
X167068Y101197D01*
X167459Y101783D01*
X167596Y102474D01*
X167459Y103165D01*
X167313Y103384D01*
X167372Y103682D01*
Y106153D01*
X167937D01*
Y109303D01*
D02*
G37*
G36*
X33105Y108147D02*
X26018D01*
Y101061D01*
X33105D01*
Y108147D01*
D02*
G37*
G36*
X9561Y108178D02*
X8636Y108056D01*
X7774Y107699D01*
X7034Y107131D01*
X6466Y106391D01*
X6109Y105529D01*
X5987Y104604D01*
X6109Y103679D01*
X6466Y102817D01*
X7034Y102077D01*
X7774Y101509D01*
X8636Y101152D01*
X9561Y101030D01*
X10486Y101152D01*
X11348Y101509D01*
X12088Y102077D01*
X12656Y102817D01*
X13013Y103679D01*
X13135Y104604D01*
X13013Y105529D01*
X12656Y106391D01*
X12088Y107131D01*
X11348Y107699D01*
X10486Y108056D01*
X9561Y108178D01*
D02*
G37*
G36*
X148196Y119329D02*
X146212D01*
X144228D01*
Y117845D01*
X144343D01*
X144637Y117467D01*
X144637Y117345D01*
Y114317D01*
X145123D01*
Y103551D01*
X144849Y103368D01*
X144458Y102782D01*
X144320Y102090D01*
X144458Y101399D01*
X144849Y100813D01*
X145435Y100422D01*
X146126Y100284D01*
X146818Y100422D01*
X147404Y100813D01*
X147795Y101399D01*
X147933Y102090D01*
X147795Y102782D01*
X147404Y103368D01*
X147130Y103551D01*
Y114317D01*
X147787D01*
Y117345D01*
X147787Y117467D01*
X148082Y117845D01*
X148196D01*
Y119329D01*
D02*
G37*
G36*
X227066Y103507D02*
X226064Y103375D01*
X225130Y102988D01*
X224328Y102373D01*
X223713Y101571D01*
X223326Y100637D01*
X223195Y99635D01*
X223326Y98633D01*
X223713Y97699D01*
X224328Y96897D01*
X225130Y96282D01*
X226064Y95895D01*
X227066Y95763D01*
X228068Y95895D01*
X229002Y96282D01*
X229804Y96897D01*
X230419Y97699D01*
X230806Y98633D01*
X230938Y99635D01*
X230806Y100637D01*
X230419Y101571D01*
X229804Y102373D01*
X229002Y102988D01*
X228068Y103375D01*
X227066Y103507D01*
D02*
G37*
G36*
X193107Y109461D02*
X192416Y109323D01*
X191830Y108932D01*
X191438Y108346D01*
X191301Y107654D01*
X191438Y106963D01*
X191830Y106377D01*
X192416Y105986D01*
X193107Y105848D01*
X193798Y105986D01*
X194384Y106377D01*
X194563Y106644D01*
X197306D01*
X205030Y98921D01*
X205358Y98702D01*
X205744Y98625D01*
X213330D01*
X213713Y97699D01*
X214329Y96897D01*
X215130Y96282D01*
X216064Y95895D01*
X217066Y95763D01*
X218068Y95895D01*
X219002Y96282D01*
X219804Y96897D01*
X220419Y97699D01*
X220806Y98633D01*
X220938Y99635D01*
X220806Y100637D01*
X220419Y101571D01*
X219804Y102373D01*
X219002Y102988D01*
X218068Y103375D01*
X217066Y103507D01*
X216064Y103375D01*
X215130Y102988D01*
X214329Y102373D01*
X213713Y101571D01*
X213330Y100645D01*
X206163D01*
X198439Y108369D01*
X198111Y108588D01*
X197725Y108664D01*
X194563D01*
X194384Y108932D01*
X193798Y109323D01*
X193107Y109461D01*
D02*
G37*
G36*
X121025Y113819D02*
X112757D01*
Y104763D01*
X120000D01*
X126587Y98176D01*
Y95234D01*
X126385Y94932D01*
X126286Y94433D01*
X126385Y93934D01*
X126668Y93511D01*
X127092Y93228D01*
X127591Y93129D01*
X128090Y93228D01*
X128513Y93511D01*
X128796Y93934D01*
X128895Y94433D01*
X128796Y94932D01*
X128594Y95234D01*
Y98591D01*
X128518Y98975D01*
X128300Y99301D01*
X121025Y106576D01*
Y113819D01*
D02*
G37*
G36*
X109857Y92169D02*
X109166Y92032D01*
X108580Y91640D01*
X108188Y91054D01*
X108051Y90363D01*
X108188Y89672D01*
X108580Y89086D01*
X109166Y88694D01*
X109857Y88557D01*
X110548Y88694D01*
X111135Y89086D01*
X111317Y89359D01*
X112665D01*
Y88846D01*
X115815D01*
Y91996D01*
X112665D01*
Y91367D01*
X111317D01*
X111135Y91640D01*
X110548Y92032D01*
X109857Y92169D01*
D02*
G37*
G36*
X227066Y93507D02*
X226064Y93375D01*
X225130Y92988D01*
X224328Y92373D01*
X223713Y91571D01*
X223326Y90637D01*
X223195Y89635D01*
X223326Y88633D01*
X223713Y87699D01*
X224328Y86897D01*
X225130Y86282D01*
X226064Y85895D01*
X227066Y85763D01*
X228068Y85895D01*
X229002Y86282D01*
X229804Y86897D01*
X230419Y87699D01*
X230806Y88633D01*
X230938Y89635D01*
X230806Y90637D01*
X230419Y91571D01*
X229804Y92373D01*
X229002Y92988D01*
X228068Y93375D01*
X227066Y93507D01*
D02*
G37*
G36*
X193107Y102529D02*
X192416Y102392D01*
X191830Y102000D01*
X191438Y101414D01*
X191301Y100723D01*
X191438Y100032D01*
X191830Y99446D01*
X192416Y99054D01*
X193107Y98917D01*
X193798Y99054D01*
X194384Y99446D01*
X194563Y99713D01*
X196397D01*
X207189Y88921D01*
X207517Y88702D01*
X207903Y88625D01*
X213330D01*
X213713Y87699D01*
X214329Y86897D01*
X215130Y86282D01*
X216064Y85895D01*
X217066Y85763D01*
X218068Y85895D01*
X219002Y86282D01*
X219804Y86897D01*
X220419Y87699D01*
X220806Y88633D01*
X220938Y89635D01*
X220806Y90637D01*
X220419Y91571D01*
X219804Y92373D01*
X219002Y92988D01*
X218068Y93375D01*
X217066Y93507D01*
X216064Y93375D01*
X215130Y92988D01*
X214329Y92373D01*
X213713Y91571D01*
X213330Y90645D01*
X208321D01*
X197529Y101437D01*
X197202Y101656D01*
X196815Y101733D01*
X194563D01*
X194384Y102000D01*
X193798Y102392D01*
X193107Y102529D01*
D02*
G37*
G36*
X160024Y83613D02*
X158540D01*
Y82129D01*
X160024D01*
Y83613D01*
D02*
G37*
G36*
X157540D02*
X156056D01*
Y82129D01*
X157540D01*
Y83613D01*
D02*
G37*
G36*
X165292Y82200D02*
X163808D01*
Y80716D01*
X165292D01*
Y82200D01*
D02*
G37*
G36*
X109857Y83198D02*
X109166Y83061D01*
X108580Y82669D01*
X108188Y82083D01*
X108051Y81392D01*
X108188Y80701D01*
X108580Y80115D01*
X109166Y79723D01*
X109857Y79586D01*
X110548Y79723D01*
X111135Y80115D01*
X111446Y80582D01*
X112666D01*
Y80010D01*
X115816D01*
Y83160D01*
X112666D01*
Y82589D01*
X111188D01*
X111135Y82669D01*
X110548Y83061D01*
X109857Y83198D01*
D02*
G37*
G36*
X227066Y83507D02*
X226064Y83375D01*
X225130Y82988D01*
X224328Y82373D01*
X223713Y81571D01*
X223326Y80637D01*
X223195Y79635D01*
X223326Y78633D01*
X223713Y77699D01*
X224328Y76897D01*
X225130Y76282D01*
X226064Y75895D01*
X227066Y75763D01*
X228068Y75895D01*
X229002Y76282D01*
X229804Y76897D01*
X230419Y77699D01*
X230806Y78633D01*
X230938Y79635D01*
X230806Y80637D01*
X230419Y81571D01*
X229804Y82373D01*
X229002Y82988D01*
X228068Y83375D01*
X227066Y83507D01*
D02*
G37*
G36*
X193107Y95598D02*
X192416Y95460D01*
X191830Y95069D01*
X191438Y94482D01*
X191301Y93791D01*
X191438Y93100D01*
X191830Y92514D01*
X192416Y92122D01*
X193107Y91985D01*
X193430Y92049D01*
X206554Y78925D01*
X206879Y78708D01*
X207263Y78632D01*
X213327D01*
X213713Y77699D01*
X214329Y76897D01*
X215130Y76282D01*
X216064Y75895D01*
X217066Y75763D01*
X218068Y75895D01*
X219002Y76282D01*
X219804Y76897D01*
X220419Y77699D01*
X220806Y78633D01*
X220938Y79635D01*
X220806Y80637D01*
X220419Y81571D01*
X219804Y82373D01*
X219002Y82988D01*
X218068Y83375D01*
X217066Y83507D01*
X216064Y83375D01*
X215130Y82988D01*
X214329Y82373D01*
X213713Y81571D01*
X213327Y80639D01*
X207679D01*
X194849Y93468D01*
X194913Y93791D01*
X194776Y94482D01*
X194384Y95069D01*
X193798Y95460D01*
X193107Y95598D01*
D02*
G37*
G36*
X160024Y81129D02*
X158040D01*
X156056D01*
Y79645D01*
X156171D01*
X156465Y79267D01*
X156465Y79145D01*
Y76117D01*
X157037D01*
Y74790D01*
X156771Y74393D01*
X156634Y73702D01*
X156771Y73011D01*
X157163Y72425D01*
X157749Y72033D01*
X158440Y71896D01*
X159131Y72033D01*
X159718Y72425D01*
X160109Y73011D01*
X160247Y73702D01*
X160109Y74393D01*
X159718Y74979D01*
X159131Y75371D01*
X159044Y75388D01*
Y76117D01*
X159615D01*
Y79145D01*
X159615Y79267D01*
X159910Y79645D01*
X160024D01*
Y81129D01*
D02*
G37*
G36*
X109857Y74228D02*
X109166Y74090D01*
X108580Y73699D01*
X108482Y73553D01*
X88562D01*
X88178Y73476D01*
X87853Y73259D01*
X55113Y40519D01*
X54895Y40193D01*
X54819Y39809D01*
Y22823D01*
X53926Y21930D01*
X52993Y22316D01*
X51991Y22448D01*
X50989Y22316D01*
X50055Y21929D01*
X49253Y21314D01*
X48638Y20512D01*
X48251Y19578D01*
X48120Y18576D01*
X48251Y17574D01*
X48638Y16640D01*
X49253Y15838D01*
X50055Y15223D01*
X50989Y14836D01*
X51991Y14704D01*
X52993Y14836D01*
X53927Y15223D01*
X54729Y15838D01*
X55344Y16640D01*
X55731Y17574D01*
X55863Y18576D01*
X55731Y19578D01*
X55345Y20510D01*
X56532Y21697D01*
X56749Y22023D01*
X56826Y22407D01*
Y39393D01*
X88978Y71545D01*
X108312D01*
X108580Y71144D01*
X109166Y70752D01*
X109857Y70615D01*
X110548Y70752D01*
X111135Y71144D01*
X111317Y71418D01*
X112666D01*
Y70983D01*
X115816D01*
Y74133D01*
X112666D01*
Y73425D01*
X111317D01*
X111135Y73699D01*
X110548Y74090D01*
X109857Y74228D01*
D02*
G37*
G36*
X45333Y71087D02*
X44642Y70950D01*
X44056Y70558D01*
X43664Y69972D01*
X43527Y69281D01*
X43664Y68590D01*
X44056Y68004D01*
X44642Y67612D01*
X45333Y67475D01*
X46024Y67612D01*
X46611Y68004D01*
X47002Y68590D01*
X47139Y69281D01*
X47002Y69972D01*
X46611Y70558D01*
X46024Y70950D01*
X45333Y71087D01*
D02*
G37*
G36*
X227066Y73507D02*
X226064Y73375D01*
X225130Y72988D01*
X224328Y72373D01*
X223713Y71571D01*
X223326Y70637D01*
X223195Y69635D01*
X223326Y68633D01*
X223713Y67699D01*
X224328Y66897D01*
X225130Y66282D01*
X226064Y65895D01*
X227066Y65763D01*
X228068Y65895D01*
X229002Y66282D01*
X229804Y66897D01*
X230419Y67699D01*
X230806Y68633D01*
X230938Y69635D01*
X230806Y70637D01*
X230419Y71571D01*
X229804Y72373D01*
X229002Y72988D01*
X228068Y73375D01*
X227066Y73507D01*
D02*
G37*
G36*
X193175Y86019D02*
X192484Y85881D01*
X191898Y85490D01*
X191506Y84904D01*
X191369Y84213D01*
X191506Y83521D01*
X191898Y82935D01*
X192484Y82544D01*
X193175Y82406D01*
X193498Y82471D01*
X207043Y68925D01*
X207369Y68708D01*
X207753Y68632D01*
X213327D01*
X213713Y67699D01*
X214329Y66897D01*
X215130Y66282D01*
X216064Y65895D01*
X217066Y65763D01*
X218068Y65895D01*
X219002Y66282D01*
X219804Y66897D01*
X220419Y67699D01*
X220806Y68633D01*
X220938Y69635D01*
X220806Y70637D01*
X220419Y71571D01*
X219804Y72373D01*
X219002Y72988D01*
X218068Y73375D01*
X217066Y73507D01*
X216064Y73375D01*
X215130Y72988D01*
X214329Y72373D01*
X213713Y71571D01*
X213327Y70639D01*
X208168D01*
X194917Y83890D01*
X194981Y84213D01*
X194844Y84904D01*
X194452Y85490D01*
X193866Y85881D01*
X193175Y86019D01*
D02*
G37*
G36*
X109857Y65260D02*
X109166Y65122D01*
X108580Y64731D01*
X108397Y64457D01*
X89958D01*
X89574Y64381D01*
X89248Y64163D01*
X61282Y36197D01*
X61064Y35871D01*
X60988Y35487D01*
Y22315D01*
X60055Y21929D01*
X59254Y21314D01*
X58638Y20512D01*
X58251Y19578D01*
X58119Y18576D01*
X58251Y17574D01*
X58638Y16640D01*
X59254Y15838D01*
X60055Y15223D01*
X60989Y14836D01*
X61991Y14704D01*
X62993Y14836D01*
X63927Y15223D01*
X64729Y15838D01*
X65133Y16365D01*
X65633Y16195D01*
Y14026D01*
X65702Y13679D01*
X65899Y13384D01*
X68696Y10587D01*
X68638Y10512D01*
X68251Y9578D01*
X68120Y8576D01*
X68251Y7574D01*
X68638Y6640D01*
X69253Y5838D01*
X70055Y5223D01*
X70989Y4836D01*
X71991Y4704D01*
X72993Y4836D01*
X73927Y5223D01*
X74729Y5838D01*
X75344Y6640D01*
X75731Y7574D01*
X75863Y8576D01*
X75731Y9578D01*
X75344Y10512D01*
X74729Y11314D01*
X73927Y11929D01*
X72993Y12316D01*
X71991Y12448D01*
X70989Y12316D01*
X70055Y11929D01*
X69980Y11871D01*
X67449Y14402D01*
Y34874D01*
X90138Y57562D01*
X108692D01*
X109166Y57245D01*
X109857Y57108D01*
X110548Y57245D01*
X111135Y57637D01*
X111526Y58223D01*
X111663Y58914D01*
X111526Y59606D01*
X111135Y60192D01*
X110548Y60583D01*
X109857Y60721D01*
X109166Y60583D01*
X108580Y60192D01*
X108188Y59606D01*
X108181Y59569D01*
X89857D01*
X89473Y59493D01*
X89148Y59276D01*
X88930Y58950D01*
X88924Y58916D01*
X65899Y35892D01*
X65702Y35597D01*
X65633Y35250D01*
Y20957D01*
X65133Y20787D01*
X64729Y21314D01*
X63927Y21929D01*
X62995Y22315D01*
Y35071D01*
X90373Y62450D01*
X108397D01*
X108580Y62176D01*
X109166Y61785D01*
X109857Y61647D01*
X110548Y61785D01*
X111135Y62176D01*
X111526Y62762D01*
X111663Y63454D01*
X111526Y64145D01*
X111135Y64731D01*
X110548Y65122D01*
X109857Y65260D01*
D02*
G37*
G36*
X178150Y62575D02*
X177459Y62438D01*
X176873Y62046D01*
X176481Y61460D01*
X176344Y60769D01*
X176481Y60078D01*
X176529Y60007D01*
Y59484D01*
X176167Y59185D01*
X175701Y59337D01*
X175671Y59489D01*
X175279Y60075D01*
X174693Y60467D01*
X174002Y60604D01*
X173311Y60467D01*
X172725Y60075D01*
X172333Y59489D01*
X172196Y58798D01*
X172333Y58107D01*
X172725Y57521D01*
X173311Y57129D01*
X173526Y57086D01*
X173691Y56544D01*
X173112Y55966D01*
X173029Y55949D01*
X172443Y55557D01*
X172051Y54971D01*
X171914Y54280D01*
X172051Y53589D01*
X172291Y53231D01*
Y49655D01*
X171747D01*
Y45325D01*
X176077D01*
Y49655D01*
X175534D01*
Y53800D01*
X179297Y57563D01*
X179648Y58089D01*
X179772Y58710D01*
Y60007D01*
X179819Y60078D01*
X179956Y60769D01*
X179819Y61460D01*
X179428Y62046D01*
X178841Y62438D01*
X178150Y62575D01*
D02*
G37*
G36*
X227066Y63507D02*
X226064Y63375D01*
X225130Y62988D01*
X224328Y62373D01*
X223713Y61571D01*
X223326Y60637D01*
X223195Y59635D01*
X223326Y58633D01*
X223713Y57699D01*
X224328Y56897D01*
X225130Y56282D01*
X226064Y55895D01*
X227066Y55763D01*
X228068Y55895D01*
X229002Y56282D01*
X229804Y56897D01*
X230419Y57699D01*
X230806Y58633D01*
X230938Y59635D01*
X230806Y60637D01*
X230419Y61571D01*
X229804Y62373D01*
X229002Y62988D01*
X228068Y63375D01*
X227066Y63507D01*
D02*
G37*
G36*
X193175Y79087D02*
X192484Y78950D01*
X191898Y78558D01*
X191506Y77972D01*
X191369Y77281D01*
X191506Y76590D01*
X191898Y76004D01*
X192484Y75612D01*
X193175Y75475D01*
X193498Y75539D01*
X210111Y58925D01*
X210437Y58708D01*
X210821Y58631D01*
X213327D01*
X213713Y57699D01*
X214329Y56897D01*
X215130Y56282D01*
X216064Y55895D01*
X217066Y55763D01*
X218068Y55895D01*
X219002Y56282D01*
X219804Y56897D01*
X220419Y57699D01*
X220806Y58633D01*
X220938Y59635D01*
X220806Y60637D01*
X220419Y61571D01*
X219804Y62373D01*
X219002Y62988D01*
X218068Y63375D01*
X217066Y63507D01*
X216064Y63375D01*
X215130Y62988D01*
X214329Y62373D01*
X213713Y61571D01*
X213327Y60639D01*
X211237D01*
X194917Y76958D01*
X194981Y77281D01*
X194844Y77972D01*
X194452Y78558D01*
X193866Y78950D01*
X193175Y79087D01*
D02*
G37*
G36*
X155640Y54263D02*
X154949Y54126D01*
X154363Y53734D01*
X153971Y53148D01*
X153834Y52457D01*
X153971Y51766D01*
X154363Y51180D01*
X154949Y50788D01*
X155640Y50651D01*
X156331Y50788D01*
X156918Y51180D01*
X157309Y51766D01*
X157447Y52457D01*
X157309Y53148D01*
X156918Y53734D01*
X156331Y54126D01*
X155640Y54263D01*
D02*
G37*
G36*
X164016Y49921D02*
X162532D01*
Y48437D01*
X164016D01*
Y49921D01*
D02*
G37*
G36*
X170270Y49891D02*
X168786D01*
Y48407D01*
X170270D01*
Y49891D01*
D02*
G37*
G36*
X227066Y53507D02*
X226064Y53375D01*
X225130Y52988D01*
X224328Y52373D01*
X223713Y51571D01*
X223326Y50637D01*
X223195Y49635D01*
X223326Y48633D01*
X223713Y47699D01*
X224328Y46897D01*
X225130Y46282D01*
X226064Y45895D01*
X227066Y45763D01*
X228068Y45895D01*
X229002Y46282D01*
X229804Y46897D01*
X230419Y47699D01*
X230806Y48633D01*
X230938Y49635D01*
X230806Y50637D01*
X230419Y51571D01*
X229804Y52373D01*
X229002Y52988D01*
X228068Y53375D01*
X227066Y53507D01*
D02*
G37*
G36*
X193175Y72156D02*
X192484Y72018D01*
X191898Y71627D01*
X191506Y71041D01*
X191369Y70349D01*
X191506Y69658D01*
X191898Y69072D01*
X192484Y68681D01*
X193175Y68543D01*
X193498Y68607D01*
X213180Y48925D01*
X213298Y48846D01*
X213326Y48633D01*
X213713Y47699D01*
X214329Y46897D01*
X215130Y46282D01*
X216064Y45895D01*
X217066Y45763D01*
X218068Y45895D01*
X219002Y46282D01*
X219804Y46897D01*
X220419Y47699D01*
X220806Y48633D01*
X220938Y49635D01*
X220806Y50637D01*
X220419Y51571D01*
X219804Y52373D01*
X219002Y52988D01*
X218068Y53375D01*
X217066Y53507D01*
X216064Y53375D01*
X215130Y52988D01*
X214329Y52373D01*
X213872Y51778D01*
X213264Y51680D01*
X194917Y70026D01*
X194981Y70349D01*
X194844Y71041D01*
X194452Y71627D01*
X193866Y72018D01*
X193175Y72156D01*
D02*
G37*
G36*
X152300Y46457D02*
X151609Y46320D01*
X151023Y45928D01*
X150631Y45342D01*
X150494Y44651D01*
X150631Y43960D01*
X151023Y43374D01*
X151609Y42982D01*
X152300Y42845D01*
X152991Y42982D01*
X153577Y43374D01*
X153969Y43960D01*
X154106Y44651D01*
X153969Y45342D01*
X153577Y45928D01*
X152991Y46320D01*
X152300Y46457D01*
D02*
G37*
G36*
X176077Y43750D02*
X171747D01*
Y42788D01*
X169937D01*
X169895Y42851D01*
X169308Y43243D01*
X168617Y43380D01*
X167926Y43243D01*
X167340Y42851D01*
X166948Y42265D01*
X166811Y41574D01*
X166948Y40883D01*
X167340Y40297D01*
X167926Y39905D01*
X168617Y39768D01*
X169308Y39905D01*
X169895Y40297D01*
X169937Y40360D01*
X171747D01*
Y39419D01*
X176077D01*
Y43750D01*
D02*
G37*
G36*
X125098Y39108D02*
X121948D01*
Y39077D01*
X121448Y39074D01*
X118300D01*
Y35924D01*
X121450D01*
Y35955D01*
X121950Y35958D01*
X125098D01*
Y39108D01*
D02*
G37*
G36*
X114158Y39108D02*
X114157Y39108D01*
X111008D01*
Y35958D01*
X114143D01*
X114157Y35958D01*
X114643Y35924D01*
X114644Y35924D01*
X117792D01*
Y39074D01*
X114658D01*
X114644Y39074D01*
X114158Y39108D01*
D02*
G37*
G36*
X230905Y43474D02*
X223228D01*
Y35796D01*
X230905D01*
Y43474D01*
D02*
G37*
G36*
X198805Y59594D02*
X198114Y59456D01*
X197528Y59065D01*
X197137Y58479D01*
X196999Y57787D01*
X197137Y57096D01*
X197528Y56510D01*
X198114Y56119D01*
X198805Y55981D01*
X199128Y56045D01*
X213681Y41493D01*
X213326Y40637D01*
X213194Y39635D01*
X213326Y38633D01*
X213713Y37699D01*
X214329Y36897D01*
X215130Y36282D01*
X216064Y35895D01*
X217066Y35763D01*
X218068Y35895D01*
X219002Y36282D01*
X219804Y36897D01*
X220419Y37699D01*
X220806Y38633D01*
X220938Y39635D01*
X220806Y40637D01*
X220419Y41571D01*
X219804Y42373D01*
X219002Y42988D01*
X218068Y43375D01*
X217066Y43507D01*
X216064Y43375D01*
X215130Y42988D01*
X215070Y42942D01*
X200548Y57464D01*
X200612Y57787D01*
X200474Y58479D01*
X200083Y59065D01*
X199497Y59456D01*
X198805Y59594D01*
D02*
G37*
G36*
X226098Y23109D02*
Y19688D01*
X229519D01*
X229449Y20220D01*
X229051Y21181D01*
X228417Y22007D01*
X227592Y22641D01*
X226630Y23039D01*
X226098Y23109D01*
D02*
G37*
G36*
X225098D02*
X224566Y23039D01*
X223605Y22641D01*
X222779Y22007D01*
X222145Y21181D01*
X221747Y20220D01*
X221677Y19688D01*
X225098D01*
Y23109D01*
D02*
G37*
G36*
X215598Y22762D02*
X214673Y22640D01*
X213811Y22283D01*
X213071Y21715D01*
X212503Y20975D01*
X212146Y20113D01*
X212024Y19188D01*
X212146Y18263D01*
X212503Y17401D01*
X213071Y16661D01*
X213811Y16093D01*
X214673Y15736D01*
X215598Y15614D01*
X216523Y15736D01*
X217385Y16093D01*
X218125Y16661D01*
X218693Y17401D01*
X219050Y18263D01*
X219172Y19188D01*
X219050Y20113D01*
X218693Y20975D01*
X218125Y21715D01*
X217385Y22283D01*
X216523Y22640D01*
X215598Y22762D01*
D02*
G37*
G36*
X229519Y18688D02*
X226098D01*
Y15267D01*
X226630Y15337D01*
X227592Y15735D01*
X228417Y16369D01*
X229051Y17195D01*
X229449Y18156D01*
X229519Y18688D01*
D02*
G37*
G36*
X225098D02*
X221677D01*
X221747Y18156D01*
X222145Y17195D01*
X222779Y16369D01*
X223605Y15735D01*
X224566Y15337D01*
X225098Y15267D01*
Y18688D01*
D02*
G37*
G36*
X75830Y22415D02*
X68153D01*
Y14738D01*
X75830D01*
Y22415D01*
D02*
G37*
G36*
X11991Y22448D02*
X10989Y22316D01*
X10055Y21929D01*
X9253Y21314D01*
X8638Y20512D01*
X8251Y19578D01*
X8119Y18576D01*
X8251Y17574D01*
X8638Y16640D01*
X9253Y15838D01*
X10055Y15223D01*
X10989Y14836D01*
X11991Y14704D01*
X12993Y14836D01*
X13927Y15223D01*
X14729Y15838D01*
X15344Y16640D01*
X15731Y17574D01*
X15863Y18576D01*
X15731Y19578D01*
X15344Y20512D01*
X14729Y21314D01*
X13927Y21929D01*
X12993Y22316D01*
X11991Y22448D01*
D02*
G37*
G36*
X226098Y13109D02*
Y9688D01*
X229519D01*
X229449Y10220D01*
X229051Y11181D01*
X228417Y12007D01*
X227592Y12641D01*
X226630Y13039D01*
X226098Y13109D01*
D02*
G37*
G36*
X225098D02*
X224566Y13039D01*
X223605Y12641D01*
X222779Y12007D01*
X222145Y11181D01*
X221747Y10220D01*
X221677Y9688D01*
X225098D01*
Y13109D01*
D02*
G37*
G36*
X12491Y12795D02*
Y9076D01*
X16210D01*
X16130Y9685D01*
X15702Y10718D01*
X15021Y11606D01*
X14133Y12287D01*
X13100Y12715D01*
X12491Y12795D01*
D02*
G37*
G36*
X11491Y12795D02*
X10882Y12715D01*
X9849Y12287D01*
X8961Y11606D01*
X8281Y10718D01*
X7852Y9685D01*
X7772Y9076D01*
X11491D01*
Y12795D01*
D02*
G37*
G36*
X219142Y12731D02*
X212055D01*
Y5645D01*
X219142D01*
Y12731D01*
D02*
G37*
G36*
X229519Y8688D02*
X226098D01*
Y5267D01*
X226630Y5337D01*
X227592Y5735D01*
X228417Y6369D01*
X229051Y7195D01*
X229449Y8156D01*
X229519Y8688D01*
D02*
G37*
G36*
X225098D02*
X221677D01*
X221747Y8156D01*
X222145Y7195D01*
X222779Y6369D01*
X223605Y5735D01*
X224566Y5337D01*
X225098Y5267D01*
Y8688D01*
D02*
G37*
G36*
X61991Y12448D02*
X60989Y12316D01*
X60055Y11929D01*
X59254Y11314D01*
X58638Y10512D01*
X58251Y9578D01*
X58119Y8576D01*
X58251Y7574D01*
X58638Y6640D01*
X59254Y5838D01*
X60055Y5223D01*
X60989Y4836D01*
X61991Y4704D01*
X62993Y4836D01*
X63927Y5223D01*
X64729Y5838D01*
X65344Y6640D01*
X65731Y7574D01*
X65863Y8576D01*
X65731Y9578D01*
X65344Y10512D01*
X64729Y11314D01*
X63927Y11929D01*
X62993Y12316D01*
X61991Y12448D01*
D02*
G37*
G36*
X51991D02*
X50989Y12316D01*
X50055Y11929D01*
X49253Y11314D01*
X48638Y10512D01*
X48251Y9578D01*
X48120Y8576D01*
X48251Y7574D01*
X48638Y6640D01*
X49253Y5838D01*
X50055Y5223D01*
X50989Y4836D01*
X51991Y4704D01*
X52993Y4836D01*
X53927Y5223D01*
X54729Y5838D01*
X55344Y6640D01*
X55731Y7574D01*
X55863Y8576D01*
X55731Y9578D01*
X55344Y10512D01*
X54729Y11314D01*
X53927Y11929D01*
X52993Y12316D01*
X51991Y12448D01*
D02*
G37*
G36*
X41991D02*
X40989Y12316D01*
X40055Y11929D01*
X39254Y11314D01*
X38638Y10512D01*
X38251Y9578D01*
X38120Y8576D01*
X38251Y7574D01*
X38638Y6640D01*
X39254Y5838D01*
X40055Y5223D01*
X40989Y4836D01*
X41991Y4704D01*
X42993Y4836D01*
X43927Y5223D01*
X44729Y5838D01*
X45344Y6640D01*
X45731Y7574D01*
X45863Y8576D01*
X45731Y9578D01*
X45344Y10512D01*
X44729Y11314D01*
X43927Y11929D01*
X42993Y12316D01*
X41991Y12448D01*
D02*
G37*
G36*
X11491Y8076D02*
X7772D01*
X7852Y7467D01*
X8281Y6434D01*
X8961Y5546D01*
X9849Y4865D01*
X10882Y4437D01*
X11491Y4357D01*
Y8076D01*
D02*
G37*
G36*
X16210D02*
X12491D01*
Y4357D01*
X13100Y4437D01*
X14133Y4865D01*
X15021Y5546D01*
X15702Y6434D01*
X16130Y7467D01*
X16210Y8076D01*
D02*
G37*
%LPD*%
G36*
X151467Y171006D02*
X148212Y167750D01*
X147684Y167929D01*
X147631Y168196D01*
X147348Y168620D01*
X146925Y168902D01*
X146425Y169002D01*
X145926Y168902D01*
X145503Y168620D01*
X145220Y168196D01*
X145121Y167697D01*
X145125Y167674D01*
X130200Y152748D01*
X123601D01*
Y153981D01*
X123601Y154103D01*
X123896Y154481D01*
X124010D01*
Y155965D01*
X122026D01*
Y156465D01*
X121526D01*
Y158449D01*
X120042D01*
X119688Y158097D01*
X116890D01*
Y157532D01*
X115114D01*
X114902Y157848D01*
X114316Y158240D01*
X113625Y158377D01*
X112934Y158240D01*
X112348Y157848D01*
X111956Y157262D01*
X111819Y156571D01*
X111956Y155880D01*
X112348Y155294D01*
X112934Y154902D01*
X113625Y154765D01*
X114316Y154902D01*
X114902Y155294D01*
X115048Y155512D01*
X116890D01*
Y154947D01*
X119952Y154947D01*
X120041Y154481D01*
Y154480D01*
X119675Y154160D01*
X116890D01*
Y152748D01*
X99281D01*
X87467Y164563D01*
X87279Y164688D01*
X87383Y165188D01*
X136043D01*
X136389Y165257D01*
X136682Y165452D01*
X142665Y171436D01*
X151067D01*
X151221Y171466D01*
X151467Y171006D01*
D02*
G37*
G36*
X148923Y174668D02*
X151079D01*
X151454Y174168D01*
X151420Y173996D01*
X151425Y173974D01*
X150693Y173242D01*
X142291D01*
X141946Y173173D01*
X141653Y172978D01*
X135669Y166994D01*
X110461D01*
X110453Y167002D01*
X110240Y167494D01*
X110415Y167756D01*
X110514Y168255D01*
X110509Y168278D01*
X110971Y168739D01*
X129704D01*
X130049Y168808D01*
X130342Y169004D01*
X136009Y174671D01*
X148908D01*
X148923Y174668D01*
D02*
G37*
%LPC*%
G36*
X133437Y160211D02*
X132938Y160111D01*
X132515Y159828D01*
X132232Y159405D01*
X132133Y158906D01*
X132232Y158407D01*
X132515Y157984D01*
X132938Y157701D01*
X133437Y157601D01*
X133936Y157701D01*
X134360Y157984D01*
X134643Y158407D01*
X134742Y158906D01*
X134643Y159405D01*
X134360Y159828D01*
X133936Y160111D01*
X133437Y160211D01*
D02*
G37*
G36*
X122526Y158449D02*
Y156965D01*
X124010D01*
Y158449D01*
X122526D01*
D02*
G37*
G36*
X137654Y173108D02*
X137155Y173008D01*
X136732Y172725D01*
X136449Y172302D01*
X136350Y171803D01*
X136449Y171304D01*
X136732Y170881D01*
X137155Y170598D01*
X137654Y170499D01*
X138153Y170598D01*
X138577Y170881D01*
X138859Y171304D01*
X138959Y171803D01*
X138859Y172302D01*
X138577Y172725D01*
X138153Y173008D01*
X137654Y173108D01*
D02*
G37*
%LPD*%
G36*
X131739Y79277D02*
X132064Y79060D01*
X132448Y78983D01*
X142705D01*
X142888Y78710D01*
X143474Y78318D01*
X144165Y78181D01*
X144856Y78318D01*
X145442Y78710D01*
X145834Y79296D01*
X145962Y79939D01*
X145978Y79995D01*
X146083Y80119D01*
X146760Y80149D01*
X149923Y76986D01*
Y55872D01*
X149510Y55616D01*
X149423Y55617D01*
X148761Y55748D01*
X148070Y55611D01*
X147629Y55317D01*
X147305Y55252D01*
X146845Y54945D01*
X145279Y53379D01*
X143881D01*
Y54323D01*
X139551D01*
Y49993D01*
X143881D01*
Y50543D01*
X145866D01*
X146409Y50651D01*
X146869Y50959D01*
X148165Y52254D01*
X148761Y52136D01*
X149423Y52267D01*
X149510Y52268D01*
X149923Y52012D01*
Y50657D01*
X145722Y46455D01*
X137736D01*
X137479Y46868D01*
X137480Y46955D01*
X137612Y47617D01*
X137474Y48308D01*
X137223Y48684D01*
Y49993D01*
X137976D01*
Y54323D01*
X133645D01*
Y49993D01*
X134387D01*
Y48684D01*
X134136Y48308D01*
X133999Y47617D01*
X134131Y46955D01*
X134131Y46868D01*
X133875Y46455D01*
X127505D01*
X127121Y46379D01*
X126795Y46161D01*
X123679Y43045D01*
X121948D01*
Y43014D01*
X121448Y43011D01*
X121236D01*
X121029Y43511D01*
X127775Y50257D01*
X127993Y50582D01*
X128069Y50966D01*
Y78067D01*
X127993Y78451D01*
X127775Y78776D01*
X126310Y80241D01*
X126374Y80564D01*
X126237Y81255D01*
X125846Y81841D01*
X125259Y82233D01*
X124568Y82370D01*
X123877Y82233D01*
X123291Y81841D01*
X122899Y81255D01*
X122762Y80564D01*
X122899Y79873D01*
X123291Y79287D01*
X123877Y78895D01*
X124568Y78758D01*
X124891Y78822D01*
X125397Y78316D01*
X125150Y77856D01*
X124900Y77905D01*
X124209Y77768D01*
X123623Y77376D01*
X123231Y76790D01*
X123094Y76099D01*
X123231Y75408D01*
X123623Y74822D01*
X123897Y74639D01*
Y73763D01*
X123397Y73612D01*
X123091Y74068D01*
X122505Y74460D01*
X121814Y74597D01*
X121123Y74460D01*
X120537Y74068D01*
X120253Y73643D01*
X119753Y73795D01*
Y74133D01*
X119719D01*
X119512Y74633D01*
X120360Y75480D01*
X120675Y75418D01*
X121366Y75555D01*
X121952Y75947D01*
X122344Y76533D01*
X122482Y77224D01*
X122344Y77915D01*
X121952Y78501D01*
X121657Y78699D01*
Y81585D01*
X121580Y81972D01*
X121361Y82299D01*
X121034Y82518D01*
X120647Y82595D01*
X119753D01*
Y83160D01*
X119187D01*
Y84264D01*
X119752D01*
Y87414D01*
X119187D01*
Y88846D01*
X119752D01*
Y90611D01*
X120214Y90802D01*
X131739Y79277D01*
D02*
G37*
%LPC*%
G36*
X133663Y69719D02*
X132972Y69582D01*
X132386Y69190D01*
X131994Y68604D01*
X131857Y67913D01*
X131994Y67222D01*
X132386Y66636D01*
X132972Y66244D01*
X133663Y66107D01*
X134354Y66244D01*
X134941Y66636D01*
X135332Y67222D01*
X135469Y67913D01*
X135332Y68604D01*
X134941Y69190D01*
X134354Y69582D01*
X133663Y69719D01*
D02*
G37*
G36*
X140028Y61728D02*
X139337Y61591D01*
X138751Y61199D01*
X138359Y60613D01*
X138222Y59922D01*
X138359Y59231D01*
X138751Y58645D01*
X139337Y58253D01*
X140028Y58116D01*
X140719Y58253D01*
X141305Y58645D01*
X141697Y59231D01*
X141834Y59922D01*
X141697Y60613D01*
X141305Y61199D01*
X140719Y61591D01*
X140028Y61728D01*
D02*
G37*
%LPD*%
D13*
X116891Y109291D02*
X127591Y98591D01*
Y94433D02*
Y98591D01*
X126126Y91506D02*
X169789D01*
X117692Y99940D02*
X126126Y91506D01*
X93397Y99940D02*
X117692D01*
X117330Y97582D02*
X125095Y89817D01*
X100153Y97582D02*
X117330D01*
X117139Y95296D02*
X132448Y79987D01*
X101271Y95296D02*
X117139D01*
X132448Y79987D02*
X144165D01*
X125095Y89817D02*
X170049D01*
X173465Y93233D01*
X36922Y34352D02*
X100153Y97582D01*
X21991Y28534D02*
X93397Y99940D01*
X21991Y18576D02*
Y28534D01*
X162316Y60407D02*
Y78171D01*
X127066Y50966D02*
Y78067D01*
X124568Y80564D02*
X127066Y78067D01*
X88562Y72549D02*
X109729D01*
X55822Y39809D02*
X88562Y72549D01*
X109857Y72421D02*
X114104D01*
X212115Y114586D02*
X217066Y109635D01*
X193107Y114586D02*
X212115D01*
X207263Y79635D02*
X217066D01*
X193107Y93791D02*
X207263Y79635D01*
X207753Y69635D02*
X217066D01*
X193175Y84213D02*
X207753Y69635D01*
X210821Y59635D02*
X217066D01*
X193175Y77281D02*
X210821Y59635D01*
X193175Y70349D02*
X213889Y49635D01*
X217066D01*
X216958Y39635D02*
X217066D01*
X198805Y57787D02*
X216958Y39635D01*
X17609Y12958D02*
X21991Y8576D01*
X17609Y12958D02*
Y55543D01*
X31991Y8576D02*
X36922Y13507D01*
Y34352D01*
X41991Y18576D02*
Y33094D01*
X95518Y86621D01*
X109114D01*
X109857Y85878D01*
X51991Y18576D02*
X55822Y22407D01*
Y39809D01*
X61991Y18576D02*
Y35487D01*
X89958Y63454D02*
X109857D01*
X61991Y35487D02*
X89958Y63454D01*
X112583Y41470D02*
Y45966D01*
X121814Y55197D01*
X116218Y41436D02*
Y44950D01*
X124900Y53633D01*
X119875Y41436D02*
Y43776D01*
X127066Y50966D01*
X123523Y41470D02*
X127505Y45452D01*
X146137D01*
X150927Y50241D01*
Y77402D01*
X146100Y82228D02*
X150927Y77402D01*
X173465Y93233D02*
Y114836D01*
X177380Y118751D01*
X124900Y53633D02*
Y76099D01*
X121814Y55197D02*
Y72791D01*
X89857Y58566D02*
X109509D01*
X109857Y58914D01*
Y90363D02*
X114182D01*
X109896Y85839D02*
X114240D01*
X110050Y81585D02*
X114240D01*
X114104Y72421D02*
X114241Y72558D01*
X169031Y75513D02*
Y80096D01*
X169105Y80170D01*
X175366Y70920D02*
X175885Y71439D01*
Y80097D01*
X172476Y72290D02*
Y76271D01*
X172468Y76279D02*
X172476Y76271D01*
X165792Y80216D02*
Y83893D01*
X165933Y84034D01*
X165792Y73147D02*
Y76279D01*
Y73147D02*
X166513Y72426D01*
X177087Y118751D02*
X177380D01*
X166362Y111665D02*
Y116183D01*
X165727Y116818D02*
X165918Y117009D01*
X165727Y116818D02*
X166362Y116183D01*
X157969Y98822D02*
Y103011D01*
Y98822D02*
X158191Y98600D01*
X158040Y74102D02*
Y77692D01*
Y74102D02*
X158440Y73702D01*
X160585Y54358D02*
X164516D01*
X160176Y54767D02*
X160585Y54358D01*
X162316Y60407D02*
X167685Y55038D01*
X168663D01*
X171652Y93369D02*
Y118165D01*
X172913Y119426D01*
X169789Y91506D02*
X171652Y93369D01*
X146126Y102090D02*
Y115806D01*
X17609Y55543D02*
X67885Y105819D01*
X88044D01*
X88456Y105407D01*
X170306Y18090D02*
X170783Y17613D01*
D16*
X-12Y-2D02*
Y214839D01*
Y-2D02*
X238718D01*
Y214839D01*
X-12D02*
X238718D01*
D18*
X141716Y52158D02*
D03*
X135810D02*
D03*
D21*
X162174Y183453D02*
D03*
X155874Y183445D02*
D03*
X149575Y177146D02*
D03*
X82960Y163924D02*
D03*
X149575Y170764D02*
D03*
X146425Y183468D02*
D03*
X149575D02*
D03*
X152726D02*
D03*
X149575Y180296D02*
D03*
X162230Y164548D02*
D03*
X140184Y152834D02*
D03*
X159024Y170813D02*
D03*
X152725Y173996D02*
D03*
X149581D02*
D03*
X127591Y94433D02*
D03*
X45060Y90205D02*
D03*
X70147Y99185D02*
D03*
X36942Y155098D02*
D03*
X86996Y207231D02*
D03*
X95323Y168037D02*
D03*
X91906Y179450D02*
D03*
X87270Y189168D02*
D03*
X87386Y88162D02*
D03*
X101271Y95296D02*
D03*
X76356Y195757D02*
D03*
X59376Y166091D02*
D03*
X105772Y149355D02*
D03*
X103840Y179706D02*
D03*
X86738Y195085D02*
D03*
X95826Y175837D02*
D03*
X109209Y168255D02*
D03*
X146425Y167697D02*
D03*
X143467Y151664D02*
D03*
X128774Y196394D02*
D03*
X127761Y202189D02*
D03*
X127714Y205647D02*
D03*
X130184Y167960D02*
D03*
X137654Y171803D02*
D03*
X80649Y9662D02*
D03*
X133851Y15067D02*
D03*
X140189Y14599D02*
D03*
X126467Y16535D02*
D03*
X45055Y123525D02*
D03*
X49430Y115492D02*
D03*
X29203Y130656D02*
D03*
X22723Y119264D02*
D03*
X18164Y122711D02*
D03*
X169769Y145129D02*
D03*
X152725Y164547D02*
D03*
X159024Y173996D02*
D03*
X162178Y180300D02*
D03*
X133437Y158906D02*
D03*
X162174Y177146D02*
D03*
X164925Y151610D02*
D03*
X162176Y170844D02*
D03*
X162158Y167713D02*
D03*
X141646Y195363D02*
D03*
X155874Y177146D02*
D03*
Y180296D02*
D03*
X149575Y186595D02*
D03*
X159024Y183445D02*
D03*
X165323Y167697D02*
D03*
X165324Y170846D02*
D03*
X165325Y173994D02*
D03*
X165323Y177146D02*
D03*
Y180296D02*
D03*
X165326Y183448D02*
D03*
X155867Y167690D02*
D03*
X159024Y186595D02*
D03*
X162099Y202044D02*
D03*
X155874Y164548D02*
D03*
X165226Y155723D02*
D03*
X156028Y155707D02*
D03*
X150649Y150565D02*
D03*
X146554Y152678D02*
D03*
D24*
X173912Y47490D02*
D03*
Y41584D02*
D03*
X79617Y15290D02*
D03*
Y21196D02*
D03*
D53*
X145205Y195363D02*
D03*
X149142D02*
D03*
X79202Y190945D02*
D03*
X83139D02*
D03*
X141714Y147404D02*
D03*
X145651D02*
D03*
X106315Y134250D02*
D03*
X110252D02*
D03*
X118177Y90421D02*
D03*
X114240D02*
D03*
X118177Y85839D02*
D03*
X114240D02*
D03*
X114241Y81585D02*
D03*
X118178D02*
D03*
Y72558D02*
D03*
X114241D02*
D03*
D54*
X116218Y37499D02*
D03*
Y41436D02*
D03*
X119875Y37499D02*
D03*
Y41436D02*
D03*
X123523Y37533D02*
D03*
Y41470D02*
D03*
X112583Y37533D02*
D03*
Y41470D02*
D03*
X153567Y145196D02*
D03*
Y149133D02*
D03*
X156601Y145204D02*
D03*
Y149141D02*
D03*
X159678Y145169D02*
D03*
Y149106D02*
D03*
X162842Y145022D02*
D03*
Y148959D02*
D03*
X162120Y198431D02*
D03*
Y194494D02*
D03*
X89609Y185914D02*
D03*
Y181977D02*
D03*
X83395Y203918D02*
D03*
Y199981D02*
D03*
X86876Y199956D02*
D03*
Y203893D02*
D03*
X122026Y156465D02*
D03*
Y152528D02*
D03*
X118465Y152585D02*
D03*
Y156522D02*
D03*
X45175Y119472D02*
D03*
Y115535D02*
D03*
X18233Y119377D02*
D03*
Y115440D02*
D03*
X89838Y15502D02*
D03*
Y19439D02*
D03*
X146212Y115892D02*
D03*
Y119829D02*
D03*
X175885Y84034D02*
D03*
Y80097D02*
D03*
X164516Y50421D02*
D03*
Y54358D02*
D03*
X165792Y80216D02*
D03*
Y76279D02*
D03*
X172468Y80216D02*
D03*
Y76279D02*
D03*
X168286Y50391D02*
D03*
Y54328D02*
D03*
X169105Y84107D02*
D03*
Y80170D02*
D03*
X165961Y98378D02*
D03*
Y94441D02*
D03*
X166362Y111665D02*
D03*
Y107728D02*
D03*
X158191Y98600D02*
D03*
Y94663D02*
D03*
X158040Y77692D02*
D03*
Y81629D02*
D03*
X88456Y117516D02*
D03*
Y113579D02*
D03*
Y109344D02*
D03*
Y105407D02*
D03*
D55*
X162166Y183461D02*
Y194449D01*
Y183461D02*
X162174Y183453D01*
X162120Y194494D02*
X162166Y194449D01*
X155874Y183445D02*
X155875Y183446D01*
Y186767D01*
X148920Y175574D02*
X148923Y175571D01*
X154300D02*
X155874Y177146D01*
X135270Y177610D02*
X142009D01*
X135635Y175574D02*
X148920D01*
X148923Y175571D02*
X154300D01*
X142473Y177146D02*
X149575D01*
X128784Y171124D02*
X135270Y177610D01*
X142009D02*
X142473Y177146D01*
X129704Y169643D02*
X135635Y175574D01*
X98907Y151845D02*
X130574D01*
X82960Y163924D02*
X86828D01*
X142291Y172339D02*
X151067D01*
X136043Y166091D02*
X142291Y172339D01*
X151067D02*
X152725Y173996D01*
X59376Y166091D02*
X136043D01*
X142198Y192096D02*
X150546D01*
X127714Y205647D02*
X127771Y205590D01*
X128704D01*
X142198Y192096D01*
X156966Y187347D02*
Y187540D01*
X157056Y185413D02*
X159024Y183445D01*
X150546Y192096D02*
X155875Y186767D01*
X156966Y187347D02*
X157056Y187256D01*
Y185413D02*
Y187256D01*
X149895Y190662D02*
X152726Y187831D01*
Y183468D02*
Y187831D01*
X141403Y190662D02*
X149895D01*
X149552Y183468D02*
X149575D01*
X146403Y183445D02*
X146425Y183468D01*
X142560Y183445D02*
X146403D01*
X143755Y189265D02*
X149552Y183468D01*
X127996Y181893D02*
X154277D01*
X155874Y180296D01*
X121121Y175018D02*
X127996Y181893D01*
X129385Y180296D02*
X149575D01*
X154280Y156827D02*
X158004Y160551D01*
Y169838D02*
X158979Y170813D01*
X158004Y160551D02*
Y169838D01*
X159051Y154001D02*
X160655Y155604D01*
X156577Y153197D02*
X158004Y154624D01*
Y158237D02*
X159474Y159706D01*
X162188Y148488D02*
Y164507D01*
X160655Y166210D02*
X162158Y167713D01*
X158004Y154624D02*
Y158237D01*
X160655Y155604D02*
Y166210D01*
X162188Y164507D02*
X162230Y164548D01*
X159051Y149407D02*
Y154001D01*
X141714Y147404D02*
X141836Y147526D01*
Y160097D02*
X157091Y175352D01*
X141836Y147526D02*
Y160097D01*
X158979Y170813D02*
X159024D01*
X143467Y151664D02*
Y158012D01*
X157843Y172388D02*
X159941D01*
X143467Y158012D02*
X157843Y172388D01*
X86828Y163924D02*
X98907Y151845D01*
X98410Y171124D02*
X128784D01*
X95323Y168037D02*
X98410Y171124D01*
X145651Y151775D02*
X146554Y152678D01*
X145651Y147404D02*
Y151775D01*
X86996Y203480D02*
Y207231D01*
X87270Y189168D02*
X87355Y189083D01*
Y188168D02*
Y189083D01*
Y188168D02*
X89609Y185914D01*
X97064D02*
X97964Y186814D01*
X89609Y185914D02*
X97064D01*
X28924Y185145D02*
X69924D01*
X24205Y189864D02*
X28924Y185145D01*
X24205Y189864D02*
Y201107D01*
X19360Y205952D02*
X24205Y201107D01*
X69924Y185145D02*
X75724Y190945D01*
X79202D01*
X86738Y194544D02*
Y195085D01*
X83139Y190945D02*
X86738Y194544D01*
X79202Y188745D02*
Y190945D01*
X29360Y205952D02*
X34479Y200833D01*
Y193536D02*
Y200833D01*
Y193536D02*
X40345Y187670D01*
X68269D01*
X76356Y195757D01*
X105772Y149355D02*
X105856D01*
X107807Y147404D01*
X141714D01*
X79202Y188745D02*
X95003Y172944D01*
X122033D01*
X96645Y175018D02*
X121121D01*
X95826Y175837D02*
X96645Y175018D01*
X69360Y195952D02*
X70940D01*
X109209Y168255D02*
X110597Y169643D01*
X129704D01*
X70940Y195952D02*
X78906Y203918D01*
X83395D01*
X94509Y199894D02*
X97964Y203349D01*
X88332Y199894D02*
X94509D01*
X88245Y199981D02*
X88332Y199894D01*
X83395Y199981D02*
X88245D01*
X130574Y151845D02*
X146425Y167697D01*
X122033Y172944D02*
X129385Y180296D01*
X129876Y202189D02*
X141403Y190662D01*
X139445Y189265D02*
X143755D01*
X132495Y196215D02*
X139445Y189265D01*
X128953Y196215D02*
X132495D01*
X128774Y196394D02*
X128953Y196215D01*
X127761Y202189D02*
X129876D01*
X162174Y174620D02*
Y177146D01*
X159941Y172388D02*
X162174Y174620D01*
X152680Y161081D02*
X152725Y161126D01*
Y164547D01*
X155874Y162425D02*
Y164548D01*
X154530Y161081D02*
X155874Y162425D01*
X157091Y175352D02*
X157230D01*
X162178Y180300D01*
X154280Y149705D02*
Y156827D01*
X154232Y149657D02*
X154280Y149705D01*
X156577Y149293D02*
Y153197D01*
X159474Y159706D02*
Y168141D01*
X162176Y170844D01*
X162188Y148488D02*
X162292Y148384D01*
X149142Y195363D02*
X156966Y187540D01*
X117964Y186814D02*
X139191D01*
X142560Y183445D01*
D56*
X122009Y160363D02*
X122026Y160346D01*
Y156465D02*
Y160346D01*
X117964Y210817D02*
X117974Y210827D01*
X117964Y203414D02*
Y210817D01*
X89609Y181747D02*
X91906Y179450D01*
X89609Y181747D02*
Y181977D01*
X79829Y15078D02*
X86453D01*
X79617Y15290D02*
X79829Y15078D01*
X45055Y119592D02*
X45175Y119472D01*
X45055Y119592D02*
Y123525D01*
X22723Y119264D02*
X22760Y119227D01*
X27655D01*
X18233Y119377D02*
Y122711D01*
X18164D02*
X18233D01*
X153567Y145196D02*
X169702D01*
X169769Y145129D01*
X86453Y15488D02*
X89824D01*
X89838Y15502D01*
X168617Y41574D02*
X173902D01*
X173912Y41584D01*
X154695Y94663D02*
X158191D01*
X154672Y94640D02*
X154695Y94663D01*
X154168Y81629D02*
X158040D01*
X162567Y94441D02*
X165961D01*
X162394Y94268D02*
X162567Y94441D01*
X164516Y50421D02*
X167679D01*
X164516Y47075D02*
Y50421D01*
Y47075D02*
X165922Y45669D01*
X172468Y80216D02*
Y80744D01*
X169105Y84107D02*
X172468Y80744D01*
X166006Y84107D02*
X169105D01*
X165933Y84034D02*
X166006Y84107D01*
X110252Y134250D02*
X116888D01*
X116891Y125891D02*
Y134253D01*
D58*
X205744Y99635D02*
X217066D01*
X197725Y107654D02*
X205744Y99635D01*
X193107Y107654D02*
X197725D01*
X207903Y89635D02*
X217066D01*
X196815Y100723D02*
X207903Y89635D01*
X193107Y100723D02*
X196815D01*
X113625Y156571D02*
X113674Y156522D01*
X118465D01*
X152249Y101779D02*
Y117206D01*
X149626Y119829D02*
X152249Y117206D01*
X146212Y119829D02*
X149626D01*
X120647Y77196D02*
Y81585D01*
X118178Y74727D02*
X120647Y77196D01*
X118178Y72558D02*
Y74727D01*
X118177Y81585D02*
Y85839D01*
Y90421D01*
Y81585D02*
X120647D01*
X89838Y19439D02*
Y23831D01*
X89840Y23833D01*
X166362Y103682D02*
Y107728D01*
X165472Y102792D02*
X165790Y102474D01*
Y98549D02*
Y102474D01*
Y98549D02*
X165961Y98378D01*
X165472Y102792D02*
X166362Y103682D01*
X165668Y87651D02*
X165714Y87697D01*
X172222D01*
X175885Y84034D01*
X99182Y134250D02*
X106315D01*
X96891Y131959D02*
X99182Y134250D01*
X96891Y109291D02*
Y125827D01*
Y131959D01*
X88509Y109291D02*
X96891D01*
X88456Y109344D02*
X88509Y109291D01*
X88456Y109344D02*
Y113579D01*
Y117516D02*
Y122081D01*
D59*
X18233Y105932D02*
X19561Y104604D01*
X18233Y105932D02*
Y115440D01*
X45175Y115535D02*
X49473D01*
X49430Y115492D02*
X49473Y115535D01*
X45127Y115487D02*
X45175Y115535D01*
X37104Y115487D02*
X45127D01*
X29114Y130567D02*
X29203Y130656D01*
X29114Y130522D02*
Y130567D01*
X27655Y129063D02*
X29114Y130522D01*
X27655Y122967D02*
Y129063D01*
X18233Y115440D02*
X18280Y115487D01*
X27655D01*
X27560Y122872D02*
X27655Y122967D01*
X178150Y58710D02*
Y60769D01*
X173720Y54280D02*
X178150Y58710D01*
X79617Y21196D02*
Y25803D01*
X79639Y25825D01*
X173912Y47490D02*
Y54088D01*
X173720Y54280D02*
X173912Y54088D01*
D60*
X66541Y35250D02*
X89857Y58566D01*
X66541Y14026D02*
X71991Y8576D01*
X66541Y14026D02*
Y35250D01*
X222075Y137194D02*
X226871Y141990D01*
X212031Y137194D02*
X222075D01*
X181528Y167697D02*
X212031Y137194D01*
X165323Y167697D02*
X181528D01*
X221831Y146950D02*
X226871Y151990D01*
X208253Y146950D02*
X221831D01*
X184357Y170846D02*
X208253Y146950D01*
X165324Y170846D02*
X184357D01*
X221896Y157015D02*
X226871Y161990D01*
X209015Y157015D02*
X221896D01*
X192036Y173994D02*
X209015Y157015D01*
X165325Y173994D02*
X192036D01*
X197955Y177146D02*
X197992Y177183D01*
X165323Y177146D02*
X197955D01*
X197992Y177183D02*
X208085Y167090D01*
X221971D01*
X226871Y171990D01*
X222027Y177146D02*
X226871Y181990D01*
X208452Y177146D02*
X222027D01*
X205303Y180296D02*
X208452Y177146D01*
X165323Y180296D02*
X205303D01*
X212708Y187827D02*
X216871Y191990D01*
X169705Y187827D02*
X212708D01*
X165326Y183448D02*
X169705Y187827D01*
D62*
X162099Y202044D02*
X162120Y202023D01*
Y198431D02*
Y202023D01*
X141646Y195363D02*
X145205D01*
D63*
X141913Y51961D02*
X145866D01*
X141716Y52158D02*
X141913Y51961D01*
X135805Y52153D02*
X135810Y52158D01*
X135805Y47617D02*
Y52153D01*
X145866Y51961D02*
X147847Y53942D01*
X148761D01*
D64*
X225598Y19188D02*
D03*
Y9188D02*
D03*
X215598Y19188D02*
D03*
X19561Y104604D02*
D03*
X9561D02*
D03*
X9792Y136658D02*
D03*
D65*
X215598Y9188D02*
D03*
X29561Y104604D02*
D03*
X19792Y136658D02*
D03*
D66*
X39360Y205952D02*
D03*
Y195952D02*
D03*
X29360Y205952D02*
D03*
Y195952D02*
D03*
X9360Y205952D02*
D03*
X19360Y195952D02*
D03*
Y205952D02*
D03*
X49360Y195952D02*
D03*
Y205952D02*
D03*
X59360Y195952D02*
D03*
X69360D02*
D03*
X59360Y205952D02*
D03*
X69360D02*
D03*
X216871Y181990D02*
D03*
X226871D02*
D03*
X216871Y171990D02*
D03*
X226871D02*
D03*
X216871Y141990D02*
D03*
X226871D02*
D03*
X216871Y131990D02*
D03*
X226871Y151990D02*
D03*
X216871D02*
D03*
X226871Y161990D02*
D03*
X216871D02*
D03*
X226871Y191990D02*
D03*
Y201990D02*
D03*
X216871Y191990D02*
D03*
Y201990D02*
D03*
X217066Y89635D02*
D03*
X227066D02*
D03*
X217066Y79635D02*
D03*
X227066D02*
D03*
X217066Y49635D02*
D03*
X227066D02*
D03*
X217066Y39635D02*
D03*
X227066Y59635D02*
D03*
X217066D02*
D03*
X227066Y69635D02*
D03*
X217066D02*
D03*
X227066Y99635D02*
D03*
Y109635D02*
D03*
X217066Y99635D02*
D03*
Y109635D02*
D03*
X41991Y8576D02*
D03*
Y18576D02*
D03*
X51991Y8576D02*
D03*
Y18576D02*
D03*
X71991Y8576D02*
D03*
X61991Y18576D02*
D03*
Y8576D02*
D03*
X31991Y18576D02*
D03*
Y8576D02*
D03*
X21991Y18576D02*
D03*
X11991D02*
D03*
X21991Y8576D02*
D03*
X11991D02*
D03*
D67*
X9360Y195952D02*
D03*
X71991Y18576D02*
D03*
D68*
X226871Y131990D02*
D03*
X227066Y39635D02*
D03*
D69*
X161342Y135106D02*
D03*
D70*
X200739Y121646D02*
D03*
X175875Y141824D02*
D03*
X190455Y128936D02*
D03*
X205035Y208996D02*
D03*
X189804Y208215D02*
D03*
X200609Y193765D02*
D03*
X196574Y185044D02*
D03*
X198917Y163173D02*
D03*
X193970Y149114D02*
D03*
X195662Y139090D02*
D03*
X203473Y110320D02*
D03*
X201260Y90403D02*
D03*
X45333Y69281D02*
D03*
X159160Y207249D02*
D03*
X198805Y57787D02*
D03*
X67798Y177303D02*
D03*
X78740Y177454D02*
D03*
X113625Y156571D02*
D03*
X122009Y160363D02*
D03*
X117974Y210827D02*
D03*
X174345Y5039D02*
D03*
X164480Y24140D02*
D03*
X38932Y49775D02*
D03*
X126692Y173862D02*
D03*
X169078Y121828D02*
D03*
X126644Y115437D02*
D03*
X136684Y120077D02*
D03*
X127018Y105148D02*
D03*
X152249Y101779D02*
D03*
X116906Y134268D02*
D03*
X76213Y109285D02*
D03*
X84775Y130369D02*
D03*
X81274Y118848D02*
D03*
X190628Y13811D02*
D03*
X194660Y24362D02*
D03*
X190628Y34286D02*
D03*
X193107Y114586D02*
D03*
Y107654D02*
D03*
Y100723D02*
D03*
Y93791D02*
D03*
X193175Y84213D02*
D03*
Y77281D02*
D03*
Y70349D02*
D03*
X174002Y58798D02*
D03*
X180973Y54146D02*
D03*
X178150Y60769D02*
D03*
X158440Y73702D02*
D03*
X161843Y102918D02*
D03*
X164176Y125148D02*
D03*
X157969Y103011D02*
D03*
X133663Y67913D02*
D03*
X136927Y63861D02*
D03*
X130252Y61107D02*
D03*
X140028Y59922D02*
D03*
X142273Y48694D02*
D03*
X135805Y47617D02*
D03*
X140325Y38163D02*
D03*
X144165Y79987D02*
D03*
X146100Y82228D02*
D03*
X124568Y80564D02*
D03*
X120675Y77224D02*
D03*
X124900Y76099D02*
D03*
X121814Y72791D02*
D03*
X173720Y54280D02*
D03*
X54648Y143555D02*
D03*
X75648Y154555D02*
D03*
X109857Y72421D02*
D03*
Y58914D02*
D03*
Y81392D02*
D03*
Y85878D02*
D03*
Y63454D02*
D03*
Y90363D02*
D03*
X182928Y47296D02*
D03*
X143770Y134525D02*
D03*
X137115Y134485D02*
D03*
X97483Y90486D02*
D03*
X169031Y75513D02*
D03*
X172476Y72290D02*
D03*
X175366Y70920D02*
D03*
X165933Y84034D02*
D03*
X79639Y25825D02*
D03*
X86453Y15488D02*
D03*
X89840Y23833D02*
D03*
X106225Y26759D02*
D03*
X111125Y11446D02*
D03*
X178185Y29722D02*
D03*
X170306Y18090D02*
D03*
X168617Y41574D02*
D03*
X135052Y59680D02*
D03*
X144504Y74090D02*
D03*
X160176Y54767D02*
D03*
X148761Y53942D02*
D03*
X162316Y78171D02*
D03*
X166513Y72426D02*
D03*
X177380Y118751D02*
D03*
X172913Y119426D02*
D03*
X165918Y117009D02*
D03*
X165790Y102474D02*
D03*
X154672Y94640D02*
D03*
X154168Y81629D02*
D03*
X162394Y94268D02*
D03*
X167497Y133050D02*
D03*
X165922Y45669D02*
D03*
X155640Y52457D02*
D03*
X152300Y44651D02*
D03*
X149747Y23060D02*
D03*
X165668Y87651D02*
D03*
X150539Y136518D02*
D03*
X146126Y102090D02*
D03*
X174291Y133593D02*
D03*
X88456Y122081D02*
D03*
X194751Y41976D02*
D03*
D71*
X49148Y151555D02*
D03*
X84148Y147055D02*
D03*
X26213Y87516D02*
D03*
D83*
X154530Y161081D02*
D03*
X152680D02*
D03*
D84*
X117964Y186814D02*
D03*
X97964D02*
D03*
X117964Y203414D02*
D03*
X97964Y203349D02*
D03*
X116891Y109291D02*
D03*
X96891D02*
D03*
X116891Y125891D02*
D03*
X96891Y125827D02*
D03*
D85*
X37104Y115487D02*
D03*
Y122967D02*
D03*
X27655D02*
D03*
Y119227D02*
D03*
Y115487D02*
D03*
M02*
