G04*
G04 #@! TF.GenerationSoftware,Altium Limited,Altium NEXUS,3.1.12 (69)*
G04*
G04 Layer_Color=128*
%FSLAX25Y25*%
%MOIN*%
G70*
G04*
G04 #@! TF.SameCoordinates,C12BC461-16F2-471F-B13C-3D38B02939EA*
G04*
G04*
G04 #@! TF.FilePolarity,Positive*
G04*
G01*
G75*
%ADD16C,0.00000*%
%ADD18R,0.03150X0.03150*%
%ADD19R,0.01575X0.01575*%
%ADD20R,0.01575X0.01575*%
%ADD24R,0.03150X0.03150*%
%ADD83R,0.01102X0.01181*%
%ADD84R,0.07087X0.07874*%
%ADD85R,0.04134X0.02362*%
D16*
X-12Y-2D02*
Y214839D01*
Y-2D02*
X238718D01*
Y214839D01*
X-12D02*
X238718D01*
D18*
X141716Y52158D02*
D03*
X135810D02*
D03*
D19*
X145205Y195363D02*
D03*
X149142D02*
D03*
X79202Y190945D02*
D03*
X83139D02*
D03*
X141714Y147404D02*
D03*
X145651D02*
D03*
X106315Y134250D02*
D03*
X110252D02*
D03*
X118177Y90421D02*
D03*
X114240D02*
D03*
X118177Y85839D02*
D03*
X114240D02*
D03*
X114241Y81585D02*
D03*
X118178D02*
D03*
Y72558D02*
D03*
X114241D02*
D03*
D20*
X116218Y37499D02*
D03*
Y41436D02*
D03*
X119875Y37499D02*
D03*
Y41436D02*
D03*
X123523Y37533D02*
D03*
Y41470D02*
D03*
X112583Y37533D02*
D03*
Y41470D02*
D03*
X153567Y145196D02*
D03*
Y149133D02*
D03*
X156601Y145204D02*
D03*
Y149141D02*
D03*
X159678Y145169D02*
D03*
Y149106D02*
D03*
X162842Y145022D02*
D03*
Y148959D02*
D03*
X162120Y198431D02*
D03*
Y194494D02*
D03*
X89609Y185914D02*
D03*
Y181977D02*
D03*
X83395Y203918D02*
D03*
Y199981D02*
D03*
X86876Y199956D02*
D03*
Y203893D02*
D03*
X122026Y156465D02*
D03*
Y152528D02*
D03*
X118465Y152585D02*
D03*
Y156522D02*
D03*
X45175Y119472D02*
D03*
Y115535D02*
D03*
X18233Y119377D02*
D03*
Y115440D02*
D03*
X89838Y15502D02*
D03*
Y19439D02*
D03*
X146212Y115892D02*
D03*
Y119829D02*
D03*
X175885Y84034D02*
D03*
Y80097D02*
D03*
X164516Y50421D02*
D03*
Y54358D02*
D03*
X165792Y80216D02*
D03*
Y76279D02*
D03*
X172468Y80216D02*
D03*
Y76279D02*
D03*
X168286Y50391D02*
D03*
Y54328D02*
D03*
X169105Y84107D02*
D03*
Y80170D02*
D03*
X165961Y98378D02*
D03*
Y94441D02*
D03*
X166362Y111665D02*
D03*
Y107728D02*
D03*
X158191Y98600D02*
D03*
Y94663D02*
D03*
X158040Y77692D02*
D03*
Y81629D02*
D03*
X88456Y117516D02*
D03*
Y113579D02*
D03*
Y109344D02*
D03*
Y105407D02*
D03*
D24*
X173912Y47490D02*
D03*
Y41584D02*
D03*
X79617Y15290D02*
D03*
Y21196D02*
D03*
D83*
X154530Y161081D02*
D03*
X152680D02*
D03*
D84*
X117964Y186814D02*
D03*
X97964D02*
D03*
X117964Y203414D02*
D03*
X97964Y203349D02*
D03*
X116891Y109291D02*
D03*
X96891D02*
D03*
X116891Y125891D02*
D03*
X96891Y125827D02*
D03*
D85*
X37104Y115487D02*
D03*
Y122967D02*
D03*
X27655D02*
D03*
Y119227D02*
D03*
Y115487D02*
D03*
M02*
