M48
;Layer_Color=9474304
;FILE_FORMAT=2:5
INCH,LZ
T7F00S00C0.09449
%
G90
G05
T07
G00X0240021Y-0004525
M15
G01X0241263Y-0003945
G01X0242286Y-0003033
G01X0243005Y-0001865
G01X0243389Y0
G01X0243389Y0214868
G01X024319Y0216225
G01X024261Y0217467
G01X0241697Y021849
G01X0240529Y0219209
G01X0238664Y0219592
G01X0Y0219592
G01X-0001356Y0219394
G01X-0002599Y0218813
G01X-0003622Y0217901
G01X-000434Y0216733
G01X-0004724Y0214868
G01X-0004724Y0
G01X-0004525Y-0001356
G01X-0003945Y-0002599
G01X-0003033Y-0003622
G01X-0001865Y-0004341
G01X0Y-0004724
G01X0238664Y-0004724
G01X0240021Y-0004525
M16
M17
M30
