M48
;Layer_Color=9474304
;FILE_FORMAT=2:5
INCH,LZ
;TYPE=PLATED
T1F00S00C0.00591
T2F00S00C0.01181
T3F00S00C0.01968
T4F00S00C0.02165
T5F00S00C0.03543
T6F00S00C0.04331
;TYPE=NON_PLATED
%
T01
X0080649Y0009662
X0087386Y0088162
X0101271Y0095296
X0070147Y0099185
X004506Y0090205
X004943Y0115492
X0045055Y0123525
X0022723Y0119264
X0018164Y0122711
X0127591Y0094433
X0126467Y0016535
X0133851Y0015067
X0140189Y0014599
X0140184Y0152834
X0143467Y0151664
X0146554Y0152678
X0150649Y0150565
X0156028Y0155707
X0155874Y0164548
X0155867Y016769
X0159024Y0170813
Y0173996
X0152725
X0149581
X0149575Y0177146
Y0180296
Y0183468
Y0186595
X0146425Y0183468
X0152726
X0155874Y0183445
Y0180296
Y0177146
X0162174
X0165323
Y0180296
X0162178Y01803
X0162174Y0183453
X0159024Y0183445
Y0186595
X0165326Y0183448
X0165325Y0173994
X0165324Y0170846
X0162176Y0170844
X0162158Y0167713
X0165323Y0167697
X016223Y0164548
X0152725Y0164547
X0149575Y0170764
X0146425Y0167697
X0137654Y0171803
X0130184Y016796
X0133437Y0158906
X0165226Y0155723
X0164925Y015161
X0169769Y0145129
X0162099Y0202044
X0141646Y0195363
X0128774Y0196394
X0127761Y0202189
X0127714Y0205647
X0086996Y0207231
X0086738Y0195085
X008727Y0189168
X0091906Y017945
X0095826Y0175837
X0095323Y0168037
X0109209Y0168255
X010384Y0179706
X0105772Y0149355
X008296Y0163924
X0059376Y0166091
X0036942Y0155098
X0029203Y0130656
X0076356Y0195757
T02
X0038932Y0049775
X0045333Y0069281
X0109857Y0072421
Y0063454
Y0058914
Y0081392
Y0085878
Y0090363
X0097483Y0090486
X0120675Y0077224
X0121814Y0072791
X0106225Y0026759
X008984Y0023833
X0086453Y0015488
X0079639Y0025825
X0111125Y0011446
X0076213Y0109285
X0081274Y0118848
X0088456Y0122081
X0126644Y0115437
X0127018Y0105148
X0146126Y010209
X0152249Y0101779
X0157969Y0103011
X0161843Y0102918
X016579Y0102474
X0162394Y0094268
X0154672Y009464
X0154168Y0081629
X01461Y0082228
X0144165Y0079987
X0144504Y007409
X015844Y0073702
X0162316Y0078171
X0169031Y0075513
X0166513Y0072426
X0172476Y007229
X0175366Y007092
X017815Y0060769
X0174002Y0058798
X017372Y005428
X0180973Y0054146
X0182928Y0047296
X0194751Y0041976
X0190628Y0034286
X019466Y0024362
X0190628Y0013811
X0170306Y001809
X016448Y002414
X0149747Y002306
X01523Y0044651
X015564Y0052457
X0160176Y0054767
X0148761Y0053942
X0142273Y0048694
X0135805Y0047617
X0135052Y005968
X0140028Y0059922
X0136927Y0063861
X0133663Y0067913
X0130252Y0061107
X01249Y0076099
X0124568Y0080564
X0165933Y0084034
X0165668Y0087651
X0165918Y0117009
X0169078Y0121828
X0172913Y0119426
X017738Y0118751
X0164176Y0125148
X0136684Y0120077
X0193107Y0114586
Y0107654
Y0100723
Y0093791
X0193175Y0084213
Y0077281
Y0070349
X0198805Y0057787
X020126Y0090403
X0203473Y011032
X0200739Y0121646
X0165922Y0045669
X0168617Y0041574
X0178185Y0029722
X0174345Y0005039
X0140325Y0038163
X0137115Y0134485
X014377Y0134525
X0150539Y0136518
X0167497Y013305
X0174291Y0133593
X0175875Y0141824
X0195662Y013909
X019397Y0149114
X0198917Y0163173
X0196574Y0185044
X0200609Y0193765
X0205035Y0208996
X0189804Y0208215
X015916Y0207249
X0126692Y0173862
X0190455Y0128936
X0116906Y0134268
X0113625Y0156571
X0122009Y0160363
X0075648Y0154555
X007874Y0177454
X0067798Y0177303
X0054648Y0143555
X0084775Y0130369
X0117974Y0210827
T03
X0026213Y0087516
X0049148Y0151555
X0084148Y0147055
T04
X0161342Y0135106
T05
X0009561Y0104604
X0019561
X0029561
X0215598Y0019188
X0225598
Y0009188
X0215598
X0019792Y0136658
X0009792
T06
X0011991Y0008576
Y0018576
X0021991
X0031991
X0041991
Y0008576
X0051991
Y0018576
X0061991
X0071991
Y0008576
X0061991
X0031991
X0021991
X0217066Y0039635
Y0049635
X0227066
Y0039635
Y0059635
X0217066
Y0069635
Y0079635
Y0089635
X0227066
Y0079635
Y0069635
Y0099635
Y0109635
X0217066
Y0099635
X0216871Y013199
Y014199
X0226871
Y013199
Y015199
X0216871
Y016199
Y017199
Y018199
X0226871
Y017199
Y016199
Y019199
Y020199
X0216871
Y019199
X006936Y0195952
X005936
X004936
X003936
Y0205952
X002936
Y0195952
X001936
X000936
Y0205952
X001936
X004936
X005936
X006936
M30
